<svg width="840" height="840" viewBox="0 0 840 840" fill="none" xmlns="http://www.w3.org/2000/svg">
<path d="M300 518H180C157.909 518 140 535.909 140 558V678C140 700.091 157.909 718 180 718H300C322.091 718 340 700.091 340 678V558C340 535.909 322.091 518 300 518Z" fill="#7BC86F"/>
<path d="M160.85 568L166.936 543.18H173.396L179.55 568H174.348L173.158 562.39H167.242L166.052 568H160.85ZM168.092 558.31H172.274L171.084 552.326C170.925 551.464 170.755 550.614 170.574 549.776C170.415 548.914 170.291 548.246 170.2 547.77C170.109 548.246 169.985 548.904 169.826 549.742C169.69 550.58 169.531 551.43 169.35 552.292L168.092 558.31ZM190.587 568.34C188.071 568.34 186.076 567.66 184.603 566.3C183.152 564.94 182.427 563.082 182.427 560.724V543.18H187.527V560.69C187.527 561.732 187.787 562.538 188.309 563.104C188.853 563.648 189.612 563.92 190.587 563.92C191.539 563.92 192.287 563.648 192.831 563.104C193.375 562.538 193.647 561.732 193.647 560.69V543.18H198.747V560.724C198.747 563.058 198.01 564.918 196.537 566.3C195.086 567.66 193.103 568.34 190.587 568.34ZM208.424 568V547.77H202.134V543.18H219.814V547.77H213.524V568H208.424ZM223.404 568V543.18H228.504V552.836H234.216V543.18H239.316V568H234.216V557.426H228.504V568H223.404ZM161.428 602V577.18H167.65L170.166 587.788L172.682 577.18H178.972V602H174.314V592.48C174.314 590.826 174.359 589.204 174.45 587.618C174.563 586.032 174.699 584.524 174.858 583.096C175.017 581.668 175.164 580.376 175.3 579.22L172.172 591.46H168.092L165.032 579.526C165.191 580.5 165.349 581.668 165.508 583.028C165.667 584.388 165.803 585.872 165.916 587.482C166.029 589.068 166.086 590.734 166.086 592.48V602H161.428ZM183.107 602V597.41H188.037V581.77H183.107V577.18H198.067V581.77H193.137V597.41H198.067V602H183.107ZM211.246 602.34C209.59 602.34 208.14 602.034 206.894 601.422C205.646 600.788 204.672 599.914 203.97 598.804C203.29 597.67 202.95 596.356 202.95 594.86V584.32C202.95 582.802 203.29 581.486 203.97 580.376C204.672 579.266 205.646 578.404 206.894 577.792C208.14 577.158 209.59 576.84 211.246 576.84C212.922 576.84 214.374 577.158 215.598 577.792C216.844 578.404 217.808 579.266 218.488 580.376C219.19 581.486 219.542 582.802 219.542 584.32H214.442C214.442 583.322 214.158 582.564 213.592 582.042C213.048 581.52 212.266 581.26 211.246 581.26C210.226 581.26 209.432 581.52 208.866 582.042C208.322 582.564 208.05 583.322 208.05 584.32V594.86C208.05 595.834 208.322 596.594 208.866 597.138C209.432 597.66 210.226 597.92 211.246 597.92C212.266 597.92 213.048 597.66 213.592 597.138C214.158 596.594 214.442 595.834 214.442 594.86H219.542C219.542 596.356 219.19 597.67 218.488 598.804C217.808 599.914 216.844 600.788 215.598 601.422C214.374 602.034 212.922 602.34 211.246 602.34ZM223.404 602V577.18H231.36C233.128 577.18 234.658 577.486 235.95 578.098C237.242 578.71 238.24 579.582 238.942 580.716C239.668 581.85 240.03 583.186 240.03 584.728C240.03 586.338 239.634 587.776 238.84 589.046C238.07 590.316 237.016 591.234 235.678 591.8L240.37 602H234.828L230.816 592.616H228.436V602H223.404ZM228.436 588.196H231.36C232.494 588.196 233.366 587.912 233.978 587.346C234.612 586.78 234.93 585.986 234.93 584.966C234.93 583.9 234.612 583.074 233.978 582.484C233.366 581.894 232.494 581.6 231.36 581.6H228.436V588.196ZM251.746 602.34C249.254 602.34 247.27 601.638 245.796 600.232C244.324 598.826 243.586 596.922 243.586 594.52V584.66C243.586 582.234 244.324 580.33 245.796 578.948C247.27 577.542 249.254 576.84 251.746 576.84C254.24 576.84 256.224 577.542 257.696 578.948C259.17 580.33 259.906 582.234 259.906 584.66V594.52C259.906 596.922 259.17 598.826 257.696 600.232C256.224 601.638 254.24 602.34 251.746 602.34ZM251.746 597.92C252.766 597.92 253.526 597.66 254.024 597.138C254.546 596.594 254.806 595.834 254.806 594.86V584.32C254.806 583.322 254.558 582.564 254.058 582.042C253.56 581.52 252.79 581.26 251.746 581.26C250.704 581.26 249.934 581.52 249.434 582.042C248.936 582.564 248.686 583.322 248.686 584.32V594.86C248.686 595.834 248.936 596.594 249.434 597.138C249.956 597.66 250.726 597.92 251.746 597.92ZM170.268 636.34C168.523 636.34 166.993 636.034 165.678 635.422C164.386 634.81 163.377 633.948 162.652 632.838C161.949 631.704 161.598 630.378 161.598 628.86H166.562C166.562 629.79 166.891 630.538 167.548 631.104C168.228 631.648 169.135 631.92 170.268 631.92C171.379 631.92 172.24 631.66 172.852 631.138C173.487 630.594 173.804 629.88 173.804 628.996C173.804 628.294 173.6 627.67 173.192 627.126C172.784 626.56 172.183 626.186 171.39 626.004L168.364 625.29C166.415 624.836 164.862 623.964 163.706 622.672C162.573 621.358 162.006 619.794 162.006 617.98C162.006 616.506 162.323 615.238 162.958 614.172C163.615 613.106 164.545 612.29 165.746 611.724C166.97 611.134 168.409 610.84 170.064 610.84C171.741 610.84 173.181 611.134 174.382 611.724C175.606 612.29 176.547 613.106 177.204 614.172C177.884 615.238 178.224 616.496 178.224 617.946H173.26C173.26 617.084 172.977 616.416 172.41 615.94C171.843 615.442 171.061 615.192 170.064 615.192C169.089 615.192 168.33 615.43 167.786 615.906C167.242 616.382 166.97 617.016 166.97 617.81C166.97 618.468 167.174 619 167.582 619.408C167.99 619.816 168.568 620.11 169.316 620.292L172.444 621.006C174.393 621.436 175.935 622.378 177.068 623.828C178.224 625.256 178.802 626.978 178.802 628.996C178.802 630.47 178.451 631.762 177.748 632.872C177.068 633.982 176.082 634.844 174.79 635.456C173.521 636.046 172.013 636.34 170.268 636.34ZM183.107 636V611.18H198.407V615.6H188.105V621.176H197.217V625.392H188.105V631.58H198.407V636H183.107ZM203.018 636V611.18H210.974C212.742 611.18 214.272 611.486 215.564 612.098C216.856 612.71 217.852 613.582 218.556 614.716C219.28 615.85 219.644 617.186 219.644 618.728C219.644 620.338 219.246 621.776 218.454 623.046C217.682 624.316 216.628 625.234 215.292 625.8L219.984 636H214.442L210.43 626.616H208.05V636H203.018ZM208.05 622.196H210.974C212.106 622.196 212.98 621.912 213.592 621.346C214.226 620.78 214.544 619.986 214.544 618.966C214.544 617.9 214.226 617.074 213.592 616.484C212.98 615.894 212.106 615.6 210.974 615.6H208.05V622.196ZM228.164 636L222.01 611.18H227.28L230.714 626.854C230.828 627.398 230.964 628.09 231.122 628.928C231.304 629.766 231.44 630.48 231.53 631.07C231.62 630.48 231.734 629.766 231.87 628.928C232.006 628.09 232.13 627.386 232.244 626.82L235.576 611.18H240.71L234.624 636H228.164ZM244.266 636V631.41H249.196V615.77H244.266V611.18H259.226V615.77H254.296V631.41H259.226V636H244.266ZM272.406 636.34C270.75 636.34 269.3 636.034 268.054 635.422C266.806 634.788 265.832 633.914 265.13 632.804C264.45 631.67 264.11 630.356 264.11 628.86V618.32C264.11 616.802 264.45 615.486 265.13 614.376C265.832 613.266 266.806 612.404 268.054 611.792C269.3 611.158 270.75 610.84 272.406 610.84C274.082 610.84 275.534 611.158 276.758 611.792C278.004 612.404 278.968 613.266 279.648 614.376C280.35 615.486 280.702 616.802 280.702 618.32H275.602C275.602 617.322 275.318 616.564 274.752 616.042C274.208 615.52 273.426 615.26 272.406 615.26C271.386 615.26 270.592 615.52 270.026 616.042C269.482 616.564 269.21 617.322 269.21 618.32V628.86C269.21 629.834 269.482 630.594 270.026 631.138C270.592 631.66 271.386 631.92 272.406 631.92C273.426 631.92 274.208 631.66 274.752 631.138C275.318 630.594 275.602 629.834 275.602 628.86H280.702C280.702 630.356 280.35 631.67 279.648 632.804C278.968 633.914 278.004 634.788 276.758 635.422C275.534 636.034 274.082 636.34 272.406 636.34ZM285.04 636V611.18H300.34V615.6H290.038V621.176H299.15V625.392H290.038V631.58H300.34V636H285.04Z" fill="black"/>
<path d="M163.296 664L160.4 652.32H162.88L164.496 659.696C164.549 659.952 164.613 660.278 164.688 660.672C164.773 661.066 164.837 661.402 164.88 661.68C164.923 661.402 164.976 661.066 165.04 660.672C165.104 660.278 165.163 659.946 165.216 659.68L166.784 652.32H169.2L166.336 664H163.296ZM170.874 664V652.32H178.074V654.4H173.226V657.024H177.514V659.008H173.226V661.92H178.074V664H170.874ZM180.243 664V652.32H183.988C184.82 652.32 185.54 652.464 186.148 652.752C186.756 653.04 187.225 653.45 187.556 653.984C187.897 654.518 188.068 655.146 188.068 655.872C188.068 656.63 187.881 657.306 187.508 657.904C187.145 658.502 186.649 658.934 186.02 659.2L188.227 664H185.62L183.732 659.584H182.612V664H180.243ZM182.612 657.504H183.988C184.521 657.504 184.932 657.37 185.22 657.104C185.518 656.838 185.668 656.464 185.668 655.984C185.668 655.482 185.518 655.094 185.22 654.816C184.932 654.538 184.521 654.4 183.988 654.4H182.612V657.504ZM190.061 664V661.84H192.381V654.48H190.061V652.32H197.101V654.48H194.781V661.84H197.101V664H190.061ZM199.495 664V652.32H207.016V654.56H201.864V657.152H206.598V659.392H201.896V664H199.495ZM211.568 664V659.84L208.208 652.32H210.72L212.192 655.84C212.342 656.192 212.47 656.566 212.576 656.96C212.694 657.354 212.774 657.674 212.816 657.92C212.87 657.674 212.944 657.354 213.04 656.96C213.148 656.566 213.27 656.192 213.408 655.84L214.832 652.32H217.328L213.968 659.84V664H211.568ZM230.756 664V654.48H227.796V652.32H236.116V654.48H233.156V664H230.756ZM241.55 664.16C240.376 664.16 239.444 663.83 238.75 663.168C238.056 662.506 237.71 661.61 237.71 660.48V655.84C237.71 654.698 238.056 653.802 238.75 653.152C239.444 652.49 240.376 652.16 241.55 652.16C242.724 652.16 243.656 652.49 244.35 653.152C245.044 653.802 245.39 654.698 245.39 655.84V660.48C245.39 661.61 245.044 662.506 244.35 663.168C243.656 663.83 242.724 664.16 241.55 664.16ZM241.55 662.08C242.03 662.08 242.388 661.958 242.622 661.712C242.868 661.456 242.99 661.098 242.99 660.64V655.68C242.99 655.21 242.872 654.854 242.638 654.608C242.404 654.362 242.04 654.24 241.55 654.24C241.06 654.24 240.696 654.362 240.462 654.608C240.228 654.854 240.11 655.21 240.11 655.68V660.64C240.11 661.098 240.228 661.456 240.462 661.712C240.708 661.958 241.07 662.08 241.55 662.08ZM247.384 664V652.32H249.784V656.896H250.904L252.856 652.32H255.448L253.016 657.84L255.544 664H252.92L250.92 658.992H249.784V664H247.384ZM257.218 664V652.32H264.418V654.4H259.57V657.024H263.858V659.008H259.57V661.92H264.418V664H257.218ZM266.492 664V652.32H269.292L272.316 661.36C272.284 660.966 272.246 660.512 272.204 660C272.16 659.478 272.124 658.96 272.092 658.448C272.07 657.926 272.06 657.482 272.06 657.12V652.32H274.172V664H271.372L268.38 654.96C268.412 655.302 268.444 655.706 268.476 656.176C268.508 656.646 268.534 657.12 268.556 657.6C268.588 658.08 268.604 658.506 268.604 658.88V664H266.492ZM174.634 680H171.946L174.106 674.16L171.946 668.32H174.634L176.794 674.192L174.634 680ZM184.228 680H181.539L183.7 674.16L181.539 668.32H184.228L186.388 674.192L184.228 680ZM193.821 680H191.133L193.293 674.16L191.133 668.32H193.821L195.981 674.192L193.821 680ZM179.86 696V684.32H182.788L183.972 689.312L185.156 684.32H188.116V696H185.924V691.52C185.924 690.742 185.945 689.978 185.988 689.232C186.041 688.486 186.105 687.776 186.18 687.104C186.254 686.432 186.324 685.824 186.388 685.28L184.916 691.04H182.996L181.556 685.424C181.63 685.882 181.705 686.432 181.78 687.072C181.854 687.712 181.918 688.41 181.972 689.168C182.025 689.914 182.052 690.698 182.052 691.52V696H179.86ZM189.181 696L192.045 684.32H195.085L197.981 696H195.533L194.973 693.36H192.189L191.629 696H189.181ZM192.589 691.44H194.557L193.997 688.624C193.923 688.218 193.843 687.818 193.757 687.424C193.683 687.018 193.624 686.704 193.581 686.48C193.539 686.704 193.48 687.014 193.405 687.408C193.341 687.802 193.267 688.202 193.181 688.608L192.589 691.44ZM199.335 696V684.32H202.136L205.16 693.36C205.128 692.966 205.09 692.512 205.048 692C205.004 691.478 204.968 690.96 204.936 690.448C204.914 689.926 204.904 689.482 204.904 689.12V684.32H207.016V696H204.216L201.224 686.96C201.256 687.302 201.288 687.706 201.32 688.176C201.352 688.646 201.378 689.12 201.4 689.6C201.432 690.08 201.448 690.506 201.448 690.88V696H199.335ZM208.368 696L211.232 684.32H214.272L217.168 696H214.72L214.16 693.36H211.376L210.816 696H208.368ZM211.776 691.44H213.744L213.184 688.624C213.11 688.218 213.03 687.818 212.944 687.424C212.87 687.018 212.812 686.704 212.768 686.48C212.726 686.704 212.668 687.014 212.592 687.408C212.528 687.802 212.454 688.202 212.368 688.608L211.776 691.44ZM222.426 696.16C221.648 696.16 220.966 696.016 220.378 695.728C219.792 695.43 219.334 695.018 219.002 694.496C218.682 693.962 218.522 693.344 218.522 692.64V687.68C218.522 686.966 218.682 686.346 219.002 685.824C219.334 685.302 219.792 684.896 220.378 684.608C220.966 684.31 221.648 684.16 222.426 684.16C223.216 684.16 223.898 684.31 224.474 684.608C225.062 684.896 225.514 685.302 225.834 685.824C226.166 686.346 226.33 686.966 226.33 687.68H223.93C223.93 687.21 223.798 686.854 223.53 686.608C223.274 686.362 222.906 686.24 222.426 686.24C221.946 686.24 221.574 686.362 221.306 686.608C221.05 686.854 220.922 687.21 220.922 687.68V692.64C220.922 693.098 221.05 693.456 221.306 693.712C221.574 693.958 221.946 694.08 222.426 694.08C222.906 694.08 223.274 693.958 223.53 693.712C223.798 693.456 223.93 693.098 223.93 692.64V691.552H222.202V689.52H226.33V692.64C226.33 693.344 226.166 693.962 225.834 694.496C225.514 695.018 225.062 695.43 224.474 695.728C223.898 696.016 223.216 696.16 222.426 696.16ZM228.436 696V684.32H235.636V686.4H230.788V689.024H235.076V691.008H230.788V693.92H235.636V696H228.436ZM247.4 696V684.32H251.384C252.206 684.32 252.92 684.474 253.528 684.784C254.146 685.094 254.622 685.526 254.952 686.08C255.294 686.634 255.464 687.286 255.464 688.032C255.464 688.768 255.294 689.418 254.952 689.984C254.61 690.538 254.136 690.97 253.528 691.28C252.92 691.59 252.206 691.744 251.384 691.744H249.8V696H247.4ZM249.8 689.664H251.384C251.896 689.664 252.302 689.51 252.6 689.2C252.91 688.89 253.064 688.502 253.064 688.032C253.064 687.562 252.91 687.174 252.6 686.864C252.302 686.554 251.896 686.4 251.384 686.4H249.8V689.664ZM256.994 696V684.32H260.738C261.57 684.32 262.29 684.464 262.898 684.752C263.506 685.04 263.974 685.45 264.306 685.984C264.646 686.518 264.818 687.146 264.818 687.872C264.818 688.63 264.63 689.306 264.258 689.904C263.894 690.502 263.398 690.934 262.77 691.2L264.978 696H262.37L260.482 691.584H259.362V696H256.994ZM259.362 689.504H260.738C261.27 689.504 261.682 689.37 261.97 689.104C262.268 688.838 262.418 688.464 262.418 687.984C262.418 687.482 262.268 687.094 261.97 686.816C261.682 686.538 261.27 686.4 260.738 686.4H259.362V689.504ZM270.332 696.16C269.158 696.16 268.224 695.83 267.532 695.168C266.838 694.506 266.492 693.61 266.492 692.48V687.84C266.492 686.698 266.838 685.802 267.532 685.152C268.224 684.49 269.158 684.16 270.332 684.16C271.504 684.16 272.438 684.49 273.132 685.152C273.824 685.802 274.172 686.698 274.172 687.84V692.48C274.172 693.61 273.824 694.506 273.132 695.168C272.438 695.83 271.504 696.16 270.332 696.16ZM270.332 694.08C270.812 694.08 271.168 693.958 271.404 693.712C271.648 693.456 271.772 693.098 271.772 692.64V687.68C271.772 687.21 271.654 686.854 271.42 686.608C271.184 686.362 270.822 686.24 270.332 686.24C269.84 686.24 269.478 686.362 269.244 686.608C269.008 686.854 268.892 687.21 268.892 687.68V692.64C268.892 693.098 269.008 693.456 269.244 693.712C269.488 693.958 269.852 694.08 270.332 694.08ZM276.246 696V684.32H283.766V686.56H278.614V689.152H283.348V691.392H278.646V696H276.246ZM285.998 696V693.84H288.318V686.48H285.998V684.32H293.038V686.48H290.718V693.84H293.038V696H285.998ZM296.152 696V684.32H298.552V693.84H303.272V696H296.152ZM305.186 696V684.32H312.386V686.4H307.538V689.024H311.826V691.008H307.538V693.92H312.386V696H305.186Z" fill="#33592D"/>
<path d="M672 118H552C529.909 118 512 135.909 512 158V278C512 300.091 529.909 318 552 318H672C694.091 318 712 300.091 712 278V158C712 135.909 694.091 118 672 118Z" fill="#D9D9D9"/>
<path d="M533.428 168V143.18H539.65L542.166 153.788L544.682 143.18H550.972V168H546.314V158.48C546.314 156.825 546.36 155.205 546.45 153.618C546.564 152.031 546.7 150.524 546.858 149.096C547.016 147.668 547.164 146.376 547.3 145.22L544.172 157.46H540.092L537.032 145.526C537.19 146.501 537.35 147.668 537.508 149.028C537.666 150.388 537.802 151.873 537.916 153.482C538.03 155.069 538.086 156.735 538.086 158.48V168H533.428ZM555.106 168V163.41H560.036V147.77H555.106V143.18H570.066V147.77H565.136V163.41H570.066V168H555.106ZM583.246 168.34C581.59 168.34 580.14 168.034 578.894 167.422C577.646 166.787 576.672 165.915 575.97 164.804C575.29 163.671 574.95 162.356 574.95 160.86V150.32C574.95 148.801 575.29 147.487 575.97 146.376C576.672 145.265 577.646 144.404 578.894 143.792C580.14 143.157 581.59 142.84 583.246 142.84C584.922 142.84 586.374 143.157 587.598 143.792C588.844 144.404 589.808 145.265 590.488 146.376C591.19 147.487 591.542 148.801 591.542 150.32H586.442C586.442 149.323 586.158 148.563 585.592 148.042C585.048 147.521 584.266 147.26 583.246 147.26C582.226 147.26 581.432 147.521 580.866 148.042C580.322 148.563 580.05 149.323 580.05 150.32V160.86C580.05 161.835 580.322 162.594 580.866 163.138C581.432 163.659 582.226 163.92 583.246 163.92C584.266 163.92 585.048 163.659 585.592 163.138C586.158 162.594 586.442 161.835 586.442 160.86H591.542C591.542 162.356 591.19 163.671 590.488 164.804C589.808 165.915 588.844 166.787 587.598 167.422C586.374 168.034 584.922 168.34 583.246 168.34ZM595.404 168V143.18H603.36C605.128 143.18 606.658 143.486 607.95 144.098C609.242 144.71 610.24 145.583 610.942 146.716C611.668 147.849 612.03 149.187 612.03 150.728C612.03 152.337 611.634 153.777 610.84 155.046C610.07 156.315 609.016 157.233 607.678 157.8L612.37 168H606.828L602.816 158.616H600.436V168H595.404ZM600.436 154.196H603.36C604.494 154.196 605.366 153.913 605.978 153.346C606.612 152.779 606.93 151.986 606.93 150.966C606.93 149.901 606.612 149.073 605.978 148.484C605.366 147.895 604.494 147.6 603.36 147.6H600.436V154.196ZM623.746 168.34C621.254 168.34 619.27 167.637 617.796 166.232C616.324 164.827 615.586 162.923 615.586 160.52V150.66C615.586 148.235 616.324 146.331 617.796 144.948C619.27 143.543 621.254 142.84 623.746 142.84C626.24 142.84 628.224 143.543 629.696 144.948C631.17 146.331 631.906 148.235 631.906 150.66V160.52C631.906 162.923 631.17 164.827 629.696 166.232C628.224 167.637 626.24 168.34 623.746 168.34ZM623.746 163.92C624.766 163.92 625.526 163.659 626.024 163.138C626.546 162.594 626.806 161.835 626.806 160.86V150.32C626.806 149.323 626.558 148.563 626.058 148.042C625.56 147.521 624.79 147.26 623.746 147.26C622.704 147.26 621.934 147.521 621.434 148.042C620.936 148.563 620.686 149.323 620.686 150.32V160.86C620.686 161.835 620.936 162.594 621.434 163.138C621.956 163.659 622.726 163.92 623.746 163.92ZM542.268 202.34C540.522 202.34 538.992 202.034 537.678 201.422C536.386 200.81 535.378 199.949 534.652 198.838C533.95 197.705 533.598 196.379 533.598 194.86H538.562C538.562 195.789 538.89 196.537 539.548 197.104C540.228 197.648 541.134 197.92 542.268 197.92C543.378 197.92 544.24 197.659 544.852 197.138C545.486 196.594 545.804 195.88 545.804 194.996C545.804 194.293 545.6 193.67 545.192 193.126C544.784 192.559 544.184 192.185 543.39 192.004L540.364 191.29C538.414 190.837 536.862 189.964 535.706 188.672C534.572 187.357 534.006 185.793 534.006 183.98C534.006 182.507 534.324 181.237 534.958 180.172C535.616 179.107 536.544 178.291 537.746 177.724C538.97 177.135 540.41 176.84 542.064 176.84C543.742 176.84 545.18 177.135 546.382 177.724C547.606 178.291 548.546 179.107 549.204 180.172C549.884 181.237 550.224 182.495 550.224 183.946H545.26C545.26 183.085 544.976 182.416 544.41 181.94C543.844 181.441 543.062 181.192 542.064 181.192C541.09 181.192 540.33 181.43 539.786 181.906C539.242 182.382 538.97 183.017 538.97 183.81C538.97 184.467 539.174 185 539.582 185.408C539.99 185.816 540.568 186.111 541.316 186.292L544.444 187.006C546.394 187.437 547.934 188.377 549.068 189.828C550.224 191.256 550.802 192.979 550.802 194.996C550.802 196.469 550.45 197.761 549.748 198.872C549.068 199.983 548.082 200.844 546.79 201.456C545.52 202.046 544.014 202.34 542.268 202.34ZM555.106 202V177.18H570.406V181.6H560.104V187.176H569.216V191.392H560.104V197.58H570.406V202H555.106ZM575.018 202V177.18H582.974C584.742 177.18 586.272 177.486 587.564 178.098C588.856 178.71 589.852 179.583 590.556 180.716C591.28 181.849 591.644 183.187 591.644 184.728C591.644 186.337 591.246 187.777 590.454 189.046C589.682 190.315 588.628 191.233 587.292 191.8L591.984 202H586.442L582.43 192.616H580.05V202H575.018ZM580.05 188.196H582.974C584.106 188.196 584.98 187.913 585.592 187.346C586.226 186.779 586.544 185.986 586.544 184.966C586.544 183.901 586.226 183.073 585.592 182.484C584.98 181.895 584.106 181.6 582.974 181.6H580.05V188.196ZM600.164 202L594.01 177.18H599.28L602.714 192.854C602.828 193.398 602.964 194.089 603.122 194.928C603.304 195.767 603.44 196.481 603.53 197.07C603.62 196.481 603.734 195.767 603.87 194.928C604.006 194.089 604.13 193.387 604.244 192.82L607.576 177.18H612.71L606.624 202H600.164ZM616.266 202V197.41H621.196V181.77H616.266V177.18H631.226V181.77H626.296V197.41H631.226V202H616.266ZM542.472 236.34C540.818 236.34 539.366 236.034 538.12 235.422C536.874 234.788 535.898 233.914 535.196 232.804C534.516 231.67 534.176 230.356 534.176 228.86V218.32C534.176 216.802 534.516 215.486 535.196 214.376C535.898 213.266 536.874 212.404 538.12 211.792C539.366 211.158 540.818 210.84 542.472 210.84C544.15 210.84 545.6 211.158 546.824 211.792C548.07 212.404 549.034 213.266 549.714 214.376C550.416 215.486 550.768 216.802 550.768 218.32H545.668C545.668 217.322 545.384 216.564 544.818 216.042C544.274 215.52 543.492 215.26 542.472 215.26C541.452 215.26 540.658 215.52 540.092 216.042C539.548 216.564 539.276 217.322 539.276 218.32V228.86C539.276 229.834 539.548 230.594 540.092 231.138C540.658 231.66 541.452 231.92 542.472 231.92C543.492 231.92 544.274 231.66 544.818 231.138C545.384 230.594 545.668 229.834 545.668 228.86H550.768C550.768 230.356 550.416 231.67 549.714 232.804C549.034 233.914 548.07 234.788 546.824 235.422C545.6 236.034 544.15 236.34 542.472 236.34ZM555.106 236V211.18H570.406V215.6H560.104V221.176H569.216V225.392H560.104V231.58H570.406V236H555.106ZM583.042 236.34C581.296 236.34 579.766 236.034 578.452 235.422C577.16 234.81 576.15 233.948 575.426 232.838C574.722 231.704 574.372 230.378 574.372 228.86H579.336C579.336 229.79 579.664 230.538 580.322 231.104C581.002 231.648 581.908 231.92 583.042 231.92C584.152 231.92 585.014 231.66 585.626 231.138C586.26 230.594 586.578 229.88 586.578 228.996C586.578 228.294 586.374 227.67 585.966 227.126C585.558 226.56 584.956 226.186 584.164 226.004L581.138 225.29C579.188 224.836 577.636 223.964 576.48 222.672C575.346 221.358 574.78 219.794 574.78 217.98C574.78 216.506 575.096 215.238 575.732 214.172C576.388 213.106 577.318 212.29 578.52 211.724C579.744 211.134 581.182 210.84 582.838 210.84C584.514 210.84 585.954 211.134 587.156 211.724C588.38 212.29 589.32 213.106 589.978 214.172C590.658 215.238 590.998 216.496 590.998 217.946H586.034C586.034 217.084 585.75 216.416 585.184 215.94C584.616 215.442 583.834 215.192 582.838 215.192C581.862 215.192 581.104 215.43 580.56 215.906C580.016 216.382 579.744 217.016 579.744 217.81C579.744 218.468 579.948 219 580.356 219.408C580.764 219.816 581.342 220.11 582.09 220.292L585.218 221.006C587.166 221.436 588.708 222.378 589.842 223.828C590.998 225.256 591.576 226.978 591.576 228.996C591.576 230.47 591.224 231.762 590.522 232.872C589.842 233.982 588.856 234.844 587.564 235.456C586.294 236.046 584.786 236.34 583.042 236.34Z" fill="black"/>
<path d="M535.296 264L532.4 252.32H534.88L536.496 259.696C536.55 259.952 536.614 260.278 536.688 260.672C536.774 261.066 536.838 261.402 536.88 261.68C536.922 261.402 536.976 261.066 537.04 260.672C537.104 260.278 537.162 259.946 537.216 259.68L538.784 252.32H541.2L538.336 264H535.296ZM542.874 264V252.32H550.074V254.4H545.226V257.024H549.514V259.008H545.226V261.92H550.074V264H542.874ZM552.244 264V252.32H555.988C556.82 252.32 557.54 252.464 558.148 252.752C558.756 253.04 559.224 253.45 559.556 253.984C559.896 254.518 560.068 255.146 560.068 255.872C560.068 256.63 559.88 257.306 559.508 257.904C559.144 258.502 558.648 258.934 558.02 259.2L560.228 264H557.62L555.732 259.584H554.612V264H552.244ZM554.612 257.504H555.988C556.52 257.504 556.932 257.37 557.22 257.104C557.518 256.838 557.668 256.464 557.668 255.984C557.668 255.482 557.518 255.094 557.22 254.816C556.932 254.538 556.52 254.4 555.988 254.4H554.612V257.504ZM562.062 264V261.84H564.382V254.48H562.062V252.32H569.102V254.48H566.782V261.84H569.102V264H562.062ZM571.496 264V252.32H579.016V254.56H573.864V257.152H578.598V259.392H573.896V264H571.496ZM583.568 264V259.84L580.208 252.32H582.72L584.192 255.84C584.342 256.192 584.47 256.566 584.576 256.96C584.694 257.354 584.774 257.674 584.816 257.92C584.87 257.674 584.944 257.354 585.04 256.96C585.148 256.566 585.27 256.192 585.408 255.84L586.832 252.32H589.328L585.968 259.84V264H583.568ZM602.756 264V254.48H599.796V252.32H608.116V254.48H605.156V264H602.756ZM613.55 264.16C612.376 264.16 611.444 263.83 610.75 263.168C610.056 262.506 609.71 261.61 609.71 260.48V255.84C609.71 254.698 610.056 253.802 610.75 253.152C611.444 252.49 612.376 252.16 613.55 252.16C614.724 252.16 615.656 252.49 616.35 253.152C617.044 253.802 617.39 254.698 617.39 255.84V260.48C617.39 261.61 617.044 262.506 616.35 263.168C615.656 263.83 614.724 264.16 613.55 264.16ZM613.55 262.08C614.03 262.08 614.388 261.958 614.622 261.712C614.868 261.456 614.99 261.098 614.99 260.64V255.68C614.99 255.21 614.872 254.854 614.638 254.608C614.404 254.362 614.04 254.24 613.55 254.24C613.06 254.24 612.696 254.362 612.462 254.608C612.228 254.854 612.11 255.21 612.11 255.68V260.64C612.11 261.098 612.228 261.456 612.462 261.712C612.708 261.958 613.07 262.08 613.55 262.08ZM619.384 264V252.32H621.784V256.896H622.904L624.856 252.32H627.448L625.016 257.84L627.544 264H624.92L622.92 258.992H621.784V264H619.384ZM629.218 264V252.32H636.418V254.4H631.57V257.024H635.858V259.008H631.57V261.92H636.418V264H629.218ZM638.492 264V252.32H641.292L644.316 261.36C644.284 260.966 644.246 260.512 644.204 260C644.16 259.478 644.124 258.96 644.092 258.448C644.07 257.926 644.06 257.482 644.06 257.12V252.32H646.172V264H643.372L640.38 254.96C640.412 255.302 640.444 255.706 640.476 256.176C640.508 256.646 640.534 257.12 640.556 257.6C640.588 258.08 640.604 258.506 640.604 258.88V264H638.492ZM546.634 280H543.946L546.106 274.16L543.946 268.32H546.634L548.794 274.192L546.634 280ZM556.228 280H553.54L555.7 274.16L553.54 268.32H556.228L558.388 274.192L556.228 280ZM565.822 280H563.134L565.294 274.16L563.134 268.32H565.822L567.982 274.192L565.822 280ZM551.86 296V284.32H554.788L555.972 289.312L557.156 284.32H560.116V296H557.924V291.52C557.924 290.742 557.944 289.978 557.988 289.232C558.04 288.486 558.104 287.776 558.18 287.104C558.254 286.432 558.324 285.824 558.388 285.28L556.916 291.04H554.996L553.556 285.424C553.63 285.882 553.704 286.432 553.78 287.072C553.854 287.712 553.918 288.41 553.972 289.168C554.024 289.914 554.052 290.698 554.052 291.52V296H551.86ZM561.182 296L564.046 284.32H567.086L569.982 296H567.534L566.974 293.36H564.19L563.63 296H561.182ZM564.59 291.44H566.558L565.998 288.624C565.922 288.218 565.842 287.818 565.758 287.424C565.682 287.018 565.624 286.704 565.582 286.48C565.538 286.704 565.48 287.014 565.406 287.408C565.342 287.802 565.266 288.202 565.182 288.608L564.59 291.44ZM571.336 296V284.32H574.136L577.16 293.36C577.128 292.966 577.09 292.512 577.048 292C577.004 291.478 576.968 290.96 576.936 290.448C576.914 289.926 576.904 289.482 576.904 289.12V284.32H579.016V296H576.216L573.224 286.96C573.256 287.302 573.288 287.706 573.32 288.176C573.352 288.646 573.378 289.12 573.4 289.6C573.432 290.08 573.448 290.506 573.448 290.88V296H571.336ZM580.368 296L583.232 284.32H586.272L589.168 296H586.72L586.16 293.36H583.376L582.816 296H580.368ZM583.776 291.44H585.744L585.184 288.624C585.11 288.218 585.03 287.818 584.944 287.424C584.87 287.018 584.812 286.704 584.768 286.48C584.726 286.704 584.668 287.014 584.592 287.408C584.528 287.802 584.454 288.202 584.368 288.608L583.776 291.44ZM594.426 296.16C593.648 296.16 592.966 296.016 592.378 295.728C591.792 295.43 591.334 295.018 591.002 294.496C590.682 293.962 590.522 293.344 590.522 292.64V287.68C590.522 286.966 590.682 286.346 591.002 285.824C591.334 285.302 591.792 284.896 592.378 284.608C592.966 284.31 593.648 284.16 594.426 284.16C595.216 284.16 595.898 284.31 596.474 284.608C597.062 284.896 597.514 285.302 597.834 285.824C598.166 286.346 598.33 286.966 598.33 287.68H595.93C595.93 287.21 595.798 286.854 595.53 286.608C595.274 286.362 594.906 286.24 594.426 286.24C593.946 286.24 593.574 286.362 593.306 286.608C593.05 286.854 592.922 287.21 592.922 287.68V292.64C592.922 293.098 593.05 293.456 593.306 293.712C593.574 293.958 593.946 294.08 594.426 294.08C594.906 294.08 595.274 293.958 595.53 293.712C595.798 293.456 595.93 293.098 595.93 292.64V291.552H594.202V289.52H598.33V292.64C598.33 293.344 598.166 293.962 597.834 294.496C597.514 295.018 597.062 295.43 596.474 295.728C595.898 296.016 595.216 296.16 594.426 296.16ZM600.436 296V284.32H607.636V286.4H602.788V289.024H607.076V291.008H602.788V293.92H607.636V296H600.436ZM619.352 296V284.32H623.144C623.954 284.32 624.658 284.474 625.256 284.784C625.864 285.094 626.334 285.53 626.664 286.096C627.006 286.65 627.176 287.306 627.176 288.064V292.24C627.176 292.986 627.006 293.642 626.664 294.208C626.334 294.774 625.864 295.216 625.256 295.536C624.658 295.846 623.954 296 623.144 296H619.352ZM621.752 293.84H623.144C623.624 293.84 624.014 293.69 624.312 293.392C624.622 293.094 624.776 292.71 624.776 292.24V288.064C624.776 287.594 624.622 287.216 624.312 286.928C624.014 286.63 623.624 286.48 623.144 286.48H621.752V293.84ZM628.338 296L631.202 284.32H634.242L637.138 296H634.69L634.13 293.36H631.346L630.786 296H628.338ZM631.746 291.44H633.714L633.154 288.624C633.078 288.218 632.998 287.818 632.914 287.424C632.838 287.018 632.78 286.704 632.738 286.48C632.694 286.704 632.636 287.014 632.562 287.408C632.498 287.802 632.422 288.202 632.338 288.608L631.746 291.44ZM641.132 296V286.48H638.172V284.32H646.492V286.48H643.532V296H641.132ZM647.526 296L650.39 284.32H653.43L656.326 296H653.878L653.318 293.36H650.534L649.974 296H647.526ZM650.934 291.44H652.902L652.342 288.624C652.266 288.218 652.186 287.818 652.102 287.424C652.026 287.018 651.968 286.704 651.926 286.48C651.882 286.704 651.824 287.014 651.75 287.408C651.686 287.802 651.61 288.202 651.526 288.608L650.934 291.44Z" fill="#646464"/>
<path d="M300 118H180C157.909 118 140 135.909 140 158V278C140 300.091 157.909 318 180 318H300C322.091 318 340 300.091 340 278V158C340 135.909 322.091 118 300 118Z" fill="#D3B8FF"/>
<path d="M170.472 168.34C168.817 168.34 167.367 168.034 166.12 167.422C164.873 166.787 163.899 165.915 163.196 164.804C162.516 163.671 162.176 162.356 162.176 160.86V150.32C162.176 148.801 162.516 147.487 163.196 146.376C163.899 145.265 164.873 144.404 166.12 143.792C167.367 143.157 168.817 142.84 170.472 142.84C172.149 142.84 173.6 143.157 174.824 143.792C176.071 144.404 177.034 145.265 177.714 146.376C178.417 147.487 178.768 148.801 178.768 150.32H173.668C173.668 149.323 173.385 148.563 172.818 148.042C172.274 147.521 171.492 147.26 170.472 147.26C169.452 147.26 168.659 147.521 168.092 148.042C167.548 148.563 167.276 149.323 167.276 150.32V160.86C167.276 161.835 167.548 162.594 168.092 163.138C168.659 163.659 169.452 163.92 170.472 163.92C171.492 163.92 172.274 163.659 172.818 163.138C173.385 162.594 173.668 161.835 173.668 160.86H178.768C178.768 162.356 178.417 163.671 177.714 164.804C177.034 165.915 176.071 166.787 174.824 167.422C173.6 168.034 172.149 168.34 170.472 168.34ZM184.297 168V143.18H189.397V163.41H199.427V168H184.297ZM203.494 168V163.41H208.424V147.77H203.494V143.18H218.454V147.77H213.524V163.41H218.454V168H203.494ZM223.88 168V143.18H239.18V147.6H228.878V153.176H237.99V157.392H228.878V163.58H239.18V168H223.88ZM243.586 168V143.18H249.536L255.962 162.39C255.894 161.551 255.816 160.588 255.724 159.5C255.634 158.389 255.554 157.29 255.486 156.202C255.442 155.091 255.418 154.151 255.418 153.38V143.18H259.906V168H253.956L247.598 148.79C247.666 149.515 247.734 150.377 247.802 151.374C247.87 152.371 247.928 153.38 247.972 154.4C248.04 155.42 248.074 156.327 248.074 157.12V168H243.586ZM269.584 168V147.77H263.294V143.18H280.974V147.77H274.684V168H269.584ZM162.142 202V177.18H170.2C171.923 177.18 173.419 177.509 174.688 178.166C175.98 178.823 176.977 179.753 177.68 180.954C178.405 182.133 178.768 183.527 178.768 185.136V194.01C178.768 195.597 178.405 196.991 177.68 198.192C176.977 199.393 175.98 200.334 174.688 201.014C173.419 201.672 171.923 202 170.2 202H162.142ZM167.242 197.41H170.2C171.22 197.41 172.047 197.093 172.682 196.458C173.339 195.823 173.668 195.007 173.668 194.01V185.136C173.668 184.139 173.339 183.334 172.682 182.722C172.047 182.087 171.22 181.77 170.2 181.77H167.242V197.41ZM183.107 202V177.18H198.407V181.6H188.105V187.176H197.217V191.392H188.105V197.58H198.407V202H183.107ZM207.778 202L201.624 177.18H206.894L210.328 192.854C210.44 193.398 210.576 194.089 210.736 194.928C210.916 195.767 211.052 196.481 211.144 197.07C211.234 196.481 211.348 195.767 211.484 194.928C211.62 194.089 211.744 193.387 211.858 192.82L215.19 177.18H220.324L214.238 202H207.778ZM223.88 202V197.41H228.81V181.77H223.88V177.18H238.84V181.77H233.91V197.41H238.84V202H223.88ZM252.018 202.34C250.364 202.34 248.914 202.034 247.666 201.422C246.42 200.788 245.446 199.915 244.742 198.804C244.062 197.671 243.722 196.356 243.722 194.86V184.32C243.722 182.801 244.062 181.487 244.742 180.376C245.446 179.265 246.42 178.404 247.666 177.792C248.914 177.157 250.364 176.84 252.018 176.84C253.696 176.84 255.146 177.157 256.37 177.792C257.618 178.404 258.58 179.265 259.26 180.376C259.964 181.487 260.314 182.801 260.314 184.32H255.214C255.214 183.323 254.932 182.563 254.364 182.042C253.82 181.521 253.038 181.26 252.018 181.26C250.998 181.26 250.206 181.521 249.638 182.042C249.094 182.563 248.822 183.323 248.822 184.32V194.86C248.822 195.835 249.094 196.594 249.638 197.138C250.206 197.659 250.998 197.92 252.018 197.92C253.038 197.92 253.82 197.659 254.364 197.138C254.932 196.594 255.214 195.835 255.214 194.86H260.314C260.314 196.356 259.964 197.671 259.26 198.804C258.58 199.915 257.618 200.788 256.37 201.422C255.146 202.034 253.696 202.34 252.018 202.34ZM264.654 202V177.18H279.954V181.6H269.652V187.176H278.764V191.392H269.652V197.58H279.954V202H264.654Z" fill="black"/>
<path d="M672 518H552C529.909 518 512 535.909 512 558V678C512 700.091 529.909 718 552 718H672C694.091 718 712 700.091 712 678V558C712 535.909 694.091 518 672 518Z" fill="#64B5F6"/>
<path d="M534.244 568V543.18H542.71C544.456 543.18 545.974 543.508 547.266 544.166C548.58 544.824 549.59 545.742 550.292 546.92C551.018 548.098 551.38 549.482 551.38 551.068C551.38 552.632 551.018 554.014 550.292 555.216C549.566 556.394 548.558 557.312 547.266 557.97C545.974 558.628 544.456 558.956 542.71 558.956H539.344V568H534.244ZM539.344 554.536H542.71C543.798 554.536 544.66 554.208 545.294 553.55C545.952 552.892 546.28 552.066 546.28 551.068C546.28 550.07 545.952 549.244 545.294 548.586C544.66 547.928 543.798 547.6 542.71 547.6H539.344V554.536ZM562.654 568.34C560.91 568.34 559.38 568.034 558.064 567.422C556.772 566.81 555.764 565.948 555.038 564.838C554.336 563.704 553.984 562.378 553.984 560.86H558.948C558.948 561.79 559.278 562.538 559.934 563.104C560.614 563.648 561.522 563.92 562.654 563.92C563.766 563.92 564.626 563.66 565.238 563.138C565.874 562.594 566.19 561.88 566.19 560.996C566.19 560.294 565.986 559.67 565.578 559.126C565.17 558.56 564.57 558.186 563.776 558.004L560.75 557.29C558.802 556.836 557.248 555.964 556.092 554.672C554.96 553.358 554.392 551.794 554.392 549.98C554.392 548.506 554.71 547.238 555.344 546.172C556.002 545.106 556.932 544.29 558.132 543.724C559.356 543.134 560.796 542.84 562.45 542.84C564.128 542.84 565.568 543.134 566.768 543.724C567.992 544.29 568.934 545.106 569.59 546.172C570.27 547.238 570.61 548.496 570.61 549.946H565.646C565.646 549.084 565.364 548.416 564.796 547.94C564.23 547.442 563.448 547.192 562.45 547.192C561.476 547.192 560.716 547.43 560.172 547.906C559.628 548.382 559.356 549.016 559.356 549.81C559.356 550.468 559.56 551 559.968 551.408C560.376 551.816 560.954 552.11 561.702 552.292L564.83 553.006C566.78 553.436 568.322 554.378 569.454 555.828C570.61 557.256 571.188 558.978 571.188 560.996C571.188 562.47 570.838 563.762 570.134 564.872C569.454 565.982 568.468 566.844 567.176 567.456C565.908 568.046 564.4 568.34 562.654 568.34ZM586.374 574.12L582.566 567.864L583.62 568.306C583.528 568.306 583.426 568.306 583.314 568.306C583.2 568.328 583.086 568.34 582.974 568.34C581.342 568.34 579.914 568.034 578.69 567.422C577.466 566.788 576.514 565.904 575.834 564.77C575.154 563.636 574.814 562.334 574.814 560.86V550.32C574.814 548.802 575.154 547.486 575.834 546.376C576.514 545.266 577.466 544.404 578.69 543.792C579.914 543.158 581.342 542.84 582.974 542.84C584.606 542.84 586.034 543.158 587.258 543.792C588.482 544.404 589.434 545.276 590.114 546.41C590.794 547.52 591.134 548.824 591.134 550.32V560.86C591.134 562.334 590.816 563.636 590.182 564.77C589.57 565.88 588.674 566.73 587.496 567.32L591.678 574.12H586.374ZM582.974 563.886C584.038 563.886 584.81 563.626 585.286 563.104C585.784 562.582 586.034 561.834 586.034 560.86V550.32C586.034 549.322 585.772 548.564 585.252 548.042C584.73 547.52 583.97 547.26 582.974 547.26C581.998 547.26 581.24 547.52 580.696 548.042C580.174 548.564 579.914 549.322 579.914 550.32V560.86C579.914 561.834 580.162 562.582 580.662 563.104C581.16 563.626 581.93 563.886 582.974 563.886ZM597.07 568V543.18H602.17V563.41H612.2V568H597.07Z" fill="black"/>
<path d="M536.832 680.16C536.01 680.16 535.29 680.016 534.672 679.728C534.064 679.44 533.59 679.034 533.248 678.512C532.918 677.978 532.752 677.354 532.752 676.64H535.088C535.088 677.078 535.242 677.43 535.552 677.696C535.872 677.952 536.298 678.08 536.832 678.08C537.354 678.08 537.76 677.958 538.048 677.712C538.346 677.456 538.496 677.12 538.496 676.704C538.496 676.374 538.4 676.08 538.208 675.824C538.016 675.558 537.734 675.382 537.36 675.296L535.936 674.96C535.018 674.746 534.288 674.336 533.744 673.728C533.21 673.11 532.944 672.374 532.944 671.52C532.944 670.826 533.094 670.23 533.392 669.728C533.702 669.226 534.138 668.842 534.704 668.576C535.28 668.298 535.958 668.16 536.736 668.16C537.526 668.16 538.202 668.298 538.768 668.576C539.344 668.842 539.786 669.226 540.096 669.728C540.416 670.23 540.576 670.822 540.576 671.504H538.24C538.24 671.098 538.106 670.784 537.84 670.56C537.574 670.326 537.206 670.208 536.736 670.208C536.278 670.208 535.92 670.32 535.664 670.544C535.408 670.768 535.28 671.066 535.28 671.44C535.28 671.75 535.376 672 535.568 672.192C535.76 672.384 536.032 672.522 536.384 672.608L537.856 672.944C538.774 673.146 539.498 673.59 540.032 674.272C540.576 674.944 540.848 675.754 540.848 676.704C540.848 677.398 540.682 678.006 540.352 678.528C540.032 679.05 539.568 679.456 538.96 679.744C538.362 680.022 537.654 680.16 536.832 680.16ZM545.194 680V670.48H542.234V668.32H550.554V670.48H547.594V680H545.194ZM555.988 680.16C554.814 680.16 553.88 679.83 553.188 679.168C552.494 678.506 552.148 677.61 552.148 676.48V671.84C552.148 670.698 552.494 669.802 553.188 669.152C553.88 668.49 554.814 668.16 555.988 668.16C557.16 668.16 558.094 668.49 558.788 669.152C559.48 669.802 559.828 670.698 559.828 671.84V676.48C559.828 677.61 559.48 678.506 558.788 679.168C558.094 679.83 557.16 680.16 555.988 680.16ZM555.988 678.08C556.468 678.08 556.824 677.958 557.06 677.712C557.304 677.456 557.428 677.098 557.428 676.64V671.68C557.428 671.21 557.31 670.854 557.076 670.608C556.84 670.362 556.478 670.24 555.988 670.24C555.496 670.24 555.134 670.362 554.9 670.608C554.664 670.854 554.548 671.21 554.548 671.68V676.64C554.548 677.098 554.664 677.456 554.9 677.712C555.144 677.958 555.508 678.08 555.988 678.08ZM561.838 680V668.32H565.582C566.414 668.32 567.134 668.464 567.742 668.752C568.35 669.04 568.818 669.45 569.15 669.984C569.49 670.518 569.662 671.146 569.662 671.872C569.662 672.63 569.474 673.306 569.102 673.904C568.738 674.502 568.242 674.934 567.614 675.2L569.822 680H567.214L565.326 675.584H564.206V680H561.838ZM564.206 673.504H565.582C566.114 673.504 566.526 673.37 566.814 673.104C567.112 672.838 567.262 672.464 567.262 671.984C567.262 671.482 567.112 671.094 566.814 670.816C566.526 670.538 566.114 670.4 565.582 670.4H564.206V673.504ZM571.656 680V668.32H578.856V670.4H574.008V673.024H578.296V675.008H574.008V677.92H578.856V680H571.656ZM590.618 680V668.32H594.602C595.424 668.32 596.138 668.474 596.746 668.784C597.366 669.094 597.84 669.526 598.17 670.08C598.512 670.634 598.682 671.286 598.682 672.032C598.682 672.768 598.512 673.418 598.17 673.984C597.83 674.538 597.354 674.97 596.746 675.28C596.138 675.59 595.424 675.744 594.602 675.744H593.018V680H590.618ZM593.018 673.664H594.602C595.114 673.664 595.52 673.51 595.818 673.2C596.128 672.89 596.282 672.502 596.282 672.032C596.282 671.562 596.128 671.174 595.818 670.864C595.52 670.554 595.114 670.4 594.602 670.4H593.018V673.664ZM600.212 680V668.32H603.956C604.788 668.32 605.508 668.464 606.116 668.752C606.724 669.04 607.194 669.45 607.524 669.984C607.866 670.518 608.036 671.146 608.036 671.872C608.036 672.63 607.85 673.306 607.476 673.904C607.114 674.502 606.618 674.934 605.988 675.2L608.196 680H605.588L603.7 675.584H602.58V680H600.212ZM602.58 673.504H603.956C604.49 673.504 604.9 673.37 605.188 673.104C605.486 672.838 605.636 672.464 605.636 671.984C605.636 671.482 605.486 671.094 605.188 670.816C604.9 670.538 604.49 670.4 603.956 670.4H602.58V673.504ZM613.55 680.16C612.376 680.16 611.444 679.83 610.75 679.168C610.056 678.506 609.71 677.61 609.71 676.48V671.84C609.71 670.698 610.056 669.802 610.75 669.152C611.444 668.49 612.376 668.16 613.55 668.16C614.724 668.16 615.656 668.49 616.35 669.152C617.044 669.802 617.39 670.698 617.39 671.84V676.48C617.39 677.61 617.044 678.506 616.35 679.168C615.656 679.83 614.724 680.16 613.55 680.16ZM613.55 678.08C614.03 678.08 614.388 677.958 614.622 677.712C614.868 677.456 614.99 677.098 614.99 676.64V671.68C614.99 671.21 614.872 670.854 614.638 670.608C614.404 670.362 614.04 670.24 613.55 670.24C613.06 670.24 612.696 670.362 612.462 670.608C612.228 670.854 612.11 671.21 612.11 671.68V676.64C612.11 677.098 612.228 677.456 612.462 677.712C612.708 677.958 613.07 678.08 613.55 678.08ZM619.464 680V668.32H626.984V670.56H621.832V673.152H626.568V675.392H621.864V680H619.464ZM629.218 680V677.84H631.538V670.48H629.218V668.32H636.258V670.48H633.938V677.84H636.258V680H629.218ZM639.372 680V668.32H641.772V677.84H646.492V680H639.372ZM648.406 680V668.32H655.606V670.4H650.758V673.024H655.046V675.008H650.758V677.92H655.606V680H648.406ZM661.55 680.16C660.73 680.16 660.01 680.016 659.39 679.728C658.782 679.44 658.308 679.034 657.966 678.512C657.636 677.978 657.47 677.354 657.47 676.64H659.806C659.806 677.078 659.962 677.43 660.27 677.696C660.59 677.952 661.018 678.08 661.55 678.08C662.074 678.08 662.478 677.958 662.766 677.712C663.066 677.456 663.214 677.12 663.214 676.704C663.214 676.374 663.118 676.08 662.926 675.824C662.734 675.558 662.452 675.382 662.078 675.296L660.654 674.96C659.738 674.746 659.006 674.336 658.462 673.728C657.93 673.11 657.662 672.374 657.662 671.52C657.662 670.826 657.812 670.23 658.11 669.728C658.42 669.226 658.858 668.842 659.422 668.576C659.998 668.298 660.676 668.16 661.454 668.16C662.244 668.16 662.922 668.298 663.486 668.576C664.062 668.842 664.506 669.226 664.814 669.728C665.134 670.23 665.294 670.822 665.294 671.504H662.958C662.958 671.098 662.826 670.784 662.558 670.56C662.292 670.326 661.924 670.208 661.454 670.208C660.996 670.208 660.638 670.32 660.382 670.544C660.126 670.768 659.998 671.066 659.998 671.44C659.998 671.75 660.094 672 660.286 672.192C660.478 672.384 660.75 672.522 661.102 672.608L662.574 672.944C663.492 673.146 664.218 673.59 664.75 674.272C665.294 674.944 665.566 675.754 665.566 676.704C665.566 677.398 665.402 678.006 665.07 678.528C664.75 679.05 664.286 679.456 663.678 679.744C663.082 680.022 662.372 680.16 661.55 680.16ZM536.832 696.16C536.01 696.16 535.29 696.016 534.672 695.728C534.064 695.44 533.59 695.034 533.248 694.512C532.918 693.978 532.752 693.354 532.752 692.64H535.088C535.088 693.078 535.242 693.43 535.552 693.696C535.872 693.952 536.298 694.08 536.832 694.08C537.354 694.08 537.76 693.958 538.048 693.712C538.346 693.456 538.496 693.12 538.496 692.704C538.496 692.374 538.4 692.08 538.208 691.824C538.016 691.558 537.734 691.382 537.36 691.296L535.936 690.96C535.018 690.746 534.288 690.336 533.744 689.728C533.21 689.11 532.944 688.374 532.944 687.52C532.944 686.826 533.094 686.23 533.392 685.728C533.702 685.226 534.138 684.842 534.704 684.576C535.28 684.298 535.958 684.16 536.736 684.16C537.526 684.16 538.202 684.298 538.768 684.576C539.344 684.842 539.786 685.226 540.096 685.728C540.416 686.23 540.576 686.822 540.576 687.504H538.24C538.24 687.098 538.106 686.784 537.84 686.56C537.574 686.326 537.206 686.208 536.736 686.208C536.278 686.208 535.92 686.32 535.664 686.544C535.408 686.768 535.28 687.066 535.28 687.44C535.28 687.75 535.376 688 535.568 688.192C535.76 688.384 536.032 688.522 536.384 688.608L537.856 688.944C538.774 689.146 539.498 689.59 540.032 690.272C540.576 690.944 540.848 691.754 540.848 692.704C540.848 693.398 540.682 694.006 540.352 694.528C540.032 695.05 539.568 695.456 538.96 695.744C538.362 696.022 537.654 696.16 536.832 696.16ZM545.194 696V686.48H542.234V684.32H550.554V686.48H547.594V696H545.194ZM555.988 696.16C554.814 696.16 553.88 695.83 553.188 695.168C552.494 694.506 552.148 693.61 552.148 692.48V687.84C552.148 686.698 552.494 685.802 553.188 685.152C553.88 684.49 554.814 684.16 555.988 684.16C557.16 684.16 558.094 684.49 558.788 685.152C559.48 685.802 559.828 686.698 559.828 687.84V692.48C559.828 693.61 559.48 694.506 558.788 695.168C558.094 695.83 557.16 696.16 555.988 696.16ZM555.988 694.08C556.468 694.08 556.824 693.958 557.06 693.712C557.304 693.456 557.428 693.098 557.428 692.64V687.68C557.428 687.21 557.31 686.854 557.076 686.608C556.84 686.362 556.478 686.24 555.988 686.24C555.496 686.24 555.134 686.362 554.9 686.608C554.664 686.854 554.548 687.21 554.548 687.68V692.64C554.548 693.098 554.664 693.456 554.9 693.712C555.144 693.958 555.508 694.08 555.988 694.08ZM561.838 696V684.32H565.582C566.414 684.32 567.134 684.464 567.742 684.752C568.35 685.04 568.818 685.45 569.15 685.984C569.49 686.518 569.662 687.146 569.662 687.872C569.662 688.63 569.474 689.306 569.102 689.904C568.738 690.502 568.242 690.934 567.614 691.2L569.822 696H567.214L565.326 691.584H564.206V696H561.838ZM564.206 689.504H565.582C566.114 689.504 566.526 689.37 566.814 689.104C567.112 688.838 567.262 688.464 567.262 687.984C567.262 687.482 567.112 687.094 566.814 686.816C566.526 686.538 566.114 686.4 565.582 686.4H564.206V689.504ZM571.656 696V684.32H578.856V686.4H574.008V689.024H578.296V691.008H574.008V693.92H578.856V696H571.656ZM590.57 696V684.32H594.362C595.174 684.32 595.878 684.474 596.474 684.784C597.082 685.094 597.552 685.53 597.882 686.096C598.224 686.65 598.394 687.306 598.394 688.064V692.24C598.394 692.986 598.224 693.642 597.882 694.208C597.552 694.774 597.082 695.216 596.474 695.536C595.878 695.846 595.174 696 594.362 696H590.57ZM592.97 693.84H594.362C594.842 693.84 595.232 693.69 595.53 693.392C595.84 693.094 595.994 692.71 595.994 692.24V688.064C595.994 687.594 595.84 687.216 595.53 686.928C595.232 686.63 594.842 686.48 594.362 686.48H592.97V693.84ZM599.556 696L602.42 684.32H605.46L608.356 696H605.908L605.348 693.36H602.564L602.004 696H599.556ZM602.964 691.44H604.932L604.372 688.624C604.298 688.218 604.218 687.818 604.132 687.424C604.058 687.018 603.998 686.704 603.956 686.48C603.914 686.704 603.854 687.014 603.78 687.408C603.716 687.802 603.642 688.202 603.556 688.608L602.964 691.44ZM612.35 696V686.48H609.39V684.32H617.71V686.48H614.75V696H612.35ZM618.744 696L621.608 684.32H624.648L627.544 696H625.096L624.536 693.36H621.752L621.192 696H618.744ZM622.152 691.44H624.12L623.56 688.624C623.486 688.218 623.406 687.818 623.32 687.424C623.246 687.018 623.186 686.704 623.144 686.48C623.102 686.704 623.042 687.014 622.968 687.408C622.904 687.802 622.83 688.202 622.744 688.608L622.152 691.44Z" fill="#295273"/>
<path d="M362.58 769C364.236 769 365.58 767.656 365.58 766C365.58 764.344 364.236 763 362.58 763V769ZM478.58 763C476.922 763 475.58 764.344 475.58 766C475.58 767.656 476.922 769 478.58 769V763ZM280 769H362.58V763H280V769ZM478.58 769H572V763H478.58V769ZM572 769C595.748 769 615 749.748 615 726H609C609 746.434 592.434 763 572 763V769ZM237 726C237 749.748 256.252 769 280 769V763C259.566 763 243 746.434 243 726H237Z" fill="#64B5F6"/>
<path d="M397.078 758.2C396.052 758.2 395.152 758.02 394.378 757.66C393.618 757.3 393.026 756.794 392.598 756.14C392.186 755.474 391.978 754.694 391.978 753.8H394.898C394.898 754.346 395.092 754.786 395.478 755.12C395.878 755.44 396.412 755.6 397.078 755.6C397.732 755.6 398.238 755.446 398.598 755.14C398.972 754.82 399.158 754.4 399.158 753.88C399.158 753.466 399.038 753.1 398.798 752.78C398.558 752.446 398.206 752.226 397.738 752.12L395.958 751.7C394.812 751.434 393.898 750.92 393.218 750.16C392.552 749.386 392.218 748.466 392.218 747.4C392.218 746.534 392.406 745.786 392.778 745.16C393.166 744.534 393.712 744.054 394.418 743.72C395.138 743.374 395.986 743.2 396.958 743.2C397.946 743.2 398.792 743.374 399.498 743.72C400.218 744.054 400.772 744.534 401.158 745.16C401.558 745.786 401.758 746.526 401.758 747.38H398.838C398.838 746.874 398.672 746.48 398.338 746.2C398.006 745.906 397.546 745.76 396.958 745.76C396.386 745.76 395.938 745.9 395.618 746.18C395.298 746.46 395.138 746.834 395.138 747.3C395.138 747.686 395.258 748 395.498 748.24C395.738 748.48 396.078 748.654 396.518 748.76L398.358 749.18C399.506 749.434 400.412 749.986 401.078 750.84C401.758 751.68 402.098 752.694 402.098 753.88C402.098 754.746 401.892 755.506 401.478 756.16C401.078 756.814 400.498 757.32 399.738 757.68C398.992 758.026 398.106 758.2 397.078 758.2ZM407.31 758V746.1H403.61V743.4H414.01V746.1H410.31V758H407.31ZM420.584 758.2C419.116 758.2 417.95 757.786 417.084 756.96C416.216 756.134 415.784 755.014 415.784 753.6V747.8C415.784 746.374 416.216 745.254 417.084 744.44C417.95 743.614 419.116 743.2 420.584 743.2C422.05 743.2 423.216 743.614 424.084 744.44C424.95 745.254 425.384 746.374 425.384 747.8V753.6C425.384 755.014 424.95 756.134 424.084 756.96C423.216 757.786 422.05 758.2 420.584 758.2ZM420.584 755.6C421.184 755.6 421.63 755.446 421.924 755.14C422.23 754.82 422.384 754.374 422.384 753.8V747.6C422.384 747.014 422.236 746.566 421.944 746.26C421.65 745.954 421.196 745.8 420.584 745.8C419.97 745.8 419.516 745.954 419.224 746.26C418.93 746.566 418.784 747.014 418.784 747.6V753.8C418.784 754.374 418.93 754.82 419.224 755.14C419.53 755.446 419.984 755.6 420.584 755.6ZM427.676 758V743.4H432.356C433.396 743.4 434.296 743.58 435.056 743.94C435.816 744.3 436.402 744.814 436.816 745.48C437.242 746.146 437.456 746.934 437.456 747.84C437.456 748.786 437.222 749.634 436.756 750.38C436.302 751.126 435.682 751.666 434.896 752L437.656 758H434.396L432.036 752.48H430.636V758H427.676ZM430.636 749.88H432.356C433.022 749.88 433.536 749.714 433.896 749.38C434.268 749.046 434.456 748.58 434.456 747.98C434.456 747.354 434.268 746.866 433.896 746.52C433.536 746.174 433.022 746 432.356 746H430.636V749.88ZM439.728 758V743.4H448.728V746H442.668V749.28H448.028V751.76H442.668V755.4H448.728V758H439.728ZM374.7 788V773.4H379.68C380.708 773.4 381.6 773.594 382.36 773.98C383.134 774.366 383.728 774.906 384.14 775.6C384.568 776.294 384.78 777.106 384.78 778.04C384.78 778.96 384.568 779.774 384.14 780.48C383.714 781.174 383.12 781.714 382.36 782.1C381.6 782.486 380.708 782.68 379.68 782.68H377.7V788H374.7ZM377.7 780.08H379.68C380.32 780.08 380.828 779.886 381.2 779.5C381.588 779.114 381.78 778.626 381.78 778.04C381.78 777.454 381.588 776.966 381.2 776.58C380.828 776.194 380.32 776 379.68 776H377.7V780.08ZM386.472 788V773.4H391.152C392.192 773.4 393.092 773.58 393.852 773.94C394.612 774.3 395.2 774.814 395.612 775.48C396.04 776.146 396.252 776.934 396.252 777.84C396.252 778.786 396.02 779.634 395.552 780.38C395.1 781.126 394.48 781.666 393.692 782L396.452 788H393.192L390.832 782.48H389.432V788H386.472ZM389.432 779.88H391.152C391.82 779.88 392.332 779.714 392.692 779.38C393.066 779.046 393.252 778.58 393.252 777.98C393.252 777.354 393.066 776.866 392.692 776.52C392.332 776.174 391.82 776 391.152 776H389.432V779.88ZM402.924 788.2C401.458 788.2 400.292 787.786 399.424 786.96C398.558 786.134 398.124 785.014 398.124 783.6V777.8C398.124 776.374 398.558 775.254 399.424 774.44C400.292 773.614 401.458 773.2 402.924 773.2C404.392 773.2 405.558 773.614 406.424 774.44C407.292 775.254 407.724 776.374 407.724 777.8V783.6C407.724 785.014 407.292 786.134 406.424 786.96C405.558 787.786 404.392 788.2 402.924 788.2ZM402.924 785.6C403.524 785.6 403.972 785.446 404.264 785.14C404.572 784.82 404.724 784.374 404.724 783.8V777.6C404.724 777.014 404.578 776.566 404.284 776.26C403.992 775.954 403.538 775.8 402.924 775.8C402.312 775.8 401.858 775.954 401.564 776.26C401.272 776.566 401.124 777.014 401.124 777.6V783.8C401.124 784.374 401.272 784.82 401.564 785.14C401.872 785.446 402.324 785.6 402.924 785.6ZM410.096 788V773.4H419.496V776.2H413.056V779.44H418.976V782.24H413.096V788H410.096ZM422.07 788V785.3H424.97V776.1H422.07V773.4H430.87V776.1H427.97V785.3H430.87V788H422.07ZM434.542 788V773.4H437.542V785.3H443.442V788H434.542ZM445.614 788V773.4H454.614V776H448.554V779.28H453.914V781.76H448.554V785.4H454.614V788H445.614ZM461.826 788.2C460.798 788.2 459.898 788.02 459.126 787.66C458.366 787.3 457.772 786.794 457.346 786.14C456.932 785.474 456.726 784.694 456.726 783.8H459.646C459.646 784.346 459.838 784.786 460.226 785.12C460.626 785.44 461.158 785.6 461.826 785.6C462.478 785.6 462.986 785.446 463.346 785.14C463.718 784.82 463.906 784.4 463.906 783.88C463.906 783.466 463.786 783.1 463.546 782.78C463.306 782.446 462.952 782.226 462.486 782.12L460.706 781.7C459.558 781.434 458.646 780.92 457.966 780.16C457.298 779.386 456.966 778.466 456.966 777.4C456.966 776.534 457.152 775.786 457.526 775.16C457.912 774.534 458.458 774.054 459.166 773.72C459.886 773.374 460.732 773.2 461.706 773.2C462.692 773.2 463.538 773.374 464.246 773.72C464.966 774.054 465.518 774.534 465.906 775.16C466.306 775.786 466.506 776.526 466.506 777.38H463.586C463.586 776.874 463.418 776.48 463.086 776.2C462.752 775.906 462.292 775.76 461.706 775.76C461.132 775.76 460.686 775.9 460.366 776.18C460.046 776.46 459.886 776.834 459.886 777.3C459.886 777.686 460.006 778 460.246 778.24C460.486 778.48 460.826 778.654 461.266 778.76L463.106 779.18C464.252 779.434 465.158 779.986 465.826 780.84C466.506 781.68 466.846 782.694 466.846 783.88C466.846 784.746 466.638 785.506 466.226 786.16C465.826 786.814 465.246 787.32 464.486 787.68C463.738 788.026 462.852 788.2 461.826 788.2Z" fill="#4989BD"/>
<path d="M83 460.518C83 458.862 81.6568 457.518 80 457.518C78.3432 457.518 77 458.862 77 460.518H83ZM77 380.518C77 382.176 78.3432 383.518 80 383.518C81.6568 383.518 83 382.176 83 380.518H77ZM132 615H128V621H132V615ZM83 570V460.518H77V570H83ZM83 380.518V266H77V380.518H83ZM128 221H132V215H128V221ZM83 266C83 241.148 103.147 221 128 221V215C99.8334 215 77 237.834 77 266H83ZM128 615C103.147 615 83 594.852 83 570H77C77 598.166 99.8334 621 128 621V615Z" fill="#D3B8FF"/>
<path d="M45.4133 412.518V397.918H49.0733L50.5533 404.158L52.0333 397.918H55.7333V412.518H52.9933V406.918C52.9933 405.946 53.0201 404.992 53.0733 404.058C53.1401 403.126 53.2201 402.238 53.3133 401.398C53.4067 400.558 53.4933 399.798 53.5733 399.118L51.7333 406.318H49.3333L47.5333 399.298C47.6267 399.872 47.7201 400.558 47.8133 401.358C47.9067 402.158 47.9867 403.032 48.0533 403.978C48.1201 404.912 48.1533 405.892 48.1533 406.918V412.518H45.4133ZM56.8455 412.518L60.4255 397.918H64.2255L67.8455 412.518H64.7855L64.0855 409.218H60.6055L59.9055 412.518H56.8455ZM61.1055 406.818H63.5655L62.8655 403.298C62.7721 402.792 62.6721 402.292 62.5655 401.798C62.4721 401.292 62.3989 400.898 62.3455 400.618C62.2921 400.898 62.2189 401.286 62.1255 401.778C62.0455 402.272 61.9521 402.772 61.8455 403.278L61.1055 406.818ZM69.3177 412.518V397.918H72.8177L76.5977 409.218C76.5577 408.726 76.5111 408.158 76.4577 407.518C76.4043 406.866 76.3577 406.218 76.3177 405.578C76.2911 404.926 76.2777 404.372 76.2777 403.918V397.918H78.9177V412.518H75.4177L71.6777 401.218C71.7177 401.646 71.7577 402.152 71.7977 402.738C71.8377 403.326 71.8711 403.918 71.8977 404.518C71.9377 405.118 71.9577 405.652 71.9577 406.118V412.518H69.3177ZM80.3899 412.518L83.9699 397.918H87.7699L91.3899 412.518H88.3299L87.6299 409.218H84.1499L83.4499 412.518H80.3899ZM84.6499 406.818H87.1099L86.4099 403.298C86.3165 402.792 86.2165 402.292 86.1099 401.798C86.0165 401.292 85.9433 400.898 85.8899 400.618C85.8365 400.898 85.7633 401.286 85.6699 401.778C85.5899 402.272 85.4965 402.772 85.3899 403.278L84.6499 406.818ZM97.7421 412.718C96.7687 412.718 95.9155 412.538 95.1821 412.178C94.4487 411.806 93.8755 411.292 93.4621 410.638C93.0621 409.972 92.8621 409.198 92.8621 408.318V402.118C92.8621 401.226 93.0621 400.452 93.4621 399.798C93.8755 399.146 94.4487 398.638 95.1821 398.278C95.9155 397.906 96.7687 397.718 97.7421 397.718C98.7287 397.718 99.5821 397.906 100.302 398.278C101.036 398.638 101.602 399.146 102.002 399.798C102.416 400.452 102.622 401.226 102.622 402.118H99.6221C99.6221 401.532 99.4555 401.086 99.1221 400.778C98.8021 400.472 98.3421 400.318 97.7421 400.318C97.1421 400.318 96.6755 400.472 96.3421 400.778C96.0221 401.086 95.8621 401.532 95.8621 402.118V408.318C95.8621 408.892 96.0221 409.338 96.3421 409.658C96.6755 409.966 97.1421 410.118 97.7421 410.118C98.3421 410.118 98.8021 409.966 99.1221 409.658C99.4555 409.338 99.6221 408.892 99.6221 408.318V406.958H97.4621V404.418H102.622V408.318C102.622 409.198 102.416 409.972 102.002 410.638C101.602 411.292 101.036 411.806 100.302 412.178C99.5821 412.538 98.7287 412.718 97.7421 412.718ZM105.034 412.518V397.918H114.034V400.518H107.974V403.798H113.334V406.278H107.974V409.918H114.034V412.518H105.034ZM40.0073 442.518V427.918H44.9873C46.0139 427.918 46.9073 428.112 47.6673 428.498C48.4405 428.886 49.0339 429.426 49.4473 430.118C49.8739 430.812 50.0873 431.626 50.0873 432.558C50.0873 433.478 49.8739 434.292 49.4473 434.998C49.0205 435.692 48.4273 436.232 47.6673 436.618C46.9073 437.006 46.0139 437.198 44.9873 437.198H43.0073V442.518H40.0073ZM43.0073 434.598H44.9873C45.6273 434.598 46.1339 434.406 46.5073 434.018C46.8939 433.632 47.0873 433.146 47.0873 432.558C47.0873 431.972 46.8939 431.486 46.5073 431.098C46.1339 430.712 45.6273 430.518 44.9873 430.518H43.0073V434.598ZM51.7795 442.518V427.918H56.4595C57.4995 427.918 58.3995 428.098 59.1595 428.458C59.9195 428.818 60.5061 429.332 60.9195 429.998C61.3461 430.666 61.5595 431.452 61.5595 432.358C61.5595 433.306 61.3261 434.152 60.8595 434.898C60.4061 435.646 59.7861 436.186 58.9995 436.518L61.7595 442.518H58.4995L56.1395 436.998H54.7395V442.518H51.7795ZM54.7395 434.398H56.4595C57.1261 434.398 57.6395 434.232 57.9995 433.898C58.3727 433.566 58.5595 433.098 58.5595 432.498C58.5595 431.872 58.3727 431.386 57.9995 431.038C57.6395 430.692 57.1261 430.518 56.4595 430.518H54.7395V434.398ZM68.2317 442.718C66.7649 442.718 65.5983 442.306 64.7317 441.478C63.8649 440.652 63.4317 439.532 63.4317 438.118V432.318C63.4317 430.892 63.8649 429.772 64.7317 428.958C65.5983 428.132 66.7649 427.718 68.2317 427.718C69.6983 427.718 70.8649 428.132 71.7317 428.958C72.5983 429.772 73.0317 430.892 73.0317 432.318V438.118C73.0317 439.532 72.5983 440.652 71.7317 441.478C70.8649 442.306 69.6983 442.718 68.2317 442.718ZM68.2317 440.118C68.8317 440.118 69.2783 439.966 69.5717 439.658C69.8783 439.338 70.0317 438.892 70.0317 438.318V432.118C70.0317 431.532 69.8849 431.086 69.5917 430.778C69.2983 430.472 68.8449 430.318 68.2317 430.318C67.6183 430.318 67.1649 430.472 66.8717 430.778C66.5783 431.086 66.4317 431.532 66.4317 432.118V438.318C66.4317 438.892 66.5783 439.338 66.8717 439.658C67.1783 439.966 67.6317 440.118 68.2317 440.118ZM75.4039 442.518V427.918H84.8039V430.718H78.3639V433.958H84.2839V436.758H78.4039V442.518H75.4039ZM87.3759 442.518V439.818H90.2759V430.618H87.3759V427.918H96.1759V430.618H93.2759V439.818H96.1759V442.518H87.3759ZM99.8481 442.518V427.918H102.848V439.818H108.748V442.518H99.8481ZM110.92 442.518V427.918H119.92V430.518H113.86V433.798H119.22V436.278H113.86V439.918H119.92V442.518H110.92Z" fill="#8B62CE"/>
<path d="M374.566 75C376.224 75 377.566 73.6568 377.566 72C377.566 70.3432 376.224 69 374.566 69V75ZM466.566 69C464.91 69 463.566 70.3432 463.566 72C463.566 73.6568 464.91 75 466.566 75V69ZM278 75H374.566V69H278V75ZM466.566 75H574V69H466.566V75ZM574 75C593.33 75 609 90.67 609 110H615C615 87.3564 596.644 69 574 69V75ZM243 110C243 90.67 258.67 75 278 75V69C255.356 69 237 87.3564 237 110H243Z" fill="#D3B8FF"/>
<path d="M385.98 64V49.4H389.64L391.12 55.6399L392.6 49.4H396.3V64H393.56V58.4C393.56 57.4266 393.586 56.4734 393.64 55.54C393.706 54.6066 393.786 53.72 393.88 52.88C393.974 52.04 394.06 51.2799 394.14 50.5999L392.3 57.7999H389.9L388.1 50.7799C388.194 51.3533 388.286 52.04 388.38 52.84C388.474 53.64 388.554 54.5133 388.62 55.4599C388.686 56.3933 388.72 57.3734 388.72 58.4V64H385.98ZM397.412 64L400.992 49.4H404.792L408.412 64H405.352L404.652 60.7H401.172L400.472 64H397.412ZM401.672 58.2999H404.132L403.432 54.7799C403.338 54.2733 403.238 53.7733 403.132 53.2799C403.038 52.7733 402.966 52.3799 402.912 52.0999C402.858 52.3799 402.786 52.7665 402.692 53.2599C402.612 53.7533 402.518 54.2533 402.412 54.7599L401.672 58.2999ZM409.884 64V49.4H413.384L417.164 60.7C417.124 60.2066 417.078 59.64 417.024 59C416.97 58.3466 416.924 57.7 416.884 57.06C416.858 56.4066 416.844 55.8534 416.844 55.4V49.4H419.484V64H415.984L412.244 52.7C412.284 53.1266 412.324 53.6334 412.364 54.22C412.404 54.8066 412.438 55.4 412.464 56C412.504 56.6 412.524 57.1333 412.524 57.5999V64H409.884ZM420.956 64L424.536 49.4H428.336L431.956 64H428.896L428.196 60.7H424.716L424.016 64H420.956ZM425.216 58.2999H427.676L426.976 54.7799C426.884 54.2733 426.784 53.7733 426.676 53.2799C426.584 52.7733 426.51 52.3799 426.456 52.0999C426.404 52.3799 426.33 52.7665 426.236 53.2599C426.156 53.7533 426.064 54.2533 425.956 54.7599L425.216 58.2999ZM438.308 64.1999C437.336 64.1999 436.482 64.02 435.748 63.66C435.016 63.2866 434.442 62.7733 434.028 62.1199C433.628 61.4533 433.428 60.6799 433.428 59.7999V53.5999C433.428 52.7065 433.628 51.9333 434.028 51.2799C434.442 50.6265 435.016 50.1199 435.748 49.7599C436.482 49.3865 437.336 49.2 438.308 49.2C439.296 49.2 440.148 49.3865 440.868 49.7599C441.602 50.1199 442.168 50.6265 442.568 51.2799C442.982 51.9333 443.188 52.7065 443.188 53.5999H440.188C440.188 53.0133 440.022 52.5665 439.688 52.2599C439.368 51.9533 438.908 51.7999 438.308 51.7999C437.708 51.7999 437.242 51.9533 436.908 52.2599C436.588 52.5665 436.428 53.0133 436.428 53.5999V59.7999C436.428 60.3733 436.588 60.8199 436.908 61.1399C437.242 61.4465 437.708 61.5999 438.308 61.5999C438.908 61.5999 439.368 61.4465 439.688 61.1399C440.022 60.8199 440.188 60.3733 440.188 59.7999V58.4399H438.028V55.9H443.188V59.7999C443.188 60.6799 442.982 61.4533 442.568 62.1199C442.168 62.7733 441.602 63.2866 440.868 63.66C440.148 64.02 439.296 64.1999 438.308 64.1999ZM445.6 64V49.4H454.6V52H448.54V55.2799H453.9V57.7599H448.54V61.4H454.6V64H445.6ZM398.172 94V79.4H402.912C403.926 79.4 404.806 79.5934 405.552 79.98C406.312 80.3666 406.898 80.9134 407.312 81.62C407.738 82.3134 407.952 83.1334 407.952 84.08V89.3C407.952 90.2334 407.738 91.0534 407.312 91.76C406.898 92.4666 406.312 93.0199 405.552 93.4199C404.806 93.8065 403.926 94 402.912 94H398.172ZM401.172 91.3H402.912C403.512 91.3 403.998 91.1133 404.372 90.7399C404.758 90.3665 404.952 89.8866 404.952 89.3V84.08C404.952 83.4934 404.758 83.02 404.372 82.66C403.998 82.2866 403.512 82.0999 402.912 82.0999H401.172V91.3ZM409.184 94L412.764 79.4H416.564L420.184 94H417.124L416.424 90.6999H412.944L412.244 94H409.184ZM413.444 88.3H415.904L415.204 84.7799C415.11 84.2733 415.01 83.7733 414.904 83.2799C414.81 82.7733 414.738 82.3799 414.684 82.0999C414.63 82.3799 414.558 82.7666 414.464 83.26C414.384 83.7534 414.29 84.2534 414.184 84.76L413.444 88.3ZM424.956 94V82.0999H421.256V79.4H431.656V82.0999H427.956V94H424.956ZM432.728 94L436.308 79.4H440.108L443.728 94H440.668L439.968 90.6999H436.488L435.788 94H432.728ZM436.988 88.3H439.448L438.748 84.7799C438.656 84.2733 438.556 83.7733 438.448 83.2799C438.356 82.7733 438.282 82.3799 438.228 82.0999C438.176 82.3799 438.102 82.7666 438.008 83.26C437.928 83.7534 437.836 84.2534 437.728 84.76L436.988 88.3Z" fill="#8B62CE"/>
<path d="M243 461.528C243 459.87 241.656 458.528 240 458.528C238.344 458.528 237 459.87 237 461.528H243ZM237 381.528C237 383.184 238.344 384.528 240 384.528C241.656 384.528 243 383.184 243 381.528H237ZM243 510V461.528H237V510H243ZM243 381.528V326H237V381.528H243Z" fill="#7BC86F"/>
<path d="M187.109 413.728C186.136 413.728 185.282 413.548 184.549 413.188C183.816 412.814 183.242 412.3 182.829 411.648C182.429 410.98 182.229 410.208 182.229 409.328V403.128C182.229 402.234 182.429 401.46 182.829 400.808C183.242 400.154 183.816 399.648 184.549 399.288C185.282 398.914 186.136 398.728 187.109 398.728C188.096 398.728 188.949 398.914 189.669 399.288C190.402 399.648 190.969 400.154 191.369 400.808C191.782 401.46 191.989 402.234 191.989 403.128H188.989C188.989 402.54 188.822 402.094 188.489 401.788C188.169 401.48 187.709 401.328 187.109 401.328C186.509 401.328 186.042 401.48 185.709 401.788C185.389 402.094 185.229 402.54 185.229 403.128V409.328C185.229 409.9 185.389 410.348 185.709 410.668C186.042 410.974 186.509 411.128 187.109 411.128C187.709 411.128 188.169 410.974 188.489 410.668C188.822 410.348 188.989 409.9 188.989 409.328V407.968H186.829V405.428H191.989V409.328C191.989 410.208 191.782 410.98 191.369 411.648C190.969 412.3 190.402 412.814 189.669 413.188C188.949 413.548 188.096 413.728 187.109 413.728ZM194.401 413.528V398.928H203.402V401.528H197.341V404.808H202.702V407.288H197.341V410.928H203.402V413.528H194.401ZM209.074 413.528V401.628H205.374V398.928H215.774V401.628H212.074V413.528H209.074ZM217.346 415.728L224.246 396.928H227.346L220.446 415.728H217.346ZM234.118 413.728C232.638 413.728 231.464 413.328 230.598 412.528C229.744 411.728 229.318 410.634 229.318 409.248V398.928H232.318V409.228C232.318 409.84 232.472 410.314 232.778 410.648C233.098 410.968 233.544 411.128 234.118 411.128C234.678 411.128 235.118 410.968 235.438 410.648C235.758 410.314 235.918 409.84 235.918 409.228V398.928H238.918V409.248C238.918 410.62 238.484 411.714 237.618 412.528C236.764 413.328 235.598 413.728 234.118 413.728ZM241.21 413.528V398.928H246.19C247.216 398.928 248.11 399.12 248.87 399.508C249.644 399.894 250.236 400.434 250.65 401.128C251.076 401.82 251.29 402.634 251.29 403.568C251.29 404.488 251.076 405.3 250.65 406.008C250.224 406.7 249.63 407.24 248.87 407.628C248.11 408.014 247.216 408.208 246.19 408.208H244.21V413.528H241.21ZM244.21 405.608H246.19C246.83 405.608 247.336 405.414 247.71 405.028C248.096 404.64 248.29 404.154 248.29 403.568C248.29 402.98 248.096 402.494 247.71 402.108C247.336 401.72 246.83 401.528 246.19 401.528H244.21V405.608ZM252.922 413.528V398.928H257.662C258.676 398.928 259.556 399.12 260.302 399.508C261.062 399.894 261.648 400.44 262.062 401.148C262.488 401.84 262.702 402.66 262.702 403.608V408.828C262.702 409.76 262.488 410.58 262.062 411.288C261.648 411.994 261.062 412.548 260.302 412.948C259.556 413.334 258.676 413.528 257.662 413.528H252.922ZM255.922 410.828H257.662C258.262 410.828 258.748 410.64 259.122 410.268C259.508 409.894 259.702 409.414 259.702 408.828V403.608C259.702 403.02 259.508 402.548 259.122 402.188C258.748 401.814 258.262 401.628 257.662 401.628H255.922V410.828ZM263.934 413.528L267.514 398.928H271.314L274.934 413.528H271.874L271.174 410.228H267.694L266.994 413.528H263.934ZM268.194 407.828H270.654L269.954 404.308C269.862 403.8 269.762 403.3 269.654 402.808C269.562 402.3 269.488 401.908 269.434 401.628C269.382 401.908 269.308 402.294 269.214 402.788C269.134 403.28 269.042 403.78 268.934 404.288L268.194 407.828ZM279.706 413.528V401.628H276.006V398.928H286.406V401.628H282.706V413.528H279.706ZM288.578 413.528V398.928H297.578V401.528H291.518V404.808H296.878V407.288H291.518V410.928H297.578V413.528H288.578ZM209.074 443.528V431.628H205.374V428.928H215.774V431.628H212.074V443.528H209.074ZM222.346 443.728C220.878 443.728 219.712 443.314 218.846 442.488C217.978 441.66 217.546 440.54 217.546 439.128V433.328C217.546 431.9 217.978 430.78 218.846 429.968C219.712 429.14 220.878 428.728 222.346 428.728C223.812 428.728 224.978 429.14 225.846 429.968C226.712 430.78 227.146 431.9 227.146 433.328V439.128C227.146 440.54 226.712 441.66 225.846 442.488C224.978 443.314 223.812 443.728 222.346 443.728ZM222.346 441.128C222.946 441.128 223.392 440.974 223.686 440.668C223.992 440.348 224.146 439.9 224.146 439.328V433.128C224.146 432.54 223.998 432.094 223.706 431.788C223.412 431.48 222.958 431.328 222.346 431.328C221.732 431.328 221.278 431.48 220.986 431.788C220.692 432.094 220.546 432.54 220.546 433.128V439.328C220.546 439.9 220.692 440.348 220.986 440.668C221.292 440.974 221.746 441.128 222.346 441.128ZM229.418 443.528V428.928H232.418V434.648H233.818L236.258 428.928H239.498L236.458 435.828L239.618 443.528H236.338L233.838 437.268H232.418V443.528H229.418ZM241.49 443.528V428.928H250.49V431.528H244.43V434.808H249.79V437.288H244.43V440.928H250.49V443.528H241.49ZM252.862 443.528V428.928H256.362L260.142 440.228C260.102 439.734 260.056 439.168 260.002 438.528C259.948 437.874 259.902 437.228 259.862 436.588C259.836 435.934 259.822 435.38 259.822 434.928V428.928H262.462V443.528H258.962L255.222 432.228C255.262 432.654 255.302 433.16 255.342 433.748C255.382 434.334 255.416 434.928 255.442 435.528C255.482 436.128 255.502 436.66 255.502 437.128V443.528H252.862ZM269.474 443.728C268.448 443.728 267.548 443.548 266.774 443.188C266.014 442.828 265.422 442.32 264.994 441.668C264.582 441 264.374 440.22 264.374 439.328H267.294C267.294 439.874 267.488 440.314 267.874 440.648C268.274 440.968 268.808 441.128 269.474 441.128C270.128 441.128 270.634 440.974 270.994 440.668C271.368 440.348 271.554 439.928 271.554 439.408C271.554 438.994 271.434 438.628 271.194 438.308C270.954 437.974 270.602 437.754 270.134 437.648L268.354 437.228C267.208 436.96 266.294 436.448 265.614 435.688C264.948 434.914 264.614 433.994 264.614 432.928C264.614 432.06 264.802 431.314 265.174 430.688C265.562 430.06 266.108 429.58 266.814 429.248C267.534 428.9 268.382 428.728 269.354 428.728C270.342 428.728 271.188 428.9 271.894 429.248C272.614 429.58 273.168 430.06 273.554 430.688C273.954 431.314 274.154 432.054 274.154 432.908H271.234C271.234 432.4 271.068 432.008 270.734 431.728C270.402 431.434 269.942 431.288 269.354 431.288C268.782 431.288 268.334 431.428 268.014 431.708C267.694 431.988 267.534 432.36 267.534 432.828C267.534 433.214 267.654 433.528 267.894 433.768C268.134 434.008 268.474 434.18 268.914 434.288L270.754 434.708C271.902 434.96 272.808 435.514 273.474 436.368C274.154 437.208 274.494 438.22 274.494 439.408C274.494 440.274 274.288 441.034 273.874 441.688C273.474 442.34 272.894 442.848 272.134 443.208C271.388 443.554 270.502 443.728 269.474 443.728Z" fill="#5C9A53"/>
<path d="M763 379.55C763 381.208 764.344 382.55 766 382.55C767.656 382.55 769 381.208 769 379.55H763ZM769 459.55C769 457.894 767.656 456.55 766 456.55C764.344 456.55 763 457.894 763 459.55H769ZM763 264V379.55H769V264H763ZM763 459.55V572H769V459.55H763ZM763 572C763 595.748 743.748 615 720 615V621C747.062 621 769 599.062 769 572H763ZM720 221C743.748 221 763 240.252 763 264H769C769 236.938 747.062 215 720 215V221Z" fill="#64B5F6"/>
<path d="M742.5 411.75C741.472 411.75 740.572 411.57 739.8 411.21C739.04 410.85 738.446 410.344 738.02 409.69C737.606 409.024 737.4 408.244 737.4 407.35H740.32C740.32 407.898 740.512 408.338 740.9 408.67C741.3 408.99 741.832 409.15 742.5 409.15C743.152 409.15 743.66 408.998 744.02 408.69C744.392 408.37 744.58 407.95 744.58 407.43C744.58 407.018 744.46 406.65 744.22 406.33C743.98 405.998 743.626 405.778 743.16 405.67L741.38 405.25C740.232 404.984 739.32 404.47 738.64 403.71C737.972 402.938 737.64 402.018 737.64 400.95C737.64 400.084 737.826 399.338 738.2 398.71C738.586 398.084 739.132 397.604 739.84 397.27C740.56 396.924 741.406 396.75 742.38 396.75C743.366 396.75 744.212 396.924 744.92 397.27C745.64 397.604 746.192 398.084 746.58 398.71C746.98 399.338 747.18 400.078 747.18 400.93H744.26C744.26 400.424 744.092 400.03 743.76 399.75C743.426 399.458 742.966 399.31 742.38 399.31C741.806 399.31 741.36 399.45 741.04 399.73C740.72 400.01 740.56 400.384 740.56 400.85C740.56 401.238 740.68 401.55 740.92 401.79C741.16 402.03 741.5 402.204 741.94 402.31L743.78 402.73C744.926 402.984 745.832 403.538 746.5 404.39C747.18 405.23 747.52 406.244 747.52 407.43C747.52 408.298 747.312 409.058 746.9 409.71C746.5 410.364 745.92 410.87 745.16 411.23C744.412 411.578 743.526 411.75 742.5 411.75ZM752.732 411.55V399.65H749.032V396.95H759.432V399.65H755.732V411.55H752.732ZM766.004 411.75C764.538 411.75 763.37 411.338 762.504 410.51C761.638 409.684 761.204 408.564 761.204 407.15V401.35C761.204 399.924 761.638 398.804 762.504 397.99C763.37 397.164 764.538 396.75 766.004 396.75C767.47 396.75 768.638 397.164 769.504 397.99C770.37 398.804 770.804 399.924 770.804 401.35V407.15C770.804 408.564 770.37 409.684 769.504 410.51C768.638 411.338 767.47 411.75 766.004 411.75ZM766.004 409.15C766.604 409.15 767.05 408.998 767.344 408.69C767.65 408.37 767.804 407.924 767.804 407.35V401.15C767.804 400.564 767.658 400.118 767.364 399.81C767.07 399.504 766.618 399.35 766.004 399.35C765.39 399.35 764.938 399.504 764.644 399.81C764.35 400.118 764.204 400.564 764.204 401.15V407.35C764.204 407.924 764.35 408.37 764.644 408.69C764.95 408.998 765.404 409.15 766.004 409.15ZM773.096 411.55V396.95H777.776C778.816 396.95 779.716 397.13 780.476 397.49C781.236 397.85 781.822 398.364 782.236 399.03C782.662 399.698 782.876 400.484 782.876 401.39C782.876 402.338 782.642 403.184 782.176 403.93C781.722 404.678 781.102 405.218 780.316 405.55L783.076 411.55H779.816L777.456 406.03H776.056V411.55H773.096ZM776.056 403.43H777.776C778.442 403.43 778.956 403.264 779.316 402.93C779.69 402.598 779.876 402.13 779.876 401.53C779.876 400.904 779.69 400.418 779.316 400.07C778.956 399.724 778.442 399.55 777.776 399.55H776.056V403.43ZM785.148 411.55V396.95H794.148V399.55H788.088V402.83H793.448V405.31H788.088V408.95H794.148V411.55H785.148ZM743.606 441.55V426.95H748.346C749.358 426.95 750.238 427.144 750.986 427.53C751.746 427.918 752.332 428.464 752.746 429.17C753.172 429.864 753.386 430.684 753.386 431.63V436.85C753.386 437.784 753.172 438.604 752.746 439.31C752.332 440.018 751.746 440.57 750.986 440.97C750.238 441.358 749.358 441.55 748.346 441.55H743.606ZM746.606 438.85H748.346C748.946 438.85 749.432 438.664 749.806 438.29C750.192 437.918 750.386 437.438 750.386 436.85V431.63C750.386 431.044 750.192 430.57 749.806 430.21C749.432 429.838 748.946 429.65 748.346 429.65H746.606V438.85ZM754.618 441.55L758.198 426.95H761.998L765.618 441.55H762.558L761.858 438.25H758.378L757.678 441.55H754.618ZM758.878 435.85H761.338L760.638 432.33C760.544 431.824 760.444 431.324 760.338 430.83C760.244 430.324 760.172 429.93 760.118 429.65C760.064 429.93 759.992 430.318 759.898 430.81C759.818 431.304 759.724 431.804 759.618 432.31L758.878 435.85ZM770.39 441.55V429.65H766.69V426.95H777.09V429.65H773.39V441.55H770.39ZM778.162 441.55L781.742 426.95H785.542L789.162 441.55H786.102L785.402 438.25H781.922L781.222 441.55H778.162ZM782.422 435.85H784.882L784.182 432.33C784.088 431.824 783.988 431.324 783.882 430.83C783.788 430.324 783.716 429.93 783.662 429.65C783.608 429.93 783.536 430.318 783.442 430.81C783.362 431.304 783.268 431.804 783.162 432.31L782.422 435.85Z" fill="#4989BD"/>
<path d="M373.994 478.326C375.122 477.112 375.054 475.214 373.84 474.086C372.626 472.958 370.728 473.026 369.6 474.24L373.994 478.326ZM471.9 364.24C470.772 365.452 470.84 367.35 472.054 368.48C473.268 369.608 475.166 369.538 476.294 368.326L471.9 364.24ZM340.644 514.184L356.144 497.52L351.75 493.434L336.252 510.098L340.644 514.184ZM356.144 497.52L364.776 488.238L360.382 484.152L351.75 493.434L356.144 497.52ZM364.776 488.238L373.994 478.326L369.6 474.24L360.382 484.152L364.776 488.238ZM476.294 368.326L480.776 363.506L476.382 359.42L471.9 364.24L476.294 368.326ZM480.776 363.506L494.144 349.132L489.75 345.046L476.382 359.42L480.776 363.506ZM494.144 349.132L515.748 325.902L511.354 321.816L489.75 345.046L494.144 349.132Z" fill="#7BC86F"/>
<path d="M370.056 398.482C369.082 398.482 368.23 398.302 367.496 397.942C366.762 397.57 366.19 397.056 365.776 396.402C365.376 395.736 365.176 394.962 365.176 394.082V387.882C365.176 386.99 365.376 386.216 365.776 385.562C366.19 384.91 366.762 384.402 367.496 384.042C368.23 383.67 369.082 383.482 370.056 383.482C371.042 383.482 371.896 383.67 372.616 384.042C373.35 384.402 373.916 384.91 374.316 385.562C374.73 386.216 374.936 386.99 374.936 387.882H371.936C371.936 387.296 371.77 386.85 371.436 386.542C371.116 386.236 370.656 386.082 370.056 386.082C369.456 386.082 368.99 386.236 368.656 386.542C368.336 386.85 368.176 387.296 368.176 387.882V394.082C368.176 394.656 368.336 395.102 368.656 395.422C368.99 395.73 369.456 395.882 370.056 395.882C370.656 395.882 371.116 395.73 371.436 395.422C371.77 395.102 371.936 394.656 371.936 394.082V392.722H369.776V390.182H374.936V394.082C374.936 394.962 374.73 395.736 374.316 396.402C373.916 397.056 373.35 397.57 372.616 397.942C371.896 398.302 371.042 398.482 370.056 398.482ZM377.348 398.282V383.682H386.348V386.282H380.288V389.562H385.648V392.042H380.288V395.682H386.348V398.282H377.348ZM392.02 398.282V386.382H388.32V383.682H398.72V386.382H395.02V398.282H392.02ZM400.292 400.482L407.192 381.682H410.292L403.392 400.482H400.292ZM417.066 398.482C415.586 398.482 414.412 398.082 413.546 397.282C412.692 396.482 412.266 395.39 412.266 394.002V383.682H415.266V393.982C415.266 394.596 415.418 395.07 415.726 395.402C416.046 395.722 416.492 395.882 417.066 395.882C417.626 395.882 418.066 395.722 418.386 395.402C418.706 395.07 418.866 394.596 418.866 393.982V383.682H421.866V394.002C421.866 395.376 421.432 396.47 420.566 397.282C419.712 398.082 418.546 398.482 417.066 398.482ZM424.158 398.282V383.682H429.138C430.164 383.682 431.058 383.876 431.818 384.262C432.59 384.65 433.184 385.19 433.598 385.882C434.024 386.576 434.238 387.39 434.238 388.322C434.238 389.242 434.024 390.056 433.598 390.762C433.17 391.456 432.578 391.996 431.818 392.382C431.058 392.77 430.164 392.962 429.138 392.962H427.158V398.282H424.158ZM427.158 390.362H429.138C429.778 390.362 430.284 390.17 430.658 389.782C431.044 389.396 431.238 388.91 431.238 388.322C431.238 387.736 431.044 387.25 430.658 386.862C430.284 386.476 429.778 386.282 429.138 386.282H427.158V390.362ZM435.87 398.282V383.682H440.61C441.622 383.682 442.502 383.876 443.25 384.262C444.01 384.65 444.596 385.196 445.01 385.902C445.436 386.596 445.65 387.416 445.65 388.362V393.582C445.65 394.516 445.436 395.336 445.01 396.042C444.596 396.75 444.01 397.302 443.25 397.702C442.502 398.09 441.622 398.282 440.61 398.282H435.87ZM438.87 395.582H440.61C441.21 395.582 441.696 395.396 442.07 395.022C442.456 394.65 442.65 394.17 442.65 393.582V388.362C442.65 387.776 442.456 387.302 442.07 386.942C441.696 386.57 441.21 386.382 440.61 386.382H438.87V395.582ZM446.882 398.282L450.462 383.682H454.262L457.882 398.282H454.822L454.122 394.982H450.642L449.942 398.282H446.882ZM451.142 392.582H453.602L452.902 389.062C452.808 388.556 452.708 388.056 452.602 387.562C452.508 387.056 452.434 386.662 452.382 386.382C452.328 386.662 452.254 387.05 452.162 387.542C452.082 388.036 451.988 388.536 451.882 389.042L451.142 392.582ZM462.654 398.282V386.382H458.954V383.682H469.354V386.382H465.654V398.282H462.654ZM471.526 398.282V383.682H480.526V386.282H474.466V389.562H479.826V392.042H474.466V395.682H480.526V398.282H471.526ZM388.84 428.282V413.682H393.82C394.848 413.682 395.74 413.876 396.5 414.262C397.274 414.65 397.868 415.19 398.28 415.882C398.708 416.576 398.92 417.39 398.92 418.322C398.92 419.242 398.708 420.056 398.28 420.762C397.854 421.456 397.26 421.996 396.5 422.382C395.74 422.77 394.848 422.962 393.82 422.962H391.84V428.282H388.84ZM391.84 420.362H393.82C394.46 420.362 394.968 420.17 395.34 419.782C395.728 419.396 395.92 418.91 395.92 418.322C395.92 417.736 395.728 417.25 395.34 416.862C394.968 416.476 394.46 416.282 393.82 416.282H391.84V420.362ZM405.292 428.482C403.812 428.482 402.64 428.082 401.772 427.282C400.92 426.482 400.492 425.39 400.492 424.002V413.682H403.492V423.982C403.492 424.596 403.646 425.07 403.952 425.402C404.272 425.722 404.72 425.882 405.292 425.882C405.852 425.882 406.292 425.722 406.612 425.402C406.932 425.07 407.092 424.596 407.092 423.982V413.682H410.092V424.002C410.092 425.376 409.66 426.47 408.792 427.282C407.94 428.082 406.772 428.482 405.292 428.482ZM412.386 428.282V413.682H417.086C418.058 413.682 418.906 413.842 419.626 414.162C420.358 414.47 420.926 414.902 421.326 415.462C421.738 416.022 421.946 416.682 421.946 417.442C421.946 417.99 421.838 418.482 421.626 418.922C421.426 419.362 421.138 419.722 420.766 420.002C420.406 420.27 419.986 420.436 419.506 420.502V420.542C420.052 420.596 420.532 420.79 420.946 421.122C421.372 421.442 421.698 421.856 421.926 422.362C422.166 422.87 422.286 423.436 422.286 424.062C422.286 424.902 422.072 425.642 421.646 426.282C421.232 426.91 420.646 427.402 419.886 427.762C419.138 428.11 418.266 428.282 417.266 428.282H412.386ZM415.286 425.862H417.166C417.818 425.862 418.332 425.69 418.706 425.342C419.078 424.996 419.266 424.516 419.266 423.902C419.266 423.29 419.078 422.81 418.706 422.462C418.332 422.102 417.818 421.922 417.166 421.922H415.286V425.862ZM415.286 419.562H417.046C417.632 419.562 418.092 419.41 418.426 419.102C418.758 418.782 418.926 418.356 418.926 417.822C418.926 417.276 418.758 416.856 418.426 416.562C418.092 416.256 417.632 416.102 417.046 416.102H415.286V419.562ZM425.138 428.282V413.682H428.138V425.582H434.038V428.282H425.138ZM436.21 428.282V425.582H439.11V416.382H436.21V413.682H445.01V416.382H442.11V425.582H445.01V428.282H436.21ZM452.542 428.482C451.568 428.482 450.714 428.302 449.982 427.942C449.248 427.57 448.674 427.056 448.262 426.402C447.862 425.736 447.662 424.962 447.662 424.082V417.882C447.662 416.99 447.862 416.216 448.262 415.562C448.674 414.91 449.248 414.402 449.982 414.042C450.714 413.67 451.568 413.482 452.542 413.482C453.528 413.482 454.382 413.67 455.102 414.042C455.834 414.402 456.402 414.91 456.802 415.562C457.214 416.216 457.422 416.99 457.422 417.882H454.422C454.422 417.296 454.254 416.85 453.922 416.542C453.602 416.236 453.142 416.082 452.542 416.082C451.942 416.082 451.474 416.236 451.142 416.542C450.822 416.85 450.662 417.296 450.662 417.882V424.082C450.662 424.656 450.822 425.102 451.142 425.422C451.474 425.73 451.942 425.882 452.542 425.882C453.142 425.882 453.602 425.73 453.922 425.422C454.254 425.102 454.422 424.656 454.422 424.082H457.422C457.422 424.962 457.214 425.736 456.802 426.402C456.402 427.056 455.834 427.57 455.102 427.942C454.382 428.302 453.528 428.482 452.542 428.482ZM400.592 458.282V443.682H403.592V449.402H404.992L407.432 443.682H410.672L407.632 450.582L410.792 458.282H407.512L405.012 452.022H403.592V458.282H400.592ZM412.666 458.282V443.682H421.666V446.282H415.606V449.562H420.966V452.042H415.606V455.682H421.666V458.282H412.666ZM427.338 458.282V453.082L423.138 443.682H426.278L428.118 448.082C428.304 448.522 428.464 448.99 428.598 449.482C428.744 449.976 428.844 450.376 428.898 450.682C428.964 450.376 429.058 449.976 429.178 449.482C429.31 448.99 429.464 448.522 429.638 448.082L431.418 443.682H434.538L430.338 453.082V458.282H427.338ZM440.65 458.482C439.622 458.482 438.722 458.302 437.95 457.942C437.19 457.582 436.596 457.076 436.17 456.422C435.756 455.756 435.55 454.976 435.55 454.082H438.47C438.47 454.63 438.662 455.07 439.05 455.402C439.45 455.722 439.982 455.882 440.65 455.882C441.302 455.882 441.81 455.73 442.17 455.422C442.542 455.102 442.73 454.682 442.73 454.162C442.73 453.75 442.61 453.382 442.37 453.062C442.13 452.73 441.776 452.51 441.31 452.402L439.53 451.982C438.382 451.716 437.47 451.202 436.79 450.442C436.122 449.67 435.79 448.75 435.79 447.682C435.79 446.816 435.976 446.07 436.35 445.442C436.736 444.816 437.282 444.336 437.99 444.002C438.71 443.656 439.556 443.482 440.53 443.482C441.516 443.482 442.362 443.656 443.07 444.002C443.79 444.336 444.342 444.816 444.73 445.442C445.13 446.07 445.33 446.81 445.33 447.662H442.41C442.41 447.156 442.242 446.762 441.91 446.482C441.576 446.19 441.116 446.042 440.53 446.042C439.956 446.042 439.51 446.182 439.19 446.462C438.87 446.742 438.71 447.116 438.71 447.582C438.71 447.97 438.83 448.282 439.07 448.522C439.31 448.762 439.65 448.936 440.09 449.042L441.93 449.462C443.076 449.716 443.982 450.27 444.65 451.122C445.33 451.962 445.67 452.976 445.67 454.162C445.67 455.03 445.462 455.79 445.05 456.442C444.65 457.096 444.07 457.602 443.31 457.962C442.562 458.31 441.676 458.482 440.65 458.482Z" fill="#5C9A53"/>
<path d="M500 152H488C485.791 152 484 153.791 484 156V168C484 170.209 485.791 172 488 172H500C502.209 172 504 170.209 504 168V156C504 153.791 502.209 152 500 152Z" fill="#646464"/>
<path d="M500 180H488C485.791 180 484 181.791 484 184V196C484 198.209 485.791 200 488 200H500C502.209 200 504 198.209 504 196V184C504 181.791 502.209 180 500 180Z" fill="#646464"/>
<path d="M500 208H488C485.791 208 484 209.791 484 212V224C484 226.209 485.791 228 488 228H500C502.209 228 504 226.209 504 224V212C504 209.791 502.209 208 500 208Z" fill="#646464"/>
<path d="M500 236H488C485.791 236 484 237.791 484 240V252C484 254.209 485.791 256 488 256H500C502.209 256 504 254.209 504 252V240C504 237.791 502.209 236 500 236Z" fill="#646464"/>
<path d="M500 264H488C485.791 264 484 265.791 484 268V280C484 282.209 485.791 284 488 284H500C502.209 284 504 282.209 504 280V268C504 265.791 502.209 264 500 264Z" fill="#646464"/>
<path d="M736 152H724C721.791 152 720 153.791 720 156V168C720 170.209 721.791 172 724 172H736C738.209 172 740 170.209 740 168V156C740 153.791 738.209 152 736 152Z" fill="#646464"/>
<path d="M736 180H724C721.791 180 720 181.791 720 184V196C720 198.209 721.791 200 724 200H736C738.209 200 740 198.209 740 196V184C740 181.791 738.209 180 736 180Z" fill="#646464"/>
<path d="M736 236H724C721.791 236 720 237.791 720 240V252C720 254.209 721.791 256 724 256H736C738.209 256 740 254.209 740 252V240C740 237.791 738.209 236 736 236Z" fill="#646464"/>
<path d="M736 264H724C721.791 264 720 265.791 720 268V280C720 282.209 721.791 284 724 284H736C738.209 284 740 282.209 740 280V268C740 265.791 738.209 264 736 264Z" fill="#646464"/>
<path d="M546 330V342C546 344.209 547.791 346 550 346H562C564.209 346 566 344.209 566 342V330C566 327.791 564.209 326 562 326H550C547.791 326 546 327.791 546 330Z" fill="#646464"/>
<path d="M574 330V342C574 344.209 575.791 346 578 346H590C592.209 346 594 344.209 594 342V330C594 327.791 592.209 326 590 326H578C575.791 326 574 327.791 574 330Z" fill="#646464"/>
<path d="M602 330V342C602 344.209 603.791 346 606 346H618C620.209 346 622 344.209 622 342V330C622 327.791 620.209 326 618 326H606C603.791 326 602 327.791 602 330Z" fill="#646464"/>
<path d="M630 330V342C630 344.209 631.791 346 634 346H646C648.209 346 650 344.209 650 342V330C650 327.791 648.209 326 646 326H634C631.791 326 630 327.791 630 330Z" fill="#646464"/>
<path d="M658 330V342C658 344.209 659.791 346 662 346H674C676.209 346 678 344.209 678 342V330C678 327.791 676.209 326 674 326H662C659.791 326 658 327.791 658 330Z" fill="#646464"/>
<path d="M546 94V106C546 108.209 547.791 110 550 110H562C564.209 110 566 108.209 566 106V94C566 91.7909 564.209 90 562 90H550C547.791 90 546 91.7909 546 94Z" fill="#646464"/>
<path d="M574 94V106C574 108.209 575.791 110 578 110H590C592.209 110 594 108.209 594 106V94C594 91.7909 592.209 90 590 90H578C575.791 90 574 91.7909 574 94Z" fill="#646464"/>
<path d="M630 94V106C630 108.209 631.791 110 634 110H646C648.209 110 650 108.209 650 106V94C650 91.7909 648.209 90 646 90H634C631.791 90 630 91.7909 630 94Z" fill="#646464"/>
<path d="M658 94V106C658 108.209 659.791 110 662 110H674C676.209 110 678 108.209 678 106V94C678 91.7909 676.209 90 674 90H662C659.791 90 658 91.7909 658 94Z" fill="#646464"/>
</svg>
