<svg width="496" height="353" viewBox="0 0 496 353" fill="none" xmlns="http://www.w3.org/2000/svg">
<rect x="95" y="200" width="100" height="100" rx="20" fill="#7BC86F"/>
<path d="M105.425 225L108.468 212.59H111.698L114.775 225H112.174L111.579 222.195H108.621L108.026 225H105.425ZM109.046 220.155H111.137L110.542 217.163C110.463 216.732 110.378 216.307 110.287 215.888C110.208 215.457 110.145 215.123 110.1 214.885C110.055 215.123 109.992 215.452 109.913 215.871C109.845 216.29 109.766 216.715 109.675 217.146L109.046 220.155ZM120.293 225.17C119.035 225.17 118.038 224.83 117.301 224.15C116.576 223.47 116.213 222.541 116.213 221.362V212.59H118.763V221.345C118.763 221.866 118.894 222.269 119.154 222.552C119.426 222.824 119.806 222.96 120.293 222.96C120.769 222.96 121.143 222.824 121.415 222.552C121.687 222.269 121.823 221.866 121.823 221.345V212.59H124.373V221.362C124.373 222.529 124.005 223.459 123.268 224.15C122.543 224.83 121.551 225.17 120.293 225.17ZM129.212 225V214.885H126.067V212.59H134.907V214.885H131.762V225H129.212ZM136.702 225V212.59H139.252V217.418H142.108V212.59H144.658V225H142.108V219.713H139.252V225H136.702ZM105.714 242V229.59H108.825L110.083 234.894L111.341 229.59H114.486V242H112.157V237.24C112.157 236.413 112.18 235.602 112.225 234.809C112.282 234.016 112.35 233.262 112.429 232.548C112.508 231.834 112.582 231.188 112.65 230.61L111.086 236.73H109.046L107.516 230.763C107.595 231.25 107.675 231.834 107.754 232.514C107.833 233.194 107.901 233.936 107.958 234.741C108.015 235.534 108.043 236.367 108.043 237.24V242H105.714ZM116.553 242V239.705H119.018V231.885H116.553V229.59H124.033V231.885H121.568V239.705H124.033V242H116.553ZM130.623 242.17C129.795 242.17 129.07 242.017 128.447 241.711C127.823 241.394 127.336 240.957 126.985 240.402C126.645 239.835 126.475 239.178 126.475 238.43V233.16C126.475 232.401 126.645 231.743 126.985 231.188C127.336 230.633 127.823 230.202 128.447 229.896C129.07 229.579 129.795 229.42 130.623 229.42C131.461 229.42 132.187 229.579 132.799 229.896C133.422 230.202 133.904 230.633 134.244 231.188C134.595 231.743 134.771 232.401 134.771 233.16H132.221C132.221 232.661 132.079 232.282 131.796 232.021C131.524 231.76 131.133 231.63 130.623 231.63C130.113 231.63 129.716 231.76 129.433 232.021C129.161 232.282 129.025 232.661 129.025 233.16V238.43C129.025 238.917 129.161 239.297 129.433 239.569C129.716 239.83 130.113 239.96 130.623 239.96C131.133 239.96 131.524 239.83 131.796 239.569C132.079 239.297 132.221 238.917 132.221 238.43H134.771C134.771 239.178 134.595 239.835 134.244 240.402C133.904 240.957 133.422 241.394 132.799 241.711C132.187 242.017 131.461 242.17 130.623 242.17ZM136.702 242V229.59H140.68C141.564 229.59 142.329 229.743 142.975 230.049C143.621 230.355 144.12 230.791 144.471 231.358C144.834 231.925 145.015 232.593 145.015 233.364C145.015 234.169 144.817 234.888 144.42 235.523C144.035 236.158 143.508 236.617 142.839 236.9L145.185 242H142.414L140.408 237.308H139.218V242H136.702ZM139.218 235.098H140.68C141.247 235.098 141.683 234.956 141.989 234.673C142.306 234.39 142.465 233.993 142.465 233.483C142.465 232.95 142.306 232.537 141.989 232.242C141.683 231.947 141.247 231.8 140.68 231.8H139.218V235.098ZM150.873 242.17C149.627 242.17 148.635 241.819 147.898 241.116C147.162 240.413 146.793 239.461 146.793 238.26V233.33C146.793 232.117 147.162 231.165 147.898 230.474C148.635 229.771 149.627 229.42 150.873 229.42C152.12 229.42 153.112 229.771 153.848 230.474C154.585 231.165 154.953 232.117 154.953 233.33V238.26C154.953 239.461 154.585 240.413 153.848 241.116C153.112 241.819 152.12 242.17 150.873 242.17ZM150.873 239.96C151.383 239.96 151.763 239.83 152.012 239.569C152.273 239.297 152.403 238.917 152.403 238.43V233.16C152.403 232.661 152.279 232.282 152.029 232.021C151.78 231.76 151.395 231.63 150.873 231.63C150.352 231.63 149.967 231.76 149.717 232.021C149.468 232.282 149.343 232.661 149.343 233.16V238.43C149.343 238.917 149.468 239.297 149.717 239.569C149.978 239.83 150.363 239.96 150.873 239.96ZM110.134 259.17C109.261 259.17 108.496 259.017 107.839 258.711C107.193 258.405 106.689 257.974 106.326 257.419C105.975 256.852 105.799 256.189 105.799 255.43H108.281C108.281 255.895 108.445 256.269 108.774 256.552C109.114 256.824 109.567 256.96 110.134 256.96C110.689 256.96 111.12 256.83 111.426 256.569C111.743 256.297 111.902 255.94 111.902 255.498C111.902 255.147 111.8 254.835 111.596 254.563C111.392 254.28 111.092 254.093 110.695 254.002L109.182 253.645C108.207 253.418 107.431 252.982 106.853 252.336C106.286 251.679 106.003 250.897 106.003 249.99C106.003 249.253 106.162 248.619 106.479 248.086C106.808 247.553 107.272 247.145 107.873 246.862C108.485 246.567 109.205 246.42 110.032 246.42C110.871 246.42 111.59 246.567 112.191 246.862C112.803 247.145 113.273 247.553 113.602 248.086C113.942 248.619 114.112 249.248 114.112 249.973H111.63C111.63 249.542 111.488 249.208 111.205 248.97C110.922 248.721 110.531 248.596 110.032 248.596C109.545 248.596 109.165 248.715 108.893 248.953C108.621 249.191 108.485 249.508 108.485 249.905C108.485 250.234 108.587 250.5 108.791 250.704C108.995 250.908 109.284 251.055 109.658 251.146L111.222 251.503C112.197 251.718 112.967 252.189 113.534 252.914C114.112 253.628 114.401 254.489 114.401 255.498C114.401 256.235 114.225 256.881 113.874 257.436C113.534 257.991 113.041 258.422 112.395 258.728C111.76 259.023 111.007 259.17 110.134 259.17ZM116.553 259V246.59H124.203V248.8H119.052V251.588H123.608V253.696H119.052V256.79H124.203V259H116.553ZM126.509 259V246.59H130.487C131.371 246.59 132.136 246.743 132.782 247.049C133.428 247.355 133.926 247.791 134.278 248.358C134.64 248.925 134.822 249.593 134.822 250.364C134.822 251.169 134.623 251.888 134.227 252.523C133.841 253.158 133.314 253.617 132.646 253.9L134.992 259H132.221L130.215 254.308H129.025V259H126.509ZM129.025 252.098H130.487C131.053 252.098 131.49 251.956 131.796 251.673C132.113 251.39 132.272 250.993 132.272 250.483C132.272 249.95 132.113 249.537 131.796 249.242C131.49 248.947 131.053 248.8 130.487 248.8H129.025V252.098ZM139.082 259L136.005 246.59H138.64L140.357 254.427C140.414 254.699 140.482 255.045 140.561 255.464C140.652 255.883 140.72 256.24 140.765 256.535C140.81 256.24 140.867 255.883 140.935 255.464C141.003 255.045 141.065 254.693 141.122 254.41L142.788 246.59H145.355L142.312 259H139.082ZM147.133 259V256.705H149.598V248.885H147.133V246.59H154.613V248.885H152.148V256.705H154.613V259H147.133ZM161.203 259.17C160.375 259.17 159.65 259.017 159.027 258.711C158.403 258.394 157.916 257.957 157.565 257.402C157.225 256.835 157.055 256.178 157.055 255.43V250.16C157.055 249.401 157.225 248.743 157.565 248.188C157.916 247.633 158.403 247.202 159.027 246.896C159.65 246.579 160.375 246.42 161.203 246.42C162.041 246.42 162.767 246.579 163.379 246.896C164.002 247.202 164.484 247.633 164.824 248.188C165.175 248.743 165.351 249.401 165.351 250.16H162.801C162.801 249.661 162.659 249.282 162.376 249.021C162.104 248.76 161.713 248.63 161.203 248.63C160.693 248.63 160.296 248.76 160.013 249.021C159.741 249.282 159.605 249.661 159.605 250.16V255.43C159.605 255.917 159.741 256.297 160.013 256.569C160.296 256.83 160.693 256.96 161.203 256.96C161.713 256.96 162.104 256.83 162.376 256.569C162.659 256.297 162.801 255.917 162.801 255.43H165.351C165.351 256.178 165.175 256.835 164.824 257.402C164.484 257.957 164.002 258.394 163.379 258.711C162.767 259.017 162.041 259.17 161.203 259.17ZM167.52 259V246.59H175.17V248.8H170.019V251.588H174.575V253.696H170.019V256.79H175.17V259H167.52Z" fill="black"/>
<path d="M107.432 273.08C107.043 273.08 106.701 273.008 106.408 272.864C106.115 272.715 105.885 272.509 105.72 272.248C105.56 271.981 105.48 271.672 105.48 271.32V268.84C105.48 268.483 105.56 268.173 105.72 267.912C105.885 267.651 106.115 267.448 106.408 267.304C106.701 267.155 107.043 267.08 107.432 267.08C107.827 267.08 108.168 267.155 108.456 267.304C108.749 267.448 108.976 267.651 109.136 267.912C109.301 268.173 109.384 268.483 109.384 268.84H108.184C108.184 268.605 108.117 268.427 107.984 268.304C107.856 268.181 107.672 268.12 107.432 268.12C107.192 268.12 107.005 268.181 106.872 268.304C106.744 268.427 106.68 268.605 106.68 268.84V271.32C106.68 271.549 106.744 271.728 106.872 271.856C107.005 271.979 107.192 272.04 107.432 272.04C107.672 272.04 107.856 271.979 107.984 271.856C108.117 271.728 108.184 271.549 108.184 271.32V270.776H107.32V269.76H109.384V271.32C109.384 271.672 109.301 271.981 109.136 272.248C108.976 272.509 108.749 272.715 108.456 272.864C108.168 273.008 107.827 273.08 107.432 273.08ZM110.437 273V267.16H114.037V268.2H111.613V269.512H113.757V270.504H111.613V271.96H114.037V273H110.437ZM115.074 273V267.16H116.474L117.986 271.68C117.97 271.483 117.951 271.256 117.93 271C117.908 270.739 117.89 270.48 117.874 270.224C117.863 269.963 117.858 269.741 117.858 269.56V267.16H118.914V273H117.514L116.018 268.48C116.034 268.651 116.05 268.853 116.066 269.088C116.082 269.323 116.095 269.56 116.106 269.8C116.122 270.04 116.13 270.253 116.13 270.44V273H115.074ZM125.988 273V268.24H124.508V267.16H128.668V268.24H127.188V273H125.988ZM131.384 273.08C130.798 273.08 130.331 272.915 129.984 272.584C129.638 272.253 129.464 271.805 129.464 271.24V268.92C129.464 268.349 129.638 267.901 129.984 267.576C130.331 267.245 130.798 267.08 131.384 267.08C131.971 267.08 132.438 267.245 132.784 267.576C133.131 267.901 133.304 268.349 133.304 268.92V271.24C133.304 271.805 133.131 272.253 132.784 272.584C132.438 272.915 131.971 273.08 131.384 273.08ZM131.384 272.04C131.624 272.04 131.803 271.979 131.92 271.856C132.043 271.728 132.104 271.549 132.104 271.32V268.84C132.104 268.605 132.046 268.427 131.928 268.304C131.811 268.181 131.63 268.12 131.384 268.12C131.139 268.12 130.958 268.181 130.84 268.304C130.723 268.427 130.664 268.605 130.664 268.84V271.32C130.664 271.549 130.723 271.728 130.84 271.856C130.963 271.979 131.144 272.04 131.384 272.04ZM134.301 273V267.16H135.501V269.448H136.061L137.037 267.16H138.333L137.117 269.92L138.381 273H137.069L136.069 270.496H135.501V273H134.301ZM139.218 273V267.16H142.818V268.2H140.394V269.512H142.538V270.504H140.394V271.96H142.818V273H139.218ZM143.855 273V267.16H145.255L146.767 271.68C146.751 271.483 146.732 271.256 146.711 271C146.69 270.739 146.671 270.48 146.655 270.224C146.644 269.963 146.639 269.741 146.639 269.56V267.16H147.695V273H146.295L144.799 268.48C144.815 268.651 144.831 268.853 144.847 269.088C144.863 269.323 144.876 269.56 144.887 269.8C144.903 270.04 144.911 270.253 144.911 270.44V273H143.855ZM105.2 281L106.632 275.16H108.152L109.6 281H108.376L108.096 279.68H106.704L106.424 281H105.2ZM106.904 278.72H107.888L107.608 277.312C107.571 277.109 107.531 276.909 107.488 276.712C107.451 276.509 107.421 276.352 107.4 276.24C107.379 276.352 107.349 276.507 107.312 276.704C107.28 276.901 107.243 277.101 107.2 277.304L106.904 278.72ZM112.197 281.08C111.605 281.08 111.136 280.92 110.789 280.6C110.448 280.28 110.277 279.843 110.277 279.288V275.16H111.477V279.28C111.477 279.525 111.538 279.715 111.661 279.848C111.789 279.976 111.968 280.04 112.197 280.04C112.421 280.04 112.597 279.976 112.725 279.848C112.853 279.715 112.917 279.525 112.917 279.28V275.16H114.117V279.288C114.117 279.837 113.944 280.275 113.597 280.6C113.256 280.92 112.789 281.08 112.197 281.08ZM116.394 281V276.24H114.914V275.16H119.074V276.24H117.594V281H116.394ZM119.919 281V275.16H121.119V277.432H122.463V275.16H123.663V281H122.463V278.512H121.119V281H119.919ZM129.904 281V275.16H131.104V279.92H133.464V281H129.904ZM136.181 281.08C135.595 281.08 135.128 280.915 134.781 280.584C134.435 280.253 134.261 279.805 134.261 279.24V276.92C134.261 276.349 134.435 275.901 134.781 275.576C135.128 275.245 135.595 275.08 136.181 275.08C136.768 275.08 137.235 275.245 137.581 275.576C137.928 275.901 138.101 276.349 138.101 276.92V279.24C138.101 279.805 137.928 280.253 137.581 280.584C137.235 280.915 136.768 281.08 136.181 281.08ZM136.181 280.04C136.421 280.04 136.6 279.979 136.717 279.856C136.84 279.728 136.901 279.549 136.901 279.32V276.84C136.901 276.605 136.843 276.427 136.725 276.304C136.608 276.181 136.427 276.12 136.181 276.12C135.936 276.12 135.755 276.181 135.637 276.304C135.52 276.427 135.461 276.605 135.461 276.84V279.32C135.461 279.549 135.52 279.728 135.637 279.856C135.76 279.979 135.941 280.04 136.181 280.04ZM141.01 281.08C140.621 281.08 140.279 281.008 139.986 280.864C139.693 280.715 139.463 280.509 139.298 280.248C139.138 279.981 139.058 279.672 139.058 279.32V276.84C139.058 276.483 139.138 276.173 139.298 275.912C139.463 275.651 139.693 275.448 139.986 275.304C140.279 275.155 140.621 275.08 141.01 275.08C141.405 275.08 141.746 275.155 142.034 275.304C142.327 275.448 142.554 275.651 142.714 275.912C142.879 276.173 142.962 276.483 142.962 276.84H141.762C141.762 276.605 141.695 276.427 141.562 276.304C141.434 276.181 141.25 276.12 141.01 276.12C140.77 276.12 140.583 276.181 140.45 276.304C140.322 276.427 140.258 276.605 140.258 276.84V279.32C140.258 279.549 140.322 279.728 140.45 279.856C140.583 279.979 140.77 280.04 141.01 280.04C141.25 280.04 141.434 279.979 141.562 279.856C141.695 279.728 141.762 279.549 141.762 279.32V278.776H140.898V277.76H142.962V279.32C142.962 279.672 142.879 279.981 142.714 280.248C142.554 280.509 142.327 280.715 142.034 280.864C141.746 281.008 141.405 281.08 141.01 281.08ZM144.015 281V279.92H145.175V276.24H144.015V275.16H147.535V276.24H146.375V279.92H147.535V281H144.015ZM150.636 281.08C150.247 281.08 149.905 281.008 149.612 280.864C149.319 280.715 149.089 280.509 148.924 280.248C148.764 279.981 148.684 279.672 148.684 279.32V276.84C148.684 276.483 148.764 276.173 148.924 275.912C149.089 275.651 149.319 275.448 149.612 275.304C149.905 275.155 150.247 275.08 150.636 275.08C151.031 275.08 151.372 275.155 151.66 275.304C151.953 275.448 152.18 275.651 152.34 275.912C152.505 276.173 152.588 276.483 152.588 276.84H151.388C151.388 276.605 151.321 276.427 151.188 276.304C151.06 276.181 150.876 276.12 150.636 276.12C150.396 276.12 150.209 276.181 150.076 276.304C149.948 276.427 149.884 276.605 149.884 276.84V279.32C149.884 279.549 149.948 279.728 150.076 279.856C150.209 279.979 150.396 280.04 150.636 280.04C150.876 280.04 151.06 279.979 151.188 279.856C151.321 279.728 151.388 279.549 151.388 279.32H152.588C152.588 279.672 152.505 279.981 152.34 280.248C152.18 280.509 151.953 280.715 151.66 280.864C151.372 281.008 151.031 281.08 150.636 281.08ZM105.336 289V283.16H106.8L107.392 285.656L107.984 283.16H109.464V289H108.368V286.76C108.368 286.371 108.379 285.989 108.4 285.616C108.427 285.243 108.459 284.888 108.496 284.552C108.533 284.216 108.568 283.912 108.6 283.64L107.864 286.52H106.904L106.184 283.712C106.221 283.941 106.259 284.216 106.296 284.536C106.333 284.856 106.365 285.205 106.392 285.584C106.419 285.957 106.432 286.349 106.432 286.76V289H105.336ZM109.997 289L111.429 283.16H112.949L114.397 289H113.173L112.893 287.68H111.501L111.221 289H109.997ZM111.701 286.72H112.685L112.405 285.312C112.368 285.109 112.328 284.909 112.285 284.712C112.248 284.509 112.218 284.352 112.197 284.24C112.176 284.352 112.146 284.507 112.109 284.704C112.077 284.901 112.04 285.101 111.997 285.304L111.701 286.72ZM115.074 289V283.16H116.474L117.986 287.68C117.97 287.483 117.951 287.256 117.93 287C117.908 286.739 117.89 286.48 117.874 286.224C117.863 285.963 117.858 285.741 117.858 285.56V283.16H118.914V289H117.514L116.018 284.48C116.034 284.651 116.05 284.853 116.066 285.088C116.082 285.323 116.095 285.56 116.106 285.8C116.122 286.04 116.13 286.253 116.13 286.44V289H115.074ZM119.591 289L121.023 283.16H122.543L123.991 289H122.767L122.487 287.68H121.095L120.815 289H119.591ZM121.295 286.72H122.279L121.999 285.312C121.961 285.109 121.921 284.909 121.879 284.712C121.841 284.509 121.812 284.352 121.791 284.24C121.769 284.352 121.74 284.507 121.703 284.704C121.671 284.901 121.633 285.101 121.591 285.304L121.295 286.72ZM126.62 289.08C126.23 289.08 125.889 289.008 125.596 288.864C125.302 288.715 125.073 288.509 124.908 288.248C124.748 287.981 124.668 287.672 124.668 287.32V284.84C124.668 284.483 124.748 284.173 124.908 283.912C125.073 283.651 125.302 283.448 125.596 283.304C125.889 283.155 126.23 283.08 126.62 283.08C127.014 283.08 127.356 283.155 127.644 283.304C127.937 283.448 128.164 283.651 128.324 283.912C128.489 284.173 128.572 284.483 128.572 284.84H127.372C127.372 284.605 127.305 284.427 127.172 284.304C127.044 284.181 126.86 284.12 126.62 284.12C126.38 284.12 126.193 284.181 126.06 284.304C125.932 284.427 125.868 284.605 125.868 284.84V287.32C125.868 287.549 125.932 287.728 126.06 287.856C126.193 287.979 126.38 288.04 126.62 288.04C126.86 288.04 127.044 287.979 127.172 287.856C127.305 287.728 127.372 287.549 127.372 287.32V286.776H126.508V285.76H128.572V287.32C128.572 287.672 128.489 287.981 128.324 288.248C128.164 288.509 127.937 288.715 127.644 288.864C127.356 289.008 127.014 289.08 126.62 289.08ZM129.624 289V283.16H133.224V284.2H130.8V285.512H132.944V286.504H130.8V287.96H133.224V289H129.624ZM139.106 289V283.16H141.098C141.509 283.16 141.866 283.237 142.17 283.392C142.479 283.547 142.717 283.763 142.882 284.04C143.053 284.317 143.138 284.643 143.138 285.016C143.138 285.384 143.053 285.709 142.882 285.992C142.711 286.269 142.474 286.485 142.17 286.64C141.866 286.795 141.509 286.872 141.098 286.872H140.306V289H139.106ZM140.306 285.832H141.098C141.354 285.832 141.557 285.755 141.706 285.6C141.861 285.445 141.938 285.251 141.938 285.016C141.938 284.781 141.861 284.587 141.706 284.432C141.557 284.277 141.354 284.2 141.098 284.2H140.306V285.832ZM143.903 289V283.16H145.775C146.191 283.16 146.551 283.232 146.855 283.376C147.159 283.52 147.394 283.725 147.559 283.992C147.73 284.259 147.815 284.573 147.815 284.936C147.815 285.315 147.722 285.653 147.535 285.952C147.354 286.251 147.106 286.467 146.791 286.6L147.895 289H146.591L145.647 286.792H145.087V289H143.903ZM145.087 285.752H145.775C146.042 285.752 146.247 285.685 146.391 285.552C146.54 285.419 146.615 285.232 146.615 284.992C146.615 284.741 146.54 284.547 146.391 284.408C146.247 284.269 146.042 284.2 145.775 284.2H145.087V285.752ZM150.572 289.08C149.985 289.08 149.519 288.915 149.172 288.584C148.825 288.253 148.652 287.805 148.652 287.24V284.92C148.652 284.349 148.825 283.901 149.172 283.576C149.519 283.245 149.985 283.08 150.572 283.08C151.159 283.08 151.625 283.245 151.972 283.576C152.319 283.901 152.492 284.349 152.492 284.92V287.24C152.492 287.805 152.319 288.253 151.972 288.584C151.625 288.915 151.159 289.08 150.572 289.08ZM150.572 288.04C150.812 288.04 150.991 287.979 151.108 287.856C151.231 287.728 151.292 287.549 151.292 287.32V284.84C151.292 284.605 151.233 284.427 151.116 284.304C150.999 284.181 150.817 284.12 150.572 284.12C150.327 284.12 150.145 284.181 150.028 284.304C149.911 284.427 149.852 284.605 149.852 284.84V287.32C149.852 287.549 149.911 287.728 150.028 287.856C150.151 287.979 150.332 288.04 150.572 288.04ZM153.529 289V283.16H157.289V284.28H154.713V285.576H157.081V286.696H154.729V289H153.529ZM158.406 289V287.92H159.566V284.24H158.406V283.16H161.926V284.24H160.766V287.92H161.926V289H158.406ZM163.483 289V283.16H164.683V287.92H167.043V289H163.483ZM167.999 289V283.16H171.599V284.2H169.175V285.512H171.319V286.504H169.175V287.96H171.599V289H167.999Z" fill="#33592D"/>
<rect x="328" width="100" height="100" rx="20" fill="#D9D9D9"/>
<path d="M343.1 25.17C341.853 25.17 340.862 24.8187 340.125 24.116C339.388 23.4133 339.02 22.4613 339.02 21.26V16.33C339.02 15.1173 339.388 14.1653 340.125 13.474C340.862 12.7713 341.853 12.42 343.1 12.42C344.347 12.42 345.338 12.7713 346.075 13.474C346.812 14.1653 347.18 15.1173 347.18 16.33V21.26C347.18 22.4613 346.812 23.4133 346.075 24.116C345.338 24.8187 344.347 25.17 343.1 25.17ZM343.1 22.96C343.61 22.96 343.99 22.8297 344.239 22.569C344.5 22.297 344.63 21.9173 344.63 21.43V16.16C344.63 15.6613 344.505 15.2817 344.256 15.021C344.007 14.7603 343.621 14.63 343.1 14.63C342.579 14.63 342.193 14.7603 341.944 15.021C341.695 15.2817 341.57 15.6613 341.57 16.16V21.43C341.57 21.9173 341.695 22.297 341.944 22.569C342.205 22.8297 342.59 22.96 343.1 22.96ZM352.018 25V14.885H348.873V12.59H357.713V14.885H354.568V25H352.018ZM359.509 25V12.59H362.059V17.418H364.915V12.59H367.465V25H364.915V19.713H362.059V25H359.509ZM369.94 25V12.59H377.59V14.8H372.439V17.588H376.995V19.696H372.439V22.79H377.59V25H369.94ZM379.895 25V12.59H383.873C384.757 12.59 385.522 12.743 386.168 13.049C386.814 13.355 387.313 13.7913 387.664 14.358C388.027 14.9247 388.208 15.5933 388.208 16.364C388.208 17.1687 388.01 17.8883 387.613 18.523C387.228 19.1577 386.701 19.6167 386.032 19.9L388.378 25H385.607L383.601 20.308H382.411V25H379.895ZM382.411 18.098H383.873C384.44 18.098 384.876 17.9563 385.182 17.673C385.5 17.3897 385.658 16.993 385.658 16.483C385.658 15.9503 385.5 15.5367 385.182 15.242C384.876 14.9473 384.44 14.8 383.873 14.8H382.411V18.098ZM338.714 42V29.59H341.825L343.083 34.894L344.341 29.59H347.486V42H345.157V37.24C345.157 36.4127 345.18 35.6023 345.225 34.809C345.282 34.0157 345.35 33.262 345.429 32.548C345.508 31.834 345.582 31.188 345.65 30.61L344.086 36.73H342.046L340.516 30.763C340.595 31.2503 340.675 31.834 340.754 32.514C340.833 33.194 340.901 33.9363 340.958 34.741C341.015 35.5343 341.043 36.3673 341.043 37.24V42H338.714ZM349.553 42V39.705H352.018V31.885H349.553V29.59H357.033V31.885H354.568V39.705H357.033V42H349.553ZM363.623 42.17C362.795 42.17 362.07 42.017 361.447 41.711C360.823 41.3937 360.336 40.9573 359.985 40.402C359.645 39.8353 359.475 39.178 359.475 38.43V33.16C359.475 32.4007 359.645 31.7433 359.985 31.188C360.336 30.6327 360.823 30.202 361.447 29.896C362.07 29.5787 362.795 29.42 363.623 29.42C364.461 29.42 365.187 29.5787 365.799 29.896C366.422 30.202 366.904 30.6327 367.244 31.188C367.595 31.7433 367.771 32.4007 367.771 33.16H365.221C365.221 32.6613 365.079 32.2817 364.796 32.021C364.524 31.7603 364.133 31.63 363.623 31.63C363.113 31.63 362.716 31.7603 362.433 32.021C362.161 32.2817 362.025 32.6613 362.025 33.16V38.43C362.025 38.9173 362.161 39.297 362.433 39.569C362.716 39.8297 363.113 39.96 363.623 39.96C364.133 39.96 364.524 39.8297 364.796 39.569C365.079 39.297 365.221 38.9173 365.221 38.43H367.771C367.771 39.178 367.595 39.8353 367.244 40.402C366.904 40.9573 366.422 41.3937 365.799 41.711C365.187 42.017 364.461 42.17 363.623 42.17ZM369.702 42V29.59H373.68C374.564 29.59 375.329 29.743 375.975 30.049C376.621 30.355 377.12 30.7913 377.471 31.358C377.834 31.9247 378.015 32.5933 378.015 33.364C378.015 34.1687 377.817 34.8883 377.42 35.523C377.035 36.1577 376.508 36.6167 375.839 36.9L378.185 42H375.414L373.408 37.308H372.218V42H369.702ZM372.218 35.098H373.68C374.247 35.098 374.683 34.9563 374.989 34.673C375.306 34.3897 375.465 33.993 375.465 33.483C375.465 32.9503 375.306 32.5367 374.989 32.242C374.683 31.9473 374.247 31.8 373.68 31.8H372.218V35.098ZM383.873 42.17C382.627 42.17 381.635 41.8187 380.898 41.116C380.162 40.4133 379.793 39.4613 379.793 38.26V33.33C379.793 32.1173 380.162 31.1653 380.898 30.474C381.635 29.7713 382.627 29.42 383.873 29.42C385.12 29.42 386.112 29.7713 386.848 30.474C387.585 31.1653 387.953 32.1173 387.953 33.33V38.26C387.953 39.4613 387.585 40.4133 386.848 41.116C386.112 41.8187 385.12 42.17 383.873 42.17ZM383.873 39.96C384.383 39.96 384.763 39.8297 385.012 39.569C385.273 39.297 385.403 38.9173 385.403 38.43V33.16C385.403 32.6613 385.279 32.2817 385.029 32.021C384.78 31.7603 384.395 31.63 383.873 31.63C383.352 31.63 382.967 31.7603 382.717 32.021C382.468 32.2817 382.343 32.6613 382.343 33.16V38.43C382.343 38.9173 382.468 39.297 382.717 39.569C382.978 39.8297 383.363 39.96 383.873 39.96ZM343.134 59.17C342.261 59.17 341.496 59.017 340.839 58.711C340.193 58.405 339.689 57.9743 339.326 57.419C338.975 56.8523 338.799 56.1893 338.799 55.43H341.281C341.281 55.8947 341.445 56.2687 341.774 56.552C342.114 56.824 342.567 56.96 343.134 56.96C343.689 56.96 344.12 56.8297 344.426 56.569C344.743 56.297 344.902 55.94 344.902 55.498C344.902 55.1467 344.8 54.835 344.596 54.563C344.392 54.2797 344.092 54.0927 343.695 54.002L342.182 53.645C341.207 53.4183 340.431 52.982 339.853 52.336C339.286 51.6787 339.003 50.8967 339.003 49.99C339.003 49.2533 339.162 48.6187 339.479 48.086C339.808 47.5533 340.272 47.1453 340.873 46.862C341.485 46.5673 342.205 46.42 343.032 46.42C343.871 46.42 344.59 46.5673 345.191 46.862C345.803 47.1453 346.273 47.5533 346.602 48.086C346.942 48.6187 347.112 49.2477 347.112 49.973H344.63C344.63 49.5423 344.488 49.208 344.205 48.97C343.922 48.7207 343.531 48.596 343.032 48.596C342.545 48.596 342.165 48.715 341.893 48.953C341.621 49.191 341.485 49.5083 341.485 49.905C341.485 50.2337 341.587 50.5 341.791 50.704C341.995 50.908 342.284 51.0553 342.658 51.146L344.222 51.503C345.197 51.7183 345.967 52.1887 346.534 52.914C347.112 53.628 347.401 54.4893 347.401 55.498C347.401 56.2347 347.225 56.8807 346.874 57.436C346.534 57.9913 346.041 58.422 345.395 58.728C344.76 59.0227 344.007 59.17 343.134 59.17ZM349.553 59V46.59H357.203V48.8H352.052V51.588H356.608V53.696H352.052V56.79H357.203V59H349.553ZM359.509 59V46.59H363.487C364.371 46.59 365.136 46.743 365.782 47.049C366.428 47.355 366.926 47.7913 367.278 48.358C367.64 48.9247 367.822 49.5933 367.822 50.364C367.822 51.1687 367.623 51.8883 367.227 52.523C366.841 53.1577 366.314 53.6167 365.646 53.9L367.992 59H365.221L363.215 54.308H362.025V59H359.509ZM362.025 52.098H363.487C364.053 52.098 364.49 51.9563 364.796 51.673C365.113 51.3897 365.272 50.993 365.272 50.483C365.272 49.9503 365.113 49.5367 364.796 49.242C364.49 48.9473 364.053 48.8 363.487 48.8H362.025V52.098ZM372.082 59L369.005 46.59H371.64L373.357 54.427C373.414 54.699 373.482 55.0447 373.561 55.464C373.652 55.8833 373.72 56.2403 373.765 56.535C373.81 56.2403 373.867 55.8833 373.935 55.464C374.003 55.0447 374.065 54.6933 374.122 54.41L375.788 46.59H378.355L375.312 59H372.082ZM380.133 59V56.705H382.598V48.885H380.133V46.59H387.613V48.885H385.148V56.705H387.613V59H380.133ZM394.203 59.17C393.375 59.17 392.65 59.017 392.027 58.711C391.403 58.3937 390.916 57.9573 390.565 57.402C390.225 56.8353 390.055 56.178 390.055 55.43V50.16C390.055 49.4007 390.225 48.7433 390.565 48.188C390.916 47.6327 391.403 47.202 392.027 46.896C392.65 46.5787 393.375 46.42 394.203 46.42C395.041 46.42 395.767 46.5787 396.379 46.896C397.002 47.202 397.484 47.6327 397.824 48.188C398.175 48.7433 398.351 49.4007 398.351 50.16H395.801C395.801 49.6613 395.659 49.2817 395.376 49.021C395.104 48.7603 394.713 48.63 394.203 48.63C393.693 48.63 393.296 48.7603 393.013 49.021C392.741 49.2817 392.605 49.6613 392.605 50.16V55.43C392.605 55.9173 392.741 56.297 393.013 56.569C393.296 56.8297 393.693 56.96 394.203 56.96C394.713 56.96 395.104 56.8297 395.376 56.569C395.659 56.297 395.801 55.9173 395.801 55.43H398.351C398.351 56.178 398.175 56.8353 397.824 57.402C397.484 57.9573 397.002 58.3937 396.379 58.711C395.767 59.017 395.041 59.17 394.203 59.17ZM400.52 59V46.59H408.17V48.8H403.019V51.588H407.575V53.696H403.019V56.79H408.17V59H400.52Z" fill="black"/>
<path d="M338.528 89V83.16H340.408C340.797 83.16 341.136 83.224 341.424 83.352C341.717 83.4747 341.944 83.648 342.104 83.872C342.269 84.096 342.352 84.36 342.352 84.664C342.352 84.8827 342.309 85.08 342.224 85.256C342.144 85.432 342.029 85.576 341.88 85.688C341.736 85.7947 341.568 85.8613 341.376 85.888V85.904C341.595 85.9253 341.787 86.0027 341.952 86.136C342.123 86.264 342.253 86.4293 342.344 86.632C342.44 86.8347 342.488 87.0613 342.488 87.312C342.488 87.648 342.403 87.944 342.232 88.2C342.067 88.4507 341.832 88.648 341.528 88.792C341.229 88.9307 340.88 89 340.48 89H338.528ZM339.688 88.032H340.44C340.701 88.032 340.907 87.9627 341.056 87.824C341.205 87.6853 341.28 87.4933 341.28 87.248C341.28 87.0027 341.205 86.8107 341.056 86.672C340.907 86.528 340.701 86.456 340.44 86.456H339.688V88.032ZM339.688 85.512H340.392C340.627 85.512 340.811 85.4507 340.944 85.328C341.077 85.2 341.144 85.0293 341.144 84.816C341.144 84.5973 341.077 84.4293 340.944 84.312C340.811 84.1893 340.627 84.128 340.392 84.128H339.688V85.512ZM345.197 89.08C344.605 89.08 344.136 88.92 343.789 88.6C343.448 88.28 343.277 87.8427 343.277 87.288V83.16H344.477V87.28C344.477 87.5253 344.538 87.7147 344.661 87.848C344.789 87.976 344.968 88.04 345.197 88.04C345.421 88.04 345.597 87.976 345.725 87.848C345.853 87.7147 345.917 87.5253 345.917 87.28V83.16H347.117V87.288C347.117 87.8373 346.944 88.2747 346.597 88.6C346.256 88.92 345.789 89.08 345.197 89.08ZM350.01 89.08C349.599 89.08 349.239 89.008 348.93 88.864C348.626 88.72 348.388 88.5173 348.218 88.256C348.052 87.9893 347.97 87.6773 347.97 87.32H349.138C349.138 87.5387 349.215 87.7147 349.37 87.848C349.53 87.976 349.743 88.04 350.01 88.04C350.271 88.04 350.474 87.9787 350.618 87.856C350.767 87.728 350.842 87.56 350.842 87.352C350.842 87.1867 350.794 87.04 350.698 86.912C350.602 86.7787 350.46 86.6907 350.274 86.648L349.562 86.48C349.103 86.3733 348.738 86.168 348.466 85.864C348.199 85.5547 348.066 85.1867 348.066 84.76C348.066 84.4133 348.14 84.1147 348.29 83.864C348.444 83.6133 348.663 83.4213 348.946 83.288C349.234 83.1493 349.572 83.08 349.962 83.08C350.356 83.08 350.695 83.1493 350.978 83.288C351.266 83.4213 351.487 83.6133 351.642 83.864C351.802 84.1147 351.882 84.4107 351.882 84.752H350.714C350.714 84.5493 350.647 84.392 350.514 84.28C350.38 84.1627 350.196 84.104 349.962 84.104C349.732 84.104 349.554 84.16 349.426 84.272C349.298 84.384 349.234 84.5333 349.234 84.72C349.234 84.8747 349.282 85 349.378 85.096C349.474 85.192 349.61 85.2613 349.786 85.304L350.522 85.472C350.98 85.5733 351.343 85.7947 351.61 86.136C351.882 86.472 352.018 86.8773 352.018 87.352C352.018 87.6987 351.935 88.0027 351.77 88.264C351.61 88.5253 351.378 88.728 351.074 88.872C350.775 89.0107 350.42 89.08 350.01 89.08ZM353.031 89V87.92H354.191V84.24H353.031V83.16H356.551V84.24H355.391V87.92H356.551V89H353.031ZM357.668 89V83.16H359.068L360.58 87.68C360.564 87.4827 360.545 87.256 360.524 87C360.502 86.7387 360.484 86.48 360.468 86.224C360.457 85.9627 360.452 85.7413 360.452 85.56V83.16H361.508V89H360.108L358.612 84.48C358.628 84.6507 358.644 84.8533 358.66 85.088C358.676 85.3227 358.689 85.56 358.7 85.8C358.716 86.04 358.724 86.2533 358.724 86.44V89H357.668ZM362.624 89V83.16H366.224V84.2H363.8V85.512H365.944V86.504H363.8V87.96H366.224V89H362.624ZM369.197 89.08C368.787 89.08 368.427 89.008 368.117 88.864C367.813 88.72 367.576 88.5173 367.405 88.256C367.24 87.9893 367.157 87.6773 367.157 87.32H368.325C368.325 87.5387 368.403 87.7147 368.557 87.848C368.717 87.976 368.931 88.04 369.197 88.04C369.459 88.04 369.661 87.9787 369.805 87.856C369.955 87.728 370.029 87.56 370.029 87.352C370.029 87.1867 369.981 87.04 369.885 86.912C369.789 86.7787 369.648 86.6907 369.461 86.648L368.749 86.48C368.291 86.3733 367.925 86.168 367.653 85.864C367.387 85.5547 367.253 85.1867 367.253 84.76C367.253 84.4133 367.328 84.1147 367.477 83.864C367.632 83.6133 367.851 83.4213 368.133 83.288C368.421 83.1493 368.76 83.08 369.149 83.08C369.544 83.08 369.883 83.1493 370.165 83.288C370.453 83.4213 370.675 83.6133 370.829 83.864C370.989 84.1147 371.069 84.4107 371.069 84.752H369.901C369.901 84.5493 369.835 84.392 369.701 84.28C369.568 84.1627 369.384 84.104 369.149 84.104C368.92 84.104 368.741 84.16 368.613 84.272C368.485 84.384 368.421 84.5333 368.421 84.72C368.421 84.8747 368.469 85 368.565 85.096C368.661 85.192 368.797 85.2613 368.973 85.304L369.709 85.472C370.168 85.5733 370.531 85.7947 370.797 86.136C371.069 86.472 371.205 86.8773 371.205 87.352C371.205 87.6987 371.123 88.0027 370.957 88.264C370.797 88.5253 370.565 88.728 370.261 88.872C369.963 89.0107 369.608 89.08 369.197 89.08ZM373.994 89.08C373.583 89.08 373.223 89.008 372.914 88.864C372.61 88.72 372.373 88.5173 372.202 88.256C372.037 87.9893 371.954 87.6773 371.954 87.32H373.122C373.122 87.5387 373.199 87.7147 373.354 87.848C373.514 87.976 373.727 88.04 373.994 88.04C374.255 88.04 374.458 87.9787 374.602 87.856C374.751 87.728 374.826 87.56 374.826 87.352C374.826 87.1867 374.778 87.04 374.682 86.912C374.586 86.7787 374.445 86.6907 374.258 86.648L373.546 86.48C373.087 86.3733 372.722 86.168 372.45 85.864C372.183 85.5547 372.05 85.1867 372.05 84.76C372.05 84.4133 372.125 84.1147 372.274 83.864C372.429 83.6133 372.647 83.4213 372.93 83.288C373.218 83.1493 373.557 83.08 373.946 83.08C374.341 83.08 374.679 83.1493 374.962 83.288C375.25 83.4213 375.471 83.6133 375.626 83.864C375.786 84.1147 375.866 84.4107 375.866 84.752H374.698C374.698 84.5493 374.631 84.392 374.498 84.28C374.365 84.1627 374.181 84.104 373.946 84.104C373.717 84.104 373.538 84.16 373.41 84.272C373.282 84.384 373.218 84.5333 373.218 84.72C373.218 84.8747 373.266 85 373.362 85.096C373.458 85.192 373.594 85.2613 373.77 85.304L374.506 85.472C374.965 85.5733 375.327 85.7947 375.594 86.136C375.866 86.472 376.002 86.8773 376.002 87.352C376.002 87.6987 375.919 88.0027 375.754 88.264C375.594 88.5253 375.362 88.728 375.058 88.872C374.759 89.0107 374.405 89.08 373.994 89.08ZM382.092 89V83.16H383.292V87.92H385.652V89H382.092ZM388.369 89.08C387.782 89.08 387.315 88.9147 386.969 88.584C386.622 88.2533 386.449 87.8053 386.449 87.24V84.92C386.449 84.3493 386.622 83.9013 386.969 83.576C387.315 83.2453 387.782 83.08 388.369 83.08C388.955 83.08 389.422 83.2453 389.769 83.576C390.115 83.9013 390.289 84.3493 390.289 84.92V87.24C390.289 87.8053 390.115 88.2533 389.769 88.584C389.422 88.9147 388.955 89.08 388.369 89.08ZM388.369 88.04C388.609 88.04 388.787 87.9787 388.905 87.856C389.027 87.728 389.089 87.5493 389.089 87.32V84.84C389.089 84.6053 389.03 84.4267 388.913 84.304C388.795 84.1813 388.614 84.12 388.369 84.12C388.123 84.12 387.942 84.1813 387.825 84.304C387.707 84.4267 387.649 84.6053 387.649 84.84V87.32C387.649 87.5493 387.707 87.728 387.825 87.856C387.947 87.9787 388.129 88.04 388.369 88.04ZM393.198 89.08C392.808 89.08 392.467 89.008 392.174 88.864C391.88 88.7147 391.651 88.5093 391.486 88.248C391.326 87.9813 391.246 87.672 391.246 87.32V84.84C391.246 84.4827 391.326 84.1733 391.486 83.912C391.651 83.6507 391.88 83.448 392.174 83.304C392.467 83.1547 392.808 83.08 393.198 83.08C393.592 83.08 393.934 83.1547 394.222 83.304C394.515 83.448 394.742 83.6507 394.902 83.912C395.067 84.1733 395.15 84.4827 395.15 84.84H393.95C393.95 84.6053 393.883 84.4267 393.75 84.304C393.622 84.1813 393.438 84.12 393.198 84.12C392.958 84.12 392.771 84.1813 392.638 84.304C392.51 84.4267 392.446 84.6053 392.446 84.84V87.32C392.446 87.5493 392.51 87.728 392.638 87.856C392.771 87.9787 392.958 88.04 393.198 88.04C393.438 88.04 393.622 87.9787 393.75 87.856C393.883 87.728 393.95 87.5493 393.95 87.32V86.776H393.086V85.76H395.15V87.32C395.15 87.672 395.067 87.9813 394.902 88.248C394.742 88.5093 394.515 88.7147 394.222 88.864C393.934 89.008 393.592 89.08 393.198 89.08ZM396.203 89V87.92H397.363V84.24H396.203V83.16H399.723V84.24H398.563V87.92H399.723V89H396.203ZM402.823 89.08C402.434 89.08 402.093 89.008 401.799 88.864C401.506 88.7147 401.277 88.5093 401.111 88.248C400.951 87.9813 400.871 87.672 400.871 87.32V84.84C400.871 84.4827 400.951 84.1733 401.111 83.912C401.277 83.6507 401.506 83.448 401.799 83.304C402.093 83.1547 402.434 83.08 402.823 83.08C403.218 83.08 403.559 83.1547 403.847 83.304C404.141 83.448 404.367 83.6507 404.527 83.912C404.693 84.1733 404.775 84.4827 404.775 84.84H403.575C403.575 84.6053 403.509 84.4267 403.375 84.304C403.247 84.1813 403.063 84.12 402.823 84.12C402.583 84.12 402.397 84.1813 402.263 84.304C402.135 84.4267 402.071 84.6053 402.071 84.84V87.32C402.071 87.5493 402.135 87.728 402.263 87.856C402.397 87.9787 402.583 88.04 402.823 88.04C403.063 88.04 403.247 87.9787 403.375 87.856C403.509 87.728 403.575 87.5493 403.575 87.32H404.775C404.775 87.672 404.693 87.9813 404.527 88.248C404.367 88.5093 404.141 88.7147 403.847 88.864C403.559 89.008 403.218 89.08 402.823 89.08Z" fill="black"/>
<rect x="95" width="100" height="100" rx="20" fill="#D3B8FF"/>
<path d="M110.1 25.17C108.842 25.17 107.845 24.83 107.108 24.15C106.383 23.47 106.02 22.5407 106.02 21.362V12.59H108.57V21.345C108.57 21.8663 108.7 22.2687 108.961 22.552C109.233 22.824 109.613 22.96 110.1 22.96C110.576 22.96 110.95 22.824 111.222 22.552C111.494 22.2687 111.63 21.8663 111.63 21.345V12.59H114.18V21.362C114.18 22.5293 113.812 23.4587 113.075 24.15C112.35 24.83 111.358 25.17 110.1 25.17ZM120.327 25.17C119.455 25.17 118.69 25.017 118.032 24.711C117.386 24.405 116.882 23.9743 116.519 23.419C116.168 22.8523 115.992 22.1893 115.992 21.43H118.474C118.474 21.8947 118.639 22.2687 118.967 22.552C119.307 22.824 119.761 22.96 120.327 22.96C120.883 22.96 121.313 22.8297 121.619 22.569C121.937 22.297 122.095 21.94 122.095 21.498C122.095 21.1467 121.993 20.835 121.789 20.563C121.585 20.2797 121.285 20.0927 120.888 20.002L119.375 19.645C118.401 19.4183 117.624 18.982 117.046 18.336C116.48 17.6787 116.196 16.8967 116.196 15.99C116.196 15.2533 116.355 14.6187 116.672 14.086C117.001 13.5533 117.466 13.1453 118.066 12.862C118.678 12.5673 119.398 12.42 120.225 12.42C121.064 12.42 121.784 12.5673 122.384 12.862C122.996 13.1453 123.467 13.5533 123.795 14.086C124.135 14.6187 124.305 15.2477 124.305 15.973H121.823C121.823 15.5423 121.682 15.208 121.398 14.97C121.115 14.7207 120.724 14.596 120.225 14.596C119.738 14.596 119.358 14.715 119.086 14.953C118.814 15.191 118.678 15.5083 118.678 15.905C118.678 16.2337 118.78 16.5 118.984 16.704C119.188 16.908 119.477 17.0553 119.851 17.146L121.415 17.503C122.39 17.7183 123.161 18.1887 123.727 18.914C124.305 19.628 124.594 20.4893 124.594 21.498C124.594 22.2347 124.419 22.8807 124.067 23.436C123.727 23.9913 123.234 24.422 122.588 24.728C121.954 25.0227 121.2 25.17 120.327 25.17ZM126.747 25V12.59H134.397V14.8H129.246V17.588H133.802V19.696H129.246V22.79H134.397V25H126.747ZM136.702 25V12.59H140.68C141.564 12.59 142.329 12.743 142.975 13.049C143.621 13.355 144.12 13.7913 144.471 14.358C144.834 14.9247 145.015 15.5933 145.015 16.364C145.015 17.1687 144.817 17.8883 144.42 18.523C144.035 19.1577 143.508 19.6167 142.839 19.9L145.185 25H142.414L140.408 20.308H139.218V25H136.702ZM139.218 18.098H140.68C141.247 18.098 141.683 17.9563 141.989 17.673C142.306 17.3897 142.465 16.993 142.465 16.483C142.465 15.9503 142.306 15.5367 141.989 15.242C141.683 14.9473 141.247 14.8 140.68 14.8H139.218V18.098Z" fill="black"/>
<path d="M105.528 81V75.16H107.408C107.797 75.16 108.136 75.224 108.424 75.352C108.717 75.4747 108.944 75.648 109.104 75.872C109.269 76.096 109.352 76.36 109.352 76.664C109.352 76.8827 109.309 77.08 109.224 77.256C109.144 77.432 109.029 77.576 108.88 77.688C108.736 77.7947 108.568 77.8613 108.376 77.888V77.904C108.595 77.9253 108.787 78.0027 108.952 78.136C109.123 78.264 109.253 78.4293 109.344 78.632C109.44 78.8347 109.488 79.0613 109.488 79.312C109.488 79.648 109.403 79.944 109.232 80.2C109.067 80.4507 108.832 80.648 108.528 80.792C108.229 80.9307 107.88 81 107.48 81H105.528ZM106.688 80.032H107.44C107.701 80.032 107.907 79.9627 108.056 79.824C108.205 79.6853 108.28 79.4933 108.28 79.248C108.28 79.0027 108.205 78.8107 108.056 78.672C107.907 78.528 107.701 78.456 107.44 78.456H106.688V80.032ZM106.688 77.512H107.392C107.627 77.512 107.811 77.4507 107.944 77.328C108.077 77.2 108.144 77.0293 108.144 76.816C108.144 76.5973 108.077 76.4293 107.944 76.312C107.811 76.1893 107.627 76.128 107.392 76.128H106.688V77.512ZM110.325 81V75.16H112.197C112.613 75.16 112.973 75.232 113.277 75.376C113.581 75.52 113.816 75.7253 113.981 75.992C114.152 76.2587 114.237 76.5733 114.237 76.936C114.237 77.3147 114.144 77.6533 113.957 77.952C113.776 78.2507 113.528 78.4667 113.213 78.6L114.317 81H113.013L112.069 78.792H111.509V81H110.325ZM111.509 77.752H112.197C112.464 77.752 112.669 77.6853 112.813 77.552C112.962 77.4187 113.037 77.232 113.037 76.992C113.037 76.7413 112.962 76.5467 112.813 76.408C112.669 76.2693 112.464 76.2 112.197 76.2H111.509V77.752ZM116.994 81.08C116.407 81.08 115.94 80.9147 115.594 80.584C115.247 80.2533 115.074 79.8053 115.074 79.24V76.92C115.074 76.3493 115.247 75.9013 115.594 75.576C115.94 75.2453 116.407 75.08 116.994 75.08C117.58 75.08 118.047 75.2453 118.394 75.576C118.74 75.9013 118.914 76.3493 118.914 76.92V79.24C118.914 79.8053 118.74 80.2533 118.394 80.584C118.047 80.9147 117.58 81.08 116.994 81.08ZM116.994 80.04C117.234 80.04 117.412 79.9787 117.53 79.856C117.652 79.728 117.714 79.5493 117.714 79.32V76.84C117.714 76.6053 117.655 76.4267 117.538 76.304C117.42 76.1813 117.239 76.12 116.994 76.12C116.748 76.12 116.567 76.1813 116.45 76.304C116.332 76.4267 116.274 76.6053 116.274 76.84V79.32C116.274 79.5493 116.332 79.728 116.45 79.856C116.572 79.9787 116.754 80.04 116.994 80.04ZM120.015 81L119.471 75.16H120.423L120.719 79.064C120.724 79.1387 120.729 79.2453 120.735 79.384C120.745 79.5173 120.753 79.6587 120.759 79.808C120.769 79.952 120.775 80.0827 120.775 80.2C120.785 80.0827 120.796 79.952 120.807 79.808C120.823 79.6587 120.836 79.5173 120.847 79.384C120.863 79.2453 120.873 79.1387 120.879 79.064L121.343 75.16H122.255L122.703 79.064C122.713 79.1387 122.724 79.2453 122.735 79.384C122.751 79.5173 122.767 79.6587 122.783 79.808C122.799 79.952 122.812 80.0827 122.823 80.2C122.828 80.0827 122.833 79.952 122.839 79.808C122.844 79.6587 122.849 79.5173 122.855 79.384C122.865 79.2453 122.873 79.1387 122.879 79.064L123.151 75.16H124.111L123.527 81H122.279L121.887 77.12C121.881 77.0293 121.871 76.912 121.855 76.768C121.844 76.6187 121.833 76.464 121.823 76.304C121.812 76.144 121.801 76.0027 121.791 75.88C121.785 76.0027 121.777 76.144 121.767 76.304C121.756 76.464 121.745 76.6187 121.735 76.768C121.724 76.912 121.713 77.0293 121.703 77.12L121.271 81H120.015ZM126.604 81.08C126.193 81.08 125.833 81.008 125.524 80.864C125.22 80.72 124.982 80.5173 124.812 80.256C124.646 79.9893 124.564 79.6773 124.564 79.32H125.732C125.732 79.5387 125.809 79.7147 125.964 79.848C126.124 79.976 126.337 80.04 126.604 80.04C126.865 80.04 127.068 79.9787 127.212 79.856C127.361 79.728 127.436 79.56 127.436 79.352C127.436 79.1867 127.388 79.04 127.292 78.912C127.196 78.7787 127.054 78.6907 126.868 78.648L126.156 78.48C125.697 78.3733 125.332 78.168 125.06 77.864C124.793 77.5547 124.66 77.1867 124.66 76.76C124.66 76.4133 124.734 76.1147 124.884 75.864C125.038 75.6133 125.257 75.4213 125.54 75.288C125.828 75.1493 126.166 75.08 126.556 75.08C126.95 75.08 127.289 75.1493 127.572 75.288C127.86 75.4213 128.081 75.6133 128.236 75.864C128.396 76.1147 128.476 76.4107 128.476 76.752H127.308C127.308 76.5493 127.241 76.392 127.108 76.28C126.974 76.1627 126.79 76.104 126.556 76.104C126.326 76.104 126.148 76.16 126.02 76.272C125.892 76.384 125.828 76.5333 125.828 76.72C125.828 76.8747 125.876 77 125.972 77.096C126.068 77.192 126.204 77.2613 126.38 77.304L127.116 77.472C127.574 77.5733 127.937 77.7947 128.204 78.136C128.476 78.472 128.612 78.8773 128.612 79.352C128.612 79.6987 128.529 80.0027 128.364 80.264C128.204 80.5253 127.972 80.728 127.668 80.872C127.369 81.0107 127.014 81.08 126.604 81.08ZM129.624 81V75.16H133.224V76.2H130.8V77.512H132.944V78.504H130.8V79.96H133.224V81H129.624ZM134.309 81V75.16H136.181C136.597 75.16 136.957 75.232 137.261 75.376C137.565 75.52 137.8 75.7253 137.965 75.992C138.136 76.2587 138.221 76.5733 138.221 76.936C138.221 77.3147 138.128 77.6533 137.941 77.952C137.76 78.2507 137.512 78.4667 137.197 78.6L138.301 81H136.997L136.053 78.792H135.493V81H134.309ZM135.493 77.752H136.181C136.448 77.752 136.653 77.6853 136.797 77.552C136.947 77.4187 137.021 77.232 137.021 76.992C137.021 76.7413 136.947 76.5467 136.797 76.408C136.653 76.2693 136.448 76.2 136.181 76.2H135.493V77.752ZM105.2 89L106.632 83.16H108.152L109.6 89H108.376L108.096 87.68H106.704L106.424 89H105.2ZM106.904 86.72H107.888L107.608 85.312C107.571 85.1093 107.531 84.9093 107.488 84.712C107.451 84.5093 107.421 84.352 107.4 84.24C107.379 84.352 107.349 84.5067 107.312 84.704C107.28 84.9013 107.243 85.1013 107.2 85.304L106.904 86.72ZM110.325 89V83.16H112.317C112.728 83.16 113.085 83.2373 113.389 83.392C113.698 83.5467 113.936 83.7627 114.101 84.04C114.272 84.3173 114.357 84.6427 114.357 85.016C114.357 85.384 114.272 85.7093 114.101 85.992C113.93 86.2693 113.693 86.4853 113.389 86.64C113.085 86.7947 112.728 86.872 112.317 86.872H111.525V89H110.325ZM111.525 85.832H112.317C112.573 85.832 112.776 85.7547 112.925 85.6C113.08 85.4453 113.157 85.2507 113.157 85.016C113.157 84.7813 113.08 84.5867 112.925 84.432C112.776 84.2773 112.573 84.2 112.317 84.2H111.525V85.832ZM115.122 89V83.16H117.114C117.524 83.16 117.882 83.2373 118.186 83.392C118.495 83.5467 118.732 83.7627 118.898 84.04C119.068 84.3173 119.154 84.6427 119.154 85.016C119.154 85.384 119.068 85.7093 118.898 85.992C118.727 86.2693 118.49 86.4853 118.186 86.64C117.882 86.7947 117.524 86.872 117.114 86.872H116.322V89H115.122ZM116.322 85.832H117.114C117.37 85.832 117.572 85.7547 117.722 85.6C117.876 85.4453 117.954 85.2507 117.954 85.016C117.954 84.7813 117.876 84.5867 117.722 84.432C117.572 84.2773 117.37 84.2 117.114 84.2H116.322V85.832Z" fill="#7A53B9"/>
<rect x="328" y="200" width="100" height="100" rx="20" fill="#64B5F6"/>
<path d="M339.122 225V212.59H343.355C344.228 212.59 344.987 212.754 345.633 213.083C346.29 213.412 346.795 213.871 347.146 214.46C347.509 215.049 347.69 215.741 347.69 216.534C347.69 217.316 347.509 218.007 347.146 218.608C346.783 219.197 346.279 219.656 345.633 219.985C344.987 220.314 344.228 220.478 343.355 220.478H341.672V225H339.122ZM341.672 218.268H343.355C343.899 218.268 344.33 218.104 344.647 217.775C344.976 217.446 345.14 217.033 345.14 216.534C345.14 216.035 344.976 215.622 344.647 215.293C344.33 214.964 343.899 214.8 343.355 214.8H341.672V218.268ZM353.327 225.17C352.455 225.17 351.69 225.017 351.032 224.711C350.386 224.405 349.882 223.974 349.519 223.419C349.168 222.852 348.992 222.189 348.992 221.43H351.474C351.474 221.895 351.639 222.269 351.967 222.552C352.307 222.824 352.761 222.96 353.327 222.96C353.883 222.96 354.313 222.83 354.619 222.569C354.937 222.297 355.095 221.94 355.095 221.498C355.095 221.147 354.993 220.835 354.789 220.563C354.585 220.28 354.285 220.093 353.888 220.002L352.375 219.645C351.401 219.418 350.624 218.982 350.046 218.336C349.48 217.679 349.196 216.897 349.196 215.99C349.196 215.253 349.355 214.619 349.672 214.086C350.001 213.553 350.466 213.145 351.066 212.862C351.678 212.567 352.398 212.42 353.225 212.42C354.064 212.42 354.784 212.567 355.384 212.862C355.996 213.145 356.467 213.553 356.795 214.086C357.135 214.619 357.305 215.248 357.305 215.973H354.823C354.823 215.542 354.682 215.208 354.398 214.97C354.115 214.721 353.724 214.596 353.225 214.596C352.738 214.596 352.358 214.715 352.086 214.953C351.814 215.191 351.678 215.508 351.678 215.905C351.678 216.234 351.78 216.5 351.984 216.704C352.188 216.908 352.477 217.055 352.851 217.146L354.415 217.503C355.39 217.718 356.161 218.189 356.727 218.914C357.305 219.628 357.594 220.489 357.594 221.498C357.594 222.235 357.419 222.881 357.067 223.436C356.727 223.991 356.234 224.422 355.588 224.728C354.954 225.023 354.2 225.17 353.327 225.17ZM365.187 228.06L363.283 224.932L363.81 225.153C363.764 225.153 363.713 225.153 363.657 225.153C363.6 225.164 363.543 225.17 363.487 225.17C362.671 225.17 361.957 225.017 361.345 224.711C360.733 224.394 360.257 223.952 359.917 223.385C359.577 222.818 359.407 222.167 359.407 221.43V216.16C359.407 215.401 359.577 214.743 359.917 214.188C360.257 213.633 360.733 213.202 361.345 212.896C361.957 212.579 362.671 212.42 363.487 212.42C364.303 212.42 365.017 212.579 365.629 212.896C366.241 213.202 366.717 213.638 367.057 214.205C367.397 214.76 367.567 215.412 367.567 216.16V221.43C367.567 222.167 367.408 222.818 367.091 223.385C366.785 223.94 366.337 224.365 365.748 224.66L367.839 228.06H365.187ZM363.487 222.943C364.019 222.943 364.405 222.813 364.643 222.552C364.892 222.291 365.017 221.917 365.017 221.43V216.16C365.017 215.661 364.886 215.282 364.626 215.021C364.365 214.76 363.985 214.63 363.487 214.63C362.999 214.63 362.62 214.76 362.348 215.021C362.087 215.282 361.957 215.661 361.957 216.16V221.43C361.957 221.917 362.081 222.291 362.331 222.552C362.58 222.813 362.965 222.943 363.487 222.943ZM370.535 225V212.59H373.085V222.705H378.1V225H370.535Z" fill="black"/>
<path d="M340.416 281.08C340.005 281.08 339.645 281.008 339.336 280.864C339.032 280.72 338.795 280.517 338.624 280.256C338.459 279.989 338.376 279.677 338.376 279.32H339.544C339.544 279.539 339.621 279.715 339.776 279.848C339.936 279.976 340.149 280.04 340.416 280.04C340.677 280.04 340.88 279.979 341.024 279.856C341.173 279.728 341.248 279.56 341.248 279.352C341.248 279.187 341.2 279.04 341.104 278.912C341.008 278.779 340.867 278.691 340.68 278.648L339.968 278.48C339.509 278.373 339.144 278.168 338.872 277.864C338.605 277.555 338.472 277.187 338.472 276.76C338.472 276.413 338.547 276.115 338.696 275.864C338.851 275.613 339.069 275.421 339.352 275.288C339.64 275.149 339.979 275.08 340.368 275.08C340.763 275.08 341.101 275.149 341.384 275.288C341.672 275.421 341.893 275.613 342.048 275.864C342.208 276.115 342.288 276.411 342.288 276.752H341.12C341.12 276.549 341.053 276.392 340.92 276.28C340.787 276.163 340.603 276.104 340.368 276.104C340.139 276.104 339.96 276.16 339.832 276.272C339.704 276.384 339.64 276.533 339.64 276.72C339.64 276.875 339.688 277 339.784 277.096C339.88 277.192 340.016 277.261 340.192 277.304L340.928 277.472C341.387 277.573 341.749 277.795 342.016 278.136C342.288 278.472 342.424 278.877 342.424 279.352C342.424 279.699 342.341 280.003 342.176 280.264C342.016 280.525 341.784 280.728 341.48 280.872C341.181 281.011 340.827 281.08 340.416 281.08ZM344.597 281V276.24H343.117V275.16H347.277V276.24H345.797V281H344.597ZM349.994 281.08C349.407 281.08 348.94 280.915 348.594 280.584C348.247 280.253 348.074 279.805 348.074 279.24V276.92C348.074 276.349 348.247 275.901 348.594 275.576C348.94 275.245 349.407 275.08 349.994 275.08C350.58 275.08 351.047 275.245 351.394 275.576C351.74 275.901 351.914 276.349 351.914 276.92V279.24C351.914 279.805 351.74 280.253 351.394 280.584C351.047 280.915 350.58 281.08 349.994 281.08ZM349.994 280.04C350.234 280.04 350.412 279.979 350.53 279.856C350.652 279.728 350.714 279.549 350.714 279.32V276.84C350.714 276.605 350.655 276.427 350.538 276.304C350.42 276.181 350.239 276.12 349.994 276.12C349.748 276.12 349.567 276.181 349.45 276.304C349.332 276.427 349.274 276.605 349.274 276.84V279.32C349.274 279.549 349.332 279.728 349.45 279.856C349.572 279.979 349.754 280.04 349.994 280.04ZM352.919 281V275.16H354.791C355.207 275.16 355.567 275.232 355.871 275.376C356.175 275.52 356.409 275.725 356.575 275.992C356.745 276.259 356.831 276.573 356.831 276.936C356.831 277.315 356.737 277.653 356.551 277.952C356.369 278.251 356.121 278.467 355.807 278.6L356.911 281H355.607L354.663 278.792H354.103V281H352.919ZM354.103 277.752H354.791C355.057 277.752 355.263 277.685 355.407 277.552C355.556 277.419 355.631 277.232 355.631 276.992C355.631 276.741 355.556 276.547 355.407 276.408C355.263 276.269 355.057 276.2 354.791 276.2H354.103V277.752ZM357.828 281V275.16H361.428V276.2H359.004V277.512H361.148V278.504H359.004V279.96H361.428V281H357.828ZM367.309 281V275.16H369.301C369.712 275.16 370.069 275.237 370.373 275.392C370.683 275.547 370.92 275.763 371.085 276.04C371.256 276.317 371.341 276.643 371.341 277.016C371.341 277.384 371.256 277.709 371.085 277.992C370.915 278.269 370.677 278.485 370.373 278.64C370.069 278.795 369.712 278.872 369.301 278.872H368.509V281H367.309ZM368.509 277.832H369.301C369.557 277.832 369.76 277.755 369.909 277.6C370.064 277.445 370.141 277.251 370.141 277.016C370.141 276.781 370.064 276.587 369.909 276.432C369.76 276.277 369.557 276.2 369.301 276.2H368.509V277.832ZM372.106 281V275.16H373.978C374.394 275.16 374.754 275.232 375.058 275.376C375.362 275.52 375.597 275.725 375.762 275.992C375.933 276.259 376.018 276.573 376.018 276.936C376.018 277.315 375.925 277.653 375.738 277.952C375.557 278.251 375.309 278.467 374.994 278.6L376.098 281H374.794L373.85 278.792H373.29V281H372.106ZM373.29 277.752H373.978C374.245 277.752 374.45 277.685 374.594 277.552C374.743 277.419 374.818 277.232 374.818 276.992C374.818 276.741 374.743 276.547 374.594 276.408C374.45 276.269 374.245 276.2 373.978 276.2H373.29V277.752ZM378.775 281.08C378.188 281.08 377.722 280.915 377.375 280.584C377.028 280.253 376.855 279.805 376.855 279.24V276.92C376.855 276.349 377.028 275.901 377.375 275.576C377.722 275.245 378.188 275.08 378.775 275.08C379.362 275.08 379.828 275.245 380.175 275.576C380.522 275.901 380.695 276.349 380.695 276.92V279.24C380.695 279.805 380.522 280.253 380.175 280.584C379.828 280.915 379.362 281.08 378.775 281.08ZM378.775 280.04C379.015 280.04 379.194 279.979 379.311 279.856C379.434 279.728 379.495 279.549 379.495 279.32V276.84C379.495 276.605 379.436 276.427 379.319 276.304C379.202 276.181 379.02 276.12 378.775 276.12C378.53 276.12 378.348 276.181 378.231 276.304C378.114 276.427 378.055 276.605 378.055 276.84V279.32C378.055 279.549 378.114 279.728 378.231 279.856C378.354 279.979 378.535 280.04 378.775 280.04ZM381.732 281V275.16H385.492V276.28H382.916V277.576H385.284V278.696H382.932V281H381.732ZM386.609 281V279.92H387.769V276.24H386.609V275.16H390.129V276.24H388.969V279.92H390.129V281H386.609ZM391.686 281V275.16H392.886V279.92H395.246V281H391.686ZM396.203 281V275.16H399.803V276.2H397.379V277.512H399.523V278.504H397.379V279.96H399.803V281H396.203ZM402.775 281.08C402.365 281.08 402.005 281.008 401.695 280.864C401.391 280.72 401.154 280.517 400.983 280.256C400.818 279.989 400.735 279.677 400.735 279.32H401.903C401.903 279.539 401.981 279.715 402.135 279.848C402.295 279.976 402.509 280.04 402.775 280.04C403.037 280.04 403.239 279.979 403.383 279.856C403.533 279.728 403.607 279.56 403.607 279.352C403.607 279.187 403.559 279.04 403.463 278.912C403.367 278.779 403.226 278.691 403.039 278.648L402.327 278.48C401.869 278.373 401.503 278.168 401.231 277.864C400.965 277.555 400.831 277.187 400.831 276.76C400.831 276.413 400.906 276.115 401.055 275.864C401.21 275.613 401.429 275.421 401.711 275.288C401.999 275.149 402.338 275.08 402.727 275.08C403.122 275.08 403.461 275.149 403.743 275.288C404.031 275.421 404.253 275.613 404.407 275.864C404.567 276.115 404.647 276.411 404.647 276.752H403.479C403.479 276.549 403.413 276.392 403.279 276.28C403.146 276.163 402.962 276.104 402.727 276.104C402.498 276.104 402.319 276.16 402.191 276.272C402.063 276.384 401.999 276.533 401.999 276.72C401.999 276.875 402.047 277 402.143 277.096C402.239 277.192 402.375 277.261 402.551 277.304L403.287 277.472C403.746 277.573 404.109 277.795 404.375 278.136C404.647 278.472 404.783 278.877 404.783 279.352C404.783 279.699 404.701 280.003 404.535 280.264C404.375 280.525 404.143 280.728 403.839 280.872C403.541 281.011 403.186 281.08 402.775 281.08ZM340.416 289.08C340.005 289.08 339.645 289.008 339.336 288.864C339.032 288.72 338.795 288.517 338.624 288.256C338.459 287.989 338.376 287.677 338.376 287.32H339.544C339.544 287.539 339.621 287.715 339.776 287.848C339.936 287.976 340.149 288.04 340.416 288.04C340.677 288.04 340.88 287.979 341.024 287.856C341.173 287.728 341.248 287.56 341.248 287.352C341.248 287.187 341.2 287.04 341.104 286.912C341.008 286.779 340.867 286.691 340.68 286.648L339.968 286.48C339.509 286.373 339.144 286.168 338.872 285.864C338.605 285.555 338.472 285.187 338.472 284.76C338.472 284.413 338.547 284.115 338.696 283.864C338.851 283.613 339.069 283.421 339.352 283.288C339.64 283.149 339.979 283.08 340.368 283.08C340.763 283.08 341.101 283.149 341.384 283.288C341.672 283.421 341.893 283.613 342.048 283.864C342.208 284.115 342.288 284.411 342.288 284.752H341.12C341.12 284.549 341.053 284.392 340.92 284.28C340.787 284.163 340.603 284.104 340.368 284.104C340.139 284.104 339.96 284.16 339.832 284.272C339.704 284.384 339.64 284.533 339.64 284.72C339.64 284.875 339.688 285 339.784 285.096C339.88 285.192 340.016 285.261 340.192 285.304L340.928 285.472C341.387 285.573 341.749 285.795 342.016 286.136C342.288 286.472 342.424 286.877 342.424 287.352C342.424 287.699 342.341 288.003 342.176 288.264C342.016 288.525 341.784 288.728 341.48 288.872C341.181 289.011 340.827 289.08 340.416 289.08ZM344.597 289V284.24H343.117V283.16H347.277V284.24H345.797V289H344.597ZM349.994 289.08C349.407 289.08 348.94 288.915 348.594 288.584C348.247 288.253 348.074 287.805 348.074 287.24V284.92C348.074 284.349 348.247 283.901 348.594 283.576C348.94 283.245 349.407 283.08 349.994 283.08C350.58 283.08 351.047 283.245 351.394 283.576C351.74 283.901 351.914 284.349 351.914 284.92V287.24C351.914 287.805 351.74 288.253 351.394 288.584C351.047 288.915 350.58 289.08 349.994 289.08ZM349.994 288.04C350.234 288.04 350.412 287.979 350.53 287.856C350.652 287.728 350.714 287.549 350.714 287.32V284.84C350.714 284.605 350.655 284.427 350.538 284.304C350.42 284.181 350.239 284.12 349.994 284.12C349.748 284.12 349.567 284.181 349.45 284.304C349.332 284.427 349.274 284.605 349.274 284.84V287.32C349.274 287.549 349.332 287.728 349.45 287.856C349.572 287.979 349.754 288.04 349.994 288.04ZM352.919 289V283.16H354.791C355.207 283.16 355.567 283.232 355.871 283.376C356.175 283.52 356.409 283.725 356.575 283.992C356.745 284.259 356.831 284.573 356.831 284.936C356.831 285.315 356.737 285.653 356.551 285.952C356.369 286.251 356.121 286.467 355.807 286.6L356.911 289H355.607L354.663 286.792H354.103V289H352.919ZM354.103 285.752H354.791C355.057 285.752 355.263 285.685 355.407 285.552C355.556 285.419 355.631 285.232 355.631 284.992C355.631 284.741 355.556 284.547 355.407 284.408C355.263 284.269 355.057 284.2 354.791 284.2H354.103V285.752ZM357.828 289V283.16H361.428V284.2H359.004V285.512H361.148V286.504H359.004V287.96H361.428V289H357.828ZM369.181 289.08C368.595 289.08 368.128 288.915 367.781 288.584C367.435 288.253 367.261 287.805 367.261 287.24V284.92C367.261 284.349 367.435 283.901 367.781 283.576C368.128 283.245 368.595 283.08 369.181 283.08C369.768 283.08 370.235 283.245 370.581 283.576C370.928 283.901 371.101 284.349 371.101 284.92V287.24C371.101 287.805 370.928 288.253 370.581 288.584C370.235 288.915 369.768 289.08 369.181 289.08ZM369.181 288.04C369.421 288.04 369.6 287.979 369.717 287.856C369.84 287.728 369.901 287.549 369.901 287.32V284.84C369.901 284.605 369.843 284.427 369.725 284.304C369.608 284.181 369.427 284.12 369.181 284.12C368.936 284.12 368.755 284.181 368.637 284.304C368.52 284.427 368.461 284.605 368.461 284.84V287.32C368.461 287.549 368.52 287.728 368.637 287.856C368.76 287.979 368.941 288.04 369.181 288.04ZM373.378 289V284.24H371.898V283.16H376.058V284.24H374.578V289H373.378ZM376.903 289V283.16H378.103V285.432H379.447V283.16H380.647V289H379.447V286.512H378.103V289H376.903ZM381.812 289V283.16H385.412V284.2H382.988V285.512H385.132V286.504H382.988V287.96H385.412V289H381.812ZM386.497 289V283.16H388.369C388.785 283.16 389.145 283.232 389.449 283.376C389.753 283.52 389.987 283.725 390.153 283.992C390.323 284.259 390.409 284.573 390.409 284.936C390.409 285.315 390.315 285.653 390.129 285.952C389.947 286.251 389.699 286.467 389.385 286.6L390.489 289H389.185L388.241 286.792H387.681V289H386.497ZM387.681 285.752H388.369C388.635 285.752 388.841 285.685 388.985 285.552C389.134 285.419 389.209 285.232 389.209 284.992C389.209 284.741 389.134 284.547 388.985 284.408C388.841 284.269 388.635 284.2 388.369 284.2H387.681V285.752ZM396.067 289V283.16H397.963C398.368 283.16 398.72 283.237 399.019 283.392C399.323 283.547 399.557 283.765 399.723 284.048C399.893 284.325 399.979 284.653 399.979 285.032V287.12C399.979 287.493 399.893 287.821 399.723 288.104C399.557 288.387 399.323 288.608 399.019 288.768C398.72 288.923 398.368 289 397.963 289H396.067ZM397.267 287.92H397.963C398.203 287.92 398.397 287.845 398.547 287.696C398.701 287.547 398.779 287.355 398.779 287.12V285.032C398.779 284.797 398.701 284.608 398.547 284.464C398.397 284.315 398.203 284.24 397.963 284.24H397.267V287.92ZM400.559 289L401.991 283.16H403.511L404.959 289H403.735L403.455 287.68H402.063L401.783 289H400.559ZM402.263 286.72H403.247L402.967 285.312C402.93 285.109 402.89 284.909 402.847 284.712C402.81 284.509 402.781 284.352 402.759 284.24C402.738 284.352 402.709 284.507 402.671 284.704C402.639 284.901 402.602 285.101 402.559 285.304L402.263 286.72ZM406.956 289V284.24H405.476V283.16H409.636V284.24H408.156V289H406.956ZM410.153 289L411.585 283.16H413.105L414.553 289H413.329L413.049 287.68H411.657L411.377 289H410.153ZM411.857 286.72H412.841L412.561 285.312C412.524 285.109 412.484 284.909 412.441 284.712C412.404 284.509 412.374 284.352 412.353 284.24C412.332 284.352 412.302 284.507 412.265 284.704C412.233 284.901 412.196 285.101 412.153 285.304L411.857 286.72Z" fill="#295273"/>
<path d="M215.961 341.5C216.79 341.5 217.461 340.828 217.461 340C217.461 339.172 216.79 338.5 215.961 338.5V341.5ZM308.961 338.5C308.133 338.5 307.461 339.172 307.461 340C307.461 340.828 308.133 341.5 308.961 341.5V338.5ZM143.5 304V316H146.5V304H143.5ZM169 341.5H215.961V338.5H169V341.5ZM308.961 341.5H354V338.5H308.961V341.5ZM379.5 316V304H376.5V316H379.5ZM354 341.5C368.083 341.5 379.5 330.083 379.5 316H376.5C376.5 328.426 366.426 338.5 354 338.5V341.5ZM143.5 316C143.5 330.083 154.917 341.5 169 341.5V338.5C156.574 338.5 146.5 328.426 146.5 316H143.5Z" fill="#64B5F6"/>
<path d="M224.224 343.6C223.71 343.6 223.26 343.51 222.874 343.33C222.494 343.15 222.197 342.897 221.984 342.57C221.777 342.237 221.674 341.847 221.674 341.4H223.134C223.134 341.673 223.23 341.893 223.424 342.06C223.624 342.22 223.89 342.3 224.224 342.3C224.55 342.3 224.804 342.223 224.984 342.07C225.17 341.91 225.264 341.7 225.264 341.44C225.264 341.233 225.204 341.05 225.084 340.89C224.964 340.723 224.787 340.613 224.554 340.56L223.664 340.35C223.09 340.217 222.634 339.96 222.294 339.58C221.96 339.193 221.794 338.733 221.794 338.2C221.794 337.767 221.887 337.393 222.074 337.08C222.267 336.767 222.54 336.527 222.894 336.36C223.254 336.187 223.677 336.1 224.164 336.1C224.657 336.1 225.08 336.187 225.434 336.36C225.794 336.527 226.07 336.767 226.264 337.08C226.464 337.393 226.564 337.763 226.564 338.19H225.104C225.104 337.937 225.02 337.74 224.854 337.6C224.687 337.453 224.457 337.38 224.164 337.38C223.877 337.38 223.654 337.45 223.494 337.59C223.334 337.73 223.254 337.917 223.254 338.15C223.254 338.343 223.314 338.5 223.434 338.62C223.554 338.74 223.724 338.827 223.944 338.88L224.864 339.09C225.437 339.217 225.89 339.493 226.224 339.92C226.564 340.34 226.734 340.847 226.734 341.44C226.734 341.873 226.63 342.253 226.424 342.58C226.224 342.907 225.934 343.16 225.554 343.34C225.18 343.513 224.737 343.6 224.224 343.6ZM229.34 343.5V337.55H227.49V336.2H232.69V337.55H230.84V343.5H229.34ZM235.976 343.6C235.243 343.6 234.659 343.393 234.226 342.98C233.793 342.567 233.576 342.007 233.576 341.3V338.4C233.576 337.687 233.793 337.127 234.226 336.72C234.659 336.307 235.243 336.1 235.976 336.1C236.709 336.1 237.293 336.307 237.726 336.72C238.159 337.127 238.376 337.687 238.376 338.4V341.3C238.376 342.007 238.159 342.567 237.726 342.98C237.293 343.393 236.709 343.6 235.976 343.6ZM235.976 342.3C236.276 342.3 236.499 342.223 236.646 342.07C236.799 341.91 236.876 341.687 236.876 341.4V338.3C236.876 338.007 236.803 337.783 236.656 337.63C236.509 337.477 236.283 337.4 235.976 337.4C235.669 337.4 235.443 337.477 235.296 337.63C235.149 337.783 235.076 338.007 235.076 338.3V341.4C235.076 341.687 235.149 341.91 235.296 342.07C235.449 342.223 235.676 342.3 235.976 342.3ZM239.522 343.5V336.2H241.862C242.382 336.2 242.832 336.29 243.212 336.47C243.592 336.65 243.885 336.907 244.092 337.24C244.305 337.573 244.412 337.967 244.412 338.42C244.412 338.893 244.295 339.317 244.062 339.69C243.835 340.063 243.525 340.333 243.132 340.5L244.512 343.5H242.882L241.702 340.74H241.002V343.5H239.522ZM241.002 339.44H241.862C242.195 339.44 242.452 339.357 242.632 339.19C242.819 339.023 242.912 338.79 242.912 338.49C242.912 338.177 242.819 337.933 242.632 337.76C242.452 337.587 242.195 337.5 241.862 337.5H241.002V339.44ZM245.548 343.5V336.2H250.048V337.5H247.018V339.14H249.698V340.38H247.018V342.2H250.048V343.5H245.548ZM257.18 343.5V336.2H259.67C260.184 336.2 260.63 336.297 261.01 336.49C261.397 336.683 261.694 336.953 261.9 337.3C262.114 337.647 262.22 338.053 262.22 338.52C262.22 338.98 262.114 339.387 261.9 339.74C261.687 340.087 261.39 340.357 261.01 340.55C260.63 340.743 260.184 340.84 259.67 340.84H258.68V343.5H257.18ZM258.68 339.54H259.67C259.99 339.54 260.244 339.443 260.43 339.25C260.624 339.057 260.72 338.813 260.72 338.52C260.72 338.227 260.624 337.983 260.43 337.79C260.244 337.597 259.99 337.5 259.67 337.5H258.68V339.54ZM263.066 343.5V336.2H265.406C265.926 336.2 266.376 336.29 266.756 336.47C267.136 336.65 267.43 336.907 267.636 337.24C267.85 337.573 267.956 337.967 267.956 338.42C267.956 338.893 267.84 339.317 267.606 339.69C267.38 340.063 267.07 340.333 266.676 340.5L268.056 343.5H266.426L265.246 340.74H264.546V343.5H263.066ZM264.546 339.44H265.406C265.74 339.44 265.996 339.357 266.176 339.19C266.363 339.023 266.456 338.79 266.456 338.49C266.456 338.177 266.363 337.933 266.176 337.76C265.996 337.587 265.74 337.5 265.406 337.5H264.546V339.44ZM271.293 343.6C270.559 343.6 269.976 343.393 269.543 342.98C269.109 342.567 268.893 342.007 268.893 341.3V338.4C268.893 337.687 269.109 337.127 269.543 336.72C269.976 336.307 270.559 336.1 271.293 336.1C272.026 336.1 272.609 336.307 273.043 336.72C273.476 337.127 273.693 337.687 273.693 338.4V341.3C273.693 342.007 273.476 342.567 273.043 342.98C272.609 343.393 272.026 343.6 271.293 343.6ZM271.293 342.3C271.593 342.3 271.816 342.223 271.963 342.07C272.116 341.91 272.193 341.687 272.193 341.4V338.3C272.193 338.007 272.119 337.783 271.973 337.63C271.826 337.477 271.599 337.4 271.293 337.4C270.986 337.4 270.759 337.477 270.613 337.63C270.466 337.783 270.393 338.007 270.393 338.3V341.4C270.393 341.687 270.466 341.91 270.613 342.07C270.766 342.223 270.993 342.3 271.293 342.3ZM274.879 343.5V336.2H279.579V337.6H276.359V339.22H279.319V340.62H276.379V343.5H274.879ZM280.865 343.5V342.15H282.315V337.55H280.865V336.2H285.265V337.55H283.815V342.15H285.265V343.5H280.865ZM287.101 343.5V336.2H288.601V342.15H291.551V343.5H287.101ZM292.637 343.5V336.2H297.137V337.5H294.107V339.14H296.787V340.38H294.107V342.2H297.137V343.5H292.637ZM300.743 343.6C300.23 343.6 299.78 343.51 299.393 343.33C299.013 343.15 298.716 342.897 298.503 342.57C298.296 342.237 298.193 341.847 298.193 341.4H299.653C299.653 341.673 299.75 341.893 299.943 342.06C300.143 342.22 300.41 342.3 300.743 342.3C301.07 342.3 301.323 342.223 301.503 342.07C301.69 341.91 301.783 341.7 301.783 341.44C301.783 341.233 301.723 341.05 301.603 340.89C301.483 340.723 301.306 340.613 301.073 340.56L300.183 340.35C299.61 340.217 299.153 339.96 298.813 339.58C298.48 339.193 298.313 338.733 298.313 338.2C298.313 337.767 298.406 337.393 298.593 337.08C298.786 336.767 299.06 336.527 299.413 336.36C299.773 336.187 300.196 336.1 300.683 336.1C301.176 336.1 301.6 336.187 301.953 336.36C302.313 336.527 302.59 336.767 302.783 337.08C302.983 337.393 303.083 337.763 303.083 338.19H301.623C301.623 337.937 301.54 337.74 301.373 337.6C301.206 337.453 300.976 337.38 300.683 337.38C300.396 337.38 300.173 337.45 300.013 337.59C299.853 337.73 299.773 337.917 299.773 338.15C299.773 338.343 299.833 338.5 299.953 338.62C300.073 338.74 300.243 338.827 300.463 338.88L301.383 339.09C301.956 339.217 302.41 339.493 302.743 339.92C303.083 340.34 303.253 340.847 303.253 341.44C303.253 341.873 303.15 342.253 302.943 342.58C302.743 342.907 302.453 343.16 302.073 343.34C301.7 343.513 301.256 343.6 300.743 343.6Z" fill="#4989BD"/>
<path d="M48.5 169.092C48.5 168.264 47.8284 167.592 47 167.592C46.1716 167.592 45.5 168.264 45.5 169.092H48.5ZM45.5 129.092C45.5 129.921 46.1716 130.592 47 130.592C47.8284 130.592 48.5 129.921 48.5 129.092H45.5ZM91 248.5H71V251.5H91V248.5ZM48.5 226V169.092H45.5V226H48.5ZM48.5 129.092V74H45.5V129.092H48.5ZM71 51.5H91V48.5H71V51.5ZM48.5 74C48.5 61.5736 58.5736 51.5 71 51.5V48.5C56.9167 48.5 45.5 59.9167 45.5 74H48.5ZM71 248.5C58.5736 248.5 48.5 238.426 48.5 226H45.5C45.5 240.083 56.9167 251.5 71 251.5V248.5Z" fill="#D3B8FF"/>
<path d="M6.16234 145.092V137.792H7.99234L8.73234 140.912L9.47234 137.792H11.3223V145.092H9.95234V142.292C9.95234 141.805 9.96568 141.329 9.99234 140.862C10.0257 140.395 10.0657 139.952 10.1123 139.532C10.159 139.112 10.2023 138.732 10.2423 138.392L9.32234 141.992H8.12234L7.22234 138.482C7.26901 138.769 7.31568 139.112 7.36234 139.512C7.40901 139.912 7.44901 140.349 7.48234 140.822C7.51568 141.289 7.53234 141.779 7.53234 142.292V145.092H6.16234ZM11.8784 145.092L13.6684 137.792H15.5684L17.3784 145.092H15.8484L15.4984 143.442H13.7584L13.4084 145.092H11.8784ZM14.0084 142.242H15.2384L14.8884 140.482C14.8418 140.229 14.7918 139.979 14.7384 139.732C14.6918 139.479 14.6551 139.282 14.6284 139.142C14.6018 139.282 14.5651 139.475 14.5184 139.722C14.4784 139.969 14.4318 140.219 14.3784 140.472L14.0084 142.242ZM18.1145 145.092V137.792H19.8645L21.7545 143.442C21.7345 143.195 21.7112 142.912 21.6845 142.592C21.6579 142.265 21.6345 141.942 21.6145 141.622C21.6012 141.295 21.5945 141.019 21.5945 140.792V137.792H22.9145V145.092H21.1645L19.2945 139.442C19.3145 139.655 19.3345 139.909 19.3545 140.202C19.3745 140.495 19.3912 140.792 19.4045 141.092C19.4245 141.392 19.4345 141.659 19.4345 141.892V145.092H18.1145ZM23.6506 145.092L25.4406 137.792H27.3406L29.1506 145.092H27.6206L27.2706 143.442H25.5306L25.1806 145.092H23.6506ZM25.7806 142.242H27.0106L26.6606 140.482C26.614 140.229 26.564 139.979 26.5106 139.732C26.464 139.479 26.4273 139.282 26.4006 139.142C26.374 139.282 26.3373 139.475 26.2906 139.722C26.2506 139.969 26.204 140.219 26.1506 140.472L25.7806 142.242ZM32.3267 145.192C31.8401 145.192 31.4134 145.102 31.0467 144.922C30.6801 144.735 30.3934 144.479 30.1867 144.152C29.9867 143.819 29.8867 143.432 29.8867 142.992V139.892C29.8867 139.445 29.9867 139.059 30.1867 138.732C30.3934 138.405 30.6801 138.152 31.0467 137.972C31.4134 137.785 31.8401 137.692 32.3267 137.692C32.8201 137.692 33.2467 137.785 33.6067 137.972C33.9734 138.152 34.2567 138.405 34.4567 138.732C34.6634 139.059 34.7667 139.445 34.7667 139.892H33.2667C33.2667 139.599 33.1834 139.375 33.0167 139.222C32.8567 139.069 32.6267 138.992 32.3267 138.992C32.0267 138.992 31.7934 139.069 31.6267 139.222C31.4667 139.375 31.3867 139.599 31.3867 139.892V142.992C31.3867 143.279 31.4667 143.502 31.6267 143.662C31.7934 143.815 32.0267 143.892 32.3267 143.892C32.6267 143.892 32.8567 143.815 33.0167 143.662C33.1834 143.502 33.2667 143.279 33.2667 142.992V142.312H32.1867V141.042H34.7667V142.992C34.7667 143.432 34.6634 143.819 34.4567 144.152C34.2567 144.479 33.9734 144.735 33.6067 144.922C33.2467 145.102 32.8201 145.192 32.3267 145.192ZM35.9728 145.092V137.792H40.4728V139.092H37.4428V140.732H40.1228V141.972H37.4428V143.792H40.4728V145.092H35.9728ZM47.605 145.092V137.792H50.095C50.6083 137.792 51.055 137.889 51.435 138.082C51.8217 138.275 52.1183 138.545 52.325 138.892C52.5383 139.239 52.645 139.645 52.645 140.112C52.645 140.572 52.5383 140.979 52.325 141.332C52.1117 141.679 51.815 141.949 51.435 142.142C51.055 142.335 50.6083 142.432 50.095 142.432H49.105V145.092H47.605ZM49.105 141.132H50.095C50.415 141.132 50.6683 141.035 50.855 140.842C51.0483 140.649 51.145 140.405 51.145 140.112C51.145 139.819 51.0483 139.575 50.855 139.382C50.6683 139.189 50.415 139.092 50.095 139.092H49.105V141.132ZM53.4911 145.092V137.792H55.8311C56.3511 137.792 56.8011 137.882 57.1811 138.062C57.5611 138.242 57.8544 138.499 58.0611 138.832C58.2744 139.165 58.3811 139.559 58.3811 140.012C58.3811 140.485 58.2644 140.909 58.0311 141.282C57.8044 141.655 57.4944 141.925 57.1011 142.092L58.4811 145.092H56.8511L55.6711 142.332H54.9711V145.092H53.4911ZM54.9711 141.032H55.8311C56.1644 141.032 56.4211 140.949 56.6011 140.782C56.7878 140.615 56.8811 140.382 56.8811 140.082C56.8811 139.769 56.7878 139.525 56.6011 139.352C56.4211 139.179 56.1644 139.092 55.8311 139.092H54.9711V141.032ZM61.7172 145.192C60.9839 145.192 60.4005 144.985 59.9672 144.572C59.5339 144.159 59.3172 143.599 59.3172 142.892V139.992C59.3172 139.279 59.5339 138.719 59.9672 138.312C60.4005 137.899 60.9839 137.692 61.7172 137.692C62.4505 137.692 63.0339 137.899 63.4672 138.312C63.9005 138.719 64.1172 139.279 64.1172 139.992V142.892C64.1172 143.599 63.9005 144.159 63.4672 144.572C63.0339 144.985 62.4505 145.192 61.7172 145.192ZM61.7172 143.892C62.0172 143.892 62.2405 143.815 62.3872 143.662C62.5405 143.502 62.6172 143.279 62.6172 142.992V139.892C62.6172 139.599 62.5439 139.375 62.3972 139.222C62.2505 139.069 62.0239 138.992 61.7172 138.992C61.4105 138.992 61.1839 139.069 61.0372 139.222C60.8905 139.375 60.8172 139.599 60.8172 139.892V142.992C60.8172 143.279 60.8905 143.502 61.0372 143.662C61.1905 143.815 61.4172 143.892 61.7172 143.892ZM65.3033 145.092V137.792H70.0033V139.192H66.7833V140.812H69.7433V142.212H66.8033V145.092H65.3033ZM71.2894 145.092V143.742H72.7394V139.142H71.2894V137.792H75.6894V139.142H74.2394V143.742H75.6894V145.092H71.2894ZM77.5255 145.092V137.792H79.0255V143.742H81.9755V145.092H77.5255ZM83.0616 145.092V137.792H87.5616V139.092H84.5316V140.732H87.2116V141.972H84.5316V143.792H87.5616V145.092H83.0616ZM22.5176 160.092L20.7076 152.792H22.2576L23.2676 157.402C23.3009 157.562 23.3409 157.765 23.3876 158.012C23.4409 158.259 23.4809 158.469 23.5076 158.642C23.5342 158.469 23.5676 158.259 23.6076 158.012C23.6476 157.765 23.6842 157.559 23.7176 157.392L24.6976 152.792H26.2076L24.4176 160.092H22.5176ZM27.1437 160.092V158.742H28.5937V154.142H27.1437V152.792H31.5437V154.142H30.0937V158.742H31.5437V160.092H27.1437ZM32.4798 160.092L34.2698 152.792H36.1698L37.9798 160.092H36.4498L36.0998 158.442H34.3598L34.0098 160.092H32.4798ZM34.6098 157.242H35.8398L35.4898 155.482C35.4431 155.229 35.3931 154.979 35.3398 154.732C35.2931 154.479 35.2564 154.282 35.2298 154.142C35.2031 154.282 35.1664 154.475 35.1198 154.722C35.0798 154.969 35.0331 155.219 34.9798 155.472L34.6098 157.242ZM46.252 160.092V154.142H44.402V152.792H49.602V154.142H47.752V160.092H46.252ZM52.888 160.192C52.1547 160.192 51.5714 159.985 51.138 159.572C50.7047 159.159 50.488 158.599 50.488 157.892V154.992C50.488 154.279 50.7047 153.719 51.138 153.312C51.5714 152.899 52.1547 152.692 52.888 152.692C53.6214 152.692 54.2047 152.899 54.638 153.312C55.0714 153.719 55.288 154.279 55.288 154.992V157.892C55.288 158.599 55.0714 159.159 54.638 159.572C54.2047 159.985 53.6214 160.192 52.888 160.192ZM52.888 158.892C53.188 158.892 53.4114 158.815 53.558 158.662C53.7114 158.502 53.788 158.279 53.788 157.992V154.892C53.788 154.599 53.7147 154.375 53.568 154.222C53.4214 154.069 53.1947 153.992 52.888 153.992C52.5814 153.992 52.3547 154.069 52.208 154.222C52.0614 154.375 51.988 154.599 51.988 154.892V157.992C51.988 158.279 52.0614 158.502 52.208 158.662C52.3614 158.815 52.588 158.892 52.888 158.892ZM56.4241 160.092V152.792H57.9241V155.652H58.6241L59.8441 152.792H61.4641L59.9441 156.242L61.5241 160.092H59.8841L58.6341 156.962H57.9241V160.092H56.4241ZM62.4602 160.092V152.792H66.9602V154.092H63.9302V155.732H66.6102V156.972H63.9302V158.792H66.9602V160.092H62.4602ZM68.1463 160.092V152.792H69.8963L71.7863 158.442C71.7663 158.195 71.743 157.912 71.7163 157.592C71.6897 157.265 71.6663 156.942 71.6463 156.622C71.633 156.295 71.6263 156.019 71.6263 155.792V152.792H72.9463V160.092H71.1963L69.3263 154.442C69.3463 154.655 69.3663 154.909 69.3863 155.202C69.4063 155.495 69.423 155.792 69.4363 156.092C69.4563 156.392 69.4663 156.659 69.4663 156.892V160.092H68.1463Z" fill="#8B62CE"/>
<path d="M224.394 51.5C225.222 51.5 225.894 50.8284 225.894 50C225.894 49.1716 225.222 48.5 224.394 48.5V51.5ZM299.394 48.5C298.566 48.5 297.894 49.1716 297.894 50C297.894 50.8284 298.566 51.5 299.394 51.5V48.5ZM199 51.5H224.394V48.5H199V51.5ZM299.394 51.5H324V48.5H299.394V51.5Z" fill="#D3B8FF"/>
<path d="M229.886 46V38.7H231.716L232.456 41.82L233.196 38.7H235.046V46H233.676V43.2C233.676 42.7133 233.689 42.2367 233.716 41.77C233.749 41.3033 233.789 40.86 233.836 40.44C233.882 40.02 233.926 39.64 233.966 39.3L233.046 42.9H231.846L230.946 39.39C230.992 39.6767 231.039 40.02 231.086 40.42C231.132 40.82 231.172 41.2567 231.206 41.73C231.239 42.1967 231.256 42.6867 231.256 43.2V46H229.886ZM235.602 46L237.392 38.7H239.292L241.102 46H239.572L239.222 44.35H237.482L237.132 46H235.602ZM237.732 43.15H238.962L238.612 41.39C238.565 41.1367 238.515 40.8867 238.462 40.64C238.415 40.3867 238.378 40.19 238.352 40.05C238.325 40.19 238.288 40.3833 238.242 40.63C238.202 40.8767 238.155 41.1267 238.102 41.38L237.732 43.15ZM241.838 46V38.7H243.588L245.478 44.35C245.458 44.1033 245.434 43.82 245.408 43.5C245.381 43.1733 245.358 42.85 245.338 42.53C245.324 42.2033 245.318 41.9267 245.318 41.7V38.7H246.638V46H244.888L243.018 40.35C243.038 40.5633 243.058 40.8167 243.078 41.11C243.098 41.4033 243.114 41.7 243.128 42C243.148 42.3 243.158 42.5667 243.158 42.8V46H241.838ZM247.374 46L249.164 38.7H251.064L252.874 46H251.344L250.994 44.35H249.254L248.904 46H247.374ZM249.504 43.15H250.734L250.384 41.39C250.337 41.1367 250.287 40.8867 250.234 40.64C250.187 40.3867 250.15 40.19 250.124 40.05C250.097 40.19 250.06 40.3833 250.014 40.63C249.974 40.8767 249.927 41.1267 249.874 41.38L249.504 43.15ZM256.05 46.1C255.563 46.1 255.137 46.01 254.77 45.83C254.403 45.6433 254.117 45.3867 253.91 45.06C253.71 44.7267 253.61 44.34 253.61 43.9V40.8C253.61 40.3533 253.71 39.9667 253.91 39.64C254.117 39.3133 254.403 39.06 254.77 38.88C255.137 38.6933 255.563 38.6 256.05 38.6C256.543 38.6 256.97 38.6933 257.33 38.88C257.697 39.06 257.98 39.3133 258.18 39.64C258.387 39.9667 258.49 40.3533 258.49 40.8H256.99C256.99 40.5067 256.907 40.2833 256.74 40.13C256.58 39.9767 256.35 39.9 256.05 39.9C255.75 39.9 255.517 39.9767 255.35 40.13C255.19 40.2833 255.11 40.5067 255.11 40.8V43.9C255.11 44.1867 255.19 44.41 255.35 44.57C255.517 44.7233 255.75 44.8 256.05 44.8C256.35 44.8 256.58 44.7233 256.74 44.57C256.907 44.41 256.99 44.1867 256.99 43.9V43.22H255.91V41.95H258.49V43.9C258.49 44.34 258.387 44.7267 258.18 45.06C257.98 45.3867 257.697 45.6433 257.33 45.83C256.97 46.01 256.543 46.1 256.05 46.1ZM259.696 46V38.7H264.196V40H261.166V41.64H263.846V42.88H261.166V44.7H264.196V46H259.696ZM271.298 46V38.7H273.668C274.175 38.7 274.615 38.7967 274.988 38.99C275.368 39.1833 275.662 39.4567 275.868 39.81C276.082 40.1567 276.188 40.5667 276.188 41.04V43.65C276.188 44.1167 276.082 44.5267 275.868 44.88C275.662 45.2333 275.368 45.51 274.988 45.71C274.615 45.9033 274.175 46 273.668 46H271.298ZM272.798 44.65H273.668C273.968 44.65 274.212 44.5567 274.398 44.37C274.592 44.1833 274.688 43.9433 274.688 43.65V41.04C274.688 40.7467 274.592 40.51 274.398 40.33C274.212 40.1433 273.968 40.05 273.668 40.05H272.798V44.65ZM276.804 46L278.594 38.7H280.494L282.304 46H280.774L280.424 44.35H278.684L278.334 46H276.804ZM278.934 43.15H280.164L279.814 41.39C279.768 41.1367 279.718 40.8867 279.664 40.64C279.618 40.3867 279.581 40.19 279.554 40.05C279.528 40.19 279.491 40.3833 279.444 40.63C279.404 40.8767 279.358 41.1267 279.304 41.38L278.934 43.15ZM284.69 46V40.05H282.84V38.7H288.04V40.05H286.19V46H284.69ZM288.576 46L290.366 38.7H292.266L294.076 46H292.546L292.196 44.35H290.456L290.106 46H288.576ZM290.706 43.15H291.936L291.586 41.39C291.54 41.1367 291.49 40.8867 291.436 40.64C291.39 40.3867 291.353 40.19 291.326 40.05C291.3 40.19 291.263 40.3833 291.216 40.63C291.176 40.8767 291.13 41.1267 291.076 41.38L290.706 43.15ZM237.412 61L235.602 53.7H237.152L238.162 58.31C238.195 58.47 238.235 58.6733 238.282 58.92C238.335 59.1667 238.375 59.3767 238.402 59.55C238.428 59.3767 238.462 59.1667 238.502 58.92C238.542 58.6733 238.578 58.4667 238.612 58.3L239.592 53.7H241.102L239.312 61H237.412ZM242.038 61V59.65H243.488V55.05H242.038V53.7H246.438V55.05H244.988V59.65H246.438V61H242.038ZM247.374 61L249.164 53.7H251.064L252.874 61H251.344L250.994 59.35H249.254L248.904 61H247.374ZM249.504 58.15H250.734L250.384 56.39C250.337 56.1367 250.287 55.8867 250.234 55.64C250.187 55.3867 250.15 55.19 250.124 55.05C250.097 55.19 250.06 55.3833 250.014 55.63C249.974 55.8767 249.927 56.1267 249.874 56.38L249.504 58.15ZM261.146 61V55.05H259.296V53.7H264.496V55.05H262.646V61H261.146ZM267.782 61.1C267.049 61.1 266.465 60.8933 266.032 60.48C265.599 60.0667 265.382 59.5067 265.382 58.8V55.9C265.382 55.1867 265.599 54.6267 266.032 54.22C266.465 53.8067 267.049 53.6 267.782 53.6C268.515 53.6 269.099 53.8067 269.532 54.22C269.965 54.6267 270.182 55.1867 270.182 55.9V58.8C270.182 59.5067 269.965 60.0667 269.532 60.48C269.099 60.8933 268.515 61.1 267.782 61.1ZM267.782 59.8C268.082 59.8 268.305 59.7233 268.452 59.57C268.605 59.41 268.682 59.1867 268.682 58.9V55.8C268.682 55.5067 268.609 55.2833 268.462 55.13C268.315 54.9767 268.089 54.9 267.782 54.9C267.475 54.9 267.249 54.9767 267.102 55.13C266.955 55.2833 266.882 55.5067 266.882 55.8V58.9C266.882 59.1867 266.955 59.41 267.102 59.57C267.255 59.7233 267.482 59.8 267.782 59.8ZM271.318 61V53.7H272.818V56.56H273.518L274.738 53.7H276.358L274.838 57.15L276.418 61H274.778L273.528 57.87H272.818V61H271.318ZM277.354 61V53.7H281.854V55H278.824V56.64H281.504V57.88H278.824V59.7H281.854V61H277.354ZM283.04 61V53.7H284.79L286.68 59.35C286.66 59.1033 286.637 58.82 286.61 58.5C286.584 58.1733 286.56 57.85 286.54 57.53C286.527 57.2033 286.52 56.9267 286.52 56.7V53.7H287.84V61H286.09L284.22 55.35C284.24 55.5633 284.26 55.8167 284.28 56.11C284.3 56.4033 284.317 56.7 284.33 57C284.35 57.3 284.36 57.5667 284.36 57.8V61H283.04Z" fill="#8B62CE"/>
<path d="M146.5 162.21C146.5 161.382 145.828 160.71 145 160.71C144.172 160.71 143.5 161.382 143.5 162.21H146.5ZM143.5 137.21C143.5 138.038 144.172 138.71 145 138.71C145.828 138.71 146.5 138.038 146.5 137.21H143.5ZM146.061 102.939C145.475 102.354 144.525 102.354 143.939 102.939L134.393 112.485C133.808 113.071 133.808 114.021 134.393 114.607C134.979 115.192 135.929 115.192 136.515 114.607L145 106.121L153.485 114.607C154.071 115.192 155.021 115.192 155.607 114.607C156.192 114.021 156.192 113.071 155.607 112.485L146.061 102.939ZM146.5 196V162.21H143.5V196H146.5ZM146.5 137.21V104H143.5V137.21H146.5Z" fill="#7BC86F"/>
<path d="M129.537 153.21V147.26H127.687V145.91H132.887V147.26H131.037V153.21H129.537ZM136.173 153.31C135.439 153.31 134.856 153.103 134.423 152.69C133.989 152.277 133.773 151.717 133.773 151.01V148.11C133.773 147.397 133.989 146.837 134.423 146.43C134.856 146.017 135.439 145.81 136.173 145.81C136.906 145.81 137.489 146.017 137.923 146.43C138.356 146.837 138.573 147.397 138.573 148.11V151.01C138.573 151.717 138.356 152.277 137.923 152.69C137.489 153.103 136.906 153.31 136.173 153.31ZM136.173 152.01C136.473 152.01 136.696 151.933 136.843 151.78C136.996 151.62 137.073 151.397 137.073 151.11V148.01C137.073 147.717 136.999 147.493 136.853 147.34C136.706 147.187 136.479 147.11 136.173 147.11C135.866 147.11 135.639 147.187 135.493 147.34C135.346 147.493 135.273 147.717 135.273 148.01V151.11C135.273 151.397 135.346 151.62 135.493 151.78C135.646 151.933 135.873 152.01 136.173 152.01ZM139.709 153.21V145.91H141.209V148.77H141.909L143.129 145.91H144.749L143.229 149.36L144.809 153.21H143.169L141.919 150.08H141.209V153.21H139.709ZM145.745 153.21V145.91H150.245V147.21H147.215V148.85H149.895V150.09H147.215V151.91H150.245V153.21H145.745ZM151.431 153.21V145.91H153.181L155.071 151.56C155.051 151.313 155.028 151.03 155.001 150.71C154.974 150.383 154.951 150.06 154.931 149.74C154.918 149.413 154.911 149.137 154.911 148.91V145.91H156.231V153.21H154.481L152.611 147.56C152.631 147.773 152.651 148.027 152.671 148.32C152.691 148.613 152.708 148.91 152.721 149.21C152.741 149.51 152.751 149.777 152.751 150.01V153.21H151.431ZM159.737 153.31C159.224 153.31 158.774 153.22 158.387 153.04C158.007 152.86 157.711 152.607 157.497 152.28C157.291 151.947 157.187 151.557 157.187 151.11H158.647C158.647 151.383 158.744 151.603 158.937 151.77C159.137 151.93 159.404 152.01 159.737 152.01C160.064 152.01 160.317 151.933 160.497 151.78C160.684 151.62 160.777 151.41 160.777 151.15C160.777 150.943 160.717 150.76 160.597 150.6C160.477 150.433 160.301 150.323 160.067 150.27L159.177 150.06C158.604 149.927 158.147 149.67 157.807 149.29C157.474 148.903 157.307 148.443 157.307 147.91C157.307 147.477 157.401 147.103 157.587 146.79C157.781 146.477 158.054 146.237 158.407 146.07C158.767 145.897 159.191 145.81 159.677 145.81C160.171 145.81 160.594 145.897 160.947 146.07C161.307 146.237 161.584 146.477 161.777 146.79C161.977 147.103 162.077 147.473 162.077 147.9H160.617C160.617 147.647 160.534 147.45 160.367 147.31C160.201 147.163 159.971 147.09 159.677 147.09C159.391 147.09 159.167 147.16 159.007 147.3C158.847 147.44 158.767 147.627 158.767 147.86C158.767 148.053 158.827 148.21 158.947 148.33C159.067 148.45 159.237 148.537 159.457 148.59L160.377 148.8C160.951 148.927 161.404 149.203 161.737 149.63C162.077 150.05 162.247 150.557 162.247 151.15C162.247 151.583 162.144 151.963 161.937 152.29C161.737 152.617 161.447 152.87 161.067 153.05C160.694 153.223 160.251 153.31 159.737 153.31Z" fill="#5C9A53"/>
<path d="M474.5 130.908C474.5 131.736 475.172 132.408 476 132.408C476.828 132.408 477.5 131.736 477.5 130.908H474.5ZM477.5 170.908C477.5 170.079 476.828 169.408 476 169.408C475.172 169.408 474.5 170.079 474.5 170.908H477.5ZM432 51.5H452V48.5H432V51.5ZM474.5 74V130.908H477.5V74H474.5ZM474.5 170.908V226H477.5V170.908H474.5ZM452 248.5H432V251.5H452V248.5ZM474.5 226C474.5 238.426 464.426 248.5 452 248.5V251.5C466.083 251.5 477.5 240.083 477.5 226H474.5ZM452 51.5C464.426 51.5 474.5 61.5736 474.5 74H477.5C477.5 59.9167 466.083 48.5 452 48.5V51.5Z" fill="#64B5F6"/>
<path d="M464.25 147.008C463.736 147.008 463.286 146.918 462.9 146.738C462.52 146.558 462.223 146.305 462.01 145.978C461.803 145.645 461.7 145.255 461.7 144.808H463.16C463.16 145.081 463.256 145.301 463.45 145.468C463.65 145.628 463.916 145.708 464.25 145.708C464.576 145.708 464.83 145.631 465.01 145.478C465.196 145.318 465.29 145.108 465.29 144.848C465.29 144.641 465.23 144.458 465.11 144.298C464.99 144.131 464.813 144.021 464.58 143.968L463.69 143.758C463.116 143.625 462.66 143.368 462.32 142.988C461.986 142.601 461.82 142.141 461.82 141.608C461.82 141.175 461.913 140.801 462.1 140.488C462.293 140.175 462.566 139.935 462.92 139.768C463.28 139.595 463.703 139.508 464.19 139.508C464.683 139.508 465.106 139.595 465.46 139.768C465.82 139.935 466.096 140.175 466.29 140.488C466.49 140.801 466.59 141.171 466.59 141.598H465.13C465.13 141.345 465.046 141.148 464.88 141.008C464.713 140.861 464.483 140.788 464.19 140.788C463.903 140.788 463.68 140.858 463.52 140.998C463.36 141.138 463.28 141.325 463.28 141.558C463.28 141.751 463.34 141.908 463.46 142.028C463.58 142.148 463.75 142.235 463.97 142.288L464.89 142.498C465.463 142.625 465.916 142.901 466.25 143.328C466.59 143.748 466.76 144.255 466.76 144.848C466.76 145.281 466.656 145.661 466.45 145.988C466.25 146.315 465.96 146.568 465.58 146.748C465.206 146.921 464.763 147.008 464.25 147.008ZM469.366 146.908V140.958H467.516V139.608H472.716V140.958H470.866V146.908H469.366ZM476.002 147.008C475.269 147.008 474.685 146.801 474.252 146.388C473.819 145.975 473.602 145.415 473.602 144.708V141.808C473.602 141.095 473.819 140.535 474.252 140.128C474.685 139.715 475.269 139.508 476.002 139.508C476.735 139.508 477.319 139.715 477.752 140.128C478.185 140.535 478.402 141.095 478.402 141.808V144.708C478.402 145.415 478.185 145.975 477.752 146.388C477.319 146.801 476.735 147.008 476.002 147.008ZM476.002 145.708C476.302 145.708 476.525 145.631 476.672 145.478C476.825 145.318 476.902 145.095 476.902 144.808V141.708C476.902 141.415 476.829 141.191 476.682 141.038C476.535 140.885 476.309 140.808 476.002 140.808C475.695 140.808 475.469 140.885 475.322 141.038C475.175 141.191 475.102 141.415 475.102 141.708V144.808C475.102 145.095 475.175 145.318 475.322 145.478C475.475 145.631 475.702 145.708 476.002 145.708ZM479.548 146.908V139.608H481.888C482.408 139.608 482.858 139.698 483.238 139.878C483.618 140.058 483.911 140.315 484.118 140.648C484.331 140.981 484.438 141.375 484.438 141.828C484.438 142.301 484.321 142.725 484.088 143.098C483.861 143.471 483.551 143.741 483.158 143.908L484.538 146.908H482.908L481.728 144.148H481.028V146.908H479.548ZM481.028 142.848H481.888C482.221 142.848 482.478 142.765 482.658 142.598C482.845 142.431 482.938 142.198 482.938 141.898C482.938 141.585 482.845 141.341 482.658 141.168C482.478 140.995 482.221 140.908 481.888 140.908H481.028V142.848ZM485.574 146.908V139.608H490.074V140.908H487.044V142.548H489.724V143.788H487.044V145.608H490.074V146.908H485.574ZM464.803 161.908V154.608H467.173C467.679 154.608 468.119 154.705 468.493 154.898C468.873 155.091 469.166 155.365 469.373 155.718C469.586 156.065 469.693 156.475 469.693 156.948V159.558C469.693 160.025 469.586 160.435 469.373 160.788C469.166 161.141 468.873 161.418 468.493 161.618C468.119 161.811 467.679 161.908 467.173 161.908H464.803ZM466.303 160.558H467.173C467.473 160.558 467.716 160.465 467.903 160.278C468.096 160.091 468.193 159.851 468.193 159.558V156.948C468.193 156.655 468.096 156.418 467.903 156.238C467.716 156.051 467.473 155.958 467.173 155.958H466.303V160.558ZM470.309 161.908L472.099 154.608H473.999L475.809 161.908H474.279L473.929 160.258H472.189L471.839 161.908H470.309ZM472.439 159.058H473.669L473.319 157.298C473.272 157.045 473.222 156.795 473.169 156.548C473.122 156.295 473.086 156.098 473.059 155.958C473.032 156.098 472.996 156.291 472.949 156.538C472.909 156.785 472.862 157.035 472.809 157.288L472.439 159.058ZM478.195 161.908V155.958H476.345V154.608H481.545V155.958H479.695V161.908H478.195ZM482.081 161.908L483.871 154.608H485.771L487.581 161.908H486.051L485.701 160.258H483.961L483.611 161.908H482.081ZM484.211 159.058H485.441L485.091 157.298C485.044 157.045 484.994 156.795 484.941 156.548C484.894 156.295 484.858 156.098 484.831 155.958C484.804 156.098 484.768 156.291 484.721 156.538C484.681 156.785 484.634 157.035 484.581 157.288L484.211 159.058Z" fill="#4989BD"/>
<path d="M215.961 189.089L214.984 187.951L214.984 187.951L215.961 189.089ZM224.394 181.851L223.417 180.712L223.417 180.712L224.394 181.851ZM235.987 171.899L236.964 173.038L236.964 173.038L235.987 171.899ZM237.264 172.78C237.893 172.241 237.965 171.294 237.425 170.665C236.886 170.036 235.939 169.964 235.31 170.504L237.264 172.78ZM281.31 131.019C280.681 131.558 280.609 132.505 281.149 133.134C281.688 133.763 282.635 133.835 283.264 133.295L281.31 131.019ZM282.587 131.899L283.564 133.038L283.564 133.038L282.587 131.899ZM283.742 130.908L282.765 129.77L282.765 129.77L283.742 130.908ZM285.858 129.092L286.835 130.23L286.835 130.23L285.858 129.092ZM299.394 117.473L298.417 116.335L298.417 116.335L299.394 117.473ZM308.961 109.261L309.938 110.399L309.938 110.399L308.961 109.261ZM326.46 95.6377C326.523 94.8117 325.905 94.091 325.079 94.0281L311.618 93.0022C310.792 92.9392 310.071 93.5578 310.008 94.3839C309.945 95.2099 310.564 95.9306 311.39 95.9935L323.355 96.9054L322.443 108.871C322.38 109.697 322.999 110.417 323.825 110.48C324.651 110.543 325.372 109.925 325.435 109.099L326.46 95.6377ZM199.012 205.614L216.938 190.227L214.984 187.951L197.058 203.338L199.012 205.614ZM216.938 190.227L225.371 182.989L223.417 180.712L214.984 187.951L216.938 190.227ZM225.371 182.989L236.964 173.038L235.01 170.761L223.417 180.712L225.371 182.989ZM236.964 173.038L237.264 172.78L235.31 170.504L235.01 170.761L236.964 173.038ZM283.264 133.295L283.564 133.038L281.61 130.761L281.31 131.019L283.264 133.295ZM283.564 133.038L284.719 132.046L282.765 129.77L281.61 130.761L283.564 133.038ZM284.719 132.046L286.835 130.23L284.881 127.954L282.765 129.77L284.719 132.046ZM286.835 130.23L300.371 118.611L298.417 116.335L284.881 127.954L286.835 130.23ZM300.371 118.611L309.938 110.399L307.984 108.122L298.417 116.335L300.371 118.611ZM309.938 110.399L325.942 96.6619L323.988 94.3855L307.984 108.122L309.938 110.399Z" fill="#7BC86F"/>
<path d="M242.234 147.899V140.599H244.724C245.237 140.599 245.684 140.696 246.064 140.889C246.45 141.083 246.747 141.353 246.954 141.699C247.167 142.046 247.274 142.453 247.274 142.919C247.274 143.379 247.167 143.786 246.954 144.139C246.74 144.486 246.444 144.756 246.064 144.949C245.684 145.143 245.237 145.239 244.724 145.239H243.734V147.899H242.234ZM243.734 143.939H244.724C245.044 143.939 245.297 143.843 245.484 143.649C245.677 143.456 245.774 143.213 245.774 142.919C245.774 142.626 245.677 142.383 245.484 142.189C245.297 141.996 245.044 141.899 244.724 141.899H243.734V143.939ZM250.46 147.999C249.72 147.999 249.133 147.799 248.7 147.399C248.273 146.999 248.06 146.453 248.06 145.759V140.599H249.56V145.749C249.56 146.056 249.637 146.293 249.79 146.459C249.95 146.619 250.173 146.699 250.46 146.699C250.74 146.699 250.96 146.619 251.12 146.459C251.28 146.293 251.36 146.056 251.36 145.749V140.599H252.86V145.759C252.86 146.446 252.643 146.993 252.21 147.399C251.783 147.799 251.2 147.999 250.46 147.999ZM254.006 147.899V140.599H256.356C256.843 140.599 257.266 140.679 257.626 140.839C257.993 140.993 258.276 141.209 258.476 141.489C258.683 141.769 258.786 142.099 258.786 142.479C258.786 142.753 258.733 142.999 258.626 143.219C258.526 143.439 258.383 143.619 258.196 143.759C258.016 143.893 257.806 143.976 257.566 144.009V144.029C257.839 144.056 258.079 144.153 258.286 144.319C258.499 144.479 258.663 144.686 258.776 144.939C258.896 145.193 258.956 145.476 258.956 145.789C258.956 146.209 258.849 146.579 258.636 146.899C258.429 147.213 258.136 147.459 257.756 147.639C257.383 147.813 256.946 147.899 256.446 147.899H254.006ZM255.456 146.689H256.396C256.723 146.689 256.979 146.603 257.166 146.429C257.353 146.256 257.446 146.016 257.446 145.709C257.446 145.403 257.353 145.163 257.166 144.989C256.979 144.809 256.723 144.719 256.396 144.719H255.456V146.689ZM255.456 143.539H256.336C256.629 143.539 256.859 143.463 257.026 143.309C257.193 143.149 257.276 142.936 257.276 142.669C257.276 142.396 257.193 142.186 257.026 142.039C256.859 141.886 256.629 141.809 256.336 141.809H255.456V143.539ZM260.382 147.899V140.599H261.882V146.549H264.832V147.899H260.382ZM265.918 147.899V146.549H267.368V141.949H265.918V140.599H270.318V141.949H268.868V146.549H270.318V147.899H265.918ZM274.084 147.999C273.598 147.999 273.171 147.909 272.804 147.729C272.438 147.543 272.151 147.286 271.944 146.959C271.744 146.626 271.644 146.239 271.644 145.799V142.699C271.644 142.253 271.744 141.866 271.944 141.539C272.151 141.213 272.438 140.959 272.804 140.779C273.171 140.593 273.598 140.499 274.084 140.499C274.578 140.499 275.004 140.593 275.364 140.779C275.731 140.959 276.014 141.213 276.214 141.539C276.421 141.866 276.524 142.253 276.524 142.699H275.024C275.024 142.406 274.941 142.183 274.774 142.029C274.614 141.876 274.384 141.799 274.084 141.799C273.784 141.799 273.551 141.876 273.384 142.029C273.224 142.183 273.144 142.406 273.144 142.699V145.799C273.144 146.086 273.224 146.309 273.384 146.469C273.551 146.623 273.784 146.699 274.084 146.699C274.384 146.699 274.614 146.623 274.774 146.469C274.941 146.309 275.024 146.086 275.024 145.799H276.524C276.524 146.239 276.421 146.626 276.214 146.959C276.014 147.286 275.731 147.543 275.364 147.729C275.004 147.909 274.578 147.999 274.084 147.999ZM251.053 162.899V155.599H252.553V158.459H253.253L254.473 155.599H256.093L254.573 159.049L256.153 162.899H254.513L253.263 159.769H252.553V162.899H251.053ZM257.089 162.899V155.599H261.589V156.899H258.559V158.539H261.239V159.779H258.559V161.599H261.589V162.899H257.089ZM264.425 162.899V160.299L262.325 155.599H263.895L264.815 157.799C264.908 158.019 264.988 158.253 265.055 158.499C265.128 158.746 265.178 158.946 265.205 159.099C265.238 158.946 265.285 158.746 265.345 158.499C265.412 158.253 265.488 158.019 265.575 157.799L266.465 155.599H268.025L265.925 160.299V162.899H264.425Z" fill="#5C9A53"/>
</svg>
