<svg width="520" height="402" viewBox="0 0 520 402" fill="none" xmlns="http://www.w3.org/2000/svg">
<rect x="96" y="249" width="100" height="100" rx="20" fill="#7BC86F"/>
<path d="M106.425 274L109.468 261.59H112.698L115.775 274H113.174L112.579 271.195H109.621L109.026 274H106.425ZM110.046 269.155H112.137L111.542 266.163C111.463 265.732 111.378 265.307 111.287 264.888C111.208 264.457 111.145 264.123 111.1 263.885C111.055 264.123 110.992 264.452 110.913 264.871C110.845 265.29 110.766 265.715 110.675 266.146L110.046 269.155ZM121.293 274.17C120.035 274.17 119.038 273.83 118.301 273.15C117.576 272.47 117.213 271.541 117.213 270.362V261.59H119.763V270.345C119.763 270.866 119.894 271.269 120.154 271.552C120.426 271.824 120.806 271.96 121.293 271.96C121.769 271.96 122.143 271.824 122.415 271.552C122.687 271.269 122.823 270.866 122.823 270.345V261.59H125.373V270.362C125.373 271.529 125.005 272.459 124.268 273.15C123.543 273.83 122.551 274.17 121.293 274.17ZM130.212 274V263.885H127.067V261.59H135.907V263.885H132.762V274H130.212ZM137.702 274V261.59H140.252V266.418H143.108V261.59H145.658V274H143.108V268.713H140.252V274H137.702ZM106.714 291V278.59H109.825L111.083 283.894L112.341 278.59H115.486V291H113.157V286.24C113.157 285.413 113.18 284.602 113.225 283.809C113.282 283.016 113.35 282.262 113.429 281.548C113.508 280.834 113.582 280.188 113.65 279.61L112.086 285.73H110.046L108.516 279.763C108.595 280.25 108.675 280.834 108.754 281.514C108.833 282.194 108.901 282.936 108.958 283.741C109.015 284.534 109.043 285.367 109.043 286.24V291H106.714ZM117.553 291V288.705H120.018V280.885H117.553V278.59H125.033V280.885H122.568V288.705H125.033V291H117.553ZM131.623 291.17C130.795 291.17 130.07 291.017 129.447 290.711C128.823 290.394 128.336 289.957 127.985 289.402C127.645 288.835 127.475 288.178 127.475 287.43V282.16C127.475 281.401 127.645 280.743 127.985 280.188C128.336 279.633 128.823 279.202 129.447 278.896C130.07 278.579 130.795 278.42 131.623 278.42C132.461 278.42 133.187 278.579 133.799 278.896C134.422 279.202 134.904 279.633 135.244 280.188C135.595 280.743 135.771 281.401 135.771 282.16H133.221C133.221 281.661 133.079 281.282 132.796 281.021C132.524 280.76 132.133 280.63 131.623 280.63C131.113 280.63 130.716 280.76 130.433 281.021C130.161 281.282 130.025 281.661 130.025 282.16V287.43C130.025 287.917 130.161 288.297 130.433 288.569C130.716 288.83 131.113 288.96 131.623 288.96C132.133 288.96 132.524 288.83 132.796 288.569C133.079 288.297 133.221 287.917 133.221 287.43H135.771C135.771 288.178 135.595 288.835 135.244 289.402C134.904 289.957 134.422 290.394 133.799 290.711C133.187 291.017 132.461 291.17 131.623 291.17ZM137.702 291V278.59H141.68C142.564 278.59 143.329 278.743 143.975 279.049C144.621 279.355 145.12 279.791 145.471 280.358C145.834 280.925 146.015 281.593 146.015 282.364C146.015 283.169 145.817 283.888 145.42 284.523C145.035 285.158 144.508 285.617 143.839 285.9L146.185 291H143.414L141.408 286.308H140.218V291H137.702ZM140.218 284.098H141.68C142.247 284.098 142.683 283.956 142.989 283.673C143.306 283.39 143.465 282.993 143.465 282.483C143.465 281.95 143.306 281.537 142.989 281.242C142.683 280.947 142.247 280.8 141.68 280.8H140.218V284.098ZM151.873 291.17C150.627 291.17 149.635 290.819 148.898 290.116C148.162 289.413 147.793 288.461 147.793 287.26V282.33C147.793 281.117 148.162 280.165 148.898 279.474C149.635 278.771 150.627 278.42 151.873 278.42C153.12 278.42 154.112 278.771 154.848 279.474C155.585 280.165 155.953 281.117 155.953 282.33V287.26C155.953 288.461 155.585 289.413 154.848 290.116C154.112 290.819 153.12 291.17 151.873 291.17ZM151.873 288.96C152.383 288.96 152.763 288.83 153.012 288.569C153.273 288.297 153.403 287.917 153.403 287.43V282.16C153.403 281.661 153.279 281.282 153.029 281.021C152.78 280.76 152.395 280.63 151.873 280.63C151.352 280.63 150.967 280.76 150.717 281.021C150.468 281.282 150.343 281.661 150.343 282.16V287.43C150.343 287.917 150.468 288.297 150.717 288.569C150.978 288.83 151.363 288.96 151.873 288.96ZM111.134 308.17C110.261 308.17 109.496 308.017 108.839 307.711C108.193 307.405 107.689 306.974 107.326 306.419C106.975 305.852 106.799 305.189 106.799 304.43H109.281C109.281 304.895 109.445 305.269 109.774 305.552C110.114 305.824 110.567 305.96 111.134 305.96C111.689 305.96 112.12 305.83 112.426 305.569C112.743 305.297 112.902 304.94 112.902 304.498C112.902 304.147 112.8 303.835 112.596 303.563C112.392 303.28 112.092 303.093 111.695 303.002L110.182 302.645C109.207 302.418 108.431 301.982 107.853 301.336C107.286 300.679 107.003 299.897 107.003 298.99C107.003 298.253 107.162 297.619 107.479 297.086C107.808 296.553 108.272 296.145 108.873 295.862C109.485 295.567 110.205 295.42 111.032 295.42C111.871 295.42 112.59 295.567 113.191 295.862C113.803 296.145 114.273 296.553 114.602 297.086C114.942 297.619 115.112 298.248 115.112 298.973H112.63C112.63 298.542 112.488 298.208 112.205 297.97C111.922 297.721 111.531 297.596 111.032 297.596C110.545 297.596 110.165 297.715 109.893 297.953C109.621 298.191 109.485 298.508 109.485 298.905C109.485 299.234 109.587 299.5 109.791 299.704C109.995 299.908 110.284 300.055 110.658 300.146L112.222 300.503C113.197 300.718 113.967 301.189 114.534 301.914C115.112 302.628 115.401 303.489 115.401 304.498C115.401 305.235 115.225 305.881 114.874 306.436C114.534 306.991 114.041 307.422 113.395 307.728C112.76 308.023 112.007 308.17 111.134 308.17ZM117.553 308V295.59H125.203V297.8H120.052V300.588H124.608V302.696H120.052V305.79H125.203V308H117.553ZM127.509 308V295.59H131.487C132.371 295.59 133.136 295.743 133.782 296.049C134.428 296.355 134.926 296.791 135.278 297.358C135.64 297.925 135.822 298.593 135.822 299.364C135.822 300.169 135.623 300.888 135.227 301.523C134.841 302.158 134.314 302.617 133.646 302.9L135.992 308H133.221L131.215 303.308H130.025V308H127.509ZM130.025 301.098H131.487C132.053 301.098 132.49 300.956 132.796 300.673C133.113 300.39 133.272 299.993 133.272 299.483C133.272 298.95 133.113 298.537 132.796 298.242C132.49 297.947 132.053 297.8 131.487 297.8H130.025V301.098ZM140.082 308L137.005 295.59H139.64L141.357 303.427C141.414 303.699 141.482 304.045 141.561 304.464C141.652 304.883 141.72 305.24 141.765 305.535C141.81 305.24 141.867 304.883 141.935 304.464C142.003 304.045 142.065 303.693 142.122 303.41L143.788 295.59H146.355L143.312 308H140.082ZM148.133 308V305.705H150.598V297.885H148.133V295.59H155.613V297.885H153.148V305.705H155.613V308H148.133ZM162.203 308.17C161.375 308.17 160.65 308.017 160.027 307.711C159.403 307.394 158.916 306.957 158.565 306.402C158.225 305.835 158.055 305.178 158.055 304.43V299.16C158.055 298.401 158.225 297.743 158.565 297.188C158.916 296.633 159.403 296.202 160.027 295.896C160.65 295.579 161.375 295.42 162.203 295.42C163.041 295.42 163.767 295.579 164.379 295.896C165.002 296.202 165.484 296.633 165.824 297.188C166.175 297.743 166.351 298.401 166.351 299.16H163.801C163.801 298.661 163.659 298.282 163.376 298.021C163.104 297.76 162.713 297.63 162.203 297.63C161.693 297.63 161.296 297.76 161.013 298.021C160.741 298.282 160.605 298.661 160.605 299.16V304.43C160.605 304.917 160.741 305.297 161.013 305.569C161.296 305.83 161.693 305.96 162.203 305.96C162.713 305.96 163.104 305.83 163.376 305.569C163.659 305.297 163.801 304.917 163.801 304.43H166.351C166.351 305.178 166.175 305.835 165.824 306.402C165.484 306.957 165.002 307.394 164.379 307.711C163.767 308.017 163.041 308.17 162.203 308.17ZM168.52 308V295.59H176.17V297.8H171.019V300.588H175.575V302.696H171.019V305.79H176.17V308H168.52Z" fill="black"/>
<path d="M108.432 322.08C108.043 322.08 107.701 322.008 107.408 321.864C107.115 321.715 106.885 321.509 106.72 321.248C106.56 320.981 106.48 320.672 106.48 320.32V317.84C106.48 317.483 106.56 317.173 106.72 316.912C106.885 316.651 107.115 316.448 107.408 316.304C107.701 316.155 108.043 316.08 108.432 316.08C108.827 316.08 109.168 316.155 109.456 316.304C109.749 316.448 109.976 316.651 110.136 316.912C110.301 317.173 110.384 317.483 110.384 317.84H109.184C109.184 317.605 109.117 317.427 108.984 317.304C108.856 317.181 108.672 317.12 108.432 317.12C108.192 317.12 108.005 317.181 107.872 317.304C107.744 317.427 107.68 317.605 107.68 317.84V320.32C107.68 320.549 107.744 320.728 107.872 320.856C108.005 320.979 108.192 321.04 108.432 321.04C108.672 321.04 108.856 320.979 108.984 320.856C109.117 320.728 109.184 320.549 109.184 320.32V319.776H108.32V318.76H110.384V320.32C110.384 320.672 110.301 320.981 110.136 321.248C109.976 321.509 109.749 321.715 109.456 321.864C109.168 322.008 108.827 322.08 108.432 322.08ZM111.437 322V316.16H115.037V317.2H112.613V318.512H114.757V319.504H112.613V320.96H115.037V322H111.437ZM116.074 322V316.16H117.474L118.986 320.68C118.97 320.483 118.951 320.256 118.93 320C118.908 319.739 118.89 319.48 118.874 319.224C118.863 318.963 118.858 318.741 118.858 318.56V316.16H119.914V322H118.514L117.018 317.48C117.034 317.651 117.05 317.853 117.066 318.088C117.082 318.323 117.095 318.56 117.106 318.8C117.122 319.04 117.13 319.253 117.13 319.44V322H116.074ZM126.988 322V317.24H125.508V316.16H129.668V317.24H128.188V322H126.988ZM132.384 322.08C131.798 322.08 131.331 321.915 130.984 321.584C130.638 321.253 130.464 320.805 130.464 320.24V317.92C130.464 317.349 130.638 316.901 130.984 316.576C131.331 316.245 131.798 316.08 132.384 316.08C132.971 316.08 133.438 316.245 133.784 316.576C134.131 316.901 134.304 317.349 134.304 317.92V320.24C134.304 320.805 134.131 321.253 133.784 321.584C133.438 321.915 132.971 322.08 132.384 322.08ZM132.384 321.04C132.624 321.04 132.803 320.979 132.92 320.856C133.043 320.728 133.104 320.549 133.104 320.32V317.84C133.104 317.605 133.046 317.427 132.928 317.304C132.811 317.181 132.63 317.12 132.384 317.12C132.139 317.12 131.958 317.181 131.84 317.304C131.723 317.427 131.664 317.605 131.664 317.84V320.32C131.664 320.549 131.723 320.728 131.84 320.856C131.963 320.979 132.144 321.04 132.384 321.04ZM135.301 322V316.16H136.501V318.448H137.061L138.037 316.16H139.333L138.117 318.92L139.381 322H138.069L137.069 319.496H136.501V322H135.301ZM140.218 322V316.16H143.818V317.2H141.394V318.512H143.538V319.504H141.394V320.96H143.818V322H140.218ZM144.855 322V316.16H146.255L147.767 320.68C147.751 320.483 147.732 320.256 147.711 320C147.69 319.739 147.671 319.48 147.655 319.224C147.644 318.963 147.639 318.741 147.639 318.56V316.16H148.695V322H147.295L145.799 317.48C145.815 317.651 145.831 317.853 145.847 318.088C145.863 318.323 145.876 318.56 145.887 318.8C145.903 319.04 145.911 319.253 145.911 319.44V322H144.855ZM106.2 330L107.632 324.16H109.152L110.6 330H109.376L109.096 328.68H107.704L107.424 330H106.2ZM107.904 327.72H108.888L108.608 326.312C108.571 326.109 108.531 325.909 108.488 325.712C108.451 325.509 108.421 325.352 108.4 325.24C108.379 325.352 108.349 325.507 108.312 325.704C108.28 325.901 108.243 326.101 108.2 326.304L107.904 327.72ZM113.197 330.08C112.605 330.08 112.136 329.92 111.789 329.6C111.448 329.28 111.277 328.843 111.277 328.288V324.16H112.477V328.28C112.477 328.525 112.538 328.715 112.661 328.848C112.789 328.976 112.968 329.04 113.197 329.04C113.421 329.04 113.597 328.976 113.725 328.848C113.853 328.715 113.917 328.525 113.917 328.28V324.16H115.117V328.288C115.117 328.837 114.944 329.275 114.597 329.6C114.256 329.92 113.789 330.08 113.197 330.08ZM117.394 330V325.24H115.914V324.16H120.074V325.24H118.594V330H117.394ZM120.919 330V324.16H122.119V326.432H123.463V324.16H124.663V330H123.463V327.512H122.119V330H120.919ZM130.904 330V324.16H132.104V328.92H134.464V330H130.904ZM137.181 330.08C136.595 330.08 136.128 329.915 135.781 329.584C135.435 329.253 135.261 328.805 135.261 328.24V325.92C135.261 325.349 135.435 324.901 135.781 324.576C136.128 324.245 136.595 324.08 137.181 324.08C137.768 324.08 138.235 324.245 138.581 324.576C138.928 324.901 139.101 325.349 139.101 325.92V328.24C139.101 328.805 138.928 329.253 138.581 329.584C138.235 329.915 137.768 330.08 137.181 330.08ZM137.181 329.04C137.421 329.04 137.6 328.979 137.717 328.856C137.84 328.728 137.901 328.549 137.901 328.32V325.84C137.901 325.605 137.843 325.427 137.725 325.304C137.608 325.181 137.427 325.12 137.181 325.12C136.936 325.12 136.755 325.181 136.637 325.304C136.52 325.427 136.461 325.605 136.461 325.84V328.32C136.461 328.549 136.52 328.728 136.637 328.856C136.76 328.979 136.941 329.04 137.181 329.04ZM142.01 330.08C141.621 330.08 141.279 330.008 140.986 329.864C140.693 329.715 140.463 329.509 140.298 329.248C140.138 328.981 140.058 328.672 140.058 328.32V325.84C140.058 325.483 140.138 325.173 140.298 324.912C140.463 324.651 140.693 324.448 140.986 324.304C141.279 324.155 141.621 324.08 142.01 324.08C142.405 324.08 142.746 324.155 143.034 324.304C143.327 324.448 143.554 324.651 143.714 324.912C143.879 325.173 143.962 325.483 143.962 325.84H142.762C142.762 325.605 142.695 325.427 142.562 325.304C142.434 325.181 142.25 325.12 142.01 325.12C141.77 325.12 141.583 325.181 141.45 325.304C141.322 325.427 141.258 325.605 141.258 325.84V328.32C141.258 328.549 141.322 328.728 141.45 328.856C141.583 328.979 141.77 329.04 142.01 329.04C142.25 329.04 142.434 328.979 142.562 328.856C142.695 328.728 142.762 328.549 142.762 328.32V327.776H141.898V326.76H143.962V328.32C143.962 328.672 143.879 328.981 143.714 329.248C143.554 329.509 143.327 329.715 143.034 329.864C142.746 330.008 142.405 330.08 142.01 330.08ZM145.015 330V328.92H146.175V325.24H145.015V324.16H148.535V325.24H147.375V328.92H148.535V330H145.015ZM151.636 330.08C151.247 330.08 150.905 330.008 150.612 329.864C150.319 329.715 150.089 329.509 149.924 329.248C149.764 328.981 149.684 328.672 149.684 328.32V325.84C149.684 325.483 149.764 325.173 149.924 324.912C150.089 324.651 150.319 324.448 150.612 324.304C150.905 324.155 151.247 324.08 151.636 324.08C152.031 324.08 152.372 324.155 152.66 324.304C152.953 324.448 153.18 324.651 153.34 324.912C153.505 325.173 153.588 325.483 153.588 325.84H152.388C152.388 325.605 152.321 325.427 152.188 325.304C152.06 325.181 151.876 325.12 151.636 325.12C151.396 325.12 151.209 325.181 151.076 325.304C150.948 325.427 150.884 325.605 150.884 325.84V328.32C150.884 328.549 150.948 328.728 151.076 328.856C151.209 328.979 151.396 329.04 151.636 329.04C151.876 329.04 152.06 328.979 152.188 328.856C152.321 328.728 152.388 328.549 152.388 328.32H153.588C153.588 328.672 153.505 328.981 153.34 329.248C153.18 329.509 152.953 329.715 152.66 329.864C152.372 330.008 152.031 330.08 151.636 330.08ZM106.336 338V332.16H107.8L108.392 334.656L108.984 332.16H110.464V338H109.368V335.76C109.368 335.371 109.379 334.989 109.4 334.616C109.427 334.243 109.459 333.888 109.496 333.552C109.533 333.216 109.568 332.912 109.6 332.64L108.864 335.52H107.904L107.184 332.712C107.221 332.941 107.259 333.216 107.296 333.536C107.333 333.856 107.365 334.205 107.392 334.584C107.419 334.957 107.432 335.349 107.432 335.76V338H106.336ZM110.997 338L112.429 332.16H113.949L115.397 338H114.173L113.893 336.68H112.501L112.221 338H110.997ZM112.701 335.72H113.685L113.405 334.312C113.368 334.109 113.328 333.909 113.285 333.712C113.248 333.509 113.218 333.352 113.197 333.24C113.176 333.352 113.146 333.507 113.109 333.704C113.077 333.901 113.04 334.101 112.997 334.304L112.701 335.72ZM116.074 338V332.16H117.474L118.986 336.68C118.97 336.483 118.951 336.256 118.93 336C118.908 335.739 118.89 335.48 118.874 335.224C118.863 334.963 118.858 334.741 118.858 334.56V332.16H119.914V338H118.514L117.018 333.48C117.034 333.651 117.05 333.853 117.066 334.088C117.082 334.323 117.095 334.56 117.106 334.8C117.122 335.04 117.13 335.253 117.13 335.44V338H116.074ZM120.591 338L122.023 332.16H123.543L124.991 338H123.767L123.487 336.68H122.095L121.815 338H120.591ZM122.295 335.72H123.279L122.999 334.312C122.961 334.109 122.921 333.909 122.879 333.712C122.841 333.509 122.812 333.352 122.791 333.24C122.769 333.352 122.74 333.507 122.703 333.704C122.671 333.901 122.633 334.101 122.591 334.304L122.295 335.72ZM127.62 338.08C127.23 338.08 126.889 338.008 126.596 337.864C126.302 337.715 126.073 337.509 125.908 337.248C125.748 336.981 125.668 336.672 125.668 336.32V333.84C125.668 333.483 125.748 333.173 125.908 332.912C126.073 332.651 126.302 332.448 126.596 332.304C126.889 332.155 127.23 332.08 127.62 332.08C128.014 332.08 128.356 332.155 128.644 332.304C128.937 332.448 129.164 332.651 129.324 332.912C129.489 333.173 129.572 333.483 129.572 333.84H128.372C128.372 333.605 128.305 333.427 128.172 333.304C128.044 333.181 127.86 333.12 127.62 333.12C127.38 333.12 127.193 333.181 127.06 333.304C126.932 333.427 126.868 333.605 126.868 333.84V336.32C126.868 336.549 126.932 336.728 127.06 336.856C127.193 336.979 127.38 337.04 127.62 337.04C127.86 337.04 128.044 336.979 128.172 336.856C128.305 336.728 128.372 336.549 128.372 336.32V335.776H127.508V334.76H129.572V336.32C129.572 336.672 129.489 336.981 129.324 337.248C129.164 337.509 128.937 337.715 128.644 337.864C128.356 338.008 128.014 338.08 127.62 338.08ZM130.624 338V332.16H134.224V333.2H131.8V334.512H133.944V335.504H131.8V336.96H134.224V338H130.624ZM140.106 338V332.16H142.098C142.509 332.16 142.866 332.237 143.17 332.392C143.479 332.547 143.717 332.763 143.882 333.04C144.053 333.317 144.138 333.643 144.138 334.016C144.138 334.384 144.053 334.709 143.882 334.992C143.711 335.269 143.474 335.485 143.17 335.64C142.866 335.795 142.509 335.872 142.098 335.872H141.306V338H140.106ZM141.306 334.832H142.098C142.354 334.832 142.557 334.755 142.706 334.6C142.861 334.445 142.938 334.251 142.938 334.016C142.938 333.781 142.861 333.587 142.706 333.432C142.557 333.277 142.354 333.2 142.098 333.2H141.306V334.832ZM144.903 338V332.16H146.775C147.191 332.16 147.551 332.232 147.855 332.376C148.159 332.52 148.394 332.725 148.559 332.992C148.73 333.259 148.815 333.573 148.815 333.936C148.815 334.315 148.722 334.653 148.535 334.952C148.354 335.251 148.106 335.467 147.791 335.6L148.895 338H147.591L146.647 335.792H146.087V338H144.903ZM146.087 334.752H146.775C147.042 334.752 147.247 334.685 147.391 334.552C147.54 334.419 147.615 334.232 147.615 333.992C147.615 333.741 147.54 333.547 147.391 333.408C147.247 333.269 147.042 333.2 146.775 333.2H146.087V334.752ZM151.572 338.08C150.985 338.08 150.519 337.915 150.172 337.584C149.825 337.253 149.652 336.805 149.652 336.24V333.92C149.652 333.349 149.825 332.901 150.172 332.576C150.519 332.245 150.985 332.08 151.572 332.08C152.159 332.08 152.625 332.245 152.972 332.576C153.319 332.901 153.492 333.349 153.492 333.92V336.24C153.492 336.805 153.319 337.253 152.972 337.584C152.625 337.915 152.159 338.08 151.572 338.08ZM151.572 337.04C151.812 337.04 151.991 336.979 152.108 336.856C152.231 336.728 152.292 336.549 152.292 336.32V333.84C152.292 333.605 152.233 333.427 152.116 333.304C151.999 333.181 151.817 333.12 151.572 333.12C151.327 333.12 151.145 333.181 151.028 333.304C150.911 333.427 150.852 333.605 150.852 333.84V336.32C150.852 336.549 150.911 336.728 151.028 336.856C151.151 336.979 151.332 337.04 151.572 337.04ZM154.529 338V332.16H158.289V333.28H155.713V334.576H158.081V335.696H155.729V338H154.529ZM159.406 338V336.92H160.566V333.24H159.406V332.16H162.926V333.24H161.766V336.92H162.926V338H159.406ZM164.483 338V332.16H165.683V336.92H168.043V338H164.483ZM168.999 338V332.16H172.599V333.2H170.175V334.512H172.319V335.504H170.175V336.96H172.599V338H168.999Z" fill="#33592D"/>
<rect x="329" y="49" width="100" height="100" rx="20" fill="#D9D9D9"/>
<path d="M344.1 74.17C342.853 74.17 341.862 73.8187 341.125 73.116C340.388 72.4133 340.02 71.4613 340.02 70.26V65.33C340.02 64.1173 340.388 63.1653 341.125 62.474C341.862 61.7713 342.853 61.42 344.1 61.42C345.347 61.42 346.338 61.7713 347.075 62.474C347.812 63.1653 348.18 64.1173 348.18 65.33V70.26C348.18 71.4613 347.812 72.4133 347.075 73.116C346.338 73.8187 345.347 74.17 344.1 74.17ZM344.1 71.96C344.61 71.96 344.99 71.8297 345.239 71.569C345.5 71.297 345.63 70.9173 345.63 70.43V65.16C345.63 64.6613 345.505 64.2817 345.256 64.021C345.007 63.7603 344.621 63.63 344.1 63.63C343.579 63.63 343.193 63.7603 342.944 64.021C342.695 64.2817 342.57 64.6613 342.57 65.16V70.43C342.57 70.9173 342.695 71.297 342.944 71.569C343.205 71.8297 343.59 71.96 344.1 71.96ZM353.018 74V63.885H349.873V61.59H358.713V63.885H355.568V74H353.018ZM360.509 74V61.59H363.059V66.418H365.915V61.59H368.465V74H365.915V68.713H363.059V74H360.509ZM370.94 74V61.59H378.59V63.8H373.439V66.588H377.995V68.696H373.439V71.79H378.59V74H370.94ZM380.895 74V61.59H384.873C385.757 61.59 386.522 61.743 387.168 62.049C387.814 62.355 388.313 62.7913 388.664 63.358C389.027 63.9247 389.208 64.5933 389.208 65.364C389.208 66.1687 389.01 66.8883 388.613 67.523C388.228 68.1577 387.701 68.6167 387.032 68.9L389.378 74H386.607L384.601 69.308H383.411V74H380.895ZM383.411 67.098H384.873C385.44 67.098 385.876 66.9563 386.182 66.673C386.5 66.3897 386.658 65.993 386.658 65.483C386.658 64.9503 386.5 64.5367 386.182 64.242C385.876 63.9473 385.44 63.8 384.873 63.8H383.411V67.098ZM339.714 91V78.59H342.825L344.083 83.894L345.341 78.59H348.486V91H346.157V86.24C346.157 85.4127 346.18 84.6023 346.225 83.809C346.282 83.0157 346.35 82.262 346.429 81.548C346.508 80.834 346.582 80.188 346.65 79.61L345.086 85.73H343.046L341.516 79.763C341.595 80.2503 341.675 80.834 341.754 81.514C341.833 82.194 341.901 82.9363 341.958 83.741C342.015 84.5343 342.043 85.3673 342.043 86.24V91H339.714ZM350.553 91V88.705H353.018V80.885H350.553V78.59H358.033V80.885H355.568V88.705H358.033V91H350.553ZM364.623 91.17C363.795 91.17 363.07 91.017 362.447 90.711C361.823 90.3937 361.336 89.9573 360.985 89.402C360.645 88.8353 360.475 88.178 360.475 87.43V82.16C360.475 81.4007 360.645 80.7433 360.985 80.188C361.336 79.6327 361.823 79.202 362.447 78.896C363.07 78.5787 363.795 78.42 364.623 78.42C365.461 78.42 366.187 78.5787 366.799 78.896C367.422 79.202 367.904 79.6327 368.244 80.188C368.595 80.7433 368.771 81.4007 368.771 82.16H366.221C366.221 81.6613 366.079 81.2817 365.796 81.021C365.524 80.7603 365.133 80.63 364.623 80.63C364.113 80.63 363.716 80.7603 363.433 81.021C363.161 81.2817 363.025 81.6613 363.025 82.16V87.43C363.025 87.9173 363.161 88.297 363.433 88.569C363.716 88.8297 364.113 88.96 364.623 88.96C365.133 88.96 365.524 88.8297 365.796 88.569C366.079 88.297 366.221 87.9173 366.221 87.43H368.771C368.771 88.178 368.595 88.8353 368.244 89.402C367.904 89.9573 367.422 90.3937 366.799 90.711C366.187 91.017 365.461 91.17 364.623 91.17ZM370.702 91V78.59H374.68C375.564 78.59 376.329 78.743 376.975 79.049C377.621 79.355 378.12 79.7913 378.471 80.358C378.834 80.9247 379.015 81.5933 379.015 82.364C379.015 83.1687 378.817 83.8883 378.42 84.523C378.035 85.1577 377.508 85.6167 376.839 85.9L379.185 91H376.414L374.408 86.308H373.218V91H370.702ZM373.218 84.098H374.68C375.247 84.098 375.683 83.9563 375.989 83.673C376.306 83.3897 376.465 82.993 376.465 82.483C376.465 81.9503 376.306 81.5367 375.989 81.242C375.683 80.9473 375.247 80.8 374.68 80.8H373.218V84.098ZM384.873 91.17C383.627 91.17 382.635 90.8187 381.898 90.116C381.162 89.4133 380.793 88.4613 380.793 87.26V82.33C380.793 81.1173 381.162 80.1653 381.898 79.474C382.635 78.7713 383.627 78.42 384.873 78.42C386.12 78.42 387.112 78.7713 387.848 79.474C388.585 80.1653 388.953 81.1173 388.953 82.33V87.26C388.953 88.4613 388.585 89.4133 387.848 90.116C387.112 90.8187 386.12 91.17 384.873 91.17ZM384.873 88.96C385.383 88.96 385.763 88.8297 386.012 88.569C386.273 88.297 386.403 87.9173 386.403 87.43V82.16C386.403 81.6613 386.279 81.2817 386.029 81.021C385.78 80.7603 385.395 80.63 384.873 80.63C384.352 80.63 383.967 80.7603 383.717 81.021C383.468 81.2817 383.343 81.6613 383.343 82.16V87.43C383.343 87.9173 383.468 88.297 383.717 88.569C383.978 88.8297 384.363 88.96 384.873 88.96ZM344.134 108.17C343.261 108.17 342.496 108.017 341.839 107.711C341.193 107.405 340.689 106.974 340.326 106.419C339.975 105.852 339.799 105.189 339.799 104.43H342.281C342.281 104.895 342.445 105.269 342.774 105.552C343.114 105.824 343.567 105.96 344.134 105.96C344.689 105.96 345.12 105.83 345.426 105.569C345.743 105.297 345.902 104.94 345.902 104.498C345.902 104.147 345.8 103.835 345.596 103.563C345.392 103.28 345.092 103.093 344.695 103.002L343.182 102.645C342.207 102.418 341.431 101.982 340.853 101.336C340.286 100.679 340.003 99.8967 340.003 98.99C340.003 98.2533 340.162 97.6187 340.479 97.086C340.808 96.5533 341.272 96.1453 341.873 95.862C342.485 95.5673 343.205 95.42 344.032 95.42C344.871 95.42 345.59 95.5673 346.191 95.862C346.803 96.1453 347.273 96.5533 347.602 97.086C347.942 97.6187 348.112 98.2477 348.112 98.973H345.63C345.63 98.5423 345.488 98.208 345.205 97.97C344.922 97.7207 344.531 97.596 344.032 97.596C343.545 97.596 343.165 97.715 342.893 97.953C342.621 98.191 342.485 98.5083 342.485 98.905C342.485 99.2337 342.587 99.5 342.791 99.704C342.995 99.908 343.284 100.055 343.658 100.146L345.222 100.503C346.197 100.718 346.967 101.189 347.534 101.914C348.112 102.628 348.401 103.489 348.401 104.498C348.401 105.235 348.225 105.881 347.874 106.436C347.534 106.991 347.041 107.422 346.395 107.728C345.76 108.023 345.007 108.17 344.134 108.17ZM350.553 108V95.59H358.203V97.8H353.052V100.588H357.608V102.696H353.052V105.79H358.203V108H350.553ZM360.509 108V95.59H364.487C365.371 95.59 366.136 95.743 366.782 96.049C367.428 96.355 367.926 96.7913 368.278 97.358C368.64 97.9247 368.822 98.5933 368.822 99.364C368.822 100.169 368.623 100.888 368.227 101.523C367.841 102.158 367.314 102.617 366.646 102.9L368.992 108H366.221L364.215 103.308H363.025V108H360.509ZM363.025 101.098H364.487C365.053 101.098 365.49 100.956 365.796 100.673C366.113 100.39 366.272 99.993 366.272 99.483C366.272 98.9503 366.113 98.5367 365.796 98.242C365.49 97.9473 365.053 97.8 364.487 97.8H363.025V101.098ZM373.082 108L370.005 95.59H372.64L374.357 103.427C374.414 103.699 374.482 104.045 374.561 104.464C374.652 104.883 374.72 105.24 374.765 105.535C374.81 105.24 374.867 104.883 374.935 104.464C375.003 104.045 375.065 103.693 375.122 103.41L376.788 95.59H379.355L376.312 108H373.082ZM381.133 108V105.705H383.598V97.885H381.133V95.59H388.613V97.885H386.148V105.705H388.613V108H381.133ZM395.203 108.17C394.375 108.17 393.65 108.017 393.027 107.711C392.403 107.394 391.916 106.957 391.565 106.402C391.225 105.835 391.055 105.178 391.055 104.43V99.16C391.055 98.4007 391.225 97.7433 391.565 97.188C391.916 96.6327 392.403 96.202 393.027 95.896C393.65 95.5787 394.375 95.42 395.203 95.42C396.041 95.42 396.767 95.5787 397.379 95.896C398.002 96.202 398.484 96.6327 398.824 97.188C399.175 97.7433 399.351 98.4007 399.351 99.16H396.801C396.801 98.6613 396.659 98.2817 396.376 98.021C396.104 97.7603 395.713 97.63 395.203 97.63C394.693 97.63 394.296 97.7603 394.013 98.021C393.741 98.2817 393.605 98.6613 393.605 99.16V104.43C393.605 104.917 393.741 105.297 394.013 105.569C394.296 105.83 394.693 105.96 395.203 105.96C395.713 105.96 396.104 105.83 396.376 105.569C396.659 105.297 396.801 104.917 396.801 104.43H399.351C399.351 105.178 399.175 105.835 398.824 106.402C398.484 106.957 398.002 107.394 397.379 107.711C396.767 108.017 396.041 108.17 395.203 108.17ZM401.52 108V95.59H409.17V97.8H404.019V100.588H408.575V102.696H404.019V105.79H409.17V108H401.52Z" fill="black"/>
<path d="M339.528 138V132.16H341.408C341.797 132.16 342.136 132.224 342.424 132.352C342.717 132.475 342.944 132.648 343.104 132.872C343.269 133.096 343.352 133.36 343.352 133.664C343.352 133.883 343.309 134.08 343.224 134.256C343.144 134.432 343.029 134.576 342.88 134.688C342.736 134.795 342.568 134.861 342.376 134.888V134.904C342.595 134.925 342.787 135.003 342.952 135.136C343.123 135.264 343.253 135.429 343.344 135.632C343.44 135.835 343.488 136.061 343.488 136.312C343.488 136.648 343.403 136.944 343.232 137.2C343.067 137.451 342.832 137.648 342.528 137.792C342.229 137.931 341.88 138 341.48 138H339.528ZM340.688 137.032H341.44C341.701 137.032 341.907 136.963 342.056 136.824C342.205 136.685 342.28 136.493 342.28 136.248C342.28 136.003 342.205 135.811 342.056 135.672C341.907 135.528 341.701 135.456 341.44 135.456H340.688V137.032ZM340.688 134.512H341.392C341.627 134.512 341.811 134.451 341.944 134.328C342.077 134.2 342.144 134.029 342.144 133.816C342.144 133.597 342.077 133.429 341.944 133.312C341.811 133.189 341.627 133.128 341.392 133.128H340.688V134.512ZM346.197 138.08C345.605 138.08 345.136 137.92 344.789 137.6C344.448 137.28 344.277 136.843 344.277 136.288V132.16H345.477V136.28C345.477 136.525 345.538 136.715 345.661 136.848C345.789 136.976 345.968 137.04 346.197 137.04C346.421 137.04 346.597 136.976 346.725 136.848C346.853 136.715 346.917 136.525 346.917 136.28V132.16H348.117V136.288C348.117 136.837 347.944 137.275 347.597 137.6C347.256 137.92 346.789 138.08 346.197 138.08ZM351.01 138.08C350.599 138.08 350.239 138.008 349.93 137.864C349.626 137.72 349.388 137.517 349.218 137.256C349.052 136.989 348.97 136.677 348.97 136.32H350.138C350.138 136.539 350.215 136.715 350.37 136.848C350.53 136.976 350.743 137.04 351.01 137.04C351.271 137.04 351.474 136.979 351.618 136.856C351.767 136.728 351.842 136.56 351.842 136.352C351.842 136.187 351.794 136.04 351.698 135.912C351.602 135.779 351.46 135.691 351.274 135.648L350.562 135.48C350.103 135.373 349.738 135.168 349.466 134.864C349.199 134.555 349.066 134.187 349.066 133.76C349.066 133.413 349.14 133.115 349.29 132.864C349.444 132.613 349.663 132.421 349.946 132.288C350.234 132.149 350.572 132.08 350.962 132.08C351.356 132.08 351.695 132.149 351.978 132.288C352.266 132.421 352.487 132.613 352.642 132.864C352.802 133.115 352.882 133.411 352.882 133.752H351.714C351.714 133.549 351.647 133.392 351.514 133.28C351.38 133.163 351.196 133.104 350.962 133.104C350.732 133.104 350.554 133.16 350.426 133.272C350.298 133.384 350.234 133.533 350.234 133.72C350.234 133.875 350.282 134 350.378 134.096C350.474 134.192 350.61 134.261 350.786 134.304L351.522 134.472C351.98 134.573 352.343 134.795 352.61 135.136C352.882 135.472 353.018 135.877 353.018 136.352C353.018 136.699 352.935 137.003 352.77 137.264C352.61 137.525 352.378 137.728 352.074 137.872C351.775 138.011 351.42 138.08 351.01 138.08ZM354.031 138V136.92H355.191V133.24H354.031V132.16H357.551V133.24H356.391V136.92H357.551V138H354.031ZM358.668 138V132.16H360.068L361.58 136.68C361.564 136.483 361.545 136.256 361.524 136C361.502 135.739 361.484 135.48 361.468 135.224C361.457 134.963 361.452 134.741 361.452 134.56V132.16H362.508V138H361.108L359.612 133.48C359.628 133.651 359.644 133.853 359.66 134.088C359.676 134.323 359.689 134.56 359.7 134.8C359.716 135.04 359.724 135.253 359.724 135.44V138H358.668ZM363.624 138V132.16H367.224V133.2H364.8V134.512H366.944V135.504H364.8V136.96H367.224V138H363.624ZM370.197 138.08C369.787 138.08 369.427 138.008 369.117 137.864C368.813 137.72 368.576 137.517 368.405 137.256C368.24 136.989 368.157 136.677 368.157 136.32H369.325C369.325 136.539 369.403 136.715 369.557 136.848C369.717 136.976 369.931 137.04 370.197 137.04C370.459 137.04 370.661 136.979 370.805 136.856C370.955 136.728 371.029 136.56 371.029 136.352C371.029 136.187 370.981 136.04 370.885 135.912C370.789 135.779 370.648 135.691 370.461 135.648L369.749 135.48C369.291 135.373 368.925 135.168 368.653 134.864C368.387 134.555 368.253 134.187 368.253 133.76C368.253 133.413 368.328 133.115 368.477 132.864C368.632 132.613 368.851 132.421 369.133 132.288C369.421 132.149 369.76 132.08 370.149 132.08C370.544 132.08 370.883 132.149 371.165 132.288C371.453 132.421 371.675 132.613 371.829 132.864C371.989 133.115 372.069 133.411 372.069 133.752H370.901C370.901 133.549 370.835 133.392 370.701 133.28C370.568 133.163 370.384 133.104 370.149 133.104C369.92 133.104 369.741 133.16 369.613 133.272C369.485 133.384 369.421 133.533 369.421 133.72C369.421 133.875 369.469 134 369.565 134.096C369.661 134.192 369.797 134.261 369.973 134.304L370.709 134.472C371.168 134.573 371.531 134.795 371.797 135.136C372.069 135.472 372.205 135.877 372.205 136.352C372.205 136.699 372.123 137.003 371.957 137.264C371.797 137.525 371.565 137.728 371.261 137.872C370.963 138.011 370.608 138.08 370.197 138.08ZM374.994 138.08C374.583 138.08 374.223 138.008 373.914 137.864C373.61 137.72 373.373 137.517 373.202 137.256C373.037 136.989 372.954 136.677 372.954 136.32H374.122C374.122 136.539 374.199 136.715 374.354 136.848C374.514 136.976 374.727 137.04 374.994 137.04C375.255 137.04 375.458 136.979 375.602 136.856C375.751 136.728 375.826 136.56 375.826 136.352C375.826 136.187 375.778 136.04 375.682 135.912C375.586 135.779 375.445 135.691 375.258 135.648L374.546 135.48C374.087 135.373 373.722 135.168 373.45 134.864C373.183 134.555 373.05 134.187 373.05 133.76C373.05 133.413 373.125 133.115 373.274 132.864C373.429 132.613 373.647 132.421 373.93 132.288C374.218 132.149 374.557 132.08 374.946 132.08C375.341 132.08 375.679 132.149 375.962 132.288C376.25 132.421 376.471 132.613 376.626 132.864C376.786 133.115 376.866 133.411 376.866 133.752H375.698C375.698 133.549 375.631 133.392 375.498 133.28C375.365 133.163 375.181 133.104 374.946 133.104C374.717 133.104 374.538 133.16 374.41 133.272C374.282 133.384 374.218 133.533 374.218 133.72C374.218 133.875 374.266 134 374.362 134.096C374.458 134.192 374.594 134.261 374.77 134.304L375.506 134.472C375.965 134.573 376.327 134.795 376.594 135.136C376.866 135.472 377.002 135.877 377.002 136.352C377.002 136.699 376.919 137.003 376.754 137.264C376.594 137.525 376.362 137.728 376.058 137.872C375.759 138.011 375.405 138.08 374.994 138.08ZM383.092 138V132.16H384.292V136.92H386.652V138H383.092ZM389.369 138.08C388.782 138.08 388.315 137.915 387.969 137.584C387.622 137.253 387.449 136.805 387.449 136.24V133.92C387.449 133.349 387.622 132.901 387.969 132.576C388.315 132.245 388.782 132.08 389.369 132.08C389.955 132.08 390.422 132.245 390.769 132.576C391.115 132.901 391.289 133.349 391.289 133.92V136.24C391.289 136.805 391.115 137.253 390.769 137.584C390.422 137.915 389.955 138.08 389.369 138.08ZM389.369 137.04C389.609 137.04 389.787 136.979 389.905 136.856C390.027 136.728 390.089 136.549 390.089 136.32V133.84C390.089 133.605 390.03 133.427 389.913 133.304C389.795 133.181 389.614 133.12 389.369 133.12C389.123 133.12 388.942 133.181 388.825 133.304C388.707 133.427 388.649 133.605 388.649 133.84V136.32C388.649 136.549 388.707 136.728 388.825 136.856C388.947 136.979 389.129 137.04 389.369 137.04ZM394.198 138.08C393.808 138.08 393.467 138.008 393.174 137.864C392.88 137.715 392.651 137.509 392.486 137.248C392.326 136.981 392.246 136.672 392.246 136.32V133.84C392.246 133.483 392.326 133.173 392.486 132.912C392.651 132.651 392.88 132.448 393.174 132.304C393.467 132.155 393.808 132.08 394.198 132.08C394.592 132.08 394.934 132.155 395.222 132.304C395.515 132.448 395.742 132.651 395.902 132.912C396.067 133.173 396.15 133.483 396.15 133.84H394.95C394.95 133.605 394.883 133.427 394.75 133.304C394.622 133.181 394.438 133.12 394.198 133.12C393.958 133.12 393.771 133.181 393.638 133.304C393.51 133.427 393.446 133.605 393.446 133.84V136.32C393.446 136.549 393.51 136.728 393.638 136.856C393.771 136.979 393.958 137.04 394.198 137.04C394.438 137.04 394.622 136.979 394.75 136.856C394.883 136.728 394.95 136.549 394.95 136.32V135.776H394.086V134.76H396.15V136.32C396.15 136.672 396.067 136.981 395.902 137.248C395.742 137.509 395.515 137.715 395.222 137.864C394.934 138.008 394.592 138.08 394.198 138.08ZM397.203 138V136.92H398.363V133.24H397.203V132.16H400.723V133.24H399.563V136.92H400.723V138H397.203ZM403.823 138.08C403.434 138.08 403.093 138.008 402.799 137.864C402.506 137.715 402.277 137.509 402.111 137.248C401.951 136.981 401.871 136.672 401.871 136.32V133.84C401.871 133.483 401.951 133.173 402.111 132.912C402.277 132.651 402.506 132.448 402.799 132.304C403.093 132.155 403.434 132.08 403.823 132.08C404.218 132.08 404.559 132.155 404.847 132.304C405.141 132.448 405.367 132.651 405.527 132.912C405.693 133.173 405.775 133.483 405.775 133.84H404.575C404.575 133.605 404.509 133.427 404.375 133.304C404.247 133.181 404.063 133.12 403.823 133.12C403.583 133.12 403.397 133.181 403.263 133.304C403.135 133.427 403.071 133.605 403.071 133.84V136.32C403.071 136.549 403.135 136.728 403.263 136.856C403.397 136.979 403.583 137.04 403.823 137.04C404.063 137.04 404.247 136.979 404.375 136.856C404.509 136.728 404.575 136.549 404.575 136.32H405.775C405.775 136.672 405.693 136.981 405.527 137.248C405.367 137.509 405.141 137.715 404.847 137.864C404.559 138.008 404.218 138.08 403.823 138.08Z" fill="#646464"/>
<rect x="96" y="49" width="100" height="100" rx="20" fill="#D3B8FF"/>
<path d="M111.1 74.17C109.842 74.17 108.845 73.83 108.108 73.15C107.383 72.47 107.02 71.5407 107.02 70.362V61.59H109.57V70.345C109.57 70.8663 109.7 71.2687 109.961 71.552C110.233 71.824 110.613 71.96 111.1 71.96C111.576 71.96 111.95 71.824 112.222 71.552C112.494 71.2687 112.63 70.8663 112.63 70.345V61.59H115.18V70.362C115.18 71.5293 114.812 72.4587 114.075 73.15C113.35 73.83 112.358 74.17 111.1 74.17ZM121.327 74.17C120.455 74.17 119.69 74.017 119.032 73.711C118.386 73.405 117.882 72.9743 117.519 72.419C117.168 71.8523 116.992 71.1893 116.992 70.43H119.474C119.474 70.8947 119.639 71.2687 119.967 71.552C120.307 71.824 120.761 71.96 121.327 71.96C121.883 71.96 122.313 71.8297 122.619 71.569C122.937 71.297 123.095 70.94 123.095 70.498C123.095 70.1467 122.993 69.835 122.789 69.563C122.585 69.2797 122.285 69.0927 121.888 69.002L120.375 68.645C119.401 68.4183 118.624 67.982 118.046 67.336C117.48 66.6787 117.196 65.8967 117.196 64.99C117.196 64.2533 117.355 63.6187 117.672 63.086C118.001 62.5533 118.466 62.1453 119.066 61.862C119.678 61.5673 120.398 61.42 121.225 61.42C122.064 61.42 122.784 61.5673 123.384 61.862C123.996 62.1453 124.467 62.5533 124.795 63.086C125.135 63.6187 125.305 64.2477 125.305 64.973H122.823C122.823 64.5423 122.682 64.208 122.398 63.97C122.115 63.7207 121.724 63.596 121.225 63.596C120.738 63.596 120.358 63.715 120.086 63.953C119.814 64.191 119.678 64.5083 119.678 64.905C119.678 65.2337 119.78 65.5 119.984 65.704C120.188 65.908 120.477 66.0553 120.851 66.146L122.415 66.503C123.39 66.7183 124.161 67.1887 124.727 67.914C125.305 68.628 125.594 69.4893 125.594 70.498C125.594 71.2347 125.419 71.8807 125.067 72.436C124.727 72.9913 124.234 73.422 123.588 73.728C122.954 74.0227 122.2 74.17 121.327 74.17ZM127.747 74V61.59H135.397V63.8H130.246V66.588H134.802V68.696H130.246V71.79H135.397V74H127.747ZM137.702 74V61.59H141.68C142.564 61.59 143.329 61.743 143.975 62.049C144.621 62.355 145.12 62.7913 145.471 63.358C145.834 63.9247 146.015 64.5933 146.015 65.364C146.015 66.1687 145.817 66.8883 145.42 67.523C145.035 68.1577 144.508 68.6167 143.839 68.9L146.185 74H143.414L141.408 69.308H140.218V74H137.702ZM140.218 67.098H141.68C142.247 67.098 142.683 66.9563 142.989 66.673C143.306 66.3897 143.465 65.993 143.465 65.483C143.465 64.9503 143.306 64.5367 142.989 64.242C142.683 63.9473 142.247 63.8 141.68 63.8H140.218V67.098Z" fill="black"/>
<path d="M106.528 130V124.16H108.408C108.797 124.16 109.136 124.224 109.424 124.352C109.717 124.475 109.944 124.648 110.104 124.872C110.269 125.096 110.352 125.36 110.352 125.664C110.352 125.883 110.309 126.08 110.224 126.256C110.144 126.432 110.029 126.576 109.88 126.688C109.736 126.795 109.568 126.861 109.376 126.888V126.904C109.595 126.925 109.787 127.003 109.952 127.136C110.123 127.264 110.253 127.429 110.344 127.632C110.44 127.835 110.488 128.061 110.488 128.312C110.488 128.648 110.403 128.944 110.232 129.2C110.067 129.451 109.832 129.648 109.528 129.792C109.229 129.931 108.88 130 108.48 130H106.528ZM107.688 129.032H108.44C108.701 129.032 108.907 128.963 109.056 128.824C109.205 128.685 109.28 128.493 109.28 128.248C109.28 128.003 109.205 127.811 109.056 127.672C108.907 127.528 108.701 127.456 108.44 127.456H107.688V129.032ZM107.688 126.512H108.392C108.627 126.512 108.811 126.451 108.944 126.328C109.077 126.2 109.144 126.029 109.144 125.816C109.144 125.597 109.077 125.429 108.944 125.312C108.811 125.189 108.627 125.128 108.392 125.128H107.688V126.512ZM111.325 130V124.16H113.197C113.613 124.16 113.973 124.232 114.277 124.376C114.581 124.52 114.816 124.725 114.981 124.992C115.152 125.259 115.237 125.573 115.237 125.936C115.237 126.315 115.144 126.653 114.957 126.952C114.776 127.251 114.528 127.467 114.213 127.6L115.317 130H114.013L113.069 127.792H112.509V130H111.325ZM112.509 126.752H113.197C113.464 126.752 113.669 126.685 113.813 126.552C113.962 126.419 114.037 126.232 114.037 125.992C114.037 125.741 113.962 125.547 113.813 125.408C113.669 125.269 113.464 125.2 113.197 125.2H112.509V126.752ZM117.994 130.08C117.407 130.08 116.94 129.915 116.594 129.584C116.247 129.253 116.074 128.805 116.074 128.24V125.92C116.074 125.349 116.247 124.901 116.594 124.576C116.94 124.245 117.407 124.08 117.994 124.08C118.58 124.08 119.047 124.245 119.394 124.576C119.74 124.901 119.914 125.349 119.914 125.92V128.24C119.914 128.805 119.74 129.253 119.394 129.584C119.047 129.915 118.58 130.08 117.994 130.08ZM117.994 129.04C118.234 129.04 118.412 128.979 118.53 128.856C118.652 128.728 118.714 128.549 118.714 128.32V125.84C118.714 125.605 118.655 125.427 118.538 125.304C118.42 125.181 118.239 125.12 117.994 125.12C117.748 125.12 117.567 125.181 117.45 125.304C117.332 125.427 117.274 125.605 117.274 125.84V128.32C117.274 128.549 117.332 128.728 117.45 128.856C117.572 128.979 117.754 129.04 117.994 129.04ZM121.015 130L120.471 124.16H121.423L121.719 128.064C121.724 128.139 121.729 128.245 121.735 128.384C121.745 128.517 121.753 128.659 121.759 128.808C121.769 128.952 121.775 129.083 121.775 129.2C121.785 129.083 121.796 128.952 121.807 128.808C121.823 128.659 121.836 128.517 121.847 128.384C121.863 128.245 121.873 128.139 121.879 128.064L122.343 124.16H123.255L123.703 128.064C123.713 128.139 123.724 128.245 123.735 128.384C123.751 128.517 123.767 128.659 123.783 128.808C123.799 128.952 123.812 129.083 123.823 129.2C123.828 129.083 123.833 128.952 123.839 128.808C123.844 128.659 123.849 128.517 123.855 128.384C123.865 128.245 123.873 128.139 123.879 128.064L124.151 124.16H125.111L124.527 130H123.279L122.887 126.12C122.881 126.029 122.871 125.912 122.855 125.768C122.844 125.619 122.833 125.464 122.823 125.304C122.812 125.144 122.801 125.003 122.791 124.88C122.785 125.003 122.777 125.144 122.767 125.304C122.756 125.464 122.745 125.619 122.735 125.768C122.724 125.912 122.713 126.029 122.703 126.12L122.271 130H121.015ZM127.604 130.08C127.193 130.08 126.833 130.008 126.524 129.864C126.22 129.72 125.982 129.517 125.812 129.256C125.646 128.989 125.564 128.677 125.564 128.32H126.732C126.732 128.539 126.809 128.715 126.964 128.848C127.124 128.976 127.337 129.04 127.604 129.04C127.865 129.04 128.068 128.979 128.212 128.856C128.361 128.728 128.436 128.56 128.436 128.352C128.436 128.187 128.388 128.04 128.292 127.912C128.196 127.779 128.054 127.691 127.868 127.648L127.156 127.48C126.697 127.373 126.332 127.168 126.06 126.864C125.793 126.555 125.66 126.187 125.66 125.76C125.66 125.413 125.734 125.115 125.884 124.864C126.038 124.613 126.257 124.421 126.54 124.288C126.828 124.149 127.166 124.08 127.556 124.08C127.95 124.08 128.289 124.149 128.572 124.288C128.86 124.421 129.081 124.613 129.236 124.864C129.396 125.115 129.476 125.411 129.476 125.752H128.308C128.308 125.549 128.241 125.392 128.108 125.28C127.974 125.163 127.79 125.104 127.556 125.104C127.326 125.104 127.148 125.16 127.02 125.272C126.892 125.384 126.828 125.533 126.828 125.72C126.828 125.875 126.876 126 126.972 126.096C127.068 126.192 127.204 126.261 127.38 126.304L128.116 126.472C128.574 126.573 128.937 126.795 129.204 127.136C129.476 127.472 129.612 127.877 129.612 128.352C129.612 128.699 129.529 129.003 129.364 129.264C129.204 129.525 128.972 129.728 128.668 129.872C128.369 130.011 128.014 130.08 127.604 130.08ZM130.624 130V124.16H134.224V125.2H131.8V126.512H133.944V127.504H131.8V128.96H134.224V130H130.624ZM135.309 130V124.16H137.181C137.597 124.16 137.957 124.232 138.261 124.376C138.565 124.52 138.8 124.725 138.965 124.992C139.136 125.259 139.221 125.573 139.221 125.936C139.221 126.315 139.128 126.653 138.941 126.952C138.76 127.251 138.512 127.467 138.197 127.6L139.301 130H137.997L137.053 127.792H136.493V130H135.309ZM136.493 126.752H137.181C137.448 126.752 137.653 126.685 137.797 126.552C137.947 126.419 138.021 126.232 138.021 125.992C138.021 125.741 137.947 125.547 137.797 125.408C137.653 125.269 137.448 125.2 137.181 125.2H136.493V126.752ZM106.2 138L107.632 132.16H109.152L110.6 138H109.376L109.096 136.68H107.704L107.424 138H106.2ZM107.904 135.72H108.888L108.608 134.312C108.571 134.109 108.531 133.909 108.488 133.712C108.451 133.509 108.421 133.352 108.4 133.24C108.379 133.352 108.349 133.507 108.312 133.704C108.28 133.901 108.243 134.101 108.2 134.304L107.904 135.72ZM111.325 138V132.16H113.317C113.728 132.16 114.085 132.237 114.389 132.392C114.698 132.547 114.936 132.763 115.101 133.04C115.272 133.317 115.357 133.643 115.357 134.016C115.357 134.384 115.272 134.709 115.101 134.992C114.93 135.269 114.693 135.485 114.389 135.64C114.085 135.795 113.728 135.872 113.317 135.872H112.525V138H111.325ZM112.525 134.832H113.317C113.573 134.832 113.776 134.755 113.925 134.6C114.08 134.445 114.157 134.251 114.157 134.016C114.157 133.781 114.08 133.587 113.925 133.432C113.776 133.277 113.573 133.2 113.317 133.2H112.525V134.832ZM116.122 138V132.16H118.114C118.524 132.16 118.882 132.237 119.186 132.392C119.495 132.547 119.732 132.763 119.898 133.04C120.068 133.317 120.154 133.643 120.154 134.016C120.154 134.384 120.068 134.709 119.898 134.992C119.727 135.269 119.49 135.485 119.186 135.64C118.882 135.795 118.524 135.872 118.114 135.872H117.322V138H116.122ZM117.322 134.832H118.114C118.37 134.832 118.572 134.755 118.722 134.6C118.876 134.445 118.954 134.251 118.954 134.016C118.954 133.781 118.876 133.587 118.722 133.432C118.572 133.277 118.37 133.2 118.114 133.2H117.322V134.832Z" fill="#7A53B9"/>
<rect x="329" y="249" width="100" height="100" rx="20" fill="#64B5F6"/>
<path d="M340.122 274V261.59H344.355C345.228 261.59 345.987 261.754 346.633 262.083C347.29 262.412 347.795 262.871 348.146 263.46C348.509 264.049 348.69 264.741 348.69 265.534C348.69 266.316 348.509 267.007 348.146 267.608C347.783 268.197 347.279 268.656 346.633 268.985C345.987 269.314 345.228 269.478 344.355 269.478H342.672V274H340.122ZM342.672 267.268H344.355C344.899 267.268 345.33 267.104 345.647 266.775C345.976 266.446 346.14 266.033 346.14 265.534C346.14 265.035 345.976 264.622 345.647 264.293C345.33 263.964 344.899 263.8 344.355 263.8H342.672V267.268ZM354.327 274.17C353.455 274.17 352.69 274.017 352.032 273.711C351.386 273.405 350.882 272.974 350.519 272.419C350.168 271.852 349.992 271.189 349.992 270.43H352.474C352.474 270.895 352.639 271.269 352.967 271.552C353.307 271.824 353.761 271.96 354.327 271.96C354.883 271.96 355.313 271.83 355.619 271.569C355.937 271.297 356.095 270.94 356.095 270.498C356.095 270.147 355.993 269.835 355.789 269.563C355.585 269.28 355.285 269.093 354.888 269.002L353.375 268.645C352.401 268.418 351.624 267.982 351.046 267.336C350.48 266.679 350.196 265.897 350.196 264.99C350.196 264.253 350.355 263.619 350.672 263.086C351.001 262.553 351.466 262.145 352.066 261.862C352.678 261.567 353.398 261.42 354.225 261.42C355.064 261.42 355.784 261.567 356.384 261.862C356.996 262.145 357.467 262.553 357.795 263.086C358.135 263.619 358.305 264.248 358.305 264.973H355.823C355.823 264.542 355.682 264.208 355.398 263.97C355.115 263.721 354.724 263.596 354.225 263.596C353.738 263.596 353.358 263.715 353.086 263.953C352.814 264.191 352.678 264.508 352.678 264.905C352.678 265.234 352.78 265.5 352.984 265.704C353.188 265.908 353.477 266.055 353.851 266.146L355.415 266.503C356.39 266.718 357.161 267.189 357.727 267.914C358.305 268.628 358.594 269.489 358.594 270.498C358.594 271.235 358.419 271.881 358.067 272.436C357.727 272.991 357.234 273.422 356.588 273.728C355.954 274.023 355.2 274.17 354.327 274.17ZM366.187 277.06L364.283 273.932L364.81 274.153C364.764 274.153 364.713 274.153 364.657 274.153C364.6 274.164 364.543 274.17 364.487 274.17C363.671 274.17 362.957 274.017 362.345 273.711C361.733 273.394 361.257 272.952 360.917 272.385C360.577 271.818 360.407 271.167 360.407 270.43V265.16C360.407 264.401 360.577 263.743 360.917 263.188C361.257 262.633 361.733 262.202 362.345 261.896C362.957 261.579 363.671 261.42 364.487 261.42C365.303 261.42 366.017 261.579 366.629 261.896C367.241 262.202 367.717 262.638 368.057 263.205C368.397 263.76 368.567 264.412 368.567 265.16V270.43C368.567 271.167 368.408 271.818 368.091 272.385C367.785 272.94 367.337 273.365 366.748 273.66L368.839 277.06H366.187ZM364.487 271.943C365.019 271.943 365.405 271.813 365.643 271.552C365.892 271.291 366.017 270.917 366.017 270.43V265.16C366.017 264.661 365.886 264.282 365.626 264.021C365.365 263.76 364.985 263.63 364.487 263.63C363.999 263.63 363.62 263.76 363.348 264.021C363.087 264.282 362.957 264.661 362.957 265.16V270.43C362.957 270.917 363.081 271.291 363.331 271.552C363.58 271.813 363.965 271.943 364.487 271.943ZM371.535 274V261.59H374.085V271.705H379.1V274H371.535Z" fill="black"/>
<path d="M341.416 330.08C341.005 330.08 340.645 330.008 340.336 329.864C340.032 329.72 339.795 329.517 339.624 329.256C339.459 328.989 339.376 328.677 339.376 328.32H340.544C340.544 328.539 340.621 328.715 340.776 328.848C340.936 328.976 341.149 329.04 341.416 329.04C341.677 329.04 341.88 328.979 342.024 328.856C342.173 328.728 342.248 328.56 342.248 328.352C342.248 328.187 342.2 328.04 342.104 327.912C342.008 327.779 341.867 327.691 341.68 327.648L340.968 327.48C340.509 327.373 340.144 327.168 339.872 326.864C339.605 326.555 339.472 326.187 339.472 325.76C339.472 325.413 339.547 325.115 339.696 324.864C339.851 324.613 340.069 324.421 340.352 324.288C340.64 324.149 340.979 324.08 341.368 324.08C341.763 324.08 342.101 324.149 342.384 324.288C342.672 324.421 342.893 324.613 343.048 324.864C343.208 325.115 343.288 325.411 343.288 325.752H342.12C342.12 325.549 342.053 325.392 341.92 325.28C341.787 325.163 341.603 325.104 341.368 325.104C341.139 325.104 340.96 325.16 340.832 325.272C340.704 325.384 340.64 325.533 340.64 325.72C340.64 325.875 340.688 326 340.784 326.096C340.88 326.192 341.016 326.261 341.192 326.304L341.928 326.472C342.387 326.573 342.749 326.795 343.016 327.136C343.288 327.472 343.424 327.877 343.424 328.352C343.424 328.699 343.341 329.003 343.176 329.264C343.016 329.525 342.784 329.728 342.48 329.872C342.181 330.011 341.827 330.08 341.416 330.08ZM345.597 330V325.24H344.117V324.16H348.277V325.24H346.797V330H345.597ZM350.994 330.08C350.407 330.08 349.94 329.915 349.594 329.584C349.247 329.253 349.074 328.805 349.074 328.24V325.92C349.074 325.349 349.247 324.901 349.594 324.576C349.94 324.245 350.407 324.08 350.994 324.08C351.58 324.08 352.047 324.245 352.394 324.576C352.74 324.901 352.914 325.349 352.914 325.92V328.24C352.914 328.805 352.74 329.253 352.394 329.584C352.047 329.915 351.58 330.08 350.994 330.08ZM350.994 329.04C351.234 329.04 351.412 328.979 351.53 328.856C351.652 328.728 351.714 328.549 351.714 328.32V325.84C351.714 325.605 351.655 325.427 351.538 325.304C351.42 325.181 351.239 325.12 350.994 325.12C350.748 325.12 350.567 325.181 350.45 325.304C350.332 325.427 350.274 325.605 350.274 325.84V328.32C350.274 328.549 350.332 328.728 350.45 328.856C350.572 328.979 350.754 329.04 350.994 329.04ZM353.919 330V324.16H355.791C356.207 324.16 356.567 324.232 356.871 324.376C357.175 324.52 357.409 324.725 357.575 324.992C357.745 325.259 357.831 325.573 357.831 325.936C357.831 326.315 357.737 326.653 357.551 326.952C357.369 327.251 357.121 327.467 356.807 327.6L357.911 330H356.607L355.663 327.792H355.103V330H353.919ZM355.103 326.752H355.791C356.057 326.752 356.263 326.685 356.407 326.552C356.556 326.419 356.631 326.232 356.631 325.992C356.631 325.741 356.556 325.547 356.407 325.408C356.263 325.269 356.057 325.2 355.791 325.2H355.103V326.752ZM358.828 330V324.16H362.428V325.2H360.004V326.512H362.148V327.504H360.004V328.96H362.428V330H358.828ZM368.309 330V324.16H370.301C370.712 324.16 371.069 324.237 371.373 324.392C371.683 324.547 371.92 324.763 372.085 325.04C372.256 325.317 372.341 325.643 372.341 326.016C372.341 326.384 372.256 326.709 372.085 326.992C371.915 327.269 371.677 327.485 371.373 327.64C371.069 327.795 370.712 327.872 370.301 327.872H369.509V330H368.309ZM369.509 326.832H370.301C370.557 326.832 370.76 326.755 370.909 326.6C371.064 326.445 371.141 326.251 371.141 326.016C371.141 325.781 371.064 325.587 370.909 325.432C370.76 325.277 370.557 325.2 370.301 325.2H369.509V326.832ZM373.106 330V324.16H374.978C375.394 324.16 375.754 324.232 376.058 324.376C376.362 324.52 376.597 324.725 376.762 324.992C376.933 325.259 377.018 325.573 377.018 325.936C377.018 326.315 376.925 326.653 376.738 326.952C376.557 327.251 376.309 327.467 375.994 327.6L377.098 330H375.794L374.85 327.792H374.29V330H373.106ZM374.29 326.752H374.978C375.245 326.752 375.45 326.685 375.594 326.552C375.743 326.419 375.818 326.232 375.818 325.992C375.818 325.741 375.743 325.547 375.594 325.408C375.45 325.269 375.245 325.2 374.978 325.2H374.29V326.752ZM379.775 330.08C379.188 330.08 378.722 329.915 378.375 329.584C378.028 329.253 377.855 328.805 377.855 328.24V325.92C377.855 325.349 378.028 324.901 378.375 324.576C378.722 324.245 379.188 324.08 379.775 324.08C380.362 324.08 380.828 324.245 381.175 324.576C381.522 324.901 381.695 325.349 381.695 325.92V328.24C381.695 328.805 381.522 329.253 381.175 329.584C380.828 329.915 380.362 330.08 379.775 330.08ZM379.775 329.04C380.015 329.04 380.194 328.979 380.311 328.856C380.434 328.728 380.495 328.549 380.495 328.32V325.84C380.495 325.605 380.436 325.427 380.319 325.304C380.202 325.181 380.02 325.12 379.775 325.12C379.53 325.12 379.348 325.181 379.231 325.304C379.114 325.427 379.055 325.605 379.055 325.84V328.32C379.055 328.549 379.114 328.728 379.231 328.856C379.354 328.979 379.535 329.04 379.775 329.04ZM382.732 330V324.16H386.492V325.28H383.916V326.576H386.284V327.696H383.932V330H382.732ZM387.609 330V328.92H388.769V325.24H387.609V324.16H391.129V325.24H389.969V328.92H391.129V330H387.609ZM392.686 330V324.16H393.886V328.92H396.246V330H392.686ZM397.203 330V324.16H400.803V325.2H398.379V326.512H400.523V327.504H398.379V328.96H400.803V330H397.203ZM403.775 330.08C403.365 330.08 403.005 330.008 402.695 329.864C402.391 329.72 402.154 329.517 401.983 329.256C401.818 328.989 401.735 328.677 401.735 328.32H402.903C402.903 328.539 402.981 328.715 403.135 328.848C403.295 328.976 403.509 329.04 403.775 329.04C404.037 329.04 404.239 328.979 404.383 328.856C404.533 328.728 404.607 328.56 404.607 328.352C404.607 328.187 404.559 328.04 404.463 327.912C404.367 327.779 404.226 327.691 404.039 327.648L403.327 327.48C402.869 327.373 402.503 327.168 402.231 326.864C401.965 326.555 401.831 326.187 401.831 325.76C401.831 325.413 401.906 325.115 402.055 324.864C402.21 324.613 402.429 324.421 402.711 324.288C402.999 324.149 403.338 324.08 403.727 324.08C404.122 324.08 404.461 324.149 404.743 324.288C405.031 324.421 405.253 324.613 405.407 324.864C405.567 325.115 405.647 325.411 405.647 325.752H404.479C404.479 325.549 404.413 325.392 404.279 325.28C404.146 325.163 403.962 325.104 403.727 325.104C403.498 325.104 403.319 325.16 403.191 325.272C403.063 325.384 402.999 325.533 402.999 325.72C402.999 325.875 403.047 326 403.143 326.096C403.239 326.192 403.375 326.261 403.551 326.304L404.287 326.472C404.746 326.573 405.109 326.795 405.375 327.136C405.647 327.472 405.783 327.877 405.783 328.352C405.783 328.699 405.701 329.003 405.535 329.264C405.375 329.525 405.143 329.728 404.839 329.872C404.541 330.011 404.186 330.08 403.775 330.08ZM341.416 338.08C341.005 338.08 340.645 338.008 340.336 337.864C340.032 337.72 339.795 337.517 339.624 337.256C339.459 336.989 339.376 336.677 339.376 336.32H340.544C340.544 336.539 340.621 336.715 340.776 336.848C340.936 336.976 341.149 337.04 341.416 337.04C341.677 337.04 341.88 336.979 342.024 336.856C342.173 336.728 342.248 336.56 342.248 336.352C342.248 336.187 342.2 336.04 342.104 335.912C342.008 335.779 341.867 335.691 341.68 335.648L340.968 335.48C340.509 335.373 340.144 335.168 339.872 334.864C339.605 334.555 339.472 334.187 339.472 333.76C339.472 333.413 339.547 333.115 339.696 332.864C339.851 332.613 340.069 332.421 340.352 332.288C340.64 332.149 340.979 332.08 341.368 332.08C341.763 332.08 342.101 332.149 342.384 332.288C342.672 332.421 342.893 332.613 343.048 332.864C343.208 333.115 343.288 333.411 343.288 333.752H342.12C342.12 333.549 342.053 333.392 341.92 333.28C341.787 333.163 341.603 333.104 341.368 333.104C341.139 333.104 340.96 333.16 340.832 333.272C340.704 333.384 340.64 333.533 340.64 333.72C340.64 333.875 340.688 334 340.784 334.096C340.88 334.192 341.016 334.261 341.192 334.304L341.928 334.472C342.387 334.573 342.749 334.795 343.016 335.136C343.288 335.472 343.424 335.877 343.424 336.352C343.424 336.699 343.341 337.003 343.176 337.264C343.016 337.525 342.784 337.728 342.48 337.872C342.181 338.011 341.827 338.08 341.416 338.08ZM345.597 338V333.24H344.117V332.16H348.277V333.24H346.797V338H345.597ZM350.994 338.08C350.407 338.08 349.94 337.915 349.594 337.584C349.247 337.253 349.074 336.805 349.074 336.24V333.92C349.074 333.349 349.247 332.901 349.594 332.576C349.94 332.245 350.407 332.08 350.994 332.08C351.58 332.08 352.047 332.245 352.394 332.576C352.74 332.901 352.914 333.349 352.914 333.92V336.24C352.914 336.805 352.74 337.253 352.394 337.584C352.047 337.915 351.58 338.08 350.994 338.08ZM350.994 337.04C351.234 337.04 351.412 336.979 351.53 336.856C351.652 336.728 351.714 336.549 351.714 336.32V333.84C351.714 333.605 351.655 333.427 351.538 333.304C351.42 333.181 351.239 333.12 350.994 333.12C350.748 333.12 350.567 333.181 350.45 333.304C350.332 333.427 350.274 333.605 350.274 333.84V336.32C350.274 336.549 350.332 336.728 350.45 336.856C350.572 336.979 350.754 337.04 350.994 337.04ZM353.919 338V332.16H355.791C356.207 332.16 356.567 332.232 356.871 332.376C357.175 332.52 357.409 332.725 357.575 332.992C357.745 333.259 357.831 333.573 357.831 333.936C357.831 334.315 357.737 334.653 357.551 334.952C357.369 335.251 357.121 335.467 356.807 335.6L357.911 338H356.607L355.663 335.792H355.103V338H353.919ZM355.103 334.752H355.791C356.057 334.752 356.263 334.685 356.407 334.552C356.556 334.419 356.631 334.232 356.631 333.992C356.631 333.741 356.556 333.547 356.407 333.408C356.263 333.269 356.057 333.2 355.791 333.2H355.103V334.752ZM358.828 338V332.16H362.428V333.2H360.004V334.512H362.148V335.504H360.004V336.96H362.428V338H358.828ZM370.181 338.08C369.595 338.08 369.128 337.915 368.781 337.584C368.435 337.253 368.261 336.805 368.261 336.24V333.92C368.261 333.349 368.435 332.901 368.781 332.576C369.128 332.245 369.595 332.08 370.181 332.08C370.768 332.08 371.235 332.245 371.581 332.576C371.928 332.901 372.101 333.349 372.101 333.92V336.24C372.101 336.805 371.928 337.253 371.581 337.584C371.235 337.915 370.768 338.08 370.181 338.08ZM370.181 337.04C370.421 337.04 370.6 336.979 370.717 336.856C370.84 336.728 370.901 336.549 370.901 336.32V333.84C370.901 333.605 370.843 333.427 370.725 333.304C370.608 333.181 370.427 333.12 370.181 333.12C369.936 333.12 369.755 333.181 369.637 333.304C369.52 333.427 369.461 333.605 369.461 333.84V336.32C369.461 336.549 369.52 336.728 369.637 336.856C369.76 336.979 369.941 337.04 370.181 337.04ZM374.378 338V333.24H372.898V332.16H377.058V333.24H375.578V338H374.378ZM377.903 338V332.16H379.103V334.432H380.447V332.16H381.647V338H380.447V335.512H379.103V338H377.903ZM382.812 338V332.16H386.412V333.2H383.988V334.512H386.132V335.504H383.988V336.96H386.412V338H382.812ZM387.497 338V332.16H389.369C389.785 332.16 390.145 332.232 390.449 332.376C390.753 332.52 390.987 332.725 391.153 332.992C391.323 333.259 391.409 333.573 391.409 333.936C391.409 334.315 391.315 334.653 391.129 334.952C390.947 335.251 390.699 335.467 390.385 335.6L391.489 338H390.185L389.241 335.792H388.681V338H387.497ZM388.681 334.752H389.369C389.635 334.752 389.841 334.685 389.985 334.552C390.134 334.419 390.209 334.232 390.209 333.992C390.209 333.741 390.134 333.547 389.985 333.408C389.841 333.269 389.635 333.2 389.369 333.2H388.681V334.752ZM397.067 338V332.16H398.963C399.368 332.16 399.72 332.237 400.019 332.392C400.323 332.547 400.557 332.765 400.723 333.048C400.893 333.325 400.979 333.653 400.979 334.032V336.12C400.979 336.493 400.893 336.821 400.723 337.104C400.557 337.387 400.323 337.608 400.019 337.768C399.72 337.923 399.368 338 398.963 338H397.067ZM398.267 336.92H398.963C399.203 336.92 399.397 336.845 399.547 336.696C399.701 336.547 399.779 336.355 399.779 336.12V334.032C399.779 333.797 399.701 333.608 399.547 333.464C399.397 333.315 399.203 333.24 398.963 333.24H398.267V336.92ZM401.559 338L402.991 332.16H404.511L405.959 338H404.735L404.455 336.68H403.063L402.783 338H401.559ZM403.263 335.72H404.247L403.967 334.312C403.93 334.109 403.89 333.909 403.847 333.712C403.81 333.509 403.781 333.352 403.759 333.24C403.738 333.352 403.709 333.507 403.671 333.704C403.639 333.901 403.602 334.101 403.559 334.304L403.263 335.72ZM407.956 338V333.24H406.476V332.16H410.636V333.24H409.156V338H407.956ZM411.153 338L412.585 332.16H414.105L415.553 338H414.329L414.049 336.68H412.657L412.377 338H411.153ZM412.857 335.72H413.841L413.561 334.312C413.524 334.109 413.484 333.909 413.441 333.712C413.404 333.509 413.374 333.352 413.353 333.24C413.332 333.352 413.302 333.507 413.265 333.704C413.233 333.901 413.196 334.101 413.153 334.304L412.857 335.72Z" fill="#295273"/>
<path d="M216.961 390.5C217.79 390.5 218.461 389.828 218.461 389C218.461 388.172 217.79 387.5 216.961 387.5V390.5ZM309.961 387.5C309.133 387.5 308.461 388.172 308.461 389C308.461 389.828 309.133 390.5 309.961 390.5V387.5ZM144.5 353V365H147.5V353H144.5ZM170 390.5H216.961V387.5H170V390.5ZM309.961 390.5H355V387.5H309.961V390.5ZM380.5 365V353H377.5V365H380.5ZM355 390.5C369.083 390.5 380.5 379.083 380.5 365H377.5C377.5 377.426 367.426 387.5 355 387.5V390.5ZM144.5 365C144.5 379.083 155.917 390.5 170 390.5V387.5C157.574 387.5 147.5 377.426 147.5 365H144.5Z" fill="#64B5F6"/>
<path d="M225.224 392.6C224.71 392.6 224.26 392.51 223.874 392.33C223.494 392.15 223.197 391.897 222.984 391.57C222.777 391.237 222.674 390.847 222.674 390.4H224.134C224.134 390.673 224.23 390.893 224.424 391.06C224.624 391.22 224.89 391.3 225.224 391.3C225.55 391.3 225.804 391.223 225.984 391.07C226.17 390.91 226.264 390.7 226.264 390.44C226.264 390.233 226.204 390.05 226.084 389.89C225.964 389.723 225.787 389.613 225.554 389.56L224.664 389.35C224.09 389.217 223.634 388.96 223.294 388.58C222.96 388.193 222.794 387.733 222.794 387.2C222.794 386.767 222.887 386.393 223.074 386.08C223.267 385.767 223.54 385.527 223.894 385.36C224.254 385.187 224.677 385.1 225.164 385.1C225.657 385.1 226.08 385.187 226.434 385.36C226.794 385.527 227.07 385.767 227.264 386.08C227.464 386.393 227.564 386.763 227.564 387.19H226.104C226.104 386.937 226.02 386.74 225.854 386.6C225.687 386.453 225.457 386.38 225.164 386.38C224.877 386.38 224.654 386.45 224.494 386.59C224.334 386.73 224.254 386.917 224.254 387.15C224.254 387.343 224.314 387.5 224.434 387.62C224.554 387.74 224.724 387.827 224.944 387.88L225.864 388.09C226.437 388.217 226.89 388.493 227.224 388.92C227.564 389.34 227.734 389.847 227.734 390.44C227.734 390.873 227.63 391.253 227.424 391.58C227.224 391.907 226.934 392.16 226.554 392.34C226.18 392.513 225.737 392.6 225.224 392.6ZM230.34 392.5V386.55H228.49V385.2H233.69V386.55H231.84V392.5H230.34ZM236.976 392.6C236.243 392.6 235.659 392.393 235.226 391.98C234.793 391.567 234.576 391.007 234.576 390.3V387.4C234.576 386.687 234.793 386.127 235.226 385.72C235.659 385.307 236.243 385.1 236.976 385.1C237.709 385.1 238.293 385.307 238.726 385.72C239.159 386.127 239.376 386.687 239.376 387.4V390.3C239.376 391.007 239.159 391.567 238.726 391.98C238.293 392.393 237.709 392.6 236.976 392.6ZM236.976 391.3C237.276 391.3 237.499 391.223 237.646 391.07C237.799 390.91 237.876 390.687 237.876 390.4V387.3C237.876 387.007 237.803 386.783 237.656 386.63C237.509 386.477 237.283 386.4 236.976 386.4C236.669 386.4 236.443 386.477 236.296 386.63C236.149 386.783 236.076 387.007 236.076 387.3V390.4C236.076 390.687 236.149 390.91 236.296 391.07C236.449 391.223 236.676 391.3 236.976 391.3ZM240.522 392.5V385.2H242.862C243.382 385.2 243.832 385.29 244.212 385.47C244.592 385.65 244.885 385.907 245.092 386.24C245.305 386.573 245.412 386.967 245.412 387.42C245.412 387.893 245.295 388.317 245.062 388.69C244.835 389.063 244.525 389.333 244.132 389.5L245.512 392.5H243.882L242.702 389.74H242.002V392.5H240.522ZM242.002 388.44H242.862C243.195 388.44 243.452 388.357 243.632 388.19C243.819 388.023 243.912 387.79 243.912 387.49C243.912 387.177 243.819 386.933 243.632 386.76C243.452 386.587 243.195 386.5 242.862 386.5H242.002V388.44ZM246.548 392.5V385.2H251.048V386.5H248.018V388.14H250.698V389.38H248.018V391.2H251.048V392.5H246.548ZM258.18 392.5V385.2H260.67C261.184 385.2 261.63 385.297 262.01 385.49C262.397 385.683 262.694 385.953 262.9 386.3C263.114 386.647 263.22 387.053 263.22 387.52C263.22 387.98 263.114 388.387 262.9 388.74C262.687 389.087 262.39 389.357 262.01 389.55C261.63 389.743 261.184 389.84 260.67 389.84H259.68V392.5H258.18ZM259.68 388.54H260.67C260.99 388.54 261.244 388.443 261.43 388.25C261.624 388.057 261.72 387.813 261.72 387.52C261.72 387.227 261.624 386.983 261.43 386.79C261.244 386.597 260.99 386.5 260.67 386.5H259.68V388.54ZM264.066 392.5V385.2H266.406C266.926 385.2 267.376 385.29 267.756 385.47C268.136 385.65 268.43 385.907 268.636 386.24C268.85 386.573 268.956 386.967 268.956 387.42C268.956 387.893 268.84 388.317 268.606 388.69C268.38 389.063 268.07 389.333 267.676 389.5L269.056 392.5H267.426L266.246 389.74H265.546V392.5H264.066ZM265.546 388.44H266.406C266.74 388.44 266.996 388.357 267.176 388.19C267.363 388.023 267.456 387.79 267.456 387.49C267.456 387.177 267.363 386.933 267.176 386.76C266.996 386.587 266.74 386.5 266.406 386.5H265.546V388.44ZM272.293 392.6C271.559 392.6 270.976 392.393 270.543 391.98C270.109 391.567 269.893 391.007 269.893 390.3V387.4C269.893 386.687 270.109 386.127 270.543 385.72C270.976 385.307 271.559 385.1 272.293 385.1C273.026 385.1 273.609 385.307 274.043 385.72C274.476 386.127 274.693 386.687 274.693 387.4V390.3C274.693 391.007 274.476 391.567 274.043 391.98C273.609 392.393 273.026 392.6 272.293 392.6ZM272.293 391.3C272.593 391.3 272.816 391.223 272.963 391.07C273.116 390.91 273.193 390.687 273.193 390.4V387.3C273.193 387.007 273.119 386.783 272.973 386.63C272.826 386.477 272.599 386.4 272.293 386.4C271.986 386.4 271.759 386.477 271.613 386.63C271.466 386.783 271.393 387.007 271.393 387.3V390.4C271.393 390.687 271.466 390.91 271.613 391.07C271.766 391.223 271.993 391.3 272.293 391.3ZM275.879 392.5V385.2H280.579V386.6H277.359V388.22H280.319V389.62H277.379V392.5H275.879ZM281.865 392.5V391.15H283.315V386.55H281.865V385.2H286.265V386.55H284.815V391.15H286.265V392.5H281.865ZM288.101 392.5V385.2H289.601V391.15H292.551V392.5H288.101ZM293.637 392.5V385.2H298.137V386.5H295.107V388.14H297.787V389.38H295.107V391.2H298.137V392.5H293.637ZM301.743 392.6C301.23 392.6 300.78 392.51 300.393 392.33C300.013 392.15 299.716 391.897 299.503 391.57C299.296 391.237 299.193 390.847 299.193 390.4H300.653C300.653 390.673 300.75 390.893 300.943 391.06C301.143 391.22 301.41 391.3 301.743 391.3C302.07 391.3 302.323 391.223 302.503 391.07C302.69 390.91 302.783 390.7 302.783 390.44C302.783 390.233 302.723 390.05 302.603 389.89C302.483 389.723 302.306 389.613 302.073 389.56L301.183 389.35C300.61 389.217 300.153 388.96 299.813 388.58C299.48 388.193 299.313 387.733 299.313 387.2C299.313 386.767 299.406 386.393 299.593 386.08C299.786 385.767 300.06 385.527 300.413 385.36C300.773 385.187 301.196 385.1 301.683 385.1C302.176 385.1 302.6 385.187 302.953 385.36C303.313 385.527 303.59 385.767 303.783 386.08C303.983 386.393 304.083 386.763 304.083 387.19H302.623C302.623 386.937 302.54 386.74 302.373 386.6C302.206 386.453 301.976 386.38 301.683 386.38C301.396 386.38 301.173 386.45 301.013 386.59C300.853 386.73 300.773 386.917 300.773 387.15C300.773 387.343 300.833 387.5 300.953 387.62C301.073 387.74 301.243 387.827 301.463 387.88L302.383 388.09C302.956 388.217 303.41 388.493 303.743 388.92C304.083 389.34 304.253 389.847 304.253 390.44C304.253 390.873 304.15 391.253 303.943 391.58C303.743 391.907 303.453 392.16 303.073 392.34C302.7 392.513 302.256 392.6 301.743 392.6Z" fill="#4989BD"/>
<path d="M49.5 218.092C49.5 217.264 48.8284 216.592 48 216.592C47.1716 216.592 46.5 217.264 46.5 218.092H49.5ZM46.5 178.092C46.5 178.921 47.1716 179.592 48 179.592C48.8284 179.592 49.5 178.921 49.5 178.092H46.5ZM92 297.5H72V300.5H92V297.5ZM49.5 275V218.092H46.5V275H49.5ZM49.5 178.092V123H46.5V178.092H49.5ZM72 100.5H92V97.5H72V100.5ZM49.5 123C49.5 110.574 59.5736 100.5 72 100.5V97.5C57.9167 97.5 46.5 108.917 46.5 123H49.5ZM72 297.5C59.5736 297.5 49.5 287.426 49.5 275H46.5C46.5 289.083 57.9167 300.5 72 300.5V297.5Z" fill="#D3B8FF"/>
<path d="M7.16234 194.092V186.792H8.99234L9.73234 189.912L10.4723 186.792H12.3223V194.092H10.9523V191.292C10.9523 190.805 10.9657 190.329 10.9923 189.862C11.0257 189.395 11.0657 188.952 11.1123 188.532C11.159 188.112 11.2023 187.732 11.2423 187.392L10.3223 190.992H9.12234L8.22234 187.482C8.26901 187.769 8.31568 188.112 8.36234 188.512C8.40901 188.912 8.44901 189.349 8.48234 189.822C8.51568 190.289 8.53234 190.779 8.53234 191.292V194.092H7.16234ZM12.8784 194.092L14.6684 186.792H16.5684L18.3784 194.092H16.8484L16.4984 192.442H14.7584L14.4084 194.092H12.8784ZM15.0084 191.242H16.2384L15.8884 189.482C15.8418 189.229 15.7918 188.979 15.7384 188.732C15.6918 188.479 15.6551 188.282 15.6284 188.142C15.6018 188.282 15.5651 188.475 15.5184 188.722C15.4784 188.969 15.4318 189.219 15.3784 189.472L15.0084 191.242ZM19.1145 194.092V186.792H20.8645L22.7545 192.442C22.7345 192.195 22.7112 191.912 22.6845 191.592C22.6579 191.265 22.6345 190.942 22.6145 190.622C22.6012 190.295 22.5945 190.019 22.5945 189.792V186.792H23.9145V194.092H22.1645L20.2945 188.442C20.3145 188.655 20.3345 188.909 20.3545 189.202C20.3745 189.495 20.3912 189.792 20.4045 190.092C20.4245 190.392 20.4345 190.659 20.4345 190.892V194.092H19.1145ZM24.6506 194.092L26.4406 186.792H28.3406L30.1506 194.092H28.6206L28.2706 192.442H26.5306L26.1806 194.092H24.6506ZM26.7806 191.242H28.0106L27.6606 189.482C27.614 189.229 27.564 188.979 27.5106 188.732C27.464 188.479 27.4273 188.282 27.4006 188.142C27.374 188.282 27.3373 188.475 27.2906 188.722C27.2506 188.969 27.204 189.219 27.1506 189.472L26.7806 191.242ZM33.3267 194.192C32.8401 194.192 32.4134 194.102 32.0467 193.922C31.6801 193.735 31.3934 193.479 31.1867 193.152C30.9867 192.819 30.8867 192.432 30.8867 191.992V188.892C30.8867 188.445 30.9867 188.059 31.1867 187.732C31.3934 187.405 31.6801 187.152 32.0467 186.972C32.4134 186.785 32.8401 186.692 33.3267 186.692C33.8201 186.692 34.2467 186.785 34.6067 186.972C34.9734 187.152 35.2567 187.405 35.4567 187.732C35.6634 188.059 35.7667 188.445 35.7667 188.892H34.2667C34.2667 188.599 34.1834 188.375 34.0167 188.222C33.8567 188.069 33.6267 187.992 33.3267 187.992C33.0267 187.992 32.7934 188.069 32.6267 188.222C32.4667 188.375 32.3867 188.599 32.3867 188.892V191.992C32.3867 192.279 32.4667 192.502 32.6267 192.662C32.7934 192.815 33.0267 192.892 33.3267 192.892C33.6267 192.892 33.8567 192.815 34.0167 192.662C34.1834 192.502 34.2667 192.279 34.2667 191.992V191.312H33.1867V190.042H35.7667V191.992C35.7667 192.432 35.6634 192.819 35.4567 193.152C35.2567 193.479 34.9734 193.735 34.6067 193.922C34.2467 194.102 33.8201 194.192 33.3267 194.192ZM36.9728 194.092V186.792H41.4728V188.092H38.4428V189.732H41.1228V190.972H38.4428V192.792H41.4728V194.092H36.9728ZM48.605 194.092V186.792H51.095C51.6083 186.792 52.055 186.889 52.435 187.082C52.8217 187.275 53.1183 187.545 53.325 187.892C53.5383 188.239 53.645 188.645 53.645 189.112C53.645 189.572 53.5383 189.979 53.325 190.332C53.1117 190.679 52.815 190.949 52.435 191.142C52.055 191.335 51.6083 191.432 51.095 191.432H50.105V194.092H48.605ZM50.105 190.132H51.095C51.415 190.132 51.6683 190.035 51.855 189.842C52.0483 189.649 52.145 189.405 52.145 189.112C52.145 188.819 52.0483 188.575 51.855 188.382C51.6683 188.189 51.415 188.092 51.095 188.092H50.105V190.132ZM54.4911 194.092V186.792H56.8311C57.3511 186.792 57.8011 186.882 58.1811 187.062C58.5611 187.242 58.8544 187.499 59.0611 187.832C59.2744 188.165 59.3811 188.559 59.3811 189.012C59.3811 189.485 59.2644 189.909 59.0311 190.282C58.8044 190.655 58.4944 190.925 58.1011 191.092L59.4811 194.092H57.8511L56.6711 191.332H55.9711V194.092H54.4911ZM55.9711 190.032H56.8311C57.1644 190.032 57.4211 189.949 57.6011 189.782C57.7878 189.615 57.8811 189.382 57.8811 189.082C57.8811 188.769 57.7878 188.525 57.6011 188.352C57.4211 188.179 57.1644 188.092 56.8311 188.092H55.9711V190.032ZM62.7172 194.192C61.9839 194.192 61.4005 193.985 60.9672 193.572C60.5339 193.159 60.3172 192.599 60.3172 191.892V188.992C60.3172 188.279 60.5339 187.719 60.9672 187.312C61.4005 186.899 61.9839 186.692 62.7172 186.692C63.4505 186.692 64.0339 186.899 64.4672 187.312C64.9005 187.719 65.1172 188.279 65.1172 188.992V191.892C65.1172 192.599 64.9005 193.159 64.4672 193.572C64.0339 193.985 63.4505 194.192 62.7172 194.192ZM62.7172 192.892C63.0172 192.892 63.2405 192.815 63.3872 192.662C63.5405 192.502 63.6172 192.279 63.6172 191.992V188.892C63.6172 188.599 63.5439 188.375 63.3972 188.222C63.2505 188.069 63.0239 187.992 62.7172 187.992C62.4105 187.992 62.1839 188.069 62.0372 188.222C61.8905 188.375 61.8172 188.599 61.8172 188.892V191.992C61.8172 192.279 61.8905 192.502 62.0372 192.662C62.1905 192.815 62.4172 192.892 62.7172 192.892ZM66.3033 194.092V186.792H71.0033V188.192H67.7833V189.812H70.7433V191.212H67.8033V194.092H66.3033ZM72.2894 194.092V192.742H73.7394V188.142H72.2894V186.792H76.6894V188.142H75.2394V192.742H76.6894V194.092H72.2894ZM78.5255 194.092V186.792H80.0255V192.742H82.9755V194.092H78.5255ZM84.0616 194.092V186.792H88.5616V188.092H85.5316V189.732H88.2116V190.972H85.5316V192.792H88.5616V194.092H84.0616ZM23.5176 209.092L21.7076 201.792H23.2576L24.2676 206.402C24.3009 206.562 24.3409 206.765 24.3876 207.012C24.4409 207.259 24.4809 207.469 24.5076 207.642C24.5342 207.469 24.5676 207.259 24.6076 207.012C24.6476 206.765 24.6842 206.559 24.7176 206.392L25.6976 201.792H27.2076L25.4176 209.092H23.5176ZM28.1437 209.092V207.742H29.5937V203.142H28.1437V201.792H32.5437V203.142H31.0937V207.742H32.5437V209.092H28.1437ZM33.4798 209.092L35.2698 201.792H37.1698L38.9798 209.092H37.4498L37.0998 207.442H35.3598L35.0098 209.092H33.4798ZM35.6098 206.242H36.8398L36.4898 204.482C36.4431 204.229 36.3931 203.979 36.3398 203.732C36.2931 203.479 36.2564 203.282 36.2298 203.142C36.2031 203.282 36.1664 203.475 36.1198 203.722C36.0798 203.969 36.0331 204.219 35.9798 204.472L35.6098 206.242ZM47.252 209.092V203.142H45.402V201.792H50.602V203.142H48.752V209.092H47.252ZM53.888 209.192C53.1547 209.192 52.5714 208.985 52.138 208.572C51.7047 208.159 51.488 207.599 51.488 206.892V203.992C51.488 203.279 51.7047 202.719 52.138 202.312C52.5714 201.899 53.1547 201.692 53.888 201.692C54.6214 201.692 55.2047 201.899 55.638 202.312C56.0714 202.719 56.288 203.279 56.288 203.992V206.892C56.288 207.599 56.0714 208.159 55.638 208.572C55.2047 208.985 54.6214 209.192 53.888 209.192ZM53.888 207.892C54.188 207.892 54.4114 207.815 54.558 207.662C54.7114 207.502 54.788 207.279 54.788 206.992V203.892C54.788 203.599 54.7147 203.375 54.568 203.222C54.4214 203.069 54.1947 202.992 53.888 202.992C53.5814 202.992 53.3547 203.069 53.208 203.222C53.0614 203.375 52.988 203.599 52.988 203.892V206.992C52.988 207.279 53.0614 207.502 53.208 207.662C53.3614 207.815 53.588 207.892 53.888 207.892ZM57.4241 209.092V201.792H58.9241V204.652H59.6241L60.8441 201.792H62.4641L60.9441 205.242L62.5241 209.092H60.8841L59.6341 205.962H58.9241V209.092H57.4241ZM63.4602 209.092V201.792H67.9602V203.092H64.9302V204.732H67.6102V205.972H64.9302V207.792H67.9602V209.092H63.4602ZM69.1463 209.092V201.792H70.8963L72.7863 207.442C72.7663 207.195 72.743 206.912 72.7163 206.592C72.6897 206.265 72.6663 205.942 72.6463 205.622C72.633 205.295 72.6263 205.019 72.6263 204.792V201.792H73.9463V209.092H72.1963L70.3263 203.442C70.3463 203.655 70.3663 203.909 70.3863 204.202C70.4063 204.495 70.423 204.792 70.4363 205.092C70.4563 205.392 70.4663 205.659 70.4663 205.892V209.092H69.1463Z" fill="#8B62CE"/>
<path d="M225.394 100.5C226.222 100.5 226.894 99.8284 226.894 99C226.894 98.1716 226.222 97.5 225.394 97.5V100.5ZM300.394 97.5C299.566 97.5 298.894 98.1716 298.894 99C298.894 99.8284 299.566 100.5 300.394 100.5V97.5ZM200 100.5H225.394V97.5H200V100.5ZM300.394 100.5H325V97.5H300.394V100.5Z" fill="#D3B8FF"/>
<path d="M230.886 95V87.7H232.716L233.456 90.82L234.196 87.7H236.046V95H234.676V92.2C234.676 91.7133 234.689 91.2367 234.716 90.77C234.749 90.3033 234.789 89.86 234.836 89.44C234.882 89.02 234.926 88.64 234.966 88.3L234.046 91.9H232.846L231.946 88.39C231.992 88.6767 232.039 89.02 232.086 89.42C232.132 89.82 232.172 90.2567 232.206 90.73C232.239 91.1967 232.256 91.6867 232.256 92.2V95H230.886ZM236.602 95L238.392 87.7H240.292L242.102 95H240.572L240.222 93.35H238.482L238.132 95H236.602ZM238.732 92.15H239.962L239.612 90.39C239.565 90.1367 239.515 89.8867 239.462 89.64C239.415 89.3867 239.378 89.19 239.352 89.05C239.325 89.19 239.288 89.3833 239.242 89.63C239.202 89.8767 239.155 90.1267 239.102 90.38L238.732 92.15ZM242.838 95V87.7H244.588L246.478 93.35C246.458 93.1033 246.434 92.82 246.408 92.5C246.381 92.1733 246.358 91.85 246.338 91.53C246.324 91.2033 246.318 90.9267 246.318 90.7V87.7H247.638V95H245.888L244.018 89.35C244.038 89.5633 244.058 89.8167 244.078 90.11C244.098 90.4033 244.114 90.7 244.128 91C244.148 91.3 244.158 91.5667 244.158 91.8V95H242.838ZM248.374 95L250.164 87.7H252.064L253.874 95H252.344L251.994 93.35H250.254L249.904 95H248.374ZM250.504 92.15H251.734L251.384 90.39C251.337 90.1367 251.287 89.8867 251.234 89.64C251.187 89.3867 251.15 89.19 251.124 89.05C251.097 89.19 251.06 89.3833 251.014 89.63C250.974 89.8767 250.927 90.1267 250.874 90.38L250.504 92.15ZM257.05 95.1C256.563 95.1 256.137 95.01 255.77 94.83C255.403 94.6433 255.117 94.3867 254.91 94.06C254.71 93.7267 254.61 93.34 254.61 92.9V89.8C254.61 89.3533 254.71 88.9667 254.91 88.64C255.117 88.3133 255.403 88.06 255.77 87.88C256.137 87.6933 256.563 87.6 257.05 87.6C257.543 87.6 257.97 87.6933 258.33 87.88C258.697 88.06 258.98 88.3133 259.18 88.64C259.387 88.9667 259.49 89.3533 259.49 89.8H257.99C257.99 89.5067 257.907 89.2833 257.74 89.13C257.58 88.9767 257.35 88.9 257.05 88.9C256.75 88.9 256.517 88.9767 256.35 89.13C256.19 89.2833 256.11 89.5067 256.11 89.8V92.9C256.11 93.1867 256.19 93.41 256.35 93.57C256.517 93.7233 256.75 93.8 257.05 93.8C257.35 93.8 257.58 93.7233 257.74 93.57C257.907 93.41 257.99 93.1867 257.99 92.9V92.22H256.91V90.95H259.49V92.9C259.49 93.34 259.387 93.7267 259.18 94.06C258.98 94.3867 258.697 94.6433 258.33 94.83C257.97 95.01 257.543 95.1 257.05 95.1ZM260.696 95V87.7H265.196V89H262.166V90.64H264.846V91.88H262.166V93.7H265.196V95H260.696ZM272.298 95V87.7H274.668C275.175 87.7 275.615 87.7967 275.988 87.99C276.368 88.1833 276.662 88.4567 276.868 88.81C277.082 89.1567 277.188 89.5667 277.188 90.04V92.65C277.188 93.1167 277.082 93.5267 276.868 93.88C276.662 94.2333 276.368 94.51 275.988 94.71C275.615 94.9033 275.175 95 274.668 95H272.298ZM273.798 93.65H274.668C274.968 93.65 275.212 93.5567 275.398 93.37C275.592 93.1833 275.688 92.9433 275.688 92.65V90.04C275.688 89.7467 275.592 89.51 275.398 89.33C275.212 89.1433 274.968 89.05 274.668 89.05H273.798V93.65ZM277.804 95L279.594 87.7H281.494L283.304 95H281.774L281.424 93.35H279.684L279.334 95H277.804ZM279.934 92.15H281.164L280.814 90.39C280.768 90.1367 280.718 89.8867 280.664 89.64C280.618 89.3867 280.581 89.19 280.554 89.05C280.528 89.19 280.491 89.3833 280.444 89.63C280.404 89.8767 280.358 90.1267 280.304 90.38L279.934 92.15ZM285.69 95V89.05H283.84V87.7H289.04V89.05H287.19V95H285.69ZM289.576 95L291.366 87.7H293.266L295.076 95H293.546L293.196 93.35H291.456L291.106 95H289.576ZM291.706 92.15H292.936L292.586 90.39C292.54 90.1367 292.49 89.8867 292.436 89.64C292.39 89.3867 292.353 89.19 292.326 89.05C292.3 89.19 292.263 89.3833 292.216 89.63C292.176 89.8767 292.13 90.1267 292.076 90.38L291.706 92.15ZM238.412 110L236.602 102.7H238.152L239.162 107.31C239.195 107.47 239.235 107.673 239.282 107.92C239.335 108.167 239.375 108.377 239.402 108.55C239.428 108.377 239.462 108.167 239.502 107.92C239.542 107.673 239.578 107.467 239.612 107.3L240.592 102.7H242.102L240.312 110H238.412ZM243.038 110V108.65H244.488V104.05H243.038V102.7H247.438V104.05H245.988V108.65H247.438V110H243.038ZM248.374 110L250.164 102.7H252.064L253.874 110H252.344L251.994 108.35H250.254L249.904 110H248.374ZM250.504 107.15H251.734L251.384 105.39C251.337 105.137 251.287 104.887 251.234 104.64C251.187 104.387 251.15 104.19 251.124 104.05C251.097 104.19 251.06 104.383 251.014 104.63C250.974 104.877 250.927 105.127 250.874 105.38L250.504 107.15ZM262.146 110V104.05H260.296V102.7H265.496V104.05H263.646V110H262.146ZM268.782 110.1C268.049 110.1 267.465 109.893 267.032 109.48C266.599 109.067 266.382 108.507 266.382 107.8V104.9C266.382 104.187 266.599 103.627 267.032 103.22C267.465 102.807 268.049 102.6 268.782 102.6C269.515 102.6 270.099 102.807 270.532 103.22C270.965 103.627 271.182 104.187 271.182 104.9V107.8C271.182 108.507 270.965 109.067 270.532 109.48C270.099 109.893 269.515 110.1 268.782 110.1ZM268.782 108.8C269.082 108.8 269.305 108.723 269.452 108.57C269.605 108.41 269.682 108.187 269.682 107.9V104.8C269.682 104.507 269.609 104.283 269.462 104.13C269.315 103.977 269.089 103.9 268.782 103.9C268.475 103.9 268.249 103.977 268.102 104.13C267.955 104.283 267.882 104.507 267.882 104.8V107.9C267.882 108.187 267.955 108.41 268.102 108.57C268.255 108.723 268.482 108.8 268.782 108.8ZM272.318 110V102.7H273.818V105.56H274.518L275.738 102.7H277.358L275.838 106.15L277.418 110H275.778L274.528 106.87H273.818V110H272.318ZM278.354 110V102.7H282.854V104H279.824V105.64H282.504V106.88H279.824V108.7H282.854V110H278.354ZM284.04 110V102.7H285.79L287.68 108.35C287.66 108.103 287.637 107.82 287.61 107.5C287.584 107.173 287.56 106.85 287.54 106.53C287.527 106.203 287.52 105.927 287.52 105.7V102.7H288.84V110H287.09L285.22 104.35C285.24 104.563 285.26 104.817 285.28 105.11C285.3 105.403 285.317 105.7 285.33 106C285.35 106.3 285.36 106.567 285.36 106.8V110H284.04Z" fill="#8B62CE"/>
<path d="M147.5 211.21C147.5 210.382 146.828 209.71 146 209.71C145.172 209.71 144.5 210.382 144.5 211.21H147.5ZM144.5 186.21C144.5 187.038 145.172 187.71 146 187.71C146.828 187.71 147.5 187.038 147.5 186.21H144.5ZM147.061 151.939C146.475 151.354 145.525 151.354 144.939 151.939L135.393 161.485C134.808 162.071 134.808 163.021 135.393 163.607C135.979 164.192 136.929 164.192 137.515 163.607L146 155.121L154.485 163.607C155.071 164.192 156.021 164.192 156.607 163.607C157.192 163.021 157.192 162.071 156.607 161.485L147.061 151.939ZM147.5 245V211.21H144.5V245H147.5ZM147.5 186.21V153H144.5V186.21H147.5Z" fill="#7BC86F"/>
<path d="M130.537 202.21V196.26H128.687V194.91H133.887V196.26H132.037V202.21H130.537ZM137.173 202.31C136.439 202.31 135.856 202.103 135.423 201.69C134.989 201.277 134.773 200.717 134.773 200.01V197.11C134.773 196.397 134.989 195.837 135.423 195.43C135.856 195.017 136.439 194.81 137.173 194.81C137.906 194.81 138.489 195.017 138.923 195.43C139.356 195.837 139.573 196.397 139.573 197.11V200.01C139.573 200.717 139.356 201.277 138.923 201.69C138.489 202.103 137.906 202.31 137.173 202.31ZM137.173 201.01C137.473 201.01 137.696 200.933 137.843 200.78C137.996 200.62 138.073 200.397 138.073 200.11V197.01C138.073 196.717 137.999 196.493 137.853 196.34C137.706 196.187 137.479 196.11 137.173 196.11C136.866 196.11 136.639 196.187 136.493 196.34C136.346 196.493 136.273 196.717 136.273 197.01V200.11C136.273 200.397 136.346 200.62 136.493 200.78C136.646 200.933 136.873 201.01 137.173 201.01ZM140.709 202.21V194.91H142.209V197.77H142.909L144.129 194.91H145.749L144.229 198.36L145.809 202.21H144.169L142.919 199.08H142.209V202.21H140.709ZM146.745 202.21V194.91H151.245V196.21H148.215V197.85H150.895V199.09H148.215V200.91H151.245V202.21H146.745ZM152.431 202.21V194.91H154.181L156.071 200.56C156.051 200.313 156.028 200.03 156.001 199.71C155.974 199.383 155.951 199.06 155.931 198.74C155.918 198.413 155.911 198.137 155.911 197.91V194.91H157.231V202.21H155.481L153.611 196.56C153.631 196.773 153.651 197.027 153.671 197.32C153.691 197.613 153.708 197.91 153.721 198.21C153.741 198.51 153.751 198.777 153.751 199.01V202.21H152.431ZM160.737 202.31C160.224 202.31 159.774 202.22 159.387 202.04C159.007 201.86 158.711 201.607 158.497 201.28C158.291 200.947 158.187 200.557 158.187 200.11H159.647C159.647 200.383 159.744 200.603 159.937 200.77C160.137 200.93 160.404 201.01 160.737 201.01C161.064 201.01 161.317 200.933 161.497 200.78C161.684 200.62 161.777 200.41 161.777 200.15C161.777 199.943 161.717 199.76 161.597 199.6C161.477 199.433 161.301 199.323 161.067 199.27L160.177 199.06C159.604 198.927 159.147 198.67 158.807 198.29C158.474 197.903 158.307 197.443 158.307 196.91C158.307 196.477 158.401 196.103 158.587 195.79C158.781 195.477 159.054 195.237 159.407 195.07C159.767 194.897 160.191 194.81 160.677 194.81C161.171 194.81 161.594 194.897 161.947 195.07C162.307 195.237 162.584 195.477 162.777 195.79C162.977 196.103 163.077 196.473 163.077 196.9H161.617C161.617 196.647 161.534 196.45 161.367 196.31C161.201 196.163 160.971 196.09 160.677 196.09C160.391 196.09 160.167 196.16 160.007 196.3C159.847 196.44 159.767 196.627 159.767 196.86C159.767 197.053 159.827 197.21 159.947 197.33C160.067 197.45 160.237 197.537 160.457 197.59L161.377 197.8C161.951 197.927 162.404 198.203 162.737 198.63C163.077 199.05 163.247 199.557 163.247 200.15C163.247 200.583 163.144 200.963 162.937 201.29C162.737 201.617 162.447 201.87 162.067 202.05C161.694 202.223 161.251 202.31 160.737 202.31Z" fill="#5C9A53"/>
<path d="M475.5 179.908C475.5 180.736 476.172 181.408 477 181.408C477.828 181.408 478.5 180.736 478.5 179.908H475.5ZM478.5 219.908C478.5 219.079 477.828 218.408 477 218.408C476.172 218.408 475.5 219.079 475.5 219.908H478.5ZM433 100.5H453V97.5H433V100.5ZM475.5 123V179.908H478.5V123H475.5ZM475.5 219.908V275H478.5V219.908H475.5ZM453 297.5H433V300.5H453V297.5ZM475.5 275C475.5 287.426 465.426 297.5 453 297.5V300.5C467.083 300.5 478.5 289.083 478.5 275H475.5ZM453 100.5C465.426 100.5 475.5 110.574 475.5 123H478.5C478.5 108.917 467.083 97.5 453 97.5V100.5Z" fill="#64B5F6"/>
<path d="M465.25 196.008C464.736 196.008 464.286 195.918 463.9 195.738C463.52 195.558 463.223 195.305 463.01 194.978C462.803 194.645 462.7 194.255 462.7 193.808H464.16C464.16 194.081 464.256 194.301 464.45 194.468C464.65 194.628 464.916 194.708 465.25 194.708C465.576 194.708 465.83 194.631 466.01 194.478C466.196 194.318 466.29 194.108 466.29 193.848C466.29 193.641 466.23 193.458 466.11 193.298C465.99 193.131 465.813 193.021 465.58 192.968L464.69 192.758C464.116 192.625 463.66 192.368 463.32 191.988C462.986 191.601 462.82 191.141 462.82 190.608C462.82 190.175 462.913 189.801 463.1 189.488C463.293 189.175 463.566 188.935 463.92 188.768C464.28 188.595 464.703 188.508 465.19 188.508C465.683 188.508 466.106 188.595 466.46 188.768C466.82 188.935 467.096 189.175 467.29 189.488C467.49 189.801 467.59 190.171 467.59 190.598H466.13C466.13 190.345 466.046 190.148 465.88 190.008C465.713 189.861 465.483 189.788 465.19 189.788C464.903 189.788 464.68 189.858 464.52 189.998C464.36 190.138 464.28 190.325 464.28 190.558C464.28 190.751 464.34 190.908 464.46 191.028C464.58 191.148 464.75 191.235 464.97 191.288L465.89 191.498C466.463 191.625 466.916 191.901 467.25 192.328C467.59 192.748 467.76 193.255 467.76 193.848C467.76 194.281 467.656 194.661 467.45 194.988C467.25 195.315 466.96 195.568 466.58 195.748C466.206 195.921 465.763 196.008 465.25 196.008ZM470.366 195.908V189.958H468.516V188.608H473.716V189.958H471.866V195.908H470.366ZM477.002 196.008C476.269 196.008 475.685 195.801 475.252 195.388C474.819 194.975 474.602 194.415 474.602 193.708V190.808C474.602 190.095 474.819 189.535 475.252 189.128C475.685 188.715 476.269 188.508 477.002 188.508C477.735 188.508 478.319 188.715 478.752 189.128C479.185 189.535 479.402 190.095 479.402 190.808V193.708C479.402 194.415 479.185 194.975 478.752 195.388C478.319 195.801 477.735 196.008 477.002 196.008ZM477.002 194.708C477.302 194.708 477.525 194.631 477.672 194.478C477.825 194.318 477.902 194.095 477.902 193.808V190.708C477.902 190.415 477.829 190.191 477.682 190.038C477.535 189.885 477.309 189.808 477.002 189.808C476.695 189.808 476.469 189.885 476.322 190.038C476.175 190.191 476.102 190.415 476.102 190.708V193.808C476.102 194.095 476.175 194.318 476.322 194.478C476.475 194.631 476.702 194.708 477.002 194.708ZM480.548 195.908V188.608H482.888C483.408 188.608 483.858 188.698 484.238 188.878C484.618 189.058 484.911 189.315 485.118 189.648C485.331 189.981 485.438 190.375 485.438 190.828C485.438 191.301 485.321 191.725 485.088 192.098C484.861 192.471 484.551 192.741 484.158 192.908L485.538 195.908H483.908L482.728 193.148H482.028V195.908H480.548ZM482.028 191.848H482.888C483.221 191.848 483.478 191.765 483.658 191.598C483.845 191.431 483.938 191.198 483.938 190.898C483.938 190.585 483.845 190.341 483.658 190.168C483.478 189.995 483.221 189.908 482.888 189.908H482.028V191.848ZM486.574 195.908V188.608H491.074V189.908H488.044V191.548H490.724V192.788H488.044V194.608H491.074V195.908H486.574ZM465.803 210.908V203.608H468.173C468.679 203.608 469.119 203.705 469.493 203.898C469.873 204.091 470.166 204.365 470.373 204.718C470.586 205.065 470.693 205.475 470.693 205.948V208.558C470.693 209.025 470.586 209.435 470.373 209.788C470.166 210.141 469.873 210.418 469.493 210.618C469.119 210.811 468.679 210.908 468.173 210.908H465.803ZM467.303 209.558H468.173C468.473 209.558 468.716 209.465 468.903 209.278C469.096 209.091 469.193 208.851 469.193 208.558V205.948C469.193 205.655 469.096 205.418 468.903 205.238C468.716 205.051 468.473 204.958 468.173 204.958H467.303V209.558ZM471.309 210.908L473.099 203.608H474.999L476.809 210.908H475.279L474.929 209.258H473.189L472.839 210.908H471.309ZM473.439 208.058H474.669L474.319 206.298C474.272 206.045 474.222 205.795 474.169 205.548C474.122 205.295 474.086 205.098 474.059 204.958C474.032 205.098 473.996 205.291 473.949 205.538C473.909 205.785 473.862 206.035 473.809 206.288L473.439 208.058ZM479.195 210.908V204.958H477.345V203.608H482.545V204.958H480.695V210.908H479.195ZM483.081 210.908L484.871 203.608H486.771L488.581 210.908H487.051L486.701 209.258H484.961L484.611 210.908H483.081ZM485.211 208.058H486.441L486.091 206.298C486.044 206.045 485.994 205.795 485.941 205.548C485.894 205.295 485.858 205.098 485.831 204.958C485.804 205.098 485.768 205.291 485.721 205.538C485.681 205.785 485.634 206.035 485.581 206.288L485.211 208.058Z" fill="#4989BD"/>
<path d="M216.961 238.089L215.984 236.951L215.984 236.951L216.961 238.089ZM225.394 230.851L224.417 229.712L224.417 229.712L225.394 230.851ZM236.987 220.899L237.964 222.038L237.964 222.038L236.987 220.899ZM238.264 221.78C238.893 221.241 238.965 220.294 238.425 219.665C237.886 219.036 236.939 218.964 236.31 219.504L238.264 221.78ZM282.31 180.019C281.681 180.558 281.609 181.505 282.149 182.134C282.688 182.763 283.635 182.835 284.264 182.295L282.31 180.019ZM283.587 180.899L284.564 182.038L284.564 182.038L283.587 180.899ZM284.742 179.908L283.765 178.77L283.765 178.77L284.742 179.908ZM286.858 178.092L287.835 179.23L287.835 179.23L286.858 178.092ZM300.394 166.473L299.417 165.335L299.417 165.335L300.394 166.473ZM309.961 158.261L310.938 159.399L310.938 159.399L309.961 158.261ZM327.46 144.638C327.523 143.812 326.905 143.091 326.079 143.028L312.618 142.002C311.792 141.939 311.071 142.558 311.008 143.384C310.945 144.21 311.564 144.931 312.39 144.994L324.355 145.905L323.443 157.871C323.38 158.697 323.999 159.417 324.825 159.48C325.651 159.543 326.372 158.925 326.435 158.099L327.46 144.638ZM200.012 254.614L217.938 239.227L215.984 236.951L198.058 252.338L200.012 254.614ZM217.938 239.227L226.371 231.989L224.417 229.712L215.984 236.951L217.938 239.227ZM226.371 231.989L237.964 222.038L236.01 219.761L224.417 229.712L226.371 231.989ZM237.964 222.038L238.264 221.78L236.31 219.504L236.01 219.761L237.964 222.038ZM284.264 182.295L284.564 182.038L282.61 179.761L282.31 180.019L284.264 182.295ZM284.564 182.038L285.719 181.046L283.765 178.77L282.61 179.761L284.564 182.038ZM285.719 181.046L287.835 179.23L285.881 176.954L283.765 178.77L285.719 181.046ZM287.835 179.23L301.371 167.611L299.417 165.335L285.881 176.954L287.835 179.23ZM301.371 167.611L310.938 159.399L308.984 157.122L299.417 165.335L301.371 167.611ZM310.938 159.399L326.942 145.662L324.988 143.386L308.984 157.122L310.938 159.399Z" fill="#7BC86F"/>
<path d="M243.234 196.899V189.599H245.724C246.237 189.599 246.684 189.696 247.064 189.889C247.45 190.083 247.747 190.353 247.954 190.699C248.167 191.046 248.274 191.453 248.274 191.919C248.274 192.379 248.167 192.786 247.954 193.139C247.74 193.486 247.444 193.756 247.064 193.949C246.684 194.143 246.237 194.239 245.724 194.239H244.734V196.899H243.234ZM244.734 192.939H245.724C246.044 192.939 246.297 192.843 246.484 192.649C246.677 192.456 246.774 192.213 246.774 191.919C246.774 191.626 246.677 191.383 246.484 191.189C246.297 190.996 246.044 190.899 245.724 190.899H244.734V192.939ZM251.46 196.999C250.72 196.999 250.133 196.799 249.7 196.399C249.273 195.999 249.06 195.453 249.06 194.759V189.599H250.56V194.749C250.56 195.056 250.637 195.293 250.79 195.459C250.95 195.619 251.173 195.699 251.46 195.699C251.74 195.699 251.96 195.619 252.12 195.459C252.28 195.293 252.36 195.056 252.36 194.749V189.599H253.86V194.759C253.86 195.446 253.643 195.993 253.21 196.399C252.783 196.799 252.2 196.999 251.46 196.999ZM255.006 196.899V189.599H257.356C257.843 189.599 258.266 189.679 258.626 189.839C258.993 189.993 259.276 190.209 259.476 190.489C259.683 190.769 259.786 191.099 259.786 191.479C259.786 191.753 259.733 191.999 259.626 192.219C259.526 192.439 259.383 192.619 259.196 192.759C259.016 192.893 258.806 192.976 258.566 193.009V193.029C258.839 193.056 259.079 193.153 259.286 193.319C259.499 193.479 259.663 193.686 259.776 193.939C259.896 194.193 259.956 194.476 259.956 194.789C259.956 195.209 259.849 195.579 259.636 195.899C259.429 196.213 259.136 196.459 258.756 196.639C258.383 196.813 257.946 196.899 257.446 196.899H255.006ZM256.456 195.689H257.396C257.723 195.689 257.979 195.603 258.166 195.429C258.353 195.256 258.446 195.016 258.446 194.709C258.446 194.403 258.353 194.163 258.166 193.989C257.979 193.809 257.723 193.719 257.396 193.719H256.456V195.689ZM256.456 192.539H257.336C257.629 192.539 257.859 192.463 258.026 192.309C258.193 192.149 258.276 191.936 258.276 191.669C258.276 191.396 258.193 191.186 258.026 191.039C257.859 190.886 257.629 190.809 257.336 190.809H256.456V192.539ZM261.382 196.899V189.599H262.882V195.549H265.832V196.899H261.382ZM266.918 196.899V195.549H268.368V190.949H266.918V189.599H271.318V190.949H269.868V195.549H271.318V196.899H266.918ZM275.084 196.999C274.598 196.999 274.171 196.909 273.804 196.729C273.438 196.543 273.151 196.286 272.944 195.959C272.744 195.626 272.644 195.239 272.644 194.799V191.699C272.644 191.253 272.744 190.866 272.944 190.539C273.151 190.213 273.438 189.959 273.804 189.779C274.171 189.593 274.598 189.499 275.084 189.499C275.578 189.499 276.004 189.593 276.364 189.779C276.731 189.959 277.014 190.213 277.214 190.539C277.421 190.866 277.524 191.253 277.524 191.699H276.024C276.024 191.406 275.941 191.183 275.774 191.029C275.614 190.876 275.384 190.799 275.084 190.799C274.784 190.799 274.551 190.876 274.384 191.029C274.224 191.183 274.144 191.406 274.144 191.699V194.799C274.144 195.086 274.224 195.309 274.384 195.469C274.551 195.623 274.784 195.699 275.084 195.699C275.384 195.699 275.614 195.623 275.774 195.469C275.941 195.309 276.024 195.086 276.024 194.799H277.524C277.524 195.239 277.421 195.626 277.214 195.959C277.014 196.286 276.731 196.543 276.364 196.729C276.004 196.909 275.578 196.999 275.084 196.999ZM252.053 211.899V204.599H253.553V207.459H254.253L255.473 204.599H257.093L255.573 208.049L257.153 211.899H255.513L254.263 208.769H253.553V211.899H252.053ZM258.089 211.899V204.599H262.589V205.899H259.559V207.539H262.239V208.779H259.559V210.599H262.589V211.899H258.089ZM265.425 211.899V209.299L263.325 204.599H264.895L265.815 206.799C265.908 207.019 265.988 207.253 266.055 207.499C266.128 207.746 266.178 207.946 266.205 208.099C266.238 207.946 266.285 207.746 266.345 207.499C266.412 207.253 266.488 207.019 266.575 206.799L267.465 204.599H269.025L266.925 209.299V211.899H265.425Z" fill="#5C9A53"/>
</svg>
