<svg width="600" height="600" viewBox="0 0 600 600" fill="none" xmlns="http://www.w3.org/2000/svg">
<path d="M214.286 370H128.571C112.792 370 100 382.792 100 398.571V484.286C100 500.065 112.792 512.857 128.571 512.857H214.286C230.065 512.857 242.857 500.065 242.857 484.286V398.571C242.857 382.792 230.065 370 214.286 370Z" fill="#7BC86F"/>
<path d="M114.893 405.714L119.24 387.986H123.854L128.25 405.714H124.534L123.684 401.707H119.459L118.609 405.714H114.893ZM120.066 398.793H123.053L122.203 394.519C122.09 393.903 121.968 393.296 121.839 392.697C121.725 392.081 121.636 391.604 121.571 391.264C121.507 391.604 121.418 392.074 121.304 392.673C121.207 393.271 121.094 393.879 120.964 394.494L120.066 398.793ZM136.133 405.957C134.336 405.957 132.911 405.471 131.859 404.5C130.823 403.529 130.305 402.201 130.305 400.517V387.986H133.948V400.493C133.948 401.237 134.134 401.813 134.506 402.217C134.895 402.606 135.437 402.8 136.133 402.8C136.813 402.8 137.348 402.606 137.736 402.217C138.125 401.813 138.319 401.237 138.319 400.493V387.986H141.962V400.517C141.962 402.184 141.436 403.513 140.383 404.5C139.347 405.471 137.931 405.957 136.133 405.957ZM148.874 405.714V391.264H144.381V387.986H157.01V391.264H152.517V405.714H148.874ZM159.574 405.714V387.986H163.217V394.883H167.297V387.986H170.94V405.714H167.297V398.161H163.217V405.714H159.574ZM115.306 430V412.271H119.75L121.547 419.849L123.344 412.271H127.837V430H124.51V423.2C124.51 422.019 124.542 420.86 124.607 419.727C124.688 418.594 124.785 417.517 124.899 416.497C125.012 415.477 125.117 414.554 125.214 413.729L122.98 422.471H120.066L117.88 413.947C117.993 414.643 118.107 415.477 118.22 416.449C118.333 417.42 118.43 418.48 118.511 419.63C118.592 420.763 118.633 421.953 118.633 423.2V430H115.306ZM130.791 430V426.721H134.312V415.55H130.791V412.271H141.476V415.55H137.955V426.721H141.476V430H130.791ZM150.89 430.243C149.707 430.243 148.671 430.024 147.781 429.587C146.89 429.134 146.194 428.51 145.693 427.717C145.207 426.907 144.964 425.969 144.964 424.9V417.371C144.964 416.287 145.207 415.347 145.693 414.554C146.194 413.761 146.89 413.146 147.781 412.709C148.671 412.256 149.707 412.029 150.89 412.029C152.087 412.029 153.124 412.256 153.999 412.709C154.889 413.146 155.577 413.761 156.063 414.554C156.564 415.347 156.816 416.287 156.816 417.371H153.173C153.173 416.659 152.97 416.117 152.566 415.744C152.177 415.371 151.619 415.186 150.89 415.186C150.161 415.186 149.594 415.371 149.19 415.744C148.801 416.117 148.607 416.659 148.607 417.371V424.9C148.607 425.596 148.801 426.139 149.19 426.527C149.594 426.9 150.161 427.086 150.89 427.086C151.619 427.086 152.177 426.9 152.566 426.527C152.97 426.139 153.173 425.596 153.173 424.9H156.816C156.816 425.969 156.564 426.907 156.063 427.717C155.577 428.51 154.889 429.134 153.999 429.587C153.124 430.024 152.087 430.243 150.89 430.243ZM159.574 430V412.271H165.257C166.52 412.271 167.613 412.49 168.536 412.927C169.459 413.364 170.171 413.987 170.673 414.797C171.191 415.607 171.45 416.561 171.45 417.663C171.45 418.813 171.167 419.84 170.6 420.747C170.05 421.654 169.297 422.31 168.341 422.714L171.693 430H167.734L164.869 423.297H163.169V430H159.574ZM163.169 420.14H165.257C166.067 420.14 166.69 419.937 167.127 419.533C167.58 419.129 167.807 418.561 167.807 417.833C167.807 417.071 167.58 416.481 167.127 416.06C166.69 415.639 166.067 415.429 165.257 415.429H163.169V420.14ZM179.819 430.243C178.039 430.243 176.621 429.741 175.569 428.737C174.517 427.733 173.99 426.373 173.99 424.657V417.614C173.99 415.881 174.517 414.521 175.569 413.534C176.621 412.53 178.039 412.029 179.819 412.029C181.6 412.029 183.017 412.53 184.069 413.534C185.121 414.521 185.647 415.881 185.647 417.614V424.657C185.647 426.373 185.121 427.733 184.069 428.737C183.017 429.741 181.6 430.243 179.819 430.243ZM179.819 427.086C180.547 427.086 181.09 426.9 181.446 426.527C181.819 426.139 182.004 425.596 182.004 424.9V417.371C182.004 416.659 181.827 416.117 181.47 415.744C181.114 415.371 180.564 415.186 179.819 415.186C179.074 415.186 178.524 415.371 178.167 415.744C177.811 416.117 177.633 416.659 177.633 417.371V424.9C177.633 425.596 177.811 426.139 178.167 426.527C178.54 426.9 179.09 427.086 179.819 427.086ZM121.62 454.529C120.373 454.529 119.28 454.31 118.341 453.873C117.419 453.436 116.698 452.82 116.18 452.027C115.678 451.217 115.427 450.27 115.427 449.186H118.973C118.973 449.85 119.208 450.384 119.677 450.789C120.163 451.177 120.81 451.371 121.62 451.371C122.413 451.371 123.029 451.186 123.466 450.813C123.919 450.424 124.146 449.914 124.146 449.283C124.146 448.781 124 448.336 123.709 447.947C123.417 447.543 122.988 447.276 122.421 447.146L120.26 446.636C118.868 446.311 117.759 445.689 116.933 444.766C116.123 443.827 115.719 442.71 115.719 441.414C115.719 440.361 115.945 439.456 116.399 438.694C116.868 437.933 117.532 437.35 118.39 436.946C119.264 436.524 120.292 436.314 121.474 436.314C122.672 436.314 123.7 436.524 124.559 436.946C125.433 437.35 126.105 437.933 126.574 438.694C127.06 439.456 127.303 440.354 127.303 441.39H123.757C123.757 440.774 123.555 440.297 123.15 439.957C122.745 439.601 122.187 439.423 121.474 439.423C120.778 439.423 120.236 439.593 119.847 439.933C119.459 440.273 119.264 440.726 119.264 441.293C119.264 441.763 119.41 442.143 119.701 442.434C119.993 442.726 120.406 442.936 120.94 443.066L123.174 443.576C124.567 443.883 125.668 444.556 126.477 445.591C127.303 446.611 127.716 447.841 127.716 449.283C127.716 450.336 127.465 451.259 126.963 452.051C126.477 452.844 125.773 453.46 124.85 453.897C123.943 454.319 122.867 454.529 121.62 454.529ZM130.791 454.286V436.557H141.719V439.714H134.361V443.697H140.869V446.709H134.361V451.129H141.719V454.286H130.791ZM145.013 454.286V436.557H150.696C151.959 436.557 153.051 436.776 153.974 437.213C154.897 437.65 155.609 438.273 156.111 439.083C156.629 439.893 156.889 440.847 156.889 441.949C156.889 443.099 156.604 444.126 156.039 445.033C155.487 445.94 154.734 446.596 153.78 447L157.131 454.286H153.173L150.307 447.583H148.607V454.286H145.013ZM148.607 444.426H150.696C151.504 444.426 152.129 444.223 152.566 443.819C153.019 443.414 153.246 442.847 153.246 442.119C153.246 441.357 153.019 440.767 152.566 440.346C152.129 439.924 151.504 439.714 150.696 439.714H148.607V444.426ZM162.974 454.286L158.579 436.557H162.343L164.796 447.753C164.877 448.141 164.974 448.636 165.087 449.234C165.217 449.833 165.314 450.343 165.379 450.764C165.443 450.343 165.524 449.833 165.621 449.234C165.719 448.636 165.807 448.133 165.889 447.729L168.269 436.557H171.936L167.589 454.286H162.974ZM174.476 454.286V451.007H177.997V439.836H174.476V436.557H185.161V439.836H181.64V451.007H185.161V454.286H174.476ZM194.576 454.529C193.393 454.529 192.357 454.31 191.467 453.873C190.576 453.42 189.88 452.796 189.379 452.003C188.893 451.193 188.65 450.254 188.65 449.186V441.657C188.65 440.573 188.893 439.633 189.379 438.84C189.88 438.047 190.576 437.431 191.467 436.994C192.357 436.541 193.393 436.314 194.576 436.314C195.773 436.314 196.81 436.541 197.684 436.994C198.574 437.431 199.263 438.047 199.749 438.84C200.25 439.633 200.501 440.573 200.501 441.657H196.859C196.859 440.944 196.656 440.403 196.251 440.03C195.863 439.657 195.304 439.471 194.576 439.471C193.847 439.471 193.28 439.657 192.876 440.03C192.487 440.403 192.293 440.944 192.293 441.657V449.186C192.293 449.881 192.487 450.424 192.876 450.813C193.28 451.186 193.847 451.371 194.576 451.371C195.304 451.371 195.863 451.186 196.251 450.813C196.656 450.424 196.859 449.881 196.859 449.186H200.501C200.501 450.254 200.25 451.193 199.749 452.003C199.263 452.796 198.574 453.42 197.684 453.873C196.81 454.31 195.773 454.529 194.576 454.529ZM203.6 454.286V436.557H214.529V439.714H207.17V443.697H213.679V446.709H207.17V451.129H214.529V454.286H203.6Z" fill="black"/>
<path d="M116.64 474.286L114.571 465.943H116.343L117.497 471.211C117.535 471.394 117.581 471.627 117.634 471.909C117.695 472.19 117.741 472.43 117.771 472.629C117.802 472.43 117.84 472.19 117.886 471.909C117.931 471.627 117.973 471.39 118.011 471.2L119.131 465.943H120.857L118.811 474.286H116.64ZM122.053 474.286V465.943H127.195V467.429H123.733V469.303H126.795V470.72H123.733V472.8H127.195V474.286H122.053ZM128.745 474.286V465.943H131.42C132.014 465.943 132.528 466.046 132.962 466.251C133.397 466.457 133.732 466.75 133.968 467.131C134.212 467.513 134.334 467.961 134.334 468.48C134.334 469.021 134.2 469.504 133.934 469.931C133.675 470.359 133.32 470.667 132.871 470.857L134.448 474.286H132.585L131.237 471.131H130.437V474.286H128.745ZM130.437 469.646H131.42C131.8 469.646 132.094 469.55 132.3 469.36C132.513 469.17 132.62 468.903 132.62 468.56C132.62 468.201 132.513 467.924 132.3 467.726C132.094 467.527 131.8 467.429 131.42 467.429H130.437V469.646ZM135.758 474.286V472.743H137.415V467.486H135.758V465.943H140.786V467.486H139.129V472.743H140.786V474.286H135.758ZM142.496 474.286V465.943H147.868V467.543H144.188V469.394H147.57V470.994H144.211V474.286H142.496ZM151.12 474.286V471.314L148.72 465.943H150.514L151.566 468.457C151.673 468.709 151.764 468.976 151.84 469.257C151.924 469.539 151.981 469.767 152.011 469.943C152.05 469.767 152.103 469.539 152.171 469.257C152.248 468.976 152.336 468.709 152.434 468.457L153.451 465.943H155.234L152.834 471.314V474.286H151.12ZM164.826 474.286V467.486H162.711V465.943H168.654V467.486H166.54V474.286H164.826ZM172.536 474.4C171.697 474.4 171.031 474.164 170.536 473.691C170.04 473.219 169.793 472.579 169.793 471.771V468.457C169.793 467.641 170.04 467.001 170.536 466.537C171.031 466.064 171.697 465.829 172.536 465.829C173.374 465.829 174.04 466.064 174.536 466.537C175.031 467.001 175.278 467.641 175.278 468.457V471.771C175.278 472.579 175.031 473.219 174.536 473.691C174.04 474.164 173.374 474.4 172.536 474.4ZM172.536 472.914C172.878 472.914 173.134 472.827 173.301 472.651C173.477 472.469 173.564 472.213 173.564 471.886V468.343C173.564 468.007 173.48 467.753 173.313 467.577C173.146 467.401 172.886 467.314 172.536 467.314C172.186 467.314 171.926 467.401 171.758 467.577C171.591 467.753 171.507 468.007 171.507 468.343V471.886C171.507 472.213 171.591 472.469 171.758 472.651C171.934 472.827 172.193 472.914 172.536 472.914ZM176.703 474.286V465.943H178.417V469.211H179.217L180.611 465.943H182.463L180.726 469.886L182.531 474.286H180.657L179.228 470.709H178.417V474.286H176.703ZM183.727 474.286V465.943H188.87V467.429H185.407V469.303H188.47V470.72H185.407V472.8H188.87V474.286H183.727ZM190.351 474.286V465.943H192.351L194.511 472.4C194.488 472.119 194.461 471.794 194.431 471.429C194.4 471.056 194.374 470.686 194.351 470.32C194.336 469.947 194.328 469.63 194.328 469.371V465.943H195.837V474.286H193.837L191.7 467.829C191.723 468.073 191.746 468.361 191.768 468.697C191.791 469.033 191.81 469.371 191.826 469.714C191.848 470.057 191.86 470.361 191.86 470.629V474.286H190.351ZM124.738 485.714H122.818L124.361 481.543L122.818 477.371H124.738L126.281 481.566L124.738 485.714ZM131.591 485.714H129.671L131.214 481.543L129.671 477.371H131.591L133.134 481.566L131.591 485.714ZM138.444 485.714H136.524L138.066 481.543L136.524 477.371H138.444L139.986 481.566L138.444 485.714ZM128.471 497.143V488.8H130.562L131.408 492.366L132.254 488.8H134.368V497.143H132.802V493.943C132.802 493.387 132.818 492.841 132.848 492.309C132.886 491.776 132.932 491.269 132.985 490.789C133.039 490.309 133.088 489.874 133.134 489.486L132.082 493.6H130.711L129.682 489.589C129.736 489.916 129.789 490.309 129.842 490.766C129.896 491.223 129.941 491.721 129.98 492.263C130.018 492.796 130.037 493.356 130.037 493.943V497.143H128.471ZM135.129 497.143L137.175 488.8H139.346L141.415 497.143H139.666L139.266 495.257H137.278L136.878 497.143H135.129ZM137.564 493.886H138.969L138.569 491.874C138.516 491.584 138.459 491.299 138.398 491.017C138.345 490.727 138.303 490.503 138.272 490.343C138.242 490.503 138.2 490.724 138.146 491.006C138.101 491.287 138.047 491.573 137.986 491.863L137.564 493.886ZM142.382 497.143V488.8H144.383L146.543 495.257C146.52 494.976 146.493 494.651 146.463 494.286C146.431 493.913 146.406 493.543 146.383 493.177C146.367 492.804 146.36 492.487 146.36 492.229V488.8H147.868V497.143H145.868L143.731 490.686C143.754 490.93 143.777 491.219 143.8 491.554C143.823 491.89 143.841 492.229 143.857 492.571C143.88 492.914 143.891 493.219 143.891 493.486V497.143H142.382ZM148.834 497.143L150.88 488.8H153.051L155.12 497.143H153.371L152.971 495.257H150.983L150.583 497.143H148.834ZM151.268 493.886H152.674L152.274 491.874C152.221 491.584 152.164 491.299 152.103 491.017C152.05 490.727 152.008 490.503 151.977 490.343C151.947 490.503 151.906 490.724 151.851 491.006C151.806 491.287 151.753 491.573 151.691 491.863L151.268 493.886ZM158.876 497.257C158.32 497.257 157.833 497.154 157.413 496.949C156.994 496.736 156.667 496.441 156.43 496.069C156.201 495.687 156.087 495.246 156.087 494.743V491.2C156.087 490.69 156.201 490.247 156.43 489.874C156.667 489.501 156.994 489.211 157.413 489.006C157.833 488.793 158.32 488.686 158.876 488.686C159.44 488.686 159.927 488.793 160.338 489.006C160.758 489.211 161.081 489.501 161.31 489.874C161.547 490.247 161.664 490.69 161.664 491.2H159.95C159.95 490.864 159.856 490.61 159.664 490.434C159.481 490.259 159.218 490.171 158.876 490.171C158.533 490.171 158.267 490.259 158.076 490.434C157.893 490.61 157.801 490.864 157.801 491.2V494.743C157.801 495.07 157.893 495.326 158.076 495.509C158.267 495.684 158.533 495.771 158.876 495.771C159.218 495.771 159.481 495.684 159.664 495.509C159.856 495.326 159.95 495.07 159.95 494.743V493.966H158.716V492.514H161.664V494.743C161.664 495.246 161.547 495.687 161.31 496.069C161.081 496.441 160.758 496.736 160.338 496.949C159.927 497.154 159.44 497.257 158.876 497.257ZM163.168 497.143V488.8H168.311V490.286H164.848V492.16H167.911V493.577H164.848V495.657H168.311V497.143H163.168ZM176.714 497.143V488.8H179.56C180.147 488.8 180.657 488.91 181.091 489.131C181.533 489.353 181.873 489.661 182.108 490.057C182.353 490.453 182.474 490.919 182.474 491.451C182.474 491.977 182.353 492.441 182.108 492.846C181.864 493.241 181.526 493.55 181.091 493.771C180.657 493.993 180.147 494.103 179.56 494.103H178.428V497.143H176.714ZM178.428 492.617H179.56C179.926 492.617 180.216 492.507 180.428 492.286C180.65 492.064 180.76 491.787 180.76 491.451C180.76 491.116 180.65 490.839 180.428 490.617C180.216 490.396 179.926 490.286 179.56 490.286H178.428V492.617ZM183.567 497.143V488.8H186.241C186.836 488.8 187.35 488.903 187.784 489.109C188.218 489.314 188.553 489.607 188.79 489.989C189.033 490.37 189.156 490.819 189.156 491.337C189.156 491.879 189.021 492.361 188.756 492.789C188.496 493.216 188.141 493.524 187.693 493.714L189.27 497.143H187.407L186.058 493.989H185.258V497.143H183.567ZM185.258 492.503H186.241C186.621 492.503 186.916 492.407 187.121 492.217C187.334 492.027 187.441 491.76 187.441 491.417C187.441 491.059 187.334 490.781 187.121 490.583C186.916 490.384 186.621 490.286 186.241 490.286H185.258V492.503ZM193.094 497.257C192.256 497.257 191.588 497.021 191.094 496.549C190.598 496.076 190.351 495.436 190.351 494.629V491.314C190.351 490.499 190.598 489.859 191.094 489.394C191.588 488.921 192.256 488.686 193.094 488.686C193.931 488.686 194.598 488.921 195.094 489.394C195.588 489.859 195.837 490.499 195.837 491.314V494.629C195.837 495.436 195.588 496.076 195.094 496.549C194.598 497.021 193.931 497.257 193.094 497.257ZM193.094 495.771C193.437 495.771 193.691 495.684 193.86 495.509C194.034 495.326 194.123 495.07 194.123 494.743V491.2C194.123 490.864 194.038 490.61 193.871 490.434C193.703 490.259 193.444 490.171 193.094 490.171C192.743 490.171 192.484 490.259 192.317 490.434C192.148 490.61 192.066 490.864 192.066 491.2V494.743C192.066 495.07 192.148 495.326 192.317 495.509C192.491 495.684 192.751 495.771 193.094 495.771ZM197.318 497.143V488.8H202.69V490.4H199.01V492.251H202.391V493.851H199.033V497.143H197.318ZM204.284 497.143V495.6H205.941V490.343H204.284V488.8H209.313V490.343H207.656V495.6H209.313V497.143H204.284ZM211.537 497.143V488.8H213.251V495.6H216.623V497.143H211.537ZM217.99 497.143V488.8H223.133V490.286H219.67V492.16H222.733V493.577H219.67V495.657H223.133V497.143H217.99Z" fill="#33592D"/>
<path d="M480 84.2857H394.286C378.506 84.2857 365.714 97.0776 365.714 112.857V198.571C365.714 214.351 378.506 227.143 394.286 227.143H480C495.78 227.143 508.571 214.351 508.571 198.571V112.857C508.571 97.0776 495.78 84.2857 480 84.2857Z" fill="#D9D9D9"/>
<path d="M381.02 120V102.271H385.464L387.261 109.849L389.059 102.271H393.551V120H390.224V113.2C390.224 112.018 390.257 110.86 390.321 109.727C390.403 108.594 390.5 107.517 390.613 106.497C390.726 105.477 390.831 104.554 390.929 103.729L388.694 112.471H385.78L383.594 103.947C383.707 104.643 383.821 105.477 383.934 106.449C384.047 107.42 384.144 108.48 384.226 109.63C384.307 110.763 384.347 111.953 384.347 113.2V120H381.02ZM396.504 120V116.721H400.026V105.55H396.504V102.271H407.19V105.55H403.669V116.721H407.19V120H396.504ZM416.604 120.243C415.421 120.243 414.386 120.024 413.496 119.587C412.604 119.134 411.909 118.51 411.407 117.717C410.921 116.908 410.679 115.969 410.679 114.9V107.371C410.679 106.287 410.921 105.348 411.407 104.554C411.909 103.761 412.604 103.146 413.496 102.709C414.386 102.255 415.421 102.029 416.604 102.029C417.801 102.029 418.839 102.255 419.713 102.709C420.603 103.146 421.291 103.761 421.777 104.554C422.279 105.348 422.53 106.287 422.53 107.371H418.887C418.887 106.659 418.684 106.117 418.28 105.744C417.891 105.372 417.333 105.186 416.604 105.186C415.876 105.186 415.309 105.372 414.904 105.744C414.516 106.117 414.321 106.659 414.321 107.371V114.9C414.321 115.596 414.516 116.139 414.904 116.527C415.309 116.9 415.876 117.086 416.604 117.086C417.333 117.086 417.891 116.9 418.28 116.527C418.684 116.139 418.887 115.596 418.887 114.9H422.53C422.53 115.969 422.279 116.908 421.777 117.717C421.291 118.51 420.603 119.134 419.713 119.587C418.839 120.024 417.801 120.243 416.604 120.243ZM425.289 120V102.271H430.971C432.234 102.271 433.327 102.49 434.25 102.927C435.173 103.364 435.886 103.988 436.387 104.797C436.906 105.607 437.164 106.562 437.164 107.663C437.164 108.812 436.881 109.84 436.314 110.747C435.764 111.654 435.011 112.31 434.056 112.714L437.407 120H433.449L430.583 113.297H428.883V120H425.289ZM428.883 110.14H430.971C431.781 110.14 432.404 109.938 432.841 109.533C433.294 109.128 433.521 108.561 433.521 107.833C433.521 107.072 433.294 106.481 432.841 106.06C432.404 105.639 431.781 105.429 430.971 105.429H428.883V110.14ZM445.533 120.243C443.753 120.243 442.336 119.741 441.283 118.737C440.231 117.733 439.704 116.373 439.704 114.657V107.614C439.704 105.882 440.231 104.522 441.283 103.534C442.336 102.53 443.753 102.029 445.533 102.029C447.314 102.029 448.731 102.53 449.783 103.534C450.836 104.522 451.361 105.882 451.361 107.614V114.657C451.361 116.373 450.836 117.733 449.783 118.737C448.731 119.741 447.314 120.243 445.533 120.243ZM445.533 117.086C446.261 117.086 446.804 116.9 447.16 116.527C447.533 116.139 447.719 115.596 447.719 114.9V107.371C447.719 106.659 447.541 106.117 447.184 105.744C446.829 105.372 446.279 105.186 445.533 105.186C444.789 105.186 444.239 105.372 443.881 105.744C443.526 106.117 443.347 106.659 443.347 107.371V114.9C443.347 115.596 443.526 116.139 443.881 116.527C444.254 116.9 444.804 117.086 445.533 117.086ZM387.334 144.529C386.087 144.529 384.994 144.31 384.056 143.873C383.133 143.436 382.413 142.82 381.894 142.027C381.393 141.218 381.141 140.27 381.141 139.186H384.687C384.687 139.85 384.921 140.384 385.391 140.789C385.877 141.177 386.524 141.371 387.334 141.371C388.127 141.371 388.743 141.185 389.18 140.813C389.633 140.424 389.86 139.914 389.86 139.283C389.86 138.781 389.714 138.336 389.423 137.947C389.131 137.542 388.703 137.275 388.136 137.146L385.974 136.636C384.581 136.312 383.473 135.689 382.647 134.766C381.837 133.827 381.433 132.71 381.433 131.414C381.433 130.362 381.66 129.455 382.113 128.694C382.583 127.933 383.246 127.35 384.104 126.946C384.979 126.525 386.007 126.314 387.189 126.314C388.387 126.314 389.414 126.525 390.273 126.946C391.147 127.35 391.819 127.933 392.289 128.694C392.774 129.455 393.017 130.354 393.017 131.39H389.471C389.471 130.775 389.269 130.297 388.864 129.957C388.46 129.601 387.901 129.423 387.189 129.423C386.493 129.423 385.95 129.593 385.561 129.933C385.173 130.273 384.979 130.726 384.979 131.293C384.979 131.762 385.124 132.143 385.416 132.434C385.707 132.726 386.12 132.936 386.654 133.066L388.889 133.576C390.281 133.883 391.381 134.555 392.191 135.591C393.017 136.611 393.43 137.842 393.43 139.283C393.43 140.335 393.179 141.258 392.677 142.051C392.191 142.845 391.487 143.46 390.564 143.897C389.657 144.319 388.581 144.529 387.334 144.529ZM396.504 144.286V126.557H407.433V129.714H400.074V133.697H406.583V136.709H400.074V141.129H407.433V144.286H396.504ZM410.727 144.286V126.557H416.41C417.673 126.557 418.766 126.776 419.689 127.213C420.611 127.65 421.323 128.273 421.826 129.083C422.343 129.892 422.603 130.848 422.603 131.949C422.603 133.098 422.319 134.126 421.753 135.033C421.201 135.94 420.449 136.595 419.494 137L422.846 144.286H418.887L416.021 137.583H414.321V144.286H410.727ZM414.321 134.426H416.41C417.219 134.426 417.843 134.223 418.28 133.819C418.733 133.414 418.96 132.847 418.96 132.119C418.96 131.358 418.733 130.767 418.28 130.346C417.843 129.925 417.219 129.714 416.41 129.714H414.321V134.426ZM428.689 144.286L424.293 126.557H428.057L430.51 137.753C430.591 138.141 430.689 138.635 430.801 139.234C430.931 139.833 431.029 140.343 431.093 140.764C431.157 140.343 431.239 139.833 431.336 139.234C431.433 138.635 431.521 138.133 431.603 137.729L433.983 126.557H437.65L433.303 144.286H428.689ZM440.19 144.286V141.007H443.711V129.836H440.19V126.557H450.876V129.836H447.354V141.007H450.876V144.286H440.19ZM387.48 168.814C386.299 168.814 385.261 168.596 384.371 168.159C383.481 167.706 382.784 167.081 382.283 166.289C381.797 165.479 381.554 164.54 381.554 163.471V155.943C381.554 154.859 381.797 153.919 382.283 153.126C382.784 152.333 383.481 151.717 384.371 151.28C385.261 150.827 386.299 150.6 387.48 150.6C388.679 150.6 389.714 150.827 390.589 151.28C391.479 151.717 392.167 152.333 392.653 153.126C393.154 153.919 393.406 154.859 393.406 155.943H389.763C389.763 155.23 389.56 154.689 389.156 154.316C388.767 153.943 388.209 153.757 387.48 153.757C386.751 153.757 386.184 153.943 385.78 154.316C385.391 154.689 385.197 155.23 385.197 155.943V163.471C385.197 164.167 385.391 164.71 385.78 165.099C386.184 165.471 386.751 165.657 387.48 165.657C388.209 165.657 388.767 165.471 389.156 165.099C389.56 164.71 389.763 164.167 389.763 163.471H393.406C393.406 164.54 393.154 165.479 392.653 166.289C392.167 167.081 391.479 167.706 390.589 168.159C389.714 168.596 388.679 168.814 387.48 168.814ZM396.504 168.571V150.843H407.433V154H400.074V157.983H406.583V160.994H400.074V165.414H407.433V168.571H396.504ZM416.459 168.814C415.211 168.814 414.119 168.596 413.18 168.159C412.257 167.721 411.536 167.106 411.019 166.313C410.516 165.503 410.266 164.556 410.266 163.471H413.811C413.811 164.136 414.046 164.67 414.516 165.074C415.001 165.463 415.649 165.657 416.459 165.657C417.251 165.657 417.867 165.471 418.304 165.099C418.757 164.71 418.984 164.2 418.984 163.569C418.984 163.067 418.839 162.621 418.547 162.233C418.256 161.829 417.826 161.561 417.26 161.431L415.099 160.921C413.706 160.597 412.597 159.974 411.771 159.051C410.961 158.113 410.557 156.996 410.557 155.7C410.557 154.647 410.783 153.741 411.237 152.98C411.706 152.219 412.37 151.636 413.229 151.231C414.103 150.81 415.13 150.6 416.313 150.6C417.51 150.6 418.539 150.81 419.397 151.231C420.271 151.636 420.943 152.219 421.413 152.98C421.899 153.741 422.141 154.64 422.141 155.676H418.596C418.596 155.06 418.393 154.583 417.989 154.243C417.583 153.887 417.024 153.709 416.313 153.709C415.616 153.709 415.074 153.879 414.686 154.219C414.297 154.559 414.103 155.011 414.103 155.579C414.103 156.049 414.249 156.429 414.54 156.72C414.831 157.011 415.244 157.221 415.779 157.351L418.013 157.861C419.404 158.169 420.506 158.841 421.316 159.877C422.141 160.897 422.554 162.127 422.554 163.569C422.554 164.621 422.303 165.544 421.801 166.337C421.316 167.13 420.611 167.746 419.689 168.183C418.781 168.604 417.704 168.814 416.459 168.814Z" fill="black"/>
<path d="M382.354 188.571L380.286 180.229H382.057L383.211 185.497C383.25 185.68 383.296 185.913 383.348 186.194C383.41 186.476 383.456 186.716 383.486 186.914C383.516 186.716 383.554 186.476 383.6 186.194C383.646 185.913 383.687 185.676 383.726 185.486L384.846 180.229H386.571L384.526 188.571H382.354ZM387.767 188.571V180.229H392.91V181.714H389.447V183.589H392.51V185.006H389.447V187.086H392.91V188.571H387.767ZM394.46 188.571V180.229H397.134C397.728 180.229 398.243 180.331 398.677 180.537C399.111 180.743 399.446 181.036 399.683 181.417C399.926 181.799 400.048 182.247 400.048 182.766C400.048 183.307 399.914 183.79 399.648 184.217C399.388 184.644 399.034 184.953 398.586 185.143L400.163 188.571H398.3L396.951 185.417H396.151V188.571H394.46ZM396.151 183.931H397.134C397.514 183.931 397.808 183.836 398.014 183.646C398.227 183.456 398.334 183.189 398.334 182.846C398.334 182.487 398.227 182.21 398.014 182.011C397.808 181.813 397.514 181.714 397.134 181.714H396.151V183.931ZM401.473 188.571V187.029H403.13V181.771H401.473V180.229H406.501V181.771H404.844V187.029H406.501V188.571H401.473ZM408.211 188.571V180.229H413.583V181.829H409.903V183.68H413.284V185.28H409.926V188.571H408.211ZM416.834 188.571V185.6L414.434 180.229H416.228L417.28 182.743C417.387 182.994 417.478 183.261 417.554 183.543C417.638 183.824 417.696 184.053 417.726 184.229C417.764 184.053 417.817 183.824 417.886 183.543C417.963 183.261 418.05 182.994 418.148 182.743L419.166 180.229H420.948L418.548 185.6V188.571H416.834ZM430.54 188.571V181.771H428.426V180.229H434.369V181.771H432.254V188.571H430.54ZM438.25 188.686C437.411 188.686 436.746 188.45 436.25 187.977C435.754 187.504 435.507 186.864 435.507 186.057V182.743C435.507 181.927 435.754 181.287 436.25 180.823C436.746 180.35 437.411 180.114 438.25 180.114C439.088 180.114 439.754 180.35 440.25 180.823C440.746 181.287 440.993 181.927 440.993 182.743V186.057C440.993 186.864 440.746 187.504 440.25 187.977C439.754 188.45 439.088 188.686 438.25 188.686ZM438.25 187.2C438.593 187.2 438.848 187.113 439.016 186.937C439.191 186.754 439.278 186.499 439.278 186.171V182.629C439.278 182.293 439.194 182.039 439.027 181.863C438.86 181.687 438.6 181.6 438.25 181.6C437.9 181.6 437.64 181.687 437.473 181.863C437.306 182.039 437.221 182.293 437.221 182.629V186.171C437.221 186.499 437.306 186.754 437.473 186.937C437.648 187.113 437.907 187.2 438.25 187.2ZM442.417 188.571V180.229H444.131V183.497H444.931L446.326 180.229H448.177L446.44 184.171L448.246 188.571H446.371L444.943 184.994H444.131V188.571H442.417ZM449.441 188.571V180.229H454.584V181.714H451.121V183.589H454.184V185.006H451.121V187.086H454.584V188.571H449.441ZM456.066 188.571V180.229H458.066L460.226 186.686C460.203 186.404 460.176 186.08 460.146 185.714C460.114 185.341 460.088 184.971 460.066 184.606C460.05 184.233 460.043 183.916 460.043 183.657V180.229H461.551V188.571H459.551L457.414 182.114C457.437 182.359 457.46 182.647 457.483 182.983C457.506 183.319 457.524 183.657 457.54 184C457.563 184.343 457.574 184.647 457.574 184.914V188.571H456.066ZM390.453 200H388.533L390.076 195.829L388.533 191.657H390.453L391.996 195.851L390.453 200ZM397.306 200H395.386L396.928 195.829L395.386 191.657H397.306L398.848 195.851L397.306 200ZM404.158 200H402.238L403.781 195.829L402.238 191.657H404.158L405.701 195.851L404.158 200ZM394.186 211.429V203.086H396.277L397.123 206.651L397.968 203.086H400.083V211.429H398.517V208.229C398.517 207.673 398.531 207.127 398.563 206.594C398.6 206.061 398.646 205.554 398.7 205.074C398.753 204.594 398.803 204.16 398.848 203.771L397.797 207.886H396.426L395.397 203.874C395.45 204.201 395.503 204.594 395.557 205.051C395.61 205.509 395.656 206.007 395.694 206.549C395.731 207.081 395.751 207.641 395.751 208.229V211.429H394.186ZM400.844 211.429L402.89 203.086H405.061L407.13 211.429H405.381L404.981 209.543H402.993L402.593 211.429H400.844ZM403.279 208.171H404.684L404.284 206.16C404.23 205.87 404.173 205.584 404.113 205.303C404.058 205.013 404.017 204.789 403.987 204.629C403.956 204.789 403.914 205.01 403.861 205.291C403.816 205.573 403.761 205.859 403.701 206.149L403.279 208.171ZM408.097 211.429V203.086H410.097L412.257 209.543C412.234 209.261 412.207 208.937 412.177 208.571C412.146 208.199 412.12 207.829 412.097 207.463C412.081 207.09 412.074 206.773 412.074 206.514V203.086H413.583V211.429H411.583L409.446 204.971C409.468 205.216 409.491 205.504 409.514 205.84C409.537 206.176 409.556 206.514 409.571 206.857C409.594 207.2 409.606 207.504 409.606 207.771V211.429H408.097ZM414.548 211.429L416.594 203.086H418.766L420.834 211.429H419.086L418.686 209.543H416.697L416.297 211.429H414.548ZM416.983 208.171H418.388L417.988 206.16C417.936 205.87 417.878 205.584 417.817 205.303C417.764 205.013 417.723 204.789 417.691 204.629C417.661 204.789 417.62 205.01 417.566 205.291C417.52 205.573 417.467 205.859 417.406 206.149L416.983 208.171ZM424.59 211.543C424.034 211.543 423.547 211.44 423.127 211.234C422.708 211.021 422.381 210.727 422.144 210.354C421.916 209.973 421.801 209.531 421.801 209.029V205.486C421.801 204.976 421.916 204.533 422.144 204.16C422.381 203.787 422.708 203.497 423.127 203.291C423.547 203.079 424.034 202.971 424.59 202.971C425.154 202.971 425.641 203.079 426.053 203.291C426.473 203.497 426.796 203.787 427.024 204.16C427.261 204.533 427.378 204.976 427.378 205.486H425.664C425.664 205.15 425.57 204.896 425.379 204.72C425.196 204.544 424.933 204.457 424.59 204.457C424.247 204.457 423.981 204.544 423.79 204.72C423.607 204.896 423.516 205.15 423.516 205.486V209.029C423.516 209.356 423.607 209.611 423.79 209.794C423.981 209.97 424.247 210.057 424.59 210.057C424.933 210.057 425.196 209.97 425.379 209.794C425.57 209.611 425.664 209.356 425.664 209.029V208.251H424.43V206.8H427.378V209.029C427.378 209.531 427.261 209.973 427.024 210.354C426.796 210.727 426.473 211.021 426.053 211.234C425.641 211.44 425.154 211.543 424.59 211.543ZM428.883 211.429V203.086H434.026V204.571H430.563V206.446H433.626V207.863H430.563V209.943H434.026V211.429H428.883ZM442.394 211.429V203.086H445.103C445.681 203.086 446.184 203.196 446.611 203.417C447.046 203.639 447.381 203.95 447.617 204.354C447.861 204.75 447.983 205.219 447.983 205.76V208.743C447.983 209.276 447.861 209.744 447.617 210.149C447.381 210.553 447.046 210.869 446.611 211.097C446.184 211.319 445.681 211.429 445.103 211.429H442.394ZM444.108 209.886H445.103C445.446 209.886 445.724 209.779 445.937 209.566C446.158 209.353 446.268 209.079 446.268 208.743V205.76C446.268 205.424 446.158 205.154 445.937 204.949C445.724 204.736 445.446 204.629 445.103 204.629H444.108V209.886ZM448.813 211.429L450.858 203.086H453.03L455.098 211.429H453.35L452.95 209.543H450.961L450.561 211.429H448.813ZM451.247 208.171H452.653L452.253 206.16C452.198 205.87 452.141 205.584 452.081 205.303C452.027 205.013 451.986 204.789 451.956 204.629C451.924 204.789 451.883 205.01 451.83 205.291C451.784 205.573 451.73 205.859 451.67 206.149L451.247 208.171ZM457.951 211.429V204.629H455.837V203.086H461.78V204.629H459.666V211.429H457.951ZM462.518 211.429L464.564 203.086H466.736L468.804 211.429H467.056L466.656 209.543H464.667L464.267 211.429H462.518ZM464.953 208.171H466.358L465.958 206.16C465.904 205.87 465.847 205.584 465.787 205.303C465.733 205.013 465.691 204.789 465.661 204.629C465.63 204.789 465.588 205.01 465.536 205.291C465.49 205.573 465.436 205.859 465.376 206.149L464.953 208.171Z" fill="#646464"/>
<path d="M214.286 84.2857H128.571C112.792 84.2857 100 97.0776 100 112.857V198.571C100 214.351 112.792 227.143 128.571 227.143H214.286C230.065 227.143 242.857 214.351 242.857 198.571V112.857C242.857 97.0776 230.065 84.2857 214.286 84.2857Z" fill="#D3B8FF"/>
<path d="M121.766 120.243C120.584 120.243 119.548 120.024 118.657 119.587C117.767 119.134 117.07 118.51 116.569 117.717C116.083 116.908 115.84 115.969 115.84 114.9V107.371C115.84 106.287 116.083 105.348 116.569 104.554C117.07 103.761 117.767 103.146 118.657 102.709C119.548 102.255 120.584 102.029 121.766 102.029C122.964 102.029 124 102.255 124.874 102.709C125.765 103.146 126.453 103.761 126.939 104.554C127.44 105.348 127.691 106.287 127.691 107.371H124.049C124.049 106.659 123.846 106.117 123.441 105.744C123.053 105.372 122.494 105.186 121.766 105.186C121.037 105.186 120.47 105.372 120.066 105.744C119.677 106.117 119.483 106.659 119.483 107.371V114.9C119.483 115.596 119.677 116.139 120.066 116.527C120.47 116.9 121.037 117.086 121.766 117.086C122.494 117.086 123.053 116.9 123.441 116.527C123.846 116.139 124.049 115.596 124.049 114.9H127.691C127.691 115.969 127.44 116.908 126.939 117.717C126.453 118.51 125.765 119.134 124.874 119.587C124 120.024 122.964 120.243 121.766 120.243ZM131.641 120V102.271H135.283V116.721H142.448V120H131.641ZM145.353 120V116.721H148.874V105.55H145.353V102.271H156.039V105.55H152.517V116.721H156.039V120H145.353ZM159.914 120V102.271H170.843V105.429H163.484V109.411H169.993V112.423H163.484V116.843H170.843V120H159.914ZM173.99 120V102.271H178.24L182.83 115.993C182.781 115.394 182.726 114.706 182.66 113.929C182.596 113.135 182.539 112.35 182.49 111.573C182.459 110.78 182.441 110.108 182.441 109.557V102.271H185.647V120H181.397L176.856 106.279C176.904 106.797 176.953 107.412 177.001 108.124C177.05 108.837 177.091 109.557 177.123 110.286C177.171 111.014 177.196 111.662 177.196 112.229V120H173.99ZM192.56 120V105.55H188.067V102.271H200.696V105.55H196.203V120H192.56ZM115.816 144.286V126.557H121.571C122.802 126.557 123.87 126.792 124.777 127.261C125.7 127.731 126.412 128.395 126.914 129.253C127.432 130.095 127.691 131.09 127.691 132.24V138.579C127.691 139.712 127.432 140.708 126.914 141.566C126.412 142.424 125.7 143.096 124.777 143.581C123.87 144.051 122.802 144.286 121.571 144.286H115.816ZM119.459 141.007H121.571C122.3 141.007 122.891 140.78 123.344 140.327C123.814 139.874 124.049 139.291 124.049 138.579V132.24C124.049 131.528 123.814 130.953 123.344 130.516C122.891 130.062 122.3 129.836 121.571 129.836H119.459V141.007ZM130.791 144.286V126.557H141.719V129.714H134.361V133.697H140.869V136.709H134.361V141.129H141.719V144.286H130.791ZM148.413 144.286L144.017 126.557H147.781L150.234 137.753C150.314 138.141 150.411 138.635 150.526 139.234C150.654 139.833 150.751 140.343 150.817 140.764C150.881 140.343 150.963 139.833 151.06 139.234C151.157 138.635 151.246 138.133 151.327 137.729L153.707 126.557H157.374L153.027 144.286H148.413ZM159.914 144.286V141.007H163.436V129.836H159.914V126.557H170.6V129.836H167.079V141.007H170.6V144.286H159.914ZM180.013 144.529C178.831 144.529 177.796 144.31 176.904 143.873C176.014 143.42 175.319 142.796 174.816 142.003C174.33 141.193 174.087 140.254 174.087 139.186V131.657C174.087 130.572 174.33 129.633 174.816 128.84C175.319 128.047 176.014 127.431 176.904 126.994C177.796 126.541 178.831 126.314 180.013 126.314C181.211 126.314 182.247 126.541 183.121 126.994C184.013 127.431 184.7 128.047 185.186 128.84C185.689 129.633 185.939 130.572 185.939 131.657H182.296C182.296 130.945 182.094 130.402 181.689 130.03C181.3 129.658 180.741 129.471 180.013 129.471C179.284 129.471 178.719 129.658 178.313 130.03C177.924 130.402 177.73 130.945 177.73 131.657V139.186C177.73 139.882 177.924 140.424 178.313 140.813C178.719 141.185 179.284 141.371 180.013 141.371C180.741 141.371 181.3 141.185 181.689 140.813C182.094 140.424 182.296 139.882 182.296 139.186H185.939C185.939 140.254 185.689 141.193 185.186 142.003C184.7 142.796 184.013 143.42 183.121 143.873C182.247 144.31 181.211 144.529 180.013 144.529ZM189.039 144.286V126.557H199.967V129.714H192.609V133.697H199.117V136.709H192.609V141.129H199.967V144.286H189.039Z" fill="black"/>
<path d="M480 370H394.286C378.506 370 365.714 382.792 365.714 398.571V484.286C365.714 500.065 378.506 512.857 394.286 512.857H480C495.78 512.857 508.571 500.065 508.571 484.286V398.571C508.571 382.792 495.78 370 480 370Z" fill="#64B5F6"/>
<path d="M381.603 405.714V387.986H387.65C388.897 387.986 389.982 388.22 390.904 388.69C391.843 389.16 392.564 389.816 393.066 390.657C393.584 391.499 393.843 392.487 393.843 393.62C393.843 394.737 393.584 395.724 393.066 396.583C392.547 397.424 391.827 398.08 390.904 398.55C389.982 399.02 388.897 399.254 387.65 399.254H385.246V405.714H381.603ZM385.246 396.097H387.65C388.427 396.097 389.043 395.863 389.496 395.393C389.966 394.923 390.2 394.333 390.2 393.62C390.2 392.907 389.966 392.317 389.496 391.847C389.043 391.377 388.427 391.143 387.65 391.143H385.246V396.097ZM401.896 405.957C400.65 405.957 399.557 405.739 398.617 405.301C397.694 404.864 396.974 404.249 396.456 403.456C395.954 402.646 395.703 401.699 395.703 400.614H399.249C399.249 401.279 399.484 401.813 399.953 402.217C400.439 402.606 401.087 402.8 401.896 402.8C402.69 402.8 403.304 402.614 403.742 402.241C404.196 401.853 404.422 401.343 404.422 400.711C404.422 400.21 404.276 399.764 403.984 399.376C403.693 398.971 403.264 398.704 402.697 398.574L400.536 398.064C399.144 397.74 398.034 397.117 397.209 396.194C396.4 395.256 395.994 394.139 395.994 392.843C395.994 391.79 396.222 390.884 396.674 390.123C397.144 389.361 397.809 388.779 398.666 388.374C399.54 387.953 400.569 387.743 401.75 387.743C402.949 387.743 403.977 387.953 404.834 388.374C405.709 388.779 406.382 389.361 406.85 390.123C407.336 390.884 407.579 391.783 407.579 392.819H404.033C404.033 392.203 403.832 391.726 403.426 391.386C403.022 391.03 402.463 390.851 401.75 390.851C401.054 390.851 400.512 391.021 400.123 391.361C399.734 391.701 399.54 392.154 399.54 392.721C399.54 393.191 399.686 393.571 399.977 393.863C400.269 394.154 400.682 394.364 401.216 394.494L403.45 395.004C404.843 395.311 405.944 395.984 406.753 397.02C407.579 398.04 407.992 399.27 407.992 400.711C407.992 401.764 407.742 402.687 407.239 403.48C406.753 404.273 406.049 404.889 405.126 405.326C404.22 405.747 403.143 405.957 401.896 405.957ZM418.839 410.086L416.119 405.617L416.872 405.933C416.806 405.933 416.733 405.933 416.653 405.933C416.572 405.949 416.49 405.957 416.41 405.957C415.244 405.957 414.224 405.739 413.35 405.301C412.476 404.849 411.796 404.217 411.31 403.407C410.824 402.597 410.582 401.667 410.582 400.614V393.086C410.582 392.001 410.824 391.061 411.31 390.269C411.796 389.476 412.476 388.86 413.35 388.423C414.224 387.97 415.244 387.743 416.41 387.743C417.576 387.743 418.596 387.97 419.47 388.423C420.344 388.86 421.024 389.483 421.51 390.293C421.996 391.086 422.239 392.017 422.239 393.086V400.614C422.239 401.667 422.012 402.597 421.559 403.407C421.122 404.2 420.482 404.807 419.64 405.229L422.627 410.086H418.839ZM416.41 402.776C417.17 402.776 417.722 402.59 418.062 402.217C418.417 401.844 418.596 401.31 418.596 400.614V393.086C418.596 392.373 418.409 391.831 418.037 391.459C417.664 391.086 417.122 390.9 416.41 390.9C415.713 390.9 415.172 391.086 414.783 391.459C414.41 391.831 414.224 392.373 414.224 393.086V400.614C414.224 401.31 414.402 401.844 414.759 402.217C415.114 402.59 415.664 402.776 416.41 402.776ZM426.479 405.714V387.986H430.122V402.436H437.286V405.714H426.479Z" fill="black"/>
<path d="M383.451 485.829C382.864 485.829 382.35 485.726 381.909 485.52C381.474 485.314 381.136 485.024 380.891 484.651C380.656 484.27 380.537 483.824 380.537 483.314H382.206C382.206 483.627 382.316 483.879 382.537 484.069C382.766 484.251 383.07 484.343 383.451 484.343C383.824 484.343 384.114 484.256 384.32 484.08C384.533 483.897 384.64 483.657 384.64 483.36C384.64 483.124 384.571 482.914 384.434 482.731C384.297 482.541 384.096 482.416 383.829 482.354L382.811 482.114C382.156 481.961 381.634 481.669 381.246 481.234C380.864 480.793 380.674 480.267 380.674 479.657C380.674 479.161 380.781 478.736 380.994 478.377C381.216 478.019 381.527 477.744 381.931 477.554C382.343 477.356 382.827 477.257 383.383 477.257C383.947 477.257 384.43 477.356 384.834 477.554C385.246 477.744 385.561 478.019 385.783 478.377C386.011 478.736 386.126 479.159 386.126 479.646H384.457C384.457 479.356 384.361 479.131 384.171 478.971C383.981 478.804 383.719 478.72 383.383 478.72C383.056 478.72 382.8 478.8 382.617 478.96C382.434 479.12 382.343 479.333 382.343 479.6C382.343 479.821 382.411 480 382.549 480.137C382.686 480.274 382.88 480.373 383.131 480.434L384.183 480.674C384.839 480.819 385.356 481.136 385.737 481.623C386.126 482.103 386.32 482.681 386.32 483.36C386.32 483.856 386.201 484.29 385.966 484.663C385.737 485.036 385.406 485.326 384.971 485.531C384.544 485.73 384.039 485.829 383.451 485.829ZM389.424 485.714V478.914H387.31V477.371H393.253V478.914H391.139V485.714H389.424ZM397.134 485.829C396.296 485.829 395.629 485.593 395.134 485.12C394.639 484.647 394.391 484.007 394.391 483.2V479.886C394.391 479.07 394.639 478.43 395.134 477.966C395.629 477.493 396.296 477.257 397.134 477.257C397.971 477.257 398.639 477.493 399.134 477.966C399.629 478.43 399.877 479.07 399.877 479.886V483.2C399.877 484.007 399.629 484.647 399.134 485.12C398.639 485.593 397.971 485.829 397.134 485.829ZM397.134 484.343C397.477 484.343 397.731 484.256 397.9 484.08C398.074 483.897 398.163 483.641 398.163 483.314V479.771C398.163 479.436 398.079 479.181 397.911 479.006C397.743 478.83 397.484 478.743 397.134 478.743C396.783 478.743 396.524 478.83 396.357 479.006C396.189 479.181 396.106 479.436 396.106 479.771V483.314C396.106 483.641 396.189 483.897 396.357 484.08C396.531 484.256 396.791 484.343 397.134 484.343ZM401.313 485.714V477.371H403.987C404.581 477.371 405.096 477.474 405.53 477.68C405.964 477.886 406.299 478.179 406.536 478.56C406.779 478.941 406.901 479.39 406.901 479.909C406.901 480.45 406.767 480.933 406.501 481.36C406.241 481.787 405.887 482.096 405.439 482.286L407.016 485.714H405.153L403.804 482.56H403.004V485.714H401.313ZM403.004 481.074H403.987C404.367 481.074 404.661 480.979 404.867 480.789C405.08 480.599 405.187 480.331 405.187 479.989C405.187 479.63 405.08 479.353 404.867 479.154C404.661 478.956 404.367 478.857 403.987 478.857H403.004V481.074ZM408.326 485.714V477.371H413.469V478.857H410.006V480.731H413.069V482.149H410.006V484.229H413.469V485.714H408.326ZM421.87 485.714V477.371H424.716C425.303 477.371 425.813 477.481 426.247 477.703C426.69 477.924 427.029 478.233 427.264 478.629C427.509 479.024 427.63 479.49 427.63 480.023C427.63 480.549 427.509 481.013 427.264 481.417C427.021 481.813 426.681 482.121 426.247 482.343C425.813 482.564 425.303 482.674 424.716 482.674H423.584V485.714H421.87ZM423.584 481.189H424.716C425.081 481.189 425.371 481.079 425.584 480.857C425.806 480.636 425.916 480.359 425.916 480.023C425.916 479.687 425.806 479.41 425.584 479.189C425.371 478.967 425.081 478.857 424.716 478.857H423.584V481.189ZM428.723 485.714V477.371H431.397C431.991 477.371 432.506 477.474 432.94 477.68C433.374 477.886 433.71 478.179 433.946 478.56C434.19 478.941 434.311 479.39 434.311 479.909C434.311 480.45 434.179 480.933 433.911 481.36C433.653 481.787 433.299 482.096 432.849 482.286L434.426 485.714H432.563L431.214 482.56H430.414V485.714H428.723ZM430.414 481.074H431.397C431.779 481.074 432.071 480.979 432.277 480.789C432.49 480.599 432.597 480.331 432.597 479.989C432.597 479.63 432.49 479.353 432.277 479.154C432.071 478.956 431.779 478.857 431.397 478.857H430.414V481.074ZM438.25 485.829C437.411 485.829 436.746 485.593 436.25 485.12C435.754 484.647 435.507 484.007 435.507 483.2V479.886C435.507 479.07 435.754 478.43 436.25 477.966C436.746 477.493 437.411 477.257 438.25 477.257C439.089 477.257 439.754 477.493 440.25 477.966C440.746 478.43 440.993 479.07 440.993 479.886V483.2C440.993 484.007 440.746 484.647 440.25 485.12C439.754 485.593 439.089 485.829 438.25 485.829ZM438.25 484.343C438.593 484.343 438.849 484.256 439.016 484.08C439.191 483.897 439.279 483.641 439.279 483.314V479.771C439.279 479.436 439.194 479.181 439.027 479.006C438.86 478.83 438.6 478.743 438.25 478.743C437.9 478.743 437.64 478.83 437.473 479.006C437.306 479.181 437.221 479.436 437.221 479.771V483.314C437.221 483.641 437.306 483.897 437.473 484.08C437.649 484.256 437.907 484.343 438.25 484.343ZM442.474 485.714V477.371H447.846V478.971H444.166V480.823H447.549V482.423H444.189V485.714H442.474ZM449.441 485.714V484.171H451.099V478.914H449.441V477.371H454.47V478.914H452.813V484.171H454.47V485.714H449.441ZM456.694 485.714V477.371H458.409V484.171H461.78V485.714H456.694ZM463.147 485.714V477.371H468.29V478.857H464.827V480.731H467.89V482.149H464.827V484.229H468.29V485.714H463.147ZM472.536 485.829C471.95 485.829 471.436 485.726 470.993 485.52C470.559 485.314 470.22 485.024 469.976 484.651C469.74 484.27 469.621 483.824 469.621 483.314H471.29C471.29 483.627 471.401 483.879 471.621 484.069C471.85 484.251 472.156 484.343 472.536 484.343C472.91 484.343 473.199 484.256 473.404 484.08C473.619 483.897 473.724 483.657 473.724 483.36C473.724 483.124 473.656 482.914 473.519 482.731C473.381 482.541 473.18 482.416 472.913 482.354L471.896 482.114C471.241 481.961 470.719 481.669 470.33 481.234C469.95 480.793 469.759 480.267 469.759 479.657C469.759 479.161 469.866 478.736 470.079 478.377C470.3 478.019 470.613 477.744 471.016 477.554C471.427 477.356 471.911 477.257 472.467 477.257C473.031 477.257 473.516 477.356 473.919 477.554C474.33 477.744 474.647 478.019 474.867 478.377C475.096 478.736 475.21 479.159 475.21 479.646H473.541C473.541 479.356 473.447 479.131 473.256 478.971C473.066 478.804 472.803 478.72 472.467 478.72C472.14 478.72 471.884 478.8 471.701 478.96C471.519 479.12 471.427 479.333 471.427 479.6C471.427 479.821 471.496 480 471.633 480.137C471.77 480.274 471.964 480.373 472.216 480.434L473.267 480.674C473.923 480.819 474.441 481.136 474.821 481.623C475.21 482.103 475.404 482.681 475.404 483.36C475.404 483.856 475.287 484.29 475.05 484.663C474.821 485.036 474.49 485.326 474.056 485.531C473.63 485.73 473.123 485.829 472.536 485.829ZM383.451 497.257C382.864 497.257 382.35 497.154 381.909 496.949C381.474 496.743 381.136 496.453 380.891 496.08C380.656 495.699 380.537 495.253 380.537 494.743H382.206C382.206 495.056 382.316 495.307 382.537 495.497C382.766 495.68 383.07 495.771 383.451 495.771C383.824 495.771 384.114 495.684 384.32 495.509C384.533 495.326 384.64 495.086 384.64 494.789C384.64 494.553 384.571 494.343 384.434 494.16C384.297 493.97 384.096 493.844 383.829 493.783L382.811 493.543C382.156 493.39 381.634 493.097 381.246 492.663C380.864 492.221 380.674 491.696 380.674 491.086C380.674 490.59 380.781 490.164 380.994 489.806C381.216 489.447 381.527 489.173 381.931 488.983C382.343 488.784 382.827 488.686 383.383 488.686C383.947 488.686 384.43 488.784 384.834 488.983C385.246 489.173 385.561 489.447 385.783 489.806C386.011 490.164 386.126 490.587 386.126 491.074H384.457C384.457 490.784 384.361 490.56 384.171 490.4C383.981 490.233 383.719 490.149 383.383 490.149C383.056 490.149 382.8 490.229 382.617 490.389C382.434 490.549 382.343 490.761 382.343 491.029C382.343 491.25 382.411 491.429 382.549 491.566C382.686 491.703 382.88 491.801 383.131 491.863L384.183 492.103C384.839 492.247 385.356 492.564 385.737 493.051C386.126 493.531 386.32 494.11 386.32 494.789C386.32 495.284 386.201 495.719 385.966 496.091C385.737 496.464 385.406 496.754 384.971 496.96C384.544 497.159 384.039 497.257 383.451 497.257ZM389.424 497.143V490.343H387.31V488.8H393.253V490.343H391.139V497.143H389.424ZM397.134 497.257C396.296 497.257 395.629 497.021 395.134 496.549C394.639 496.076 394.391 495.436 394.391 494.629V491.314C394.391 490.499 394.639 489.859 395.134 489.394C395.629 488.921 396.296 488.686 397.134 488.686C397.971 488.686 398.639 488.921 399.134 489.394C399.629 489.859 399.877 490.499 399.877 491.314V494.629C399.877 495.436 399.629 496.076 399.134 496.549C398.639 497.021 397.971 497.257 397.134 497.257ZM397.134 495.771C397.477 495.771 397.731 495.684 397.9 495.509C398.074 495.326 398.163 495.07 398.163 494.743V491.2C398.163 490.864 398.079 490.61 397.911 490.434C397.743 490.259 397.484 490.171 397.134 490.171C396.783 490.171 396.524 490.259 396.357 490.434C396.189 490.61 396.106 490.864 396.106 491.2V494.743C396.106 495.07 396.189 495.326 396.357 495.509C396.531 495.684 396.791 495.771 397.134 495.771ZM401.313 497.143V488.8H403.987C404.581 488.8 405.096 488.903 405.53 489.109C405.964 489.314 406.299 489.607 406.536 489.989C406.779 490.37 406.901 490.819 406.901 491.337C406.901 491.879 406.767 492.361 406.501 492.789C406.241 493.216 405.887 493.524 405.439 493.714L407.016 497.143H405.153L403.804 493.989H403.004V497.143H401.313ZM403.004 492.503H403.987C404.367 492.503 404.661 492.407 404.867 492.217C405.08 492.027 405.187 491.76 405.187 491.417C405.187 491.059 405.08 490.781 404.867 490.583C404.661 490.384 404.367 490.286 403.987 490.286H403.004V492.503ZM408.326 497.143V488.8H413.469V490.286H410.006V492.16H413.069V493.577H410.006V495.657H413.469V497.143H408.326ZM421.836 497.143V488.8H424.544C425.124 488.8 425.627 488.91 426.053 489.131C426.487 489.353 426.823 489.664 427.059 490.069C427.303 490.464 427.424 490.933 427.424 491.474V494.457C427.424 494.99 427.303 495.459 427.059 495.863C426.823 496.267 426.487 496.583 426.053 496.811C425.627 497.033 425.124 497.143 424.544 497.143H421.836ZM423.55 495.6H424.544C424.887 495.6 425.166 495.493 425.379 495.28C425.6 495.067 425.71 494.793 425.71 494.457V491.474C425.71 491.139 425.6 490.869 425.379 490.663C425.166 490.45 424.887 490.343 424.544 490.343H423.55V495.6ZM428.254 497.143L430.3 488.8H432.471L434.54 497.143H432.791L432.391 495.257H430.403L430.003 497.143H428.254ZM430.689 493.886H432.094L431.694 491.874C431.641 491.584 431.584 491.299 431.523 491.017C431.47 490.727 431.427 490.503 431.397 490.343C431.367 490.503 431.324 490.724 431.271 491.006C431.226 491.287 431.173 491.573 431.111 491.863L430.689 493.886ZM437.393 497.143V490.343H435.279V488.8H441.221V490.343H439.107V497.143H437.393ZM441.96 497.143L444.006 488.8H446.177L448.246 497.143H446.497L446.097 495.257H444.109L443.709 497.143H441.96ZM444.394 493.886H445.8L445.4 491.874C445.347 491.584 445.29 491.299 445.229 491.017C445.176 490.727 445.133 490.503 445.103 490.343C445.073 490.503 445.03 490.724 444.977 491.006C444.931 491.287 444.879 491.573 444.817 491.863L444.394 493.886Z" fill="#295273"/>
<path d="M258.986 549.286C260.168 549.286 261.128 548.326 261.128 547.143C261.128 545.96 260.168 545 258.986 545V549.286ZM341.843 545C340.658 545 339.7 545.96 339.7 547.143C339.7 548.326 340.658 549.286 341.843 549.286V545ZM200 549.286H258.986V545H200V549.286ZM341.843 549.286H408.571V545H341.843V549.286ZM408.571 549.286C425.534 549.286 439.286 535.534 439.286 518.571H435C435 533.167 423.167 545 408.571 545V549.286ZM169.286 518.571C169.286 535.534 183.037 549.286 200 549.286V545C185.404 545 173.571 533.167 173.571 518.571H169.286Z" fill="#64B5F6"/>
<path d="M283.627 541.571C282.894 541.571 282.251 541.443 281.699 541.186C281.156 540.929 280.733 540.567 280.427 540.1C280.133 539.624 279.984 539.067 279.984 538.429H282.07C282.07 538.819 282.209 539.133 282.484 539.371C282.77 539.6 283.151 539.714 283.627 539.714C284.094 539.714 284.456 539.604 284.713 539.386C284.98 539.157 285.113 538.857 285.113 538.486C285.113 538.19 285.027 537.929 284.856 537.7C284.684 537.461 284.433 537.304 284.099 537.229L282.827 536.929C282.009 536.739 281.356 536.371 280.87 535.829C280.394 535.276 280.156 534.619 280.156 533.857C280.156 533.239 280.29 532.704 280.556 532.257C280.833 531.81 281.223 531.467 281.727 531.229C282.241 530.981 282.847 530.857 283.541 530.857C284.247 530.857 284.851 530.981 285.356 531.229C285.87 531.467 286.266 531.81 286.541 532.257C286.827 532.704 286.97 533.233 286.97 533.843H284.884C284.884 533.481 284.766 533.2 284.527 533C284.29 532.79 283.961 532.686 283.541 532.686C283.133 532.686 282.813 532.786 282.584 532.986C282.356 533.186 282.241 533.453 282.241 533.786C282.241 534.061 282.327 534.286 282.499 534.457C282.67 534.629 282.913 534.753 283.227 534.829L284.541 535.129C285.361 535.31 286.009 535.704 286.484 536.314C286.97 536.914 287.213 537.639 287.213 538.486C287.213 539.104 287.066 539.647 286.77 540.114C286.484 540.581 286.07 540.943 285.527 541.2C284.994 541.447 284.361 541.571 283.627 541.571ZM290.936 541.429V532.929H288.293V531H295.721V532.929H293.079V541.429H290.936ZM300.417 541.571C299.369 541.571 298.536 541.276 297.917 540.686C297.297 540.096 296.989 539.296 296.989 538.286V534.143C296.989 533.124 297.297 532.324 297.917 531.743C298.536 531.153 299.369 530.857 300.417 530.857C301.464 530.857 302.297 531.153 302.917 531.743C303.536 532.324 303.846 533.124 303.846 534.143V538.286C303.846 539.296 303.536 540.096 302.917 540.686C302.297 541.276 301.464 541.571 300.417 541.571ZM300.417 539.714C300.846 539.714 301.164 539.604 301.374 539.386C301.593 539.157 301.703 538.839 301.703 538.429V534C301.703 533.581 301.597 533.261 301.389 533.043C301.179 532.824 300.854 532.714 300.417 532.714C299.979 532.714 299.654 532.824 299.446 533.043C299.236 533.261 299.131 533.581 299.131 534V538.429C299.131 538.839 299.236 539.157 299.446 539.386C299.664 539.604 299.989 539.714 300.417 539.714ZM305.483 541.429V531H308.826C309.569 531 310.211 531.129 310.754 531.386C311.297 531.643 311.716 532.01 312.011 532.486C312.316 532.961 312.469 533.524 312.469 534.171C312.469 534.847 312.301 535.453 311.969 535.986C311.644 536.519 311.201 536.904 310.64 537.143L312.611 541.429H310.283L308.597 537.486H307.597V541.429H305.483ZM307.597 535.629H308.826C309.301 535.629 309.669 535.51 309.926 535.271C310.191 535.033 310.326 534.7 310.326 534.271C310.326 533.824 310.191 533.476 309.926 533.229C309.669 532.981 309.301 532.857 308.826 532.857H307.597V535.629ZM314.091 541.429V531H320.52V532.857H316.191V535.2H320.02V536.971H316.191V539.571H320.52V541.429H314.091ZM267.643 562.857V552.429H271.2C271.934 552.429 272.571 552.567 273.114 552.843C273.667 553.119 274.091 553.504 274.386 554C274.691 554.496 274.843 555.076 274.843 555.743C274.843 556.4 274.691 556.981 274.386 557.486C274.081 557.981 273.657 558.367 273.114 558.643C272.571 558.919 271.934 559.057 271.2 559.057H269.786V562.857H267.643ZM269.786 557.2H271.2C271.657 557.2 272.02 557.061 272.286 556.786C272.563 556.51 272.7 556.161 272.7 555.743C272.7 555.324 272.563 554.976 272.286 554.7C272.02 554.424 271.657 554.286 271.2 554.286H269.786V557.2ZM276.051 562.857V552.429H279.394C280.137 552.429 280.78 552.557 281.323 552.814C281.866 553.071 282.286 553.439 282.58 553.914C282.886 554.39 283.037 554.953 283.037 555.6C283.037 556.276 282.871 556.881 282.537 557.414C282.214 557.947 281.771 558.333 281.209 558.571L283.18 562.857H280.851L279.166 558.914H278.166V562.857H276.051ZM278.166 557.057H279.394C279.871 557.057 280.237 556.939 280.494 556.7C280.761 556.461 280.894 556.129 280.894 555.7C280.894 555.253 280.761 554.904 280.494 554.657C280.237 554.41 279.871 554.286 279.394 554.286H278.166V557.057ZM287.803 563C286.756 563 285.923 562.704 285.303 562.114C284.684 561.524 284.374 560.724 284.374 559.714V555.571C284.374 554.553 284.684 553.753 285.303 553.171C285.923 552.581 286.756 552.286 287.803 552.286C288.851 552.286 289.684 552.581 290.303 553.171C290.923 553.753 291.231 554.553 291.231 555.571V559.714C291.231 560.724 290.923 561.524 290.303 562.114C289.684 562.704 288.851 563 287.803 563ZM287.803 561.143C288.231 561.143 288.551 561.033 288.76 560.814C288.98 560.586 289.089 560.267 289.089 559.857V555.429C289.089 555.01 288.984 554.69 288.774 554.471C288.566 554.253 288.241 554.143 287.803 554.143C287.366 554.143 287.041 554.253 286.831 554.471C286.623 554.69 286.517 555.01 286.517 555.429V559.857C286.517 560.267 286.623 560.586 286.831 560.814C287.051 561.033 287.374 561.143 287.803 561.143ZM292.926 562.857V552.429H299.64V554.429H295.04V556.743H299.269V558.743H295.069V562.857H292.926ZM301.479 562.857V560.929H303.55V554.357H301.479V552.429H307.764V554.357H305.693V560.929H307.764V562.857H301.479ZM310.387 562.857V552.429H312.53V560.929H316.744V562.857H310.387ZM318.296 562.857V552.429H324.724V554.286H320.396V556.629H324.224V558.4H320.396V561H324.724V562.857H318.296ZM329.876 563C329.141 563 328.499 562.871 327.947 562.614C327.404 562.357 326.98 561.996 326.676 561.529C326.38 561.053 326.233 560.496 326.233 559.857H328.319C328.319 560.247 328.456 560.561 328.733 560.8C329.019 561.029 329.399 561.143 329.876 561.143C330.341 561.143 330.704 561.033 330.961 560.814C331.227 560.586 331.361 560.286 331.361 559.914C331.361 559.619 331.276 559.357 331.104 559.129C330.933 558.89 330.68 558.733 330.347 558.657L329.076 558.357C328.256 558.167 327.604 557.8 327.119 557.257C326.641 556.704 326.404 556.047 326.404 555.286C326.404 554.667 326.537 554.133 326.804 553.686C327.08 553.239 327.47 552.896 327.976 552.657C328.49 552.41 329.094 552.286 329.79 552.286C330.494 552.286 331.099 552.41 331.604 552.657C332.119 552.896 332.513 553.239 332.79 553.686C333.076 554.133 333.219 554.661 333.219 555.271H331.133C331.133 554.91 331.013 554.629 330.776 554.429C330.537 554.219 330.209 554.114 329.79 554.114C329.38 554.114 329.061 554.214 328.833 554.414C328.604 554.614 328.49 554.881 328.49 555.214C328.49 555.49 328.576 555.714 328.747 555.886C328.919 556.057 329.161 556.181 329.476 556.257L330.79 556.557C331.609 556.739 332.256 557.133 332.733 557.743C333.219 558.343 333.461 559.067 333.461 559.914C333.461 560.533 333.313 561.076 333.019 561.543C332.733 562.01 332.319 562.371 331.776 562.629C331.241 562.876 330.609 563 329.876 563Z" fill="#4989BD"/>
<path d="M59.2857 328.941C59.2857 327.759 58.3263 326.799 57.1429 326.799C55.9594 326.799 55 327.759 55 328.941H59.2857ZM55 271.799C55 272.983 55.9594 273.941 57.1429 273.941C58.3263 273.941 59.2857 272.983 59.2857 271.799H55ZM94.2857 439.286H91.4286V443.571H94.2857V439.286ZM59.2857 407.143V328.941H55V407.143H59.2857ZM59.2857 271.799V190H55V271.799H59.2857ZM91.4286 157.857H94.2857V153.571H91.4286V157.857ZM59.2857 190C59.2857 172.249 73.6766 157.857 91.4286 157.857V153.571C71.3096 153.571 55 169.881 55 190H59.2857ZM91.4286 439.286C73.6766 439.286 59.2857 424.894 59.2857 407.143H55C55 427.261 71.3096 443.571 91.4286 443.571V439.286Z" fill="#D3B8FF"/>
<path d="M32.4381 294.656V284.227H35.0524L36.1095 288.684L37.1667 284.227H39.8095V294.656H37.8524V290.656C37.8524 289.961 37.8715 289.28 37.9095 288.613C37.9572 287.947 38.0144 287.313 38.0809 286.713C38.1477 286.113 38.2095 285.57 38.2667 285.084L36.9524 290.227H35.2381L33.9524 285.213C34.0191 285.623 34.0858 286.113 34.1524 286.684C34.2191 287.256 34.2762 287.88 34.3238 288.556C34.3715 289.223 34.3952 289.923 34.3952 290.656V294.656H32.4381ZM40.6039 294.656L43.1611 284.227H45.8754L48.4611 294.656H46.2754L45.7754 292.299H43.2897L42.7897 294.656H40.6039ZM43.6468 290.584H45.4039L44.9039 288.07C44.8372 287.709 44.7658 287.351 44.6897 286.999C44.6229 286.637 44.5707 286.356 44.5325 286.156C44.4944 286.356 44.4421 286.633 44.3754 286.984C44.3182 287.337 44.2515 287.694 44.1754 288.056L43.6468 290.584ZM49.5127 294.656V284.227H52.0127L54.7127 292.299C54.6841 291.947 54.6508 291.541 54.6127 291.084C54.5745 290.619 54.5412 290.156 54.5127 289.699C54.4937 289.233 54.4841 288.837 54.4841 288.513V284.227H56.3698V294.656H53.8698L51.1984 286.584C51.2269 286.89 51.2555 287.251 51.2841 287.67C51.3127 288.09 51.3365 288.513 51.3555 288.941C51.3841 289.37 51.3984 289.751 51.3984 290.084V294.656H49.5127ZM57.4214 294.656L59.9785 284.227H62.6928L65.2785 294.656H63.0928L62.5928 292.299H60.1071L59.6071 294.656H57.4214ZM60.4642 290.584H62.2214L61.7214 288.07C61.6547 287.709 61.5832 287.351 61.5071 286.999C61.4404 286.637 61.3881 286.356 61.3499 286.156C61.3118 286.356 61.2595 286.633 61.1928 286.984C61.1357 287.337 61.0689 287.694 60.9928 288.056L60.4642 290.584ZM69.8158 294.799C69.1205 294.799 68.5111 294.67 67.9872 294.413C67.4634 294.147 67.0539 293.78 66.7587 293.313C66.4729 292.837 66.3301 292.284 66.3301 291.656V287.227C66.3301 286.59 66.4729 286.037 66.7587 285.57C67.0539 285.104 67.4634 284.741 67.9872 284.484C68.5111 284.219 69.1205 284.084 69.8158 284.084C70.5205 284.084 71.1301 284.219 71.6444 284.484C72.1682 284.741 72.5729 285.104 72.8587 285.57C73.1539 286.037 73.3015 286.59 73.3015 287.227H71.1587C71.1587 286.809 71.0397 286.49 70.8015 286.27C70.5729 286.051 70.2444 285.941 69.8158 285.941C69.3872 285.941 69.0539 286.051 68.8158 286.27C68.5872 286.49 68.4729 286.809 68.4729 287.227V291.656C68.4729 292.066 68.5872 292.384 68.8158 292.613C69.0539 292.833 69.3872 292.941 69.8158 292.941C70.2444 292.941 70.5729 292.833 70.8015 292.613C71.0397 292.384 71.1587 292.066 71.1587 291.656V290.684H69.6158V288.87H73.3015V291.656C73.3015 292.284 73.1539 292.837 72.8587 293.313C72.5729 293.78 72.1682 294.147 71.6444 294.413C71.1301 294.67 70.5205 294.799 69.8158 294.799ZM75.0245 294.656V284.227H81.4531V286.084H77.1245V288.427H80.9531V290.199H77.1245V292.799H81.4531V294.656H75.0245ZM28.5767 316.084V305.656H32.1338C32.8671 305.656 33.5052 305.794 34.0481 306.07C34.6004 306.347 35.0242 306.733 35.3195 307.227C35.6242 307.723 35.7767 308.304 35.7767 308.97C35.7767 309.627 35.6242 310.209 35.3195 310.713C35.0147 311.209 34.5909 311.594 34.0481 311.87C33.5052 312.147 32.8671 312.284 32.1338 312.284H30.7195V316.084H28.5767ZM30.7195 310.427H32.1338C32.5909 310.427 32.9528 310.29 33.2195 310.013C33.4957 309.737 33.6338 309.39 33.6338 308.97C33.6338 308.551 33.4957 308.204 33.2195 307.927C32.9528 307.651 32.5909 307.513 32.1338 307.513H30.7195V310.427ZM36.9854 316.084V305.656H40.3282C41.0711 305.656 41.7139 305.784 42.2568 306.041C42.7997 306.299 43.2187 306.666 43.5139 307.141C43.8187 307.619 43.9711 308.18 43.9711 308.827C43.9711 309.504 43.8044 310.109 43.4711 310.641C43.1472 311.176 42.7044 311.561 42.1425 311.799L44.1139 316.084H41.7854L40.0997 312.141H39.0997V316.084H36.9854ZM39.0997 310.284H40.3282C40.8044 310.284 41.1711 310.166 41.4282 309.927C41.6948 309.69 41.8282 309.356 41.8282 308.927C41.8282 308.48 41.6948 308.133 41.4282 307.884C41.1711 307.637 40.8044 307.513 40.3282 307.513H39.0997V310.284ZM48.7369 316.227C47.6892 316.227 46.8559 315.933 46.2369 315.341C45.6178 314.751 45.3084 313.951 45.3084 312.941V308.799C45.3084 307.78 45.6178 306.98 46.2369 306.399C46.8559 305.809 47.6892 305.513 48.7369 305.513C49.7845 305.513 50.6178 305.809 51.2369 306.399C51.8559 306.98 52.1655 307.78 52.1655 308.799V312.941C52.1655 313.951 51.8559 314.751 51.2369 315.341C50.6178 315.933 49.7845 316.227 48.7369 316.227ZM48.7369 314.37C49.1655 314.37 49.4845 314.261 49.6941 314.041C49.9131 313.813 50.0227 313.494 50.0227 313.084V308.656C50.0227 308.237 49.9178 307.919 49.7084 307.699C49.4988 307.48 49.1749 307.37 48.7369 307.37C48.2988 307.37 47.9749 307.48 47.7655 307.699C47.5559 307.919 47.4512 308.237 47.4512 308.656V313.084C47.4512 313.494 47.5559 313.813 47.7655 314.041C47.9845 314.261 48.3084 314.37 48.7369 314.37ZM53.8599 316.084V305.656H60.5742V307.656H55.9742V309.97H60.2028V311.97H56.0028V316.084H53.8599ZM62.4114 316.084V314.156H64.4828V307.584H62.4114V305.656H68.6971V307.584H66.6257V314.156H68.6971V316.084H62.4114ZM71.3201 316.084V305.656H73.4629V314.156H77.6772V316.084H71.3201ZM79.2288 316.084V305.656H85.6574V307.513H81.3288V309.856H85.1574V311.627H81.3288V314.227H85.6574V316.084H79.2288Z" fill="#8B62CE"/>
<path d="M267.547 53.5714C268.731 53.5714 269.69 52.612 269.69 51.4286C269.69 50.2451 268.731 49.2857 267.547 49.2857V53.5714ZM333.261 49.2857C332.079 49.2857 331.119 50.2451 331.119 51.4286C331.119 52.612 332.079 53.5714 333.261 53.5714V49.2857ZM198.571 53.5714H267.547V49.2857H198.571V53.5714ZM333.261 53.5714H410V49.2857H333.261V53.5714ZM410 53.5714C423.807 53.5714 435 64.7643 435 78.5714H439.286C439.286 62.3974 426.174 49.2857 410 49.2857V53.5714ZM173.571 78.5714C173.571 64.7643 184.764 53.5714 198.571 53.5714V49.2857C182.397 49.2857 169.286 62.3974 169.286 78.5714H173.571Z" fill="#D3B8FF"/>
<path d="M275.7 45.7143V35.2857H278.314L279.371 39.7428L280.429 35.2857H283.071V45.7143H281.114V41.7143C281.114 41.019 281.133 40.3381 281.171 39.6714C281.219 39.0047 281.276 38.3714 281.343 37.7714C281.41 37.1714 281.471 36.6285 281.529 36.1428L280.214 41.2857H278.5L277.214 36.2714C277.281 36.681 277.347 37.1714 277.414 37.7428C277.481 38.3143 277.539 38.9381 277.586 39.6142C277.633 40.281 277.657 40.981 277.657 41.7143V45.7143H275.7ZM283.866 45.7143L286.423 35.2857H289.137L291.723 45.7143H289.537L289.037 43.3571H286.551L286.051 45.7143H283.866ZM286.909 41.6428H288.666L288.166 39.1285C288.099 38.7667 288.027 38.4095 287.951 38.0571C287.884 37.6952 287.833 37.4142 287.794 37.2142C287.756 37.4142 287.704 37.6904 287.637 38.0428C287.58 38.3952 287.513 38.7524 287.437 39.1142L286.909 41.6428ZM292.774 45.7143V35.2857H295.274L297.974 43.3571C297.946 43.0047 297.913 42.6 297.874 42.1428C297.836 41.6761 297.803 41.2143 297.774 40.7571C297.756 40.2904 297.746 39.8953 297.746 39.5714V35.2857H299.631V45.7143H297.131L294.46 37.6428C294.489 37.9475 294.517 38.3095 294.546 38.7285C294.574 39.1475 294.599 39.5714 294.617 40C294.646 40.4285 294.66 40.8095 294.66 41.1428V45.7143H292.774ZM300.683 45.7143L303.24 35.2857H305.954L308.54 45.7143H306.354L305.854 43.3571H303.369L302.869 45.7143H300.683ZM303.726 41.6428H305.483L304.983 39.1285C304.917 38.7667 304.846 38.4095 304.769 38.0571C304.703 37.6952 304.65 37.4142 304.611 37.2142C304.574 37.4142 304.521 37.6904 304.454 38.0428C304.397 38.3952 304.331 38.7524 304.254 39.1142L303.726 41.6428ZM313.077 45.8571C312.383 45.8571 311.773 45.7285 311.249 45.4714C310.726 45.2047 310.316 44.8381 310.02 44.3714C309.734 43.8952 309.591 43.3428 309.591 42.7142V38.2857C309.591 37.6475 309.734 37.0952 310.02 36.6285C310.316 36.1618 310.726 35.8 311.249 35.5428C311.773 35.2761 312.383 35.1428 313.077 35.1428C313.783 35.1428 314.391 35.2761 314.906 35.5428C315.43 35.8 315.834 36.1618 316.12 36.6285C316.416 37.0952 316.563 37.6475 316.563 38.2857H314.42C314.42 37.8667 314.301 37.5475 314.063 37.3285C313.834 37.1095 313.506 37 313.077 37C312.649 37 312.316 37.1095 312.077 37.3285C311.849 37.5475 311.734 37.8667 311.734 38.2857V42.7142C311.734 43.1238 311.849 43.4428 312.077 43.6714C312.316 43.8904 312.649 44 313.077 44C313.506 44 313.834 43.8904 314.063 43.6714C314.301 43.4428 314.42 43.1238 314.42 42.7142V41.7428H312.877V39.9285H316.563V42.7142C316.563 43.3428 316.416 43.8952 316.12 44.3714C315.834 44.8381 315.43 45.2047 314.906 45.4714C314.391 45.7285 313.783 45.8571 313.077 45.8571ZM318.286 45.7143V35.2857H324.714V37.1428H320.386V39.4857H324.214V41.2571H320.386V43.8571H324.714V45.7143H318.286ZM284.409 67.1428V56.7143H287.794C288.519 56.7143 289.147 56.8524 289.68 57.1285C290.223 57.4047 290.641 57.7953 290.937 58.3C291.241 58.7953 291.394 59.381 291.394 60.0571V63.7857C291.394 64.4524 291.241 65.0381 290.937 65.5428C290.641 66.0475 290.223 66.4428 289.68 66.7285C289.147 67.0047 288.519 67.1428 287.794 67.1428H284.409ZM286.551 65.2143H287.794C288.223 65.2143 288.57 65.081 288.837 64.8142C289.113 64.5475 289.251 64.2047 289.251 63.7857V60.0571C289.251 59.6381 289.113 59.3 288.837 59.0428C288.57 58.7761 288.223 58.6428 287.794 58.6428H286.551V65.2143ZM292.274 67.1428L294.831 56.7143H297.546L300.131 67.1428H297.946L297.446 64.7857H294.96L294.46 67.1428H292.274ZM295.317 63.0714H297.074L296.574 60.5571C296.507 60.1953 296.436 59.8381 296.36 59.4857C296.293 59.1238 296.241 58.8428 296.203 58.6428C296.164 58.8428 296.113 59.119 296.046 59.4714C295.989 59.8238 295.921 60.181 295.846 60.5428L295.317 63.0714ZM303.54 67.1428V58.6428H300.897V56.7143H308.326V58.6428H305.683V67.1428H303.54ZM309.091 67.1428L311.649 56.7143H314.363L316.949 67.1428H314.763L314.263 64.7857H311.777L311.277 67.1428H309.091ZM312.134 63.0714H313.891L313.391 60.5571C313.326 60.1953 313.254 59.8381 313.177 59.4857C313.111 59.1238 313.059 58.8428 313.02 58.6428C312.983 58.8428 312.93 59.119 312.863 59.4714C312.806 59.8238 312.74 60.181 312.663 60.5428L312.134 63.0714Z" fill="#8B62CE"/>
<path d="M173.571 329.663C173.571 328.479 172.611 327.52 171.429 327.52C170.246 327.52 169.286 328.479 169.286 329.663H173.571ZM169.286 272.52C169.286 273.703 170.246 274.663 171.429 274.663C172.611 274.663 173.571 273.703 173.571 272.52H169.286ZM173.571 364.286V329.663H169.286V364.286H173.571ZM173.571 272.52V232.857H169.286V272.52H173.571Z" fill="#7BC86F"/>
<path d="M133.649 295.52C132.954 295.52 132.345 295.391 131.821 295.134C131.297 294.867 130.887 294.5 130.592 294.034C130.306 293.557 130.164 293.006 130.164 292.377V287.949C130.164 287.31 130.306 286.757 130.592 286.291C130.887 285.824 131.297 285.463 131.821 285.206C132.345 284.939 132.954 284.806 133.649 284.806C134.354 284.806 134.964 284.939 135.478 285.206C136.002 285.463 136.406 285.824 136.692 286.291C136.987 286.757 137.135 287.31 137.135 287.949H134.992C134.992 287.529 134.873 287.21 134.635 286.991C134.406 286.771 134.078 286.663 133.649 286.663C133.221 286.663 132.887 286.771 132.649 286.991C132.421 287.21 132.306 287.529 132.306 287.949V292.377C132.306 292.786 132.421 293.106 132.649 293.334C132.887 293.553 133.221 293.663 133.649 293.663C134.078 293.663 134.406 293.553 134.635 293.334C134.873 293.106 134.992 292.786 134.992 292.377V291.406H133.449V289.591H137.135V292.377C137.135 293.006 136.987 293.557 136.692 294.034C136.406 294.5 136.002 294.867 135.478 295.134C134.964 295.391 134.354 295.52 133.649 295.52ZM138.858 295.377V284.949H145.287V286.806H140.958V289.149H144.787V290.92H140.958V293.52H145.287V295.377H138.858ZM149.339 295.377V286.877H146.696V284.949H154.124V286.877H151.481V295.377H149.339ZM155.247 296.949L160.176 283.52H162.39L157.461 296.949H155.247ZM167.227 295.52C166.17 295.52 165.331 295.234 164.713 294.663C164.103 294.091 163.799 293.31 163.799 292.32V284.949H165.941V292.306C165.941 292.743 166.051 293.081 166.27 293.32C166.499 293.549 166.817 293.663 167.227 293.663C167.627 293.663 167.941 293.549 168.17 293.32C168.399 293.081 168.513 292.743 168.513 292.306V284.949H170.656V292.32C170.656 293.3 170.346 294.081 169.727 294.663C169.117 295.234 168.284 295.52 167.227 295.52ZM172.293 295.377V284.949H175.85C176.583 284.949 177.221 285.086 177.764 285.363C178.317 285.639 178.74 286.024 179.036 286.52C179.34 287.014 179.493 287.596 179.493 288.263C179.493 288.92 179.34 289.5 179.036 290.006C178.731 290.5 178.307 290.886 177.764 291.163C177.221 291.439 176.583 291.577 175.85 291.577H174.436V295.377H172.293ZM174.436 289.72H175.85C176.307 289.72 176.669 289.581 176.936 289.306C177.211 289.029 177.35 288.681 177.35 288.263C177.35 287.843 177.211 287.496 176.936 287.22C176.669 286.943 176.307 286.806 175.85 286.806H174.436V289.72ZM180.659 295.377V284.949H184.044C184.769 284.949 185.397 285.086 185.93 285.363C186.473 285.639 186.891 286.029 187.187 286.534C187.491 287.029 187.644 287.614 187.644 288.291V292.02C187.644 292.686 187.491 293.271 187.187 293.777C186.891 294.281 186.473 294.677 185.93 294.963C185.397 295.239 184.769 295.377 184.044 295.377H180.659ZM182.801 293.449H184.044C184.473 293.449 184.82 293.314 185.087 293.049C185.363 292.781 185.501 292.439 185.501 292.02V288.291C185.501 287.871 185.363 287.534 185.087 287.277C184.82 287.01 184.473 286.877 184.044 286.877H182.801V293.449ZM188.524 295.377L191.081 284.949H193.796L196.381 295.377H194.196L193.696 293.02H191.21L190.71 295.377H188.524ZM191.567 291.306H193.324L192.824 288.791C192.759 288.429 192.687 288.071 192.61 287.72C192.544 287.357 192.491 287.077 192.453 286.877C192.416 287.077 192.363 287.353 192.296 287.706C192.239 288.057 192.173 288.414 192.096 288.777L191.567 291.306ZM199.79 295.377V286.877H197.147V284.949H204.576V286.877H201.933V295.377H199.79ZM206.127 295.377V284.949H212.556V286.806H208.227V289.149H212.056V290.92H208.227V293.52H212.556V295.377H206.127ZM149.339 316.806V308.306H146.696V306.377H154.124V308.306H151.481V316.806H149.339ZM158.819 316.949C157.77 316.949 156.937 316.653 156.319 316.063C155.699 315.471 155.39 314.671 155.39 313.663V309.52C155.39 308.5 155.699 307.7 156.319 307.12C156.937 306.529 157.77 306.234 158.819 306.234C159.866 306.234 160.699 306.529 161.319 307.12C161.937 307.7 162.247 308.5 162.247 309.52V313.663C162.247 314.671 161.937 315.471 161.319 316.063C160.699 316.653 159.866 316.949 158.819 316.949ZM158.819 315.091C159.247 315.091 159.566 314.981 159.776 314.763C159.994 314.534 160.104 314.214 160.104 313.806V309.377C160.104 308.957 159.999 308.639 159.79 308.42C159.58 308.2 159.256 308.091 158.819 308.091C158.38 308.091 158.056 308.2 157.847 308.42C157.637 308.639 157.533 308.957 157.533 309.377V313.806C157.533 314.214 157.637 314.534 157.847 314.763C158.066 314.981 158.39 315.091 158.819 315.091ZM163.87 316.806V306.377H166.013V310.463H167.013L168.756 306.377H171.07L168.899 311.306L171.156 316.806H168.813L167.027 312.334H166.013V316.806H163.87ZM172.493 316.806V306.377H178.921V308.234H174.593V310.577H178.421V312.349H174.593V314.949H178.921V316.806H172.493ZM180.616 316.806V306.377H183.116L185.816 314.449C185.787 314.096 185.754 313.691 185.716 313.234C185.677 312.767 185.644 312.306 185.616 311.849C185.597 311.381 185.587 310.986 185.587 310.663V306.377H187.473V316.806H184.973L182.301 308.734C182.33 309.039 182.359 309.4 182.387 309.82C182.416 310.239 182.44 310.663 182.459 311.091C182.487 311.52 182.501 311.9 182.501 312.234V316.806H180.616ZM192.481 316.949C191.749 316.949 191.106 316.82 190.553 316.563C190.01 316.306 189.587 315.943 189.281 315.477C188.987 315 188.839 314.443 188.839 313.806H190.924C190.924 314.196 191.063 314.51 191.339 314.749C191.624 314.977 192.006 315.091 192.481 315.091C192.949 315.091 193.31 314.981 193.567 314.763C193.834 314.534 193.967 314.234 193.967 313.863C193.967 313.567 193.881 313.306 193.71 313.077C193.539 312.839 193.287 312.681 192.953 312.606L191.681 312.306C190.863 312.114 190.21 311.749 189.724 311.206C189.249 310.653 189.01 309.996 189.01 309.234C189.01 308.614 189.144 308.081 189.41 307.634C189.687 307.186 190.077 306.843 190.581 306.606C191.096 306.357 191.701 306.234 192.396 306.234C193.101 306.234 193.706 306.357 194.21 306.606C194.724 306.843 195.12 307.186 195.396 307.634C195.681 308.081 195.824 308.61 195.824 309.22H193.739C193.739 308.857 193.62 308.577 193.381 308.377C193.144 308.167 192.816 308.063 192.396 308.063C191.987 308.063 191.667 308.163 191.439 308.363C191.21 308.563 191.096 308.829 191.096 309.163C191.096 309.439 191.181 309.663 191.353 309.834C191.524 310.006 191.767 310.129 192.081 310.206L193.396 310.506C194.216 310.686 194.863 311.081 195.339 311.691C195.824 312.291 196.067 313.014 196.067 313.863C196.067 314.481 195.92 315.024 195.624 315.491C195.339 315.957 194.924 316.32 194.381 316.577C193.849 316.824 193.216 316.949 192.481 316.949Z" fill="#5C9A53"/>
<path d="M545 271.107C545 272.291 545.96 273.25 547.143 273.25C548.326 273.25 549.286 272.291 549.286 271.107H545ZM549.286 328.25C549.286 327.067 548.326 326.107 547.143 326.107C545.96 326.107 545 327.067 545 328.25H549.286ZM545 188.571V271.107H549.286V188.571H545ZM545 328.25V408.571H549.286V328.25H545ZM545 408.571C545 425.534 531.248 439.286 514.286 439.286V443.571C533.616 443.571 549.286 427.901 549.286 408.571H545ZM514.286 157.857C531.248 157.857 545 171.609 545 188.571H549.286C549.286 169.241 533.616 153.571 514.286 153.571V157.857Z" fill="#64B5F6"/>
<path d="M530.357 294.107C529.623 294.107 528.98 293.979 528.428 293.721C527.886 293.464 527.461 293.103 527.157 292.636C526.861 292.16 526.714 291.603 526.714 290.964H528.8C528.8 291.356 528.937 291.67 529.214 291.907C529.5 292.136 529.88 292.25 530.357 292.25C530.823 292.25 531.186 292.141 531.443 291.921C531.708 291.693 531.843 291.393 531.843 291.021C531.843 290.727 531.757 290.464 531.586 290.236C531.414 289.999 531.161 289.841 530.828 289.764L529.557 289.464C528.737 289.274 528.086 288.907 527.6 288.364C527.123 287.813 526.886 287.156 526.886 286.393C526.886 285.774 527.018 285.241 527.286 284.793C527.561 284.346 527.951 284.003 528.457 283.764C528.971 283.517 529.576 283.393 530.271 283.393C530.976 283.393 531.58 283.517 532.086 283.764C532.6 284.003 532.994 284.346 533.271 284.793C533.557 285.241 533.7 285.77 533.7 286.379H531.614C531.614 286.017 531.494 285.736 531.257 285.536C531.018 285.327 530.69 285.221 530.271 285.221C529.861 285.221 529.543 285.321 529.314 285.521C529.086 285.721 528.971 285.989 528.971 286.321C528.971 286.599 529.057 286.821 529.228 286.993C529.4 287.164 529.643 287.289 529.957 287.364L531.271 287.664C532.09 287.846 532.737 288.241 533.214 288.85C533.7 289.45 533.943 290.174 533.943 291.021C533.943 291.641 533.794 292.184 533.5 292.65C533.214 293.117 532.8 293.479 532.257 293.736C531.723 293.984 531.09 294.107 530.357 294.107ZM537.666 293.964V285.464H535.023V283.536H542.451V285.464H539.808V293.964H537.666ZM547.146 294.107C546.098 294.107 545.264 293.813 544.646 293.221C544.027 292.631 543.717 291.831 543.717 290.821V286.679C543.717 285.66 544.027 284.86 544.646 284.279C545.264 283.689 546.098 283.393 547.146 283.393C548.193 283.393 549.027 283.689 549.646 284.279C550.264 284.86 550.574 285.66 550.574 286.679V290.821C550.574 291.831 550.264 292.631 549.646 293.221C549.027 293.813 548.193 294.107 547.146 294.107ZM547.146 292.25C547.574 292.25 547.893 292.141 548.103 291.921C548.321 291.693 548.431 291.374 548.431 290.964V286.536C548.431 286.117 548.327 285.799 548.117 285.579C547.907 285.36 547.584 285.25 547.146 285.25C546.707 285.25 546.384 285.36 546.174 285.579C545.964 285.799 545.86 286.117 545.86 286.536V290.964C545.86 291.374 545.964 291.693 546.174 291.921C546.393 292.141 546.717 292.25 547.146 292.25ZM552.211 293.964V283.536H555.554C556.297 283.536 556.94 283.664 557.483 283.921C558.026 284.179 558.444 284.546 558.74 285.021C559.044 285.499 559.197 286.06 559.197 286.707C559.197 287.384 559.03 287.989 558.697 288.521C558.373 289.056 557.93 289.441 557.368 289.679L559.34 293.964H557.011L555.326 290.021H554.326V293.964H552.211ZM554.326 288.164H555.554C556.03 288.164 556.397 288.046 556.654 287.807C556.921 287.57 557.054 287.236 557.054 286.807C557.054 286.36 556.921 286.013 556.654 285.764C556.397 285.517 556.03 285.393 555.554 285.393H554.326V288.164ZM560.82 293.964V283.536H567.248V285.393H562.92V287.736H566.748V289.507H562.92V292.107H567.248V293.964H560.82ZM531.147 315.393V304.964H534.533C535.256 304.964 535.884 305.103 536.418 305.379C536.961 305.656 537.38 306.046 537.676 306.55C537.98 307.046 538.133 307.631 538.133 308.307V312.036C538.133 312.703 537.98 313.289 537.676 313.793C537.38 314.299 536.961 314.693 536.418 314.979C535.884 315.256 535.256 315.393 534.533 315.393H531.147ZM533.29 313.464H534.533C534.961 313.464 535.308 313.331 535.576 313.064C535.851 312.799 535.99 312.456 535.99 312.036V308.307C535.99 307.889 535.851 307.55 535.576 307.293C535.308 307.027 534.961 306.893 534.533 306.893H533.29V313.464ZM539.013 315.393L541.57 304.964H544.284L546.87 315.393H544.684L544.184 313.036H541.698L541.198 315.393H539.013ZM542.056 311.321H543.813L543.313 308.807C543.246 308.446 543.174 308.089 543.098 307.736C543.031 307.374 542.98 307.093 542.941 306.893C542.903 307.093 542.851 307.37 542.784 307.721C542.727 308.074 542.66 308.431 542.584 308.793L542.056 311.321ZM550.278 315.393V306.893H547.636V304.964H555.064V306.893H552.421V315.393H550.278ZM555.83 315.393L558.387 304.964H561.101L563.687 315.393H561.501L561.001 313.036H558.516L558.016 315.393H555.83ZM558.873 311.321H560.63L560.13 308.807C560.063 308.446 559.991 308.089 559.916 307.736C559.848 307.374 559.797 307.093 559.758 306.893C559.72 307.093 559.668 307.37 559.601 307.721C559.544 308.074 559.477 308.431 559.401 308.793L558.873 311.321Z" fill="#4989BD"/>
<path d="M267.138 341.661C267.944 340.794 267.896 339.439 267.028 338.633C266.161 337.827 264.806 337.876 264 338.743L267.138 341.661ZM337.071 260.171C336.266 261.037 336.314 262.393 337.181 263.2C338.048 264.006 339.404 263.956 340.21 263.09L337.071 260.171ZM243.317 367.274L254.388 355.371L251.25 352.453L240.18 364.356L243.317 367.274ZM254.388 355.371L260.554 348.741L257.416 345.823L251.25 352.453L254.388 355.371ZM260.554 348.741L267.138 341.661L264 338.743L257.416 345.823L260.554 348.741ZM340.21 263.09L343.411 259.647L340.273 256.729L337.071 260.171L340.21 263.09ZM343.411 259.647L352.96 249.38L349.821 246.461L340.273 256.729L343.411 259.647ZM352.96 249.38L368.391 232.787L365.253 229.869L349.821 246.461L352.96 249.38Z" fill="#7BC86F"/>
<path d="M264.326 284.63C263.63 284.63 263.022 284.501 262.497 284.244C261.973 283.979 261.564 283.611 261.269 283.144C260.983 282.669 260.84 282.116 260.84 281.487V277.059C260.84 276.421 260.983 275.869 261.269 275.401C261.564 274.936 261.973 274.573 262.497 274.316C263.022 274.05 263.63 273.916 264.326 273.916C265.03 273.916 265.64 274.05 266.154 274.316C266.679 274.573 267.083 274.936 267.369 275.401C267.664 275.869 267.812 276.421 267.812 277.059H265.669C265.669 276.64 265.55 276.321 265.312 276.101C265.083 275.883 264.754 275.773 264.326 275.773C263.897 275.773 263.564 275.883 263.326 276.101C263.097 276.321 262.983 276.64 262.983 277.059V281.487C262.983 281.897 263.097 282.216 263.326 282.444C263.564 282.664 263.897 282.773 264.326 282.773C264.754 282.773 265.083 282.664 265.312 282.444C265.55 282.216 265.669 281.897 265.669 281.487V280.516H264.126V278.701H267.812V281.487C267.812 282.116 267.664 282.669 267.369 283.144C267.083 283.611 266.679 283.979 266.154 284.244C265.64 284.501 265.03 284.63 264.326 284.63ZM269.534 284.487V274.059H275.963V275.916H271.634V278.259H275.463V280.03H271.634V282.63H275.963V284.487H269.534ZM280.014 284.487V275.987H277.372V274.059H284.8V275.987H282.157V284.487H280.014ZM285.923 286.059L290.852 272.63H293.066L288.137 286.059H285.923ZM297.904 284.63C296.847 284.63 296.009 284.344 295.39 283.773C294.78 283.201 294.476 282.421 294.476 281.43V274.059H296.619V281.416C296.619 281.854 296.727 282.193 296.947 282.43C297.176 282.659 297.494 282.773 297.904 282.773C298.304 282.773 298.619 282.659 298.847 282.43C299.076 282.193 299.19 281.854 299.19 281.416V274.059H301.333V281.43C301.333 282.411 301.023 283.193 300.404 283.773C299.794 284.344 298.962 284.63 297.904 284.63ZM302.97 284.487V274.059H306.527C307.26 274.059 307.899 274.197 308.442 274.473C308.993 274.75 309.417 275.136 309.713 275.63C310.017 276.126 310.17 276.707 310.17 277.373C310.17 278.03 310.017 278.611 309.713 279.116C309.407 279.611 308.984 279.997 308.442 280.273C307.899 280.55 307.26 280.687 306.527 280.687H305.113V284.487H302.97ZM305.113 278.83H306.527C306.984 278.83 307.346 278.693 307.613 278.416C307.889 278.14 308.027 277.793 308.027 277.373C308.027 276.954 307.889 276.607 307.613 276.33C307.346 276.054 306.984 275.916 306.527 275.916H305.113V278.83ZM311.336 284.487V274.059H314.722C315.444 274.059 316.073 274.197 316.607 274.473C317.15 274.75 317.569 275.14 317.864 275.644C318.169 276.14 318.322 276.726 318.322 277.401V281.13C318.322 281.797 318.169 282.383 317.864 282.887C317.569 283.393 317.15 283.787 316.607 284.073C316.073 284.35 315.444 284.487 314.722 284.487H311.336ZM313.479 282.559H314.722C315.15 282.559 315.497 282.426 315.764 282.159C316.04 281.893 316.179 281.55 316.179 281.13V277.401C316.179 276.983 316.04 276.644 315.764 276.387C315.497 276.121 315.15 275.987 314.722 275.987H313.479V282.559ZM319.202 284.487L321.759 274.059H324.473L327.059 284.487H324.873L324.373 282.13H321.887L321.387 284.487H319.202ZM322.244 280.416H324.002L323.502 277.901C323.434 277.54 323.363 277.183 323.287 276.83C323.22 276.469 323.167 276.187 323.13 275.987C323.092 276.187 323.039 276.464 322.973 276.816C322.916 277.169 322.849 277.526 322.773 277.887L322.244 280.416ZM330.467 284.487V275.987H327.824V274.059H335.253V275.987H332.61V284.487H330.467ZM336.804 284.487V274.059H343.233V275.916H338.904V278.259H342.733V280.03H338.904V282.63H343.233V284.487H336.804ZM277.743 305.916V295.487H281.3C282.034 295.487 282.672 295.626 283.214 295.901C283.767 296.179 284.192 296.564 284.486 297.059C284.792 297.554 284.943 298.136 284.943 298.801C284.943 299.459 284.792 300.04 284.486 300.544C284.182 301.04 283.757 301.426 283.214 301.701C282.672 301.979 282.034 302.116 281.3 302.116H279.886V305.916H277.743ZM279.886 300.259H281.3C281.757 300.259 282.12 300.121 282.386 299.844C282.663 299.569 282.8 299.221 282.8 298.801C282.8 298.383 282.663 298.036 282.386 297.759C282.12 297.483 281.757 297.344 281.3 297.344H279.886V300.259ZM289.494 306.059C288.437 306.059 287.6 305.773 286.98 305.201C286.372 304.63 286.066 303.85 286.066 302.859V295.487H288.209V302.844C288.209 303.283 288.319 303.621 288.537 303.859C288.766 304.087 289.086 304.201 289.494 304.201C289.894 304.201 290.209 304.087 290.437 303.859C290.666 303.621 290.78 303.283 290.78 302.844V295.487H292.923V302.859C292.923 303.84 292.614 304.621 291.994 305.201C291.386 305.773 290.552 306.059 289.494 306.059ZM294.562 305.916V295.487H297.919C298.613 295.487 299.219 295.601 299.733 295.83C300.256 296.05 300.662 296.359 300.947 296.759C301.242 297.159 301.39 297.63 301.39 298.173C301.39 298.564 301.313 298.916 301.162 299.23C301.019 299.544 300.813 299.801 300.547 300.001C300.29 300.193 299.99 300.311 299.647 300.359V300.387C300.037 300.426 300.38 300.564 300.676 300.801C300.98 301.03 301.213 301.326 301.376 301.687C301.547 302.05 301.633 302.454 301.633 302.901C301.633 303.501 301.48 304.03 301.176 304.487C300.88 304.936 300.462 305.287 299.919 305.544C299.384 305.793 298.762 305.916 298.047 305.916H294.562ZM296.633 304.187H297.976C298.442 304.187 298.809 304.064 299.076 303.816C299.342 303.569 299.476 303.226 299.476 302.787C299.476 302.35 299.342 302.007 299.076 301.759C298.809 301.501 298.442 301.373 297.976 301.373H296.633V304.187ZM296.633 299.687H297.89C298.309 299.687 298.637 299.579 298.876 299.359C299.113 299.13 299.233 298.826 299.233 298.444C299.233 298.054 299.113 297.754 298.876 297.544C298.637 297.326 298.309 297.216 297.89 297.216H296.633V299.687ZM303.67 305.916V295.487H305.813V303.987H310.027V305.916H303.67ZM311.579 305.916V303.987H313.65V297.416H311.579V295.487H317.864V297.416H315.793V303.987H317.864V305.916H311.579ZM323.244 306.059C322.549 306.059 321.939 305.93 321.416 305.673C320.892 305.407 320.482 305.04 320.187 304.573C319.902 304.097 319.759 303.544 319.759 302.916V298.487C319.759 297.85 319.902 297.297 320.187 296.83C320.482 296.364 320.892 296.001 321.416 295.744C321.939 295.479 322.549 295.344 323.244 295.344C323.949 295.344 324.559 295.479 325.073 295.744C325.596 296.001 326.002 296.364 326.287 296.83C326.582 297.297 326.73 297.85 326.73 298.487H324.587C324.587 298.069 324.467 297.75 324.23 297.53C324.002 297.311 323.673 297.201 323.244 297.201C322.816 297.201 322.482 297.311 322.244 297.53C322.016 297.75 321.902 298.069 321.902 298.487V302.916C321.902 303.326 322.016 303.644 322.244 303.873C322.482 304.093 322.816 304.201 323.244 304.201C323.673 304.201 324.002 304.093 324.23 303.873C324.467 303.644 324.587 303.326 324.587 302.916H326.73C326.73 303.544 326.582 304.097 326.287 304.573C326.002 305.04 325.596 305.407 325.073 305.673C324.559 305.93 323.949 306.059 323.244 306.059ZM286.137 327.344V316.916H288.28V321.001H289.28L291.023 316.916H293.337L291.166 321.844L293.423 327.344H291.08L289.294 322.873H288.28V327.344H286.137ZM294.762 327.344V316.916H301.19V318.773H296.862V321.116H300.69V322.887H296.862V325.487H301.19V327.344H294.762ZM305.242 327.344V323.63L302.242 316.916H304.484L305.799 320.059C305.932 320.373 306.046 320.707 306.142 321.059C306.246 321.411 306.317 321.697 306.356 321.916C306.403 321.697 306.47 321.411 306.556 321.059C306.65 320.707 306.76 320.373 306.884 320.059L308.156 316.916H310.384L307.384 323.63V327.344H305.242ZM314.75 327.487C314.016 327.487 313.373 327.359 312.822 327.101C312.279 326.844 311.854 326.483 311.55 326.016C311.254 325.54 311.107 324.983 311.107 324.344H313.193C313.193 324.736 313.33 325.05 313.607 325.287C313.893 325.516 314.273 325.63 314.75 325.63C315.216 325.63 315.579 325.521 315.836 325.301C316.102 325.073 316.236 324.773 316.236 324.401C316.236 324.107 316.15 323.844 315.979 323.616C315.807 323.379 315.554 323.221 315.222 323.144L313.95 322.844C313.13 322.654 312.479 322.287 311.993 321.744C311.516 321.193 311.279 320.536 311.279 319.773C311.279 319.154 311.412 318.621 311.679 318.173C311.954 317.726 312.344 317.383 312.85 317.144C313.364 316.897 313.969 316.773 314.664 316.773C315.369 316.773 315.973 316.897 316.479 317.144C316.993 317.383 317.387 317.726 317.664 318.173C317.95 318.621 318.093 319.15 318.093 319.759H316.007C316.007 319.397 315.887 319.116 315.65 318.916C315.412 318.707 315.083 318.601 314.664 318.601C314.254 318.601 313.936 318.701 313.707 318.901C313.479 319.101 313.364 319.369 313.364 319.701C313.364 319.979 313.45 320.201 313.622 320.373C313.793 320.544 314.036 320.669 314.35 320.744L315.664 321.044C316.483 321.226 317.13 321.621 317.607 322.23C318.093 322.83 318.336 323.554 318.336 324.401C318.336 325.021 318.187 325.564 317.893 326.03C317.607 326.497 317.193 326.859 316.65 327.116C316.116 327.364 315.483 327.487 314.75 327.487Z" fill="#5C9A53"/>
<path d="M357.143 108.571H348.571C346.994 108.571 345.714 109.851 345.714 111.429V120C345.714 121.578 346.994 122.857 348.571 122.857H357.143C358.721 122.857 360 121.578 360 120V111.429C360 109.851 358.721 108.571 357.143 108.571Z" fill="#646464"/>
<path d="M357.143 128.571H348.571C346.994 128.571 345.714 129.851 345.714 131.429V140C345.714 141.578 346.994 142.857 348.571 142.857H357.143C358.721 142.857 360 141.578 360 140V131.429C360 129.851 358.721 128.571 357.143 128.571Z" fill="#646464"/>
<path d="M357.143 148.571H348.571C346.994 148.571 345.714 149.851 345.714 151.429V160C345.714 161.578 346.994 162.857 348.571 162.857H357.143C358.721 162.857 360 161.578 360 160V151.429C360 149.851 358.721 148.571 357.143 148.571Z" fill="#646464"/>
<path d="M357.143 168.571H348.571C346.994 168.571 345.714 169.851 345.714 171.429V180C345.714 181.578 346.994 182.857 348.571 182.857H357.143C358.721 182.857 360 181.578 360 180V171.429C360 169.851 358.721 168.571 357.143 168.571Z" fill="#646464"/>
<path d="M357.143 188.571H348.571C346.994 188.571 345.714 189.851 345.714 191.429V200C345.714 201.578 346.994 202.857 348.571 202.857H357.143C358.721 202.857 360 201.578 360 200V191.429C360 189.851 358.721 188.571 357.143 188.571Z" fill="#646464"/>
<path d="M525.714 108.571H517.143C515.565 108.571 514.286 109.851 514.286 111.429V120C514.286 121.578 515.565 122.857 517.143 122.857H525.714C527.292 122.857 528.571 121.578 528.571 120V111.429C528.571 109.851 527.292 108.571 525.714 108.571Z" fill="#646464"/>
<path d="M525.714 128.571H517.143C515.565 128.571 514.286 129.851 514.286 131.429V140C514.286 141.578 515.565 142.857 517.143 142.857H525.714C527.292 142.857 528.571 141.578 528.571 140V131.429C528.571 129.851 527.292 128.571 525.714 128.571Z" fill="#646464"/>
<path d="M525.714 168.571H517.143C515.565 168.571 514.286 169.851 514.286 171.429V180C514.286 181.578 515.565 182.857 517.143 182.857H525.714C527.292 182.857 528.571 181.578 528.571 180V171.429C528.571 169.851 527.292 168.571 525.714 168.571Z" fill="#646464"/>
<path d="M525.714 188.571H517.143C515.565 188.571 514.286 189.851 514.286 191.429V200C514.286 201.578 515.565 202.857 517.143 202.857H525.714C527.292 202.857 528.571 201.578 528.571 200V191.429C528.571 189.851 527.292 188.571 525.714 188.571Z" fill="#646464"/>
<path d="M390 235.714V244.286C390 245.864 391.279 247.143 392.857 247.143H401.429C403.007 247.143 404.286 245.864 404.286 244.286V235.714C404.286 234.136 403.007 232.857 401.429 232.857H392.857C391.279 232.857 390 234.136 390 235.714Z" fill="#646464"/>
<path d="M410 235.714V244.286C410 245.864 411.279 247.143 412.857 247.143H421.429C423.007 247.143 424.286 245.864 424.286 244.286V235.714C424.286 234.136 423.007 232.857 421.429 232.857H412.857C411.279 232.857 410 234.136 410 235.714Z" fill="#646464"/>
<path d="M430 235.714V244.286C430 245.864 431.279 247.143 432.857 247.143H441.429C443.007 247.143 444.286 245.864 444.286 244.286V235.714C444.286 234.136 443.007 232.857 441.429 232.857H432.857C431.279 232.857 430 234.136 430 235.714Z" fill="#646464"/>
<path d="M450 235.714V244.286C450 245.864 451.279 247.143 452.857 247.143H461.429C463.007 247.143 464.286 245.864 464.286 244.286V235.714C464.286 234.136 463.007 232.857 461.429 232.857H452.857C451.279 232.857 450 234.136 450 235.714Z" fill="#646464"/>
<path d="M470 235.714V244.286C470 245.864 471.279 247.143 472.857 247.143H481.429C483.007 247.143 484.286 245.864 484.286 244.286V235.714C484.286 234.136 483.007 232.857 481.429 232.857H472.857C471.279 232.857 470 234.136 470 235.714Z" fill="#646464"/>
<path d="M390 67.1428V75.7143C390 77.2922 391.279 78.5714 392.857 78.5714H401.429C403.007 78.5714 404.286 77.2922 404.286 75.7143V67.1428C404.286 65.5649 403.007 64.2857 401.429 64.2857H392.857C391.279 64.2857 390 65.5649 390 67.1428Z" fill="#646464"/>
<path d="M410 67.1428V75.7143C410 77.2922 411.279 78.5714 412.857 78.5714H421.429C423.007 78.5714 424.286 77.2922 424.286 75.7143V67.1428C424.286 65.5649 423.007 64.2857 421.429 64.2857H412.857C411.279 64.2857 410 65.5649 410 67.1428Z" fill="#646464"/>
<path d="M450 67.1428V75.7143C450 77.2922 451.279 78.5714 452.857 78.5714H461.429C463.007 78.5714 464.286 77.2922 464.286 75.7143V67.1428C464.286 65.5649 463.007 64.2857 461.429 64.2857H452.857C451.279 64.2857 450 65.5649 450 67.1428Z" fill="#646464"/>
<path d="M470 67.1428V75.7143C470 77.2922 471.279 78.5714 472.857 78.5714H481.429C483.007 78.5714 484.286 77.2922 484.286 75.7143V67.1428C484.286 65.5649 483.007 64.2857 481.429 64.2857H472.857C471.279 64.2857 470 65.5649 470 67.1428Z" fill="#646464"/>
</svg>
